<svg xmlns="http://www.w3.org/2000/svg" width="3337" height="1e3" viewBox="0 0 3337 1e3" fill="none">
    <g clip-path="url(#clip0_1057_16)">
        <path
            d="M151.919 334.27V573.742H0V27.031H151.919V262.695L321.734 27.031H496.88L295.843 292.391 506.779 573.742H322.877L151.919 334.27z"
            fill="#1a202c" />
        <path
            d="M723.427 133.632c62.062.0 105.467 27.031 127.932 65.864V138.962H1003.66v435.16H851.359V513.588C828.894 552.421 784.727 579.452 723.427 579.452c-103.184.0-185.426-84.519-185.426-223.481C538.001 217.009 620.243 133.632 723.427 133.632zm49.116 132.49c-43.405.0-79.196 30.838-79.196 89.849S729.138 446.582 772.543 446.582c43.406.0 79.196-31.98 79.196-90.611C851.359 297.721 815.187 266.122 772.543 266.122z"
            fill="#1a202c" />
        <path
            d="M1386.69 340.362c0-50.255-27.79-79.951-71.2000000000001-79.951-43.4000000000001.0-72.72 29.315-72.72 79.951v233.38H1090.85V138.962h151.92v62.057C1268.28 163.709 1313.97 135.155 1375.27 135.155c100.9.0 163.72 71.194 163.72 185.409V574.122H1387.07V340.362H1386.69z"
            fill="#1a202c" />
        <path
            d="M1901.47 133.632c103.94.0 185.42 83.758 185.42 222.72C2086.89 495.314 2005.41 579.833 1901.47 579.833c-61.3.0-103.95-26.269-127.17-65.8639999999999v60.534H1622.38V0H1774.3V199.115C1797.52 159.901 1840.93 133.632 1901.47 133.632zm-47.98 132.49C1810.85 266.122 1774.3 298.102 1774.3 355.971 1774.3 413.84 1810.85 446.582 1853.49 446.582 1896.14 446.582 1932.69 413.84 1932.69 355.971 1932.31 296.96 1896.14 266.122 1853.49 266.122z"
            fill="#1a202c" />
        <path
            d="M2351.9 579.453c-129.46.0-227.31-84.52-227.31-223.482C2124.59 217.009 2223.2 133.251 2352.66 133.251c129.45.0 228.07 84.52 228.07 222.72C2580.73 494.172 2481.35 579.453 2351.9 579.453zm0-132.11C2390.73 447.343 2426.52 418.79 2426.52 355.971 2426.52 293.153 2391.49 265.36 2353.04 265.36c-38.46.0-72.73 28.554-72.73 90.611C2279.93 418.79 2312.3 447.343 2351.9 447.343z"
            fill="#1a202c" />
        <path
            d="M2939.01 340.362C2939.01 290.107 2911.22 260.411 2867.81 260.411 2824.41 260.411 2795.09 289.726 2795.09 340.362v233.38H2643.17V138.962h151.92v62.057C2820.6 163.709 2866.29 135.155 2927.59 135.155c100.9.0 163.72 71.194 163.72 185.409V574.122H2939.39V340.362H2939.01z"
            fill="#1a202c" />
        <path
            d="M3248.56 580.214C3194.12 580.214 3159.47 545.949 3159.47 501.786 3159.47 457.623 3194.5 422.597 3248.56 422.597 3302.63 422.597 3336.9 457.623 3336.9 501.786 3336.9 545.949 3301.87 580.214 3248.56 580.214z"
            fill="#1a202c" />
    </g>
    <path
        d="M119.211 886.033H35.5264L19.4737 929.624H0L67.1054 748.432H87.8949L154.737 929.624H135.263l-16.052-43.591zm-5.527-15.231L77.3686 771.54 41.0527 870.802H113.684z"
        fill="#a0aec0" />
    <path
        d="M244.565 784.145C258.073 784.145 269.828 787.296 279.828 793.599 289.828 799.901 297.021 807.866 301.407 817.495V786.246h18.421V933.3C319.828 946.43 316.933 958.072 311.144 968.226 305.53 978.38 297.635 986.17 287.459 991.597 277.284 997.199 265.705 1e3 252.723 1e3 234.301 1e3 218.951 995.623 206.67 986.87 194.565 978.117 187.021 966.213 184.038 951.157h18.158C205.354 961.136 211.319 969.101 220.091 975.053 229.038 981.006 239.916 983.982 252.723 983.982 262.021 983.982 270.354 981.968 277.723 977.942 285.091 974.091 290.881 968.313 295.091 960.611 299.302 952.908 301.407 943.804 301.407 933.3V897.85C296.845 907.653 289.565 915.794 279.565 922.271 269.74 928.574 258.073 931.725 244.565 931.725 231.407 931.725 219.565 928.661 209.038 922.534 198.687 916.407 190.529 907.741 184.565 896.537 178.775 885.333 175.88 872.378 175.88 857.672 175.88 842.967 178.775 830.1 184.565 819.071c5.964-11.205 14.122-19.783 24.473-25.735C219.565 787.209 231.407 784.145 244.565 784.145zm56.842 73.79C301.407 846.381 299.038 836.227 294.302 827.474 289.565 818.72 283.074 811.98 274.828 807.254 266.758 802.527 257.81 800.164 247.986 800.164 237.81 800.164 228.687 802.439 220.617 806.991 212.547 811.543 206.144 818.195 201.407 826.948 196.845 835.527 194.565 845.768 194.565 857.672c0 11.73 2.28 22.059 6.84200000000001 30.987C206.144 897.412 212.547 904.152 220.617 908.879 228.687 913.431 237.81 915.706 247.986 915.706 257.81 915.706 266.758 913.343 274.828 908.616 283.074 903.89 289.565 897.15 294.302 888.396 299.038 879.643 301.407 869.489 301.407 857.935z"
        fill="#a0aec0" />
    <path
        d="M491.882 850.582C491.882 856.885 491.707 861.699 491.356 865.025H372.145C372.671 875.879 375.303 885.158 380.04 892.86 384.777 900.563 391.005 906.428 398.724 910.454 406.443 914.306 414.864 916.232 423.987 916.232 435.917 916.232 445.917 913.343 453.987 907.566 462.233 901.789 467.672 893.998 470.303 884.195h19.474C486.268 898.2 478.724 909.667 467.145 918.595 455.742 927.348 441.356 931.725 423.987 931.725c-13.509.0-25.614-2.976-36.316-8.928C376.97 916.669 368.549 908.091 362.408 897.062 356.443 885.858 353.461 872.815 353.461 857.935c0-14.881 2.98199999999997-27.923 8.947-39.127C368.373 807.604 376.707 799.026 387.408 793.073c10.702-5.952 22.895-8.928 36.579-8.928 13.685.0 25.614 2.976 35.79 8.928C470.128 799.026 478.023 807.079 483.461 817.232 489.075 827.211 491.882 838.328 491.882 850.582zM473.198 850.057C473.373 839.378 471.18 830.275 466.619 822.747 462.233 815.219 456.18 809.53 448.461 805.678 440.742 801.827 432.321 799.901 423.198 799.901c-13.684.0-25.351 4.37700000000007-35 13.13C378.549 821.784 373.198 834.126 372.145 850.057H473.198z"
        fill="#a0aec0" />
    <path
        d="M592.954 783.62C610.147 783.62 624.182 788.959 635.059 799.638 645.936 810.142 651.375 825.46 651.375 845.593V929.624H633.217V847.694C633.217 832.113 629.269 820.208 621.375 811.98 613.655 803.752 603.041 799.638 589.532 799.638 575.673 799.638 564.62 804.015 556.375 812.768 548.129 821.521 544.006 834.389 544.006 851.37v78.254H525.585V786.246H544.006V810.667C548.567 801.914 555.146 795.262 563.743 790.71 572.339 785.983 582.076 783.62 592.954 783.62z"
        fill="#a0aec0" />
    <path
        d="M716.062 801.739V890.76C716.062 899.513 717.729 905.553 721.062 908.879 724.396 912.205 730.273 913.868 738.694 913.868h16.842v15.756H735.799c-12.982.0-22.631-2.976-28.947-8.928C700.536 914.568 697.378 904.59 697.378 890.76V801.739h-20V786.246h20V750.27h18.684v35.976H755.536V801.739H716.062z"
        fill="#a0aec0" />
    <path
        d="M910.39 786.246V929.624H891.969V904.415C887.759 913.343 881.268 920.171 872.496 924.897 863.724 929.624 853.899 931.987 843.022 931.987 825.829 931.987 811.794 926.735 800.917 916.232 790.039 905.553 784.601 890.147 784.601 870.014V786.246h18.158v81.668c0 15.58 3.85900000000004 27.485 11.579 35.713C822.232 911.855 832.934 915.969 846.443 915.969c13.86.0 24.912-4.37700000000007 33.158-13.13C887.847 894.086 891.969 881.219 891.969 864.237V786.246H910.39z"
        fill="#a0aec0" />
    <path
        d="M970.868 811.718C974.903 802.79 981.043 795.874 989.289 790.973 997.71 786.071 1007.97 783.62 1020.08 783.62v19.17h-5C1001.74 802.79 991.043 806.378 982.973 813.556 974.903 820.734 970.868 832.726 970.868 849.532v80.092H952.446V786.246h18.422v25.472z"
        fill="#a0aec0" />
    <path
        d="M1176.58 801.739H1143.16V929.624H1124.74V801.739h-20V786.246h20V776.267C1124.74 760.686 1128.69 749.22 1136.58 741.867 1144.65 734.514 1157.64 730.838 1175.53 730.838V746.594C1163.6 746.594 1155.18 748.87 1150.27 753.421 1145.53 757.973 1143.16 765.588 1143.16 776.267V786.246H1176.58V801.739z"
        fill="#a0aec0" />
    <path
        d="M1330.06 786.246V929.624H1311.64V904.415C1307.42 913.343 1300.93 920.171 1292.16 924.897 1283.39 929.624 1273.56 931.987 1262.69 931.987 1245.49 931.987 1231.46 926.735 1220.58 916.232 1209.71 905.553 1204.27 890.147 1204.27 870.014V786.246H1222.42v81.668C1222.42 883.494 1226.28 895.399 1234 903.627 1241.9 911.855 1252.6 915.969 1266.11 915.969 1279.97 915.969 1291.02 911.592 1299.27 902.839 1307.51 894.086 1311.64 881.219 1311.64 864.237V786.246H1330.06zM1247.95 766.026C1244.62 766.026 1241.72 764.888 1239.27 762.612 1236.99 760.161 1235.85 757.273 1235.85 753.946 1235.85 750.62 1236.99 747.819 1239.27 745.543 1241.72 743.092 1244.62 741.867 1247.95 741.867 1251.28 741.867 1254.09 743.092 1256.37 745.543 1258.83 747.819 1260.06 750.62 1260.06 753.946 1260.06 757.273 1258.83 760.161 1256.37 762.612 1254.09 764.888 1251.28 766.026 1247.95 766.026zm40.53.0C1285.14 766.026 1282.25 764.888 1279.79 762.612 1277.51 760.161 1276.37 757.273 1276.37 753.946 1276.37 750.62 1277.51 747.819 1279.79 745.543 1282.25 743.092 1285.14 741.867 1288.48 741.867 1291.81 741.867 1294.62 743.092 1296.9 745.543 1299.18 747.819 1300.32 750.62 1300.32 753.946 1300.32 757.273 1299.18 760.161 1296.9 762.612 1294.62 764.888 1291.81 766.026 1288.48 766.026z"
        fill="#a0aec0" />
    <path
        d="M1390.53 811.718C1394.57 802.79 1400.71 795.874 1408.95 790.973 1417.38 786.071 1427.64 783.62 1439.74 783.62v19.17h-5C1421.41 802.79 1410.71 806.378 1402.64 813.556 1394.57 820.734 1390.53 832.726 1390.53 849.532v80.092H1372.11V786.246H1390.53v25.472z"
        fill="#a0aec0" />
    <path
        d="M1594.14 746.069C1614.49 746.069 1631.95 749.745 1646.51 757.098 1661.07 764.45 1672.21 775.042 1679.93 788.872 1687.65 802.702 1691.51 819.158 1691.51 838.24 1691.51 857.147 1687.65 873.516 1679.93 887.346 1672.21 901.001 1661.07 911.505 1646.51 918.858 1631.95 926.035 1614.49 929.624 1594.14 929.624h-54.47V746.069h54.47zm0 168.324C1619.76 914.393 1639.23 907.741 1652.57 894.436c13.5-13.48 20.26-32.212 20.26-56.196C1672.83 814.081 1666.07 795.262 1652.57 781.782 1639.23 768.127 1619.76 761.299 1594.14 761.299H1558.09V914.393H1594.14z"
        fill="#a0aec0" />
    <path
        d="M1734.68 759.198C1731 759.198 1727.84 757.885 1725.21 755.259 1722.58 752.633 1721.26 749.395 1721.26 745.543 1721.26 741.692 1722.58 738.541 1725.21 736.09 1727.84 733.464 1731 732.151 1734.68 732.151 1738.37 732.151 1741.53 733.464 1744.16 736.09 1746.79 738.541 1748.11 741.692 1748.11 745.543 1748.11 749.395 1746.79 752.633 1744.16 755.259 1741.53 757.885 1738.37 759.198 1734.68 759.198zM1743.9 786.246V929.624H1725.47V786.246H1743.9z"
        fill="#a0aec0" />
    <path
        d="M1845.87 784.145C1859.38 784.145 1871.14 787.296 1881.14 793.599 1891.14 799.901 1898.33 807.866 1902.72 817.495V786.246H1921.14V933.3C1921.14 946.43 1918.24 958.072 1912.45 968.226 1906.84 978.38 1898.94 986.17 1888.77 991.597 1878.59 997.199 1867.01 1e3 1854.03 1e3 1835.61 1e3 1820.26 995.623 1807.98 986.87 1795.87 978.117 1788.33 966.213 1785.35 951.157H1803.5C1806.66 961.136 1812.63 969.101 1821.4 975.053 1830.35 981.006 1841.22 983.982 1854.03 983.982 1863.33 983.982 1871.66 981.968 1879.03 977.942 1886.4 974.091 1892.19 968.313 1896.4 960.611 1900.61 952.908 1902.72 943.804 1902.72 933.3V897.85C1898.15 907.653 1890.87 915.794 1880.87 922.271 1871.05 928.574 1859.38 931.725 1845.87 931.725 1832.72 931.725 1820.87 928.661 1810.35 922.534 18e2 916.407 1791.84 907.741 1785.87 896.537 1780.08 885.333 1777.19 872.378 1777.19 857.672 1777.19 842.967 1780.08 830.1 1785.87 819.071 1791.84 807.866 18e2 799.288 1810.35 793.336 1820.87 787.209 1832.72 784.145 1845.87 784.145zM1902.72 857.935C1902.72 846.381 1900.35 836.227 1895.61 827.474 1890.87 818.72 1884.38 811.98 1876.14 807.254 1868.07 802.527 1859.12 800.164 1849.29 800.164 1839.12 800.164 1830 802.439 1821.93 806.991 1813.86 811.543 1807.45 818.195 1802.72 826.948 1798.15 835.527 1795.87 845.768 1795.87 857.672 1795.87 869.402 1798.15 879.731 1802.72 888.659 1807.45 897.412 1813.86 904.152 1821.93 908.879 1830 913.431 1839.12 915.706 1849.29 915.706 1859.12 915.706 1868.07 913.343 1876.14 908.616 1884.38 903.89 1890.87 897.15 1895.61 888.396 1900.35 879.643 1902.72 869.489 1902.72 857.935z"
        fill="#a0aec0" />
    <path
        d="M1972.4 759.198C1968.72 759.198 1965.56 757.885 1962.93 755.259 1960.3 752.633 1958.98 749.395 1958.98 745.543 1958.98 741.692 1960.3 738.541 1962.93 736.09 1965.56 733.464 1968.72 732.151 1972.4 732.151 1976.09 732.151 1979.24 733.464 1981.88 736.09 1984.51 738.541 1985.82 741.692 1985.82 745.543 1985.82 749.395 1984.51 752.633 1981.88 755.259 1979.24 757.885 1976.09 759.198 1972.4 759.198zM1981.61 786.246V929.624H1963.19V786.246H1981.61z"
        fill="#a0aec0" />
    <path
        d="M2047.27 801.739V890.76C2047.27 899.513 2048.94 905.553 2052.27 908.879 2055.61 912.205 2061.48 913.868 2069.91 913.868H2086.75v15.756H2067.01C2054.03 929.624 2044.38 926.648 2038.06 920.696 2031.75 914.568 2028.59 904.59 2028.59 890.76V801.739h-20V786.246h20V750.27H2047.27v35.976h39.48V801.739h-39.48z"
        fill="#a0aec0" />
    <path
        d="M2108.71 857.672C2108.71 842.967 2111.6 830.1 2117.39 819.071 2123.36 807.866 2131.51 799.288 2141.87 793.336 2152.39 787.209 2164.23 784.145 2177.39 784.145 2191.08 784.145 2202.83 787.296 2212.65 793.599 2222.65 799.901 2229.85 807.954 2234.23 817.758V786.246H2252.65V929.624H2234.23V897.85C2229.67 907.653 2222.39 915.794 2212.39 922.271 2202.57 928.574 2190.81 931.725 2177.13 931.725 2164.15 931.725 2152.39 928.661 2141.87 922.534 2131.51 916.407 2123.36 907.741 2117.39 896.537 2111.6 885.333 2108.71 872.378 2108.71 857.672zM2234.23 857.935C2234.23 846.381 2231.87 836.227 2227.13 827.474 2222.39 818.72 2215.9 811.98 2207.65 807.254 2199.58 802.527 2190.64 800.164 2180.81 800.164 2170.64 800.164 2161.51 802.439 2153.44 806.991S2138.97 818.195 2134.23 826.948C2129.67 835.527 2127.39 845.768 2127.39 857.672 2127.39 869.402 2129.67 879.731 2134.23 888.659 2138.97 897.412 2145.37 904.152 2153.44 908.879 2161.51 913.431 2170.64 915.706 2180.81 915.706 2190.64 915.706 2199.58 913.343 2207.65 908.616 2215.9 903.89 2222.39 897.15 2227.13 888.396 2231.87 879.643 2234.23 869.489 2234.23 857.935z"
        fill="#a0aec0" />
    <path d="M2313.13 735.302V929.624H2294.71V735.302H2313.13z" fill="#a0aec0" />
    <path
        d="M2364.06 759.198C2360.37 759.198 2357.21 757.885 2354.58 755.259S2350.63 749.395 2350.63 745.543C2350.63 741.692 2351.95 738.541 2354.58 736.09 2357.21 733.464 2360.37 732.151 2364.06 732.151 2367.74 732.151 2370.9 733.464 2373.53 736.09 2376.16 738.541 2377.48 741.692 2377.48 745.543 2377.48 749.395 2376.16 752.633 2373.53 755.259 2370.9 757.885 2367.74 759.198 2364.06 759.198zM2373.27 786.246V929.624H2354.84V786.246H2373.27z"
        fill="#a0aec0" />
    <path
        d="M2464.45 931.725C2447.96 931.725 2434.45 927.961 2423.93 920.433 2413.58 912.73 2407.79 902.314 2406.56 889.184H2425.51C2426.38 897.237 2430.16 903.802 2436.82 908.879 2443.66 913.781 2452.79 916.232 2464.19 916.232 2474.19 916.232 2482 913.868 2487.61 909.141 2493.4 904.415 2496.3 898.55 2496.3 891.547 2496.3 886.646 2494.72 882.619 2491.56 879.468 2488.4 876.317 2484.37 873.866 2479.45 872.115 2474.72 870.19 2468.23 868.176 2459.98 866.075 2449.28 863.274 2440.59 860.473 2433.93 857.672 2427.26 854.871 2421.56 850.757 2416.82 845.33 2412.26 839.728 2409.98 832.288 2409.98 823.01 2409.98 816.007 2412.09 809.53 2416.3 803.577 2420.51 797.625 2426.47 792.898 2434.19 789.397 2441.91 785.896 2450.68 784.145 2460.51 784.145 2475.95 784.145 2488.4 788.084 2497.88 795.962 2507.35 803.665 2512.44 814.344 2513.14 827.999H2494.72C2494.19 819.596 2490.86 812.856 2484.72 807.779 2478.75 802.527 2470.51 799.901 2459.98 799.901 2450.68 799.901 2443.14 802.089 2437.35 806.466S2428.66 816.27 2428.66 822.747C2428.66 828.349 2430.33 832.988 2433.66 836.665 2437.17 840.166 2441.47 842.967 2446.56 845.068 2451.65 846.993 2458.49 849.182 2467.09 851.633 2477.44 854.434 2485.68 857.147 2491.82 859.773 2497.96 862.399 2503.23 866.251 2507.61 871.327 2512 876.404 2514.28 883.144 2514.45 891.547 2514.45 899.25 2512.35 906.165 2508.14 912.293 2503.93 918.245 2498.05 922.972 2490.51 926.473 2482.96 929.974 2474.28 931.725 2464.45 931.725z"
        fill="#a0aec0" />
    <path
        d="M2558.34 759.198C2554.66 759.198 2551.5 757.885 2548.87 755.259 2546.23 752.633 2544.92 749.395 2544.92 745.543 2544.92 741.692 2546.23 738.541 2548.87 736.09 2551.5 733.464 2554.66 732.151 2558.34 732.151 2562.02 732.151 2565.18 733.464 2567.81 736.09 2570.45 738.541 2571.76 741.692 2571.76 745.543 2571.76 749.395 2570.45 752.633 2567.81 755.259 2565.18 757.885 2562.02 759.198 2558.34 759.198zM2567.55 786.246V929.624H2549.13V786.246H2567.55z"
        fill="#a0aec0" />
    <path
        d="M2739.27 850.582C2739.27 856.885 2739.09 861.699 2738.74 865.025H2619.53C2620.05 875.879 2622.69 885.158 2627.42 892.86 2632.16 900.563 2638.39 906.428 2646.11 910.454 2653.83 914.306 2662.25 916.232 2671.37 916.232 2683.3 916.232 2693.3 913.343 2701.37 907.566 2709.62 901.789 2715.05 893.998 2717.69 884.195H2737.16C2733.65 898.2 2726.11 909.667 2714.53 918.595 2703.13 927.348 2688.74 931.725 2671.37 931.725 2657.86 931.725 2645.76 928.749 2635.05 922.797 2624.35 916.669 2615.93 908.091 2609.79 897.062 2603.83 885.858 2600.84 872.815 2600.84 857.935 2600.84 843.054 2603.83 830.012 2609.79 818.808 2615.76 807.604 2624.09 799.026 2634.79 793.073 2645.49 787.121 2657.69 784.145 2671.37 784.145 2685.05 784.145 2696.98 787.121 2707.16 793.073 2717.51 799.026 2725.41 807.079 2730.84 817.232 2736.46 827.211 2739.27 838.328 2739.27 850.582zM2720.58 850.057C2720.76 839.378 2718.56 830.275 2714 822.747 2709.62 815.219 2703.56 809.53 2695.84 805.678 2688.12 801.827 2679.7 799.901 2670.58 799.901 2656.9 799.901 2645.23 804.278 2635.58 813.031 2625.93 821.784 2620.58 834.126 2619.53 850.057h101.05z"
        fill="#a0aec0" />
    <path
        d="M2791.39 811.718C2795.42 802.79 2801.57 795.874 2809.81 790.973 2818.23 786.071 2828.49 783.62 2840.6 783.62v19.17h-5C2822.27 802.79 2811.56 806.378 2803.49 813.556 2795.42 820.734 2791.39 832.726 2791.39 849.532v80.092H2772.97V786.246H2791.39v25.472z"
        fill="#a0aec0" />
    <path
        d="M2992.79 786.246V929.624H2974.36V904.415C2970.15 913.343 2963.66 920.171 2954.89 924.897 2946.12 929.624 2936.29 931.987 2925.42 931.987 2908.22 931.987 2894.19 926.735 2883.31 916.232 2872.43 905.553 2867 890.147 2867 870.014V786.246H2885.15v81.668C2885.15 883.494 2889.01 895.399 2896.73 903.627 2904.63 911.855 2915.33 915.969 2928.84 915.969 2942.7 915.969 2953.75 911.592 2962 902.839 2970.24 894.086 2974.36 881.219 2974.36 864.237V786.246H2992.79z"
        fill="#a0aec0" />
    <path
        d="M3102.21 783.62C3119.4 783.62 3133.44 788.959 3144.32 799.638 3155.19 810.142 3160.63 825.46 3160.63 845.593V929.624H3142.47V847.694C3142.47 832.113 3138.53 820.208 3130.63 811.98 3122.91 803.752 3112.3 799.638 3098.79 799.638 3084.93 799.638 3073.88 804.015 3065.63 812.768 3057.39 821.521 3053.26 834.389 3053.26 851.37v78.254H3034.84V786.246H3053.26V810.667C3057.82 801.914 3064.4 795.262 3073 790.71 3081.6 785.983 3091.33 783.62 3102.21 783.62z"
        fill="#a0aec0" />
    <path
        d="M3261.63 784.145C3275.14 784.145 3286.9 787.296 3296.9 793.599 3306.9 799.901 3314.09 807.866 3318.48 817.495V786.246H3336.9V933.3C3336.9 946.43 3334 958.072 3328.21 968.226 3322.6 978.38 3314.71 986.17 3304.53 991.597 3294.35 997.199 3282.78 1e3 3269.79 1e3 3251.37 1e3 3236.02 995.623 3223.74 986.87 3211.64 978.117 3204.09 966.213 3201.11 951.157H3219.27C3222.42 961.136 3228.39 969.101 3237.16 975.053 3246.11 981.006 3256.99 983.982 3269.79 983.982 3279.09 983.982 3287.42 981.968 3294.79 977.942 3302.16 974.091 3307.95 968.313 3312.16 960.611 3316.37 952.908 3318.48 943.804 3318.48 933.3V897.85C3313.92 907.653 3306.64 915.794 3296.64 922.271 3286.81 928.574 3275.14 931.725 3261.63 931.725 3248.48 931.725 3236.63 928.661 3226.11 922.534 3215.76 916.407 3207.6 907.741 3201.63 896.537 3195.85 885.333 3192.95 872.378 3192.95 857.672 3192.95 842.967 3195.85 830.1 3201.63 819.071 3207.6 807.866 3215.76 799.288 3226.11 793.336 3236.63 787.209 3248.48 784.145 3261.63 784.145zM3318.48 857.935C3318.48 846.381 3316.11 836.227 3311.37 827.474 3306.64 818.72 3300.14 811.98 3291.9 807.254 3283.83 802.527 3274.88 800.164 3265.06 800.164 3254.88 800.164 3245.76 802.439 3237.69 806.991S3223.21 818.195 3218.48 826.948C3213.92 835.527 3211.63 845.768 3211.63 857.672 3211.63 869.402 3213.92 879.731 3218.48 888.659 3223.21 897.412 3229.62 904.152 3237.69 908.879 3245.76 913.431 3254.88 915.706 3265.06 915.706 3274.88 915.706 3283.83 913.343 3291.9 908.616 3300.14 903.89 3306.64 897.15 3311.37 888.396 3316.11 879.643 3318.48 869.489 3318.48 857.935z"
        fill="#a0aec0" />
    <defs>
        <clipPath id="clip0_1057_16">
            <rect width="3336.9" height="580.214" fill="#fff" />
        </clipPath>
    </defs>
</svg>