<?xml version="1.0" encoding="UTF-8" standalone="no"?>
<!DOCTYPE svg PUBLIC "-//W3C//DTD SVG 20010904//EN"
              "http://www.w3.org/TR/2001/REC-SVG-20010904/DTD/svg10.dtd">

<svg id="Ebene_1"
     xmlns="http://www.w3.org/2000/svg"
     xmlns:xlink="http://www.w3.org/1999/xlink"
     x="0px"
     y="0px"
     viewBox="0 0 1000 177"
     xml:space="preserve"
     class="img-fluid w-100 mb-4"
     style="max-height: 150px;">
     <style type="text/css">
	    .st1{fill:#1E1E1C;}
      </style>
     <g>
  <path class="st1"
        d="M 70.80,99.10
           C 70.80,99.10 57.50,99.10 57.50,99.10
             57.50,99.10 57.50,128.70 57.50,128.70
             57.50,128.70 47.00,128.70 47.00,128.70
             47.00,128.70 47.00,51.20 47.00,51.20
             47.00,51.20 70.40,51.20 70.40,51.20
             88.40,51.20 91.80,65.50 91.80,72.40
             91.80,72.40 91.80,77.80 91.80,77.80
             91.80,84.80 88.40,99.10 70.80,99.10 Z
           M 81.30,72.50
           C 81.30,63.00 74.20,61.50 70.20,61.50
             70.20,61.50 57.60,61.50 57.60,61.50
             57.60,61.50 57.60,88.60 57.60,88.60
             57.60,88.60 70.40,88.60 70.40,88.60
             74.40,88.60 81.30,87.20 81.30,77.60
             81.30,77.60 81.30,72.50 81.30,72.50
             81.30,72.50 81.30,72.50 81.30,72.50 Z
           M 145.80,128.60
           C 145.80,128.60 145.80,93.20 145.80,93.20
             145.80,93.20 120.60,93.20 120.60,93.20
             120.60,93.20 120.60,128.60 120.60,128.60
             120.60,128.60 110.00,128.60 110.00,128.60
             110.00,128.60 110.00,51.10 110.00,51.10
             110.00,51.10 120.60,51.10 120.60,51.10
             120.60,51.10 120.60,82.70 120.60,82.70
             120.60,82.70 145.80,82.70 145.80,82.70
             145.80,82.70 145.80,51.10 145.80,51.10
             145.80,51.10 156.40,51.10 156.40,51.10
             156.40,51.10 156.40,128.60 156.40,128.60
             156.40,128.60 145.80,128.60 145.80,128.60 Z
           M 217.70,128.60
           C 217.70,128.60 212.30,107.50 212.30,107.50
             212.30,107.50 188.90,107.50 188.90,107.50
             188.90,107.50 183.40,128.60 183.40,128.60
             183.40,128.60 172.50,128.60 172.50,128.60
             172.50,128.60 192.70,51.10 192.70,51.10
             192.70,51.10 207.90,51.10 207.90,51.10
             207.90,51.10 228.50,128.60 228.50,128.60
             228.50,128.60 217.70,128.60 217.70,128.60 Z
           M 200.60,62.10
           C 200.60,62.10 191.40,97.10 191.40,97.10
             191.40,97.10 209.60,97.10 209.60,97.10
             209.60,97.10 200.60,62.10 200.60,62.10 Z
           M 280.00,128.60
           C 280.00,128.60 265.20,97.00 265.20,97.00
             265.20,97.00 255.00,97.00 255.00,97.00
             255.00,97.00 255.00,128.60 255.00,128.60
             255.00,128.60 244.40,128.60 244.40,128.60
             244.40,128.60 244.40,51.10 244.40,51.10
             244.40,51.10 267.80,51.10 267.80,51.10
             285.90,51.10 289.50,65.30 289.50,72.20
             289.50,72.20 289.50,75.80 289.50,75.80
             289.50,81.50 287.00,92.00 276.40,95.80
             276.40,95.80 292.00,128.60 292.00,128.60
             292.00,128.60 280.00,128.60 280.00,128.60 Z
           M 278.90,72.50
           C 278.90,63.00 271.60,61.50 267.60,61.50
             267.60,61.50 255.00,61.50 255.00,61.50
             255.00,61.50 255.00,86.50 255.00,86.50
             255.00,86.50 267.80,86.50 267.80,86.50
             271.80,86.50 278.90,85.10 278.90,75.60
             278.90,75.60 278.90,72.50 278.90,72.50
             278.90,72.50 278.90,72.50 278.90,72.50 Z
           M 310.90,128.60
           C 310.90,128.60 310.90,51.10 310.90,51.10
             310.90,51.10 323.10,51.10 323.10,51.10
             323.10,51.10 338.80,88.80 338.80,88.80
             338.80,88.80 354.20,51.10 354.20,51.10
             354.20,51.10 366.60,51.10 366.60,51.10
             366.60,51.10 366.60,128.60 366.60,128.60
             366.60,128.60 356.00,128.60 356.00,128.60
             356.00,128.60 356.00,74.20 356.00,74.20
             356.00,74.20 343.00,105.60 343.00,105.60
             343.00,105.60 334.50,105.60 334.50,105.60
             334.50,105.60 321.50,74.00 321.50,74.00
             321.50,74.00 321.50,128.50 321.50,128.50
             321.50,128.50 310.90,128.50 310.90,128.50
             310.90,128.50 310.90,128.60 310.90,128.60 Z
           M 427.90,128.60
           C 427.90,128.60 422.50,107.50 422.50,107.50
             422.50,107.50 399.10,107.50 399.10,107.50
             399.10,107.50 393.60,128.60 393.60,128.60
             393.60,128.60 382.70,128.60 382.70,128.60
             382.70,128.60 402.90,51.10 402.90,51.10
             402.90,51.10 418.10,51.10 418.10,51.10
             418.10,51.10 438.70,128.60 438.70,128.60
             438.70,128.60 427.90,128.60 427.90,128.60 Z
           M 410.80,62.10
           C 410.80,62.10 401.60,97.10 401.60,97.10
             401.60,97.10 419.80,97.10 419.80,97.10
             419.80,97.10 410.80,62.10 410.80,62.10 Z
           M 453.60,128.60
           C 453.60,128.60 453.60,119.60 453.60,119.60
             453.60,119.60 484.20,61.60 484.20,61.60
             484.20,61.60 455.20,61.60 455.20,61.60
             455.20,61.60 455.20,51.20 455.20,51.20
             455.20,51.20 496.40,51.20 496.40,51.20
             496.40,51.20 496.40,60.00 496.40,60.00
             496.40,60.00 465.90,118.30 465.90,118.30
             465.90,118.30 498.00,118.30 498.00,118.30
             498.00,118.30 498.00,128.60 498.00,128.60
             498.00,128.60 453.60,128.60 453.60,128.60 Z
           M 525.10,51.10
           C 525.10,51.10 525.10,128.60 525.10,128.60
             525.10,128.60 514.50,128.60 514.50,128.60
             514.50,128.60 514.50,51.10 514.50,51.10
             514.50,51.10 525.10,51.10 525.10,51.10 Z
           M 547.20,128.60
           C 547.20,128.60 547.20,51.10 547.20,51.10
             547.20,51.10 590.30,51.10 590.30,51.10
             590.30,51.10 590.30,61.50 590.30,61.50
             590.30,61.50 557.80,61.50 557.80,61.50
             557.80,61.50 557.80,82.60 557.80,82.60
             557.80,82.60 587.90,82.60 587.90,82.60
             587.90,82.60 587.90,93.00 587.90,93.00
             587.90,93.00 557.80,93.00 557.80,93.00
             557.80,93.00 557.80,118.10 557.80,118.10
             557.80,118.10 590.30,118.10 590.30,118.10
             590.30,118.10 590.30,128.50 590.30,128.50
             590.30,128.50 547.20,128.60 547.20,128.60 Z
           M 630.20,129.50
           C 612.70,129.50 607.90,115.10 607.90,108.00
             607.90,108.00 607.90,71.40 607.90,71.40
             607.90,64.60 612.40,50.40 630.40,50.40
             647.70,50.40 652.80,63.90 652.80,71.50
             652.80,71.50 642.10,71.50 642.10,71.50
             642.10,62.30 634.00,60.70 630.40,60.70
             626.50,60.70 618.40,62.20 618.40,71.60
             618.40,71.60 618.40,108.00 618.40,108.00
             618.40,117.50 626.50,119.20 630.40,119.20
             634.10,119.20 642.30,117.50 642.30,108.00
             642.30,108.00 642.30,95.20 642.30,95.20
             642.30,95.20 628.90,95.20 628.90,95.20
             628.90,95.20 628.90,84.80 628.90,84.80
             628.90,84.80 652.80,84.80 652.80,84.80
             652.80,84.80 652.80,108.20 652.80,108.20
             652.90,115.20 647.80,129.50 630.20,129.50 Z
           M 713.00,128.60
           C 713.00,128.60 707.60,107.50 707.60,107.50
             707.60,107.50 684.20,107.50 684.20,107.50
             684.20,107.50 678.70,128.60 678.70,128.60
             678.70,128.60 667.80,128.60 667.80,128.60
             667.80,128.60 688.00,51.10 688.00,51.10
             688.00,51.10 703.20,51.10 703.20,51.10
             703.20,51.10 723.80,128.60 723.80,128.60
             723.80,128.60 713.00,128.60 713.00,128.60 Z
           M 696.00,62.10
           C 696.00,62.10 686.80,97.10 686.80,97.10
             686.80,97.10 705.00,97.10 705.00,97.10
             705.00,97.10 696.00,62.10 696.00,62.10 Z
           M 759.70,129.50
           C 745.70,129.50 736.60,120.30 736.60,108.10
             736.60,108.10 747.20,108.10 747.20,108.10
             747.20,115.20 752.40,119.20 759.60,119.20
             767.80,119.20 772.90,114.40 772.90,107.90
             772.90,102.90 770.10,99.80 766.20,97.50
             763.00,95.70 758.00,93.00 748.60,88.30
             742.40,85.10 738.00,78.40 738.00,70.60
             738.00,58.90 747.00,50.50 759.90,50.50
             773.30,50.50 782.50,59.30 782.50,71.50
             782.50,71.50 771.80,71.50 771.80,71.50
             771.80,64.70 766.70,60.90 759.80,60.90
             753.50,60.90 748.50,64.50 748.50,70.90
             748.50,74.60 750.70,77.60 754.50,79.60
             760.70,82.80 766.20,85.50 771.30,88.20
             779.20,92.50 783.50,99.50 783.50,108.30
             783.40,120.50 773.10,129.50 759.70,129.50 Z
           M 822.20,129.50
           C 808.20,129.50 799.10,120.30 799.10,108.10
             799.10,108.10 809.70,108.10 809.70,108.10
             809.70,115.20 814.90,119.20 822.10,119.20
             830.30,119.20 835.40,114.40 835.40,107.90
             835.40,102.90 832.60,99.80 828.70,97.50
             825.50,95.70 820.50,93.00 811.10,88.30
             804.90,85.10 800.50,78.40 800.50,70.60
             800.50,58.90 809.50,50.50 822.40,50.50
             835.80,50.50 845.00,59.30 845.00,71.50
             845.00,71.50 834.30,71.50 834.30,71.50
             834.30,64.70 829.20,60.90 822.30,60.90
             816.00,60.90 811.00,64.50 811.00,70.90
             811.00,74.60 813.20,77.60 817.00,79.60
             823.20,82.80 828.70,85.50 833.80,88.20
             841.70,92.50 846.00,99.50 846.00,108.30
             845.90,120.50 835.60,129.50 822.20,129.50 Z
           M 864.80,128.50
           C 864.80,128.50 864.80,51.00 864.80,51.00
             864.80,51.00 907.90,51.00 907.90,51.00
             907.90,51.00 907.90,61.40 907.90,61.40
             907.90,61.40 875.40,61.40 875.40,61.40
             875.40,61.40 875.40,82.50 875.40,82.50
             875.40,82.50 905.50,82.50 905.50,82.50
             905.50,82.50 905.50,93.00 905.50,93.00
             905.50,93.00 875.40,93.00 875.40,93.00
             875.40,93.00 875.40,118.10 875.40,118.10
             875.40,118.10 907.90,118.10 907.90,118.10
             907.90,118.10 907.90,128.50 907.90,128.50
             907.90,128.50 864.80,128.50 864.80,128.50 Z
           M 939.40,81.30
           C 930.90,81.30 924.60,74.60 924.60,66.20
             924.60,57.80 930.90,51.10 939.40,51.10
             947.90,51.10 954.20,57.80 954.20,66.20
             954.20,74.60 947.90,81.30 939.40,81.30 Z
           M 939.40,53.70
           C 932.10,53.70 927.30,59.00 927.30,66.20
             927.30,73.40 932.10,78.60 939.40,78.60
             946.70,78.60 951.50,73.30 951.50,66.10
             951.50,59.00 946.70,53.70 939.40,53.70 Z
           M 942.70,73.80
           C 942.70,73.80 940.10,68.00 940.10,68.00
             940.10,68.00 937.00,68.00 937.00,68.00
             937.00,68.00 937.00,73.80 937.00,73.80
             937.00,73.80 934.20,73.80 934.20,73.80
             934.20,73.80 934.20,58.10 934.20,58.10
             934.20,58.10 940.00,58.10 940.00,58.10
             943.00,58.10 945.60,59.80 945.60,63.00
             945.60,65.10 944.70,66.70 942.80,67.60
             942.80,67.60 945.70,73.80 945.70,73.80
             945.70,73.80 942.70,73.80 942.70,73.80 Z
           M 940.00,60.60
           C 940.00,60.60 937.00,60.60 937.00,60.60
             937.00,60.60 937.00,65.40 937.00,65.40
             937.00,65.40 940.10,65.40 940.10,65.40
             941.70,65.40 942.80,64.70 942.80,62.90
             942.80,61.40 941.50,60.60 940.00,60.60 Z" />
             </g>
</svg>
