<?xml version="1.0" encoding="UTF-8" standalone="no"?>
<!DOCTYPE svg PUBLIC "-//W3C//DTD SVG 20010904//EN"
              "http://www.w3.org/TR/2001/REC-SVG-20010904/DTD/svg10.dtd">

<svg xmlns="http://www.w3.org/2000/svg"
     width="5.27778in" height="5.27778in"
     viewBox="0 0 475 475">
  <path id="Selection"
        fill="#000" stroke="none" stroke-width="1"
        d="M 382.43,91.02
           C 372.91,91.74 296.00,118.75 255.70,150.80
             255.75,150.50 214.50,181.50 175.74,224.04
             121.25,283.50 92.29,372.66 91.56,382.75
             98.95,378.71 142.25,301.75 210.21,229.37
             278.17,157.00 382.43,91.02 382.43,91.02 Z
           M 338.80,241.63
           C 320.61,241.63 273.99,261.27 273.99,261.27
             258.46,268.48 223.30,284.86 210.50,294.75
             206.12,298.14 177.50,338.00 177.50,338.00
             177.50,338.00 198.64,329.99 205.25,326.50
             205.25,326.50 242.85,306.00 246.24,306.58
             248.86,307.03 259.86,316.72 263.66,319.18
             263.66,319.18 324.59,364.81 342.76,364.96
             339.56,352.26 259.47,293.80 259.47,293.80
             259.47,293.80 337.47,247.55 337.47,247.55
             346.25,242.25 338.80,241.63 338.80,241.63 Z" />
</svg>
