<?xml version="1.0" encoding="UTF-8"?>
<svg id="Layer_1" data-name="Layer 1" xmlns="http://www.w3.org/2000/svg" viewBox="0 0 420 95.72">
  <defs>
    <style>
      .cls-1, .cls-2 {
        fill: #ff8300;
      }

      .cls-3 {
        stroke: transparent;
      }

      .cls-3, .cls-4 {
        fill: none;
        stroke-miterlimit: 10;
        stroke-width: .5px;
      }

      .cls-2 {
        isolation: isolate;
        opacity: 0;
      }

      .cls-4 {
        stroke: transparent;
      }

      .cls-5 {
        fill: #24272a;
      }
    </style>
  </defs>
  <g id="Guide">
    <polygon class="cls-2" points="49.85 27.88 74.13 46.09 74.13 70.37 49.85 70.37 25.56 52.16 25.56 27.88 49.85 27.88"/>
    <g>
      <g>
        <rect class="cls-4" x="25.56" y="27.88" width="48.57" height="42.5"/>
        <g>
          <rect class="cls-4" x="25.56" y="27.88" width="24.29" height="24.29"/>
          <rect class="cls-4" x="49.85" y="46.09" width="24.29" height="24.29"/>
        </g>
      </g>
      <line class="cls-4" x1="49.85" y1="37.01" x2="25.56" y2="37.01"/>
      <line class="cls-4" x1="49.85" y1="61.24" x2="74.13" y2="61.24"/>
      <line class="cls-4" x1="25.56" y1="49.13" x2="74.13" y2="49.13"/>
      <path class="cls-4" d="m2.16,61.98c0-22.98,18.63-41.61,41.61-41.61,14.2,0,25.72,11.51,25.72,25.72,0,8.78-7.12,15.89-15.89,15.89-5.43,0-9.82-4.4-9.82-9.82,0-3.35,2.72-6.07,6.07-6.07"/>
      <path class="cls-4" d="m97.53,36.27c0,22.98-18.63,41.61-41.61,41.61-14.2,0-25.72-11.51-25.72-25.72,0-8.78,7.12-15.89,15.89-15.89,5.43,0,9.82,4.4,9.82,9.82,0,3.35-2.72,6.07-6.07,6.07"/>
    </g>
  </g>
  <g>
    <g>
      <path class="cls-5" d="m3.69,66.75C-11.33,29.88,21.88-8.52,60.5,1.66c23.07,5.97,38.47,29.77,34.14,53.16-3.66,22.5-25.43,39.48-47.92,37.12-10.65-.91-20.88-5.88-27.99-13.76-.26-.29-.24-.73.05-.99.27-.24.68-.24.94,0,7.52,6.8,17.4,10.64,27.21,10.69,25.16.41,44.6-23.76,38.24-48-3.26-13.21-14.25-23.98-27.52-26.85-12.86-3.04-27.09,1.77-35.49,11.92-8.44,9.91-10.68,24.5-5.55,36.44,3.26,8.73-9.04,13.84-12.91,5.35h0Z"/>
      <g id="Arrows">
          <path id="snek5"
                class="cls-1"
                d="M 78.79,58.85
                  C 78.79,58.85 44.90,58.95 44.90,58.95
                    44.90,58.95 49.42,70.71 49.42,70.71
                    49.42,70.71 44.69,70.71 44.69,70.71
                    44.69,70.71 25.69,50.04 25.69,50.04
                    25.69,50.04 74.70,50.04 74.70,50.04
                    74.70,50.04 78.79,58.85 78.79,58.85 Z
                  M 20.87,39.72
                  C 20.87,39.72 54.79,39.61 54.79,39.61
                    54.79,39.61 50.24,27.85 50.24,27.85
                    50.24,27.85 55.00,27.85 55.00,27.85
                    55.00,27.85 74.01,48.50 74.01,48.50
                    74.01,48.50 24.96,48.50 24.96,48.50
                    24.96,48.50 20.87,39.72 20.87,39.72 Z" />
              </g>
      <g id="Netsnek">
        <path class="cls-5" d="m119.65,66.96v-.07c0-1.57,1.12-2.91,2.67-3.2l.92-.17c1.55-.29,2.67-1.64,2.67-3.2V22.3c0-1.57-1.12-2.91-2.67-3.2l-.92-.17c-1.55-.29-2.67-1.64-2.67-3.2v-.11c0-1.8,1.47-3.26,3.28-3.26h11.23c1.13,0,2.18.58,2.78,1.53l25.38,40.12.24-.08v-31.55c0-1.6-1.17-2.96-2.75-3.22l-1.75-.28c-1.59-.26-2.75-1.62-2.75-3.22v-.04c0-1.8,1.47-3.26,3.28-3.26h15.92c1.81,0,3.28,1.46,3.28,3.26v.11c0,1.57-1.12,2.91-2.67,3.2l-.92.17c-1.55.29-2.67,1.64-2.67,3.2v44.66c0,1.8-1.47,3.26-3.28,3.26h-4.36c-1.11,0-2.15-.56-2.76-1.49l-26.01-40.82-.24.04v32.29c0,1.6,1.17,2.96,2.75,3.22l1.75.28c1.59.26,2.75,1.62,2.75,3.22h0c0,1.8-1.47,3.26-3.28,3.26h-15.91c-1.81,0-3.28-1.46-3.28-3.26Z"/>
        <path class="cls-5" d="m198.66,70.22c-4.02,0-7.53-.89-10.51-2.68-2.98-1.79-5.3-4.26-6.94-7.42-1.64-3.16-2.47-6.78-2.47-10.85v-1.65c0-4.13.81-7.8,2.43-11.01,1.62-3.21,3.85-5.75,6.69-7.6,2.84-1.85,6.07-2.78,9.7-2.78,3.87,0,7.11.77,9.72,2.31,2.62,1.54,4.59,3.73,5.94,6.56,1.34,2.83,2.01,6.24,2.01,10.21h0c0,3.12-2.54,5.64-5.68,5.64h-20.51l-.08.2c.1,2.22.57,4.19,1.4,5.92.83,1.72,2.01,3.08,3.55,4.07,1.54.99,3.41,1.49,5.62,1.49s4.42-.31,6.31-.94c.89-.29,1.74-.65,2.57-1.05,1.54-.76,3.4-.17,4.17,1.36h0c.99,1.98.24,4.4-1.73,5.43-.94.49-1.97.95-3.08,1.36-2.6.97-5.64,1.45-9.11,1.45Zm-9.47-26.21h15.5c.57,0,1.03-.46,1.03-1.02h0c0-1.85-.28-3.48-.85-4.88-.57-1.4-1.45-2.49-2.64-3.27-1.2-.78-2.72-1.18-4.56-1.18-1.6,0-3.01.44-4.22,1.33-1.21.89-2.18,2.1-2.9,3.62-.72,1.53-1.22,3.26-1.48,5.19l.12.2Z"/>
        <path class="cls-5" d="m242.12,68.03c0,.75-.53,1.39-1.27,1.53-.41.08-.84.15-1.28.22-1.49.24-2.91.35-4.28.35-3.63,0-6.46-1.01-8.48-3.04-2.03-2.02-3.04-5.26-3.04-9.7v-26.14c0-.86-.7-1.56-1.57-1.56h-1.11c-1.96,0-3.55-1.58-3.55-3.53h0c0-1.95,1.59-3.53,3.55-3.53h1.11c.87,0,1.57-.7,1.57-1.56v-5.22c0-1.95,1.59-3.53,3.55-3.53h2.8c1.96,0,3.55,1.58,3.55,3.53v5.22c0,.86.7,1.56,1.57,1.56h3.32c1.96,0,3.55,1.58,3.55,3.53h0c0,1.95-1.59,3.53-3.55,3.53h-3.32c-.87,0-1.57.7-1.57,1.56v26.14c0,1.8.37,3.11,1.12,3.94s1.77,1.23,3.06,1.23c.74,0,1.56-.06,2.47-.2h0c.95-.14,1.79.59,1.79,1.54v4.11Z"/>
        <path class="cls-5" d="m263.05,70.22c-3.05,0-5.9-.29-8.54-.88-1.28-.28-2.56-.63-3.84-1.05-2.46-.8-4.12-3.07-4.15-5.64l-.03-3.25c-.02-2.13,1.71-3.88,3.86-3.88h.2c1.78,0,3.33,1.21,3.75,2.93l.3,1.22c.32,1.3,1.3,2.35,2.59,2.75.46.14.92.26,1.38.37,1.2.27,2.53.41,4,.41,2.84,0,4.84-.5,6.01-1.49,1.17-.99,1.75-2.22,1.75-3.68s-.61-2.62-1.83-3.62c-1.22-1.01-3.56-1.87-7-2.61-5.1-1.1-8.85-2.7-11.26-4.8-2.41-2.1-3.61-4.84-3.61-8.21,0-2.32.62-4.43,1.87-6.31,1.25-1.88,3.09-3.39,5.52-4.53,2.43-1.14,5.42-1.7,8.97-1.7,3.23,0,6.11.33,8.62,1,.9.24,1.76.51,2.57.8,2.32.85,3.87,3.04,3.92,5.49l.07,3.2c.05,2.15-1.69,3.92-3.86,3.92h0c-1.82,0-3.39-1.26-3.77-3.02l-.19-.87c-.27-1.23-1.11-2.27-2.29-2.73-.3-.12-.6-.22-.92-.31-1.08-.31-2.31-.47-3.71-.47-2.18,0-3.9.48-5.17,1.43-1.26.95-1.89,2.15-1.89,3.58,0,.84.2,1.59.61,2.27.41.68,1.2,1.3,2.37,1.86,1.17.56,2.89,1.1,5.15,1.63,5.55,1.28,9.52,2.95,11.91,5.01,2.39,2.06,3.59,4.79,3.59,8.19,0,3.79-1.39,6.9-4.18,9.32-2.79,2.43-7.05,3.64-12.78,3.64Z"/>
        <path class="cls-5" d="m283.26,66.9h0c0-1.58,1.12-2.94,2.68-3.25l1.74-.35c.87-.17,1.49-1.75,1.49-2.63v-24.89c0-.89-.64-1.65-1.51-1.81l-2-.38c-1.58-.3-2.72-1.66-2.72-3.26h0c0-1.84,1.49-3.33,3.34-3.33h10.33c.97,0,1.77.74,1.85,1.69h0c.13,1.54,1.97,2.23,3.12,1.19.79-.71,1.64-1.33,2.55-1.85,2.12-1.21,4.52-1.82,7.2-1.82,4.39,0,7.81,1.34,10.25,4.02,2.45,2.68,3.67,6.86,3.67,12.56v17.88c0,.88.63,2.46,1.49,2.63l1.74.35c1.56.31,2.68,1.67,2.68,3.25h0c0,1.83-1.49,3.32-3.34,3.32h-14.74c-1.84,0-3.34-1.48-3.34-3.32v-.03c0-1.57,1.1-2.92,2.64-3.24l1.45-.31c.86-.18,1.47-1.76,1.47-2.63v-17.82c0-3.21-.64-5.49-1.93-6.84-1.29-1.34-3.21-2.02-5.76-2.02-1.92,0-3.6.42-5.03,1.27-1.27.75-2.33,1.77-3.18,3.05-.2.3-.31.66-.31,1.03v21.34c0,.87.61,2.44,1.46,2.63l1.32.29c1.53.33,2.62,1.68,2.62,3.24v.05c0,1.83-1.49,3.32-3.34,3.32h-14.58c-1.84,0-3.34-1.48-3.34-3.32Z"/>
        <path class="cls-5" d="m352.38,70.22c-4.02,0-7.53-.89-10.51-2.68-2.98-1.79-5.3-4.26-6.94-7.42-1.64-3.16-2.46-6.78-2.46-10.85v-1.65c0-4.13.81-7.8,2.43-11.01,1.62-3.21,3.85-5.75,6.69-7.6,2.84-1.85,6.07-2.78,9.7-2.78,3.87,0,7.11.77,9.72,2.31,2.62,1.54,4.59,3.73,5.94,6.56,1.34,2.83,2.01,6.24,2.01,10.21h0c0,3.12-2.54,5.64-5.68,5.64h-20.51l-.08.2c.1,2.22.57,4.19,1.4,5.92.83,1.72,2.01,3.08,3.55,4.07,1.54.99,3.41,1.49,5.62,1.49s4.42-.31,6.31-.94c.89-.29,1.74-.65,2.57-1.05,1.54-.76,3.4-.17,4.17,1.36h0c.99,1.98.24,4.4-1.73,5.43-.94.49-1.97.95-3.08,1.36-2.6.97-5.64,1.45-9.11,1.45Zm-9.47-26.21h15.5c.57,0,1.03-.46,1.03-1.02h0c0-1.85-.28-3.48-.85-4.88-.57-1.4-1.45-2.49-2.64-3.27-1.2-.78-2.72-1.18-4.56-1.18-1.6,0-3.01.44-4.22,1.33-1.21.89-2.18,2.1-2.9,3.62-.72,1.53-1.22,3.26-1.48,5.19l.12.2Z"/>
        <path class="cls-5" d="m413.58,62.14l-11.99-15.4c-.48-.61-.41-1.48.16-2.01l9.65-8.99c.41-.38.92-.65,1.47-.78l2.16-.49c1.45-.33,2.48-1.62,2.48-3.1v-.37c0-1.76-1.43-3.18-3.2-3.18h-14.19c-1.77,0-3.2,1.42-3.2,3.18v.07c0,1.59,1.19,2.94,2.78,3.15l1.68.22-.12.16-10.62,10.01c-.96.91-2.55.23-2.55-1.09V15.53c0-1.76-1.43-3.18-3.2-3.18h-9.81c-1.77,0-3.2,1.42-3.2,3.18v.26c0,1.53,1.1,2.84,2.61,3.12l1.09.2c1.51.28,2.61,1.59,2.61,3.12v38.17c0,1.52-1.08,2.82-2.58,3.12l-.8.16c-1.5.3-2.58,1.6-2.58,3.12v.25c0,1.76,1.43,3.18,3.2,3.18h15.02c1.77,0,3.2-1.42,3.2-3.18v-.28c0-1.5-1.06-2.8-2.53-3.11l-.49-.1c-1.48-.31-2.53-1.61-2.53-3.11v-1.6c0-.88.37-1.72,1.01-2.32l3.83-3.57c.65-.61,1.7-.52,2.24.19l7.94,10.42.12.16-1.11.2c-1.53.27-2.64,1.59-2.64,3.13h0c0,1.76,1.43,3.18,3.2,3.18h14.11c1.77,0,3.2-1.42,3.2-3.18v-.24c0-1.52-1.09-2.83-2.59-3.12l-1.91-.37c-.76-.15-1.44-.57-1.92-1.18Z"/>
      </g>
      <g>
        <path class="cls-5" d="m125.04,92.22c-1.25,0-2.3-.18-3.14-.54-.84-.36-1.48-.84-1.91-1.42-.43-.58-.66-1.2-.68-1.87,0-.1.04-.2.12-.28.08-.08.18-.13.29-.13h2.09c.17,0,.3.04.39.11.09.07.18.16.25.26.09.22.24.43.44.64.2.21.48.38.83.51.35.14.79.2,1.31.2.85,0,1.48-.14,1.91-.41.42-.27.64-.64.64-1.11,0-.34-.11-.61-.34-.82-.23-.21-.59-.39-1.08-.56-.49-.17-1.14-.35-1.95-.54-.98-.21-1.81-.48-2.49-.81-.68-.33-1.2-.76-1.54-1.28-.35-.52-.52-1.18-.52-1.95s.22-1.47.65-2.07c.43-.6,1.04-1.08,1.82-1.42s1.71-.51,2.8-.51c.87,0,1.65.12,2.32.35.67.23,1.23.54,1.68.91s.79.78,1.03,1.2c.23.43.36.84.37,1.24,0,.1-.04.2-.12.28-.08.08-.18.13-.29.13h-2.19c-.13,0-.25-.03-.35-.08-.1-.05-.19-.14-.25-.27-.08-.34-.31-.63-.69-.88-.38-.25-.88-.38-1.5-.38s-1.14.12-1.52.35c-.37.23-.56.59-.56,1.07,0,.31.09.57.28.79.19.21.51.4.96.56.45.16,1.05.34,1.79.53,1.15.23,2.08.51,2.8.84.72.32,1.24.74,1.58,1.25.34.51.51,1.16.51,1.93,0,.87-.24,1.61-.73,2.23-.49.62-1.16,1.1-2.01,1.43-.85.33-1.85.5-2.98.5Z"/>
        <path class="cls-5" d="m138.32,92.22c-1.08,0-1.99-.18-2.72-.53-.73-.36-1.29-.86-1.67-1.52-.38-.66-.6-1.43-.64-2.31-.01-.26-.02-.55-.02-.88s0-.62.02-.86c.04-.89.26-1.67.66-2.32.4-.65.97-1.16,1.7-1.52.73-.36,1.62-.53,2.66-.53s1.91.18,2.64.53c.73.36,1.3.86,1.7,1.52.4.65.63,1.43.66,2.32.03.25.04.53.04.86s-.01.62-.04.88c-.04.88-.25,1.65-.64,2.31-.38.66-.94,1.17-1.67,1.52-.73.36-1.63.53-2.7.53Zm0-2.14c.64,0,1.12-.2,1.45-.59.33-.39.5-.97.53-1.74.01-.19.02-.45.02-.78s0-.58-.02-.78c-.03-.75-.2-1.33-.53-1.73-.33-.4-.81-.6-1.45-.6s-1.12.2-1.46.6c-.33.4-.51.98-.54,1.73-.01.19-.02.45-.02.78s0,.58.02.78c.03.76.21,1.34.54,1.74.33.4.82.59,1.46.59Z"/>
        <path class="cls-5" d="m147.74,92.03c-.14,0-.26-.05-.35-.14-.09-.09-.14-.21-.14-.35v-7.32h-1.53c-.14,0-.26-.05-.35-.14-.09-.09-.14-.21-.14-.35v-1.32c0-.14.05-.26.14-.35.09-.09.21-.14.35-.14h1.53v-.7c0-.83.16-1.51.47-2.04.31-.53.77-.92,1.37-1.17.6-.25,1.34-.37,2.21-.37h1.43c.14,0,.26.05.35.14.09.09.14.21.14.35v1.32c0,.14-.05.26-.14.35-.09.09-.21.14-.35.14h-1.31c-.48,0-.82.12-1.01.35-.19.23-.28.58-.28,1.03v.6h2.41c.14,0,.26.05.35.14.09.09.14.21.14.35v1.32c0,.14-.05.26-.14.35-.09.09-.21.14-.35.14h-2.41v7.32c0,.14-.05.26-.14.35-.09.09-.2.14-.33.14h-1.92Z"/>
        <path class="cls-5" d="m161.1,92.03c-.81,0-1.5-.13-2.07-.4-.57-.27-1.01-.68-1.3-1.23-.29-.56-.44-1.26-.44-2.1v-4.08h-1.53c-.14,0-.26-.05-.35-.14-.09-.09-.14-.21-.14-.35v-1.32c0-.14.05-.26.14-.35.09-.09.21-.14.35-.14h1.53v-3.21c0-.14.05-.26.15-.35.1-.09.21-.14.34-.14h1.92c.14,0,.26.05.35.14.09.09.14.21.14.35v3.21h2.44c.13,0,.24.05.33.14.09.09.14.21.14.35v1.32c0,.14-.05.26-.14.35-.09.09-.2.14-.33.14h-2.44v3.85c0,.49.09.88.26,1.16.18.28.49.42.93.42h1.43c.13,0,.24.05.33.14.09.09.14.2.14.33v1.44c0,.14-.05.26-.14.35-.09.09-.2.14-.33.14h-1.7Z"/>
        <path class="cls-5" d="m169.07,92.03c-.18,0-.32-.05-.42-.14-.1-.09-.17-.21-.22-.35l-2.8-9c-.03-.06-.04-.13-.04-.19,0-.12.04-.22.13-.3.08-.08.19-.13.3-.13h1.72c.17,0,.3.05.39.14.09.09.15.17.18.25l1.78,6,1.9-5.96c.03-.09.09-.18.19-.28s.24-.15.42-.15h1.11c.18,0,.32.05.42.15.1.1.16.19.19.28l1.9,5.96,1.78-6c.01-.08.07-.16.17-.25.1-.09.22-.14.38-.14h1.72c.12,0,.22.04.3.13.08.08.13.18.13.3,0,.06,0,.13-.02.19l-2.82,9c-.04.14-.11.26-.21.35s-.24.14-.42.14h-1.51c-.18,0-.33-.05-.43-.14-.1-.09-.18-.21-.23-.35l-1.9-5.75-1.94,5.75c-.04.14-.11.26-.22.35-.1.09-.25.14-.43.14h-1.51Z"/>
        <path class="cls-5" d="m186.09,92.22c-.69,0-1.31-.13-1.86-.4s-.98-.62-1.31-1.08c-.33-.45-.49-.96-.49-1.52,0-.92.37-1.64,1.12-2.18.75-.53,1.74-.89,2.96-1.09l2.56-.37v-.35c0-.51-.12-.89-.35-1.17-.23-.27-.65-.41-1.23-.41-.43,0-.78.08-1.04.25-.26.17-.46.39-.61.66-.1.17-.25.25-.45.25h-1.86c-.14,0-.25-.04-.33-.13-.08-.08-.11-.18-.1-.3,0-.22.08-.48.25-.78.17-.3.43-.59.78-.88.35-.29.8-.53,1.35-.73s1.22-.29,2.01-.29,1.53.1,2.11.29,1.06.47,1.41.82c.35.35.61.75.78,1.21.17.46.25.96.25,1.49v6c0,.14-.05.26-.14.35-.09.09-.21.14-.35.14h-1.92c-.13,0-.24-.05-.33-.14-.09-.09-.14-.21-.14-.35v-.72c-.17.25-.4.48-.68.69-.29.21-.63.39-1.03.51-.4.13-.86.19-1.4.19Zm.78-2.02c.43,0,.81-.09,1.15-.27.34-.18.61-.46.8-.84.2-.38.29-.85.29-1.42v-.33l-1.82.29c-.7.12-1.22.29-1.54.52-.33.23-.49.52-.49.85,0,.25.07.46.22.64.15.18.35.32.6.41.25.09.51.14.78.14Z"/>
        <path class="cls-5" d="m195.67,92.03c-.13,0-.24-.05-.33-.14-.09-.09-.14-.21-.14-.35v-9.13c0-.13.05-.24.14-.34.09-.1.2-.15.33-.15h1.92c.13,0,.24.05.34.15.1.1.15.21.15.34v.78c.33-.4.73-.71,1.2-.93.48-.22,1.03-.33,1.65-.33h.84c.13,0,.24.05.33.14.09.09.14.21.14.35v1.67c0,.14-.05.26-.14.35-.09.09-.2.14-.33.14h-1.72c-.57,0-1.02.16-1.35.48-.33.32-.49.77-.49,1.35v5.15c0,.14-.05.26-.14.35-.09.09-.21.14-.35.14h-2.05Z"/>
        <path class="cls-5" d="m209.03,92.22c-1.5,0-2.69-.41-3.57-1.24-.88-.83-1.35-2.03-1.4-3.61v-.84c.05-1,.28-1.86.68-2.57.4-.72.97-1.27,1.7-1.65.73-.38,1.58-.57,2.56-.57,1.1,0,2.01.22,2.75.67.74.45,1.29,1.06,1.66,1.83.37.77.56,1.65.56,2.65v.45c0,.13-.05.24-.15.33-.1.09-.21.14-.34.14h-6.4v.16c.01.41.09.79.24,1.14.15.34.36.62.65.83.28.21.62.31,1.01.31.33,0,.59-.05.8-.14.21-.09.38-.2.52-.33.14-.13.24-.24.3-.33.12-.13.21-.21.28-.24.07-.03.19-.05.34-.05h2.03c.13,0,.24.04.32.11.08.07.12.17.11.3-.01.21-.12.46-.32.77-.2.3-.5.6-.89.89-.39.29-.88.53-1.46.73-.58.19-1.25.29-2,.29Zm-1.94-6.2h3.83v-.04c0-.47-.08-.87-.22-1.21-.15-.34-.37-.61-.66-.81-.29-.19-.63-.29-1.04-.29s-.75.1-1.04.29c-.29.19-.51.46-.66.81-.15.34-.22.75-.22,1.21v.04Z"/>
        <path class="cls-5" d="m227.39,92.22c-.98,0-1.83-.16-2.56-.48-.73-.32-1.3-.77-1.7-1.37-.4-.6-.61-1.3-.61-2.1,0-.57.11-1.07.34-1.52.23-.44.54-.84.95-1.19s.87-.68,1.39-.98c-.53-.57-.92-1.09-1.14-1.55-.23-.47-.34-.95-.34-1.44,0-.6.16-1.15.47-1.65s.78-.92,1.39-1.23c.61-.32,1.36-.48,2.25-.48.83,0,1.55.15,2.13.46.59.3,1.04.71,1.35,1.21.31.51.47,1.06.47,1.65,0,.53-.12,1.01-.36,1.43-.24.42-.57.8-.99,1.14-.42.34-.89.66-1.43.97l2.56,2.54c.13-.22.29-.52.49-.91.2-.39.37-.89.53-1.5.04-.21.18-.31.41-.31h1.7c.12,0,.21.04.28.11.07.07.11.17.11.28-.01.25-.07.53-.18.86s-.25.68-.43,1.04c-.18.36-.38.72-.61,1.07-.22.35-.44.67-.66.97l2.13,2.14c.09.1.14.2.14.29,0,.1-.03.19-.1.25-.07.06-.16.1-.27.1h-2.25c-.13,0-.23-.02-.31-.07-.08-.05-.15-.09-.22-.13l-.98-.93c-.52.43-1.1.75-1.75.98-.65.23-1.38.34-2.2.34Zm0-2.23c.43,0,.84-.07,1.22-.2.38-.14.74-.36,1.07-.67l-2.89-2.82c-.4.22-.75.48-1.04.79-.29.3-.43.67-.43,1.1,0,.38.1.7.29.97.2.27.45.48.77.62.32.14.66.21,1.01.21Zm.08-6.51c.33-.18.63-.36.9-.53.27-.17.49-.37.65-.58.16-.21.23-.46.23-.73,0-.4-.14-.72-.41-.95-.27-.23-.61-.35-1.02-.35-.38,0-.71.12-1,.35s-.43.55-.43.95c0,.18.03.36.1.53.06.17.18.37.33.57.16.21.37.45.65.74Z"/>
        <path class="cls-5" d="m249.16,92.22c-1.25,0-2.3-.18-3.14-.54-.84-.36-1.48-.84-1.91-1.42-.43-.58-.66-1.2-.68-1.87,0-.1.04-.2.12-.28.08-.08.18-.13.29-.13h2.09c.17,0,.3.04.39.11.09.07.18.16.25.26.09.22.24.43.44.64.2.21.48.38.83.51.35.14.79.2,1.31.2.85,0,1.48-.14,1.91-.41.42-.27.64-.64.64-1.11,0-.34-.11-.61-.34-.82-.23-.21-.59-.39-1.08-.56-.49-.17-1.14-.35-1.95-.54-.98-.21-1.81-.48-2.49-.81-.68-.33-1.2-.76-1.54-1.28-.35-.52-.52-1.18-.52-1.95s.22-1.47.65-2.07c.43-.6,1.04-1.08,1.82-1.42.78-.34,1.71-.51,2.8-.51.87,0,1.65.12,2.32.35.67.23,1.23.54,1.68.91.45.38.79.78,1.03,1.2.23.43.36.84.37,1.24,0,.1-.04.2-.12.28-.08.08-.18.13-.29.13h-2.19c-.13,0-.25-.03-.35-.08-.1-.05-.19-.14-.25-.27-.08-.34-.31-.63-.69-.88-.38-.25-.88-.38-1.5-.38s-1.14.12-1.52.35-.56.59-.56,1.07c0,.31.09.57.28.79.19.21.51.4.96.56.45.16,1.05.34,1.79.53,1.15.23,2.08.51,2.8.84.72.32,1.24.74,1.58,1.25.34.51.51,1.16.51,1.93,0,.87-.24,1.61-.73,2.23-.49.62-1.16,1.1-2.01,1.43-.85.33-1.85.5-2.98.5Z"/>
        <path class="cls-5" d="m262.33,92.22c-1.5,0-2.69-.41-3.57-1.24-.88-.83-1.35-2.03-1.4-3.61v-.84c.05-1,.28-1.86.68-2.57.4-.72.97-1.27,1.7-1.65.73-.38,1.58-.57,2.56-.57,1.1,0,2.01.22,2.75.67.74.45,1.29,1.06,1.66,1.83.37.77.56,1.65.56,2.65v.45c0,.13-.05.24-.15.33-.1.09-.21.14-.34.14h-6.4v.16c.01.41.09.79.24,1.14.15.34.36.62.65.83.28.21.62.31,1.01.31.33,0,.59-.05.8-.14.21-.09.38-.2.52-.33.14-.13.24-.24.3-.33.12-.13.21-.21.28-.24.07-.03.19-.05.34-.05h2.03c.13,0,.24.04.32.11.08.07.12.17.11.3-.01.21-.12.46-.32.77-.2.3-.5.6-.89.89-.39.29-.88.53-1.46.73-.58.19-1.25.29-2,.29Zm-1.94-6.2h3.83v-.04c0-.47-.08-.87-.22-1.21-.15-.34-.37-.61-.66-.81s-.63-.29-1.04-.29-.75.1-1.04.29-.51.46-.66.81c-.15.34-.22.75-.22,1.21v.04Z"/>
        <path class="cls-5" d="m274.69,92.22c-.95,0-1.79-.17-2.51-.52-.72-.35-1.29-.86-1.71-1.52-.42-.67-.65-1.47-.68-2.4-.01-.21-.02-.47-.02-.79s0-.58.02-.79c.04-.95.26-1.75.67-2.42.41-.67.98-1.18,1.71-1.53.73-.35,1.57-.52,2.52-.52.87,0,1.62.12,2.23.36.61.24,1.11.54,1.51.9.39.36.68.74.87,1.14.19.4.29.74.3,1.04.01.13-.03.24-.13.34-.1.1-.21.15-.34.15h-2.09c-.13,0-.23-.04-.3-.11-.07-.07-.14-.17-.21-.3-.18-.45-.42-.78-.7-.97-.29-.19-.65-.29-1.08-.29-.59,0-1.05.19-1.39.56-.34.38-.52.96-.55,1.75-.01.51-.01.97,0,1.38.04.8.22,1.39.56,1.75s.79.54,1.38.54c.46,0,.82-.1,1.1-.29.27-.19.5-.52.68-.97.05-.13.12-.23.2-.3.08-.07.18-.11.31-.11h2.09c.13,0,.24.05.34.15.1.1.14.21.13.34-.01.22-.08.48-.19.78-.11.3-.29.6-.53.91-.24.31-.55.6-.93.86-.38.27-.84.48-1.38.64-.54.16-1.17.24-1.89.24Z"/>
        <path class="cls-5" d="m285.97,92.22c-.76,0-1.42-.17-2-.51-.58-.34-1.03-.84-1.35-1.5-.32-.65-.48-1.45-.48-2.38v-5.42c0-.14.05-.26.14-.35.09-.09.2-.14.33-.14h2.07c.14,0,.26.05.35.14.09.09.14.21.14.35v5.3c0,1.45.64,2.18,1.92,2.18.61,0,1.1-.19,1.46-.57.36-.38.54-.92.54-1.6v-5.3c0-.14.05-.26.14-.35.09-.09.21-.14.35-.14h2.07c.13,0,.24.05.33.14.09.09.14.21.14.35v9.13c0,.14-.05.26-.14.35-.09.09-.2.14-.33.14h-1.92c-.14,0-.26-.05-.35-.14-.09-.09-.14-.21-.14-.35v-.76c-.34.47-.78.82-1.31,1.07-.53.25-1.19.37-1.96.37Z"/>
        <path class="cls-5" d="m295.76,92.03c-.13,0-.24-.05-.33-.14-.09-.09-.14-.21-.14-.35v-9.13c0-.13.05-.24.14-.34.09-.1.2-.15.33-.15h1.92c.13,0,.24.05.34.15.1.1.15.21.15.34v.78c.33-.4.73-.71,1.2-.93.48-.22,1.03-.33,1.65-.33h.84c.13,0,.24.05.33.14.09.09.14.21.14.35v1.67c0,.14-.05.26-.14.35-.09.09-.2.14-.33.14h-1.72c-.57,0-1.02.16-1.35.48-.33.32-.49.77-.49,1.35v5.15c0,.14-.05.26-.14.35-.09.09-.21.14-.35.14h-2.05Z"/>
        <path class="cls-5" d="m305.29,80.37c-.13,0-.24-.05-.33-.14-.09-.09-.14-.21-.14-.35v-1.55c0-.14.05-.26.14-.36.09-.1.2-.15.33-.15h2.05c.14,0,.26.05.36.15.1.1.15.22.15.36v1.55c0,.14-.05.26-.15.35s-.22.14-.36.14h-2.05Zm.06,11.66c-.13,0-.24-.05-.33-.14-.09-.09-.14-.21-.14-.35v-9.13c0-.14.05-.26.14-.35.09-.09.2-.14.33-.14h1.96c.14,0,.26.05.35.14.09.09.14.21.14.35v9.13c0,.14-.05.26-.14.35-.09.09-.21.14-.35.14h-1.96Z"/>
        <path class="cls-5" d="m316.12,92.03c-.81,0-1.5-.13-2.07-.4-.57-.27-1.01-.68-1.3-1.23-.29-.56-.44-1.26-.44-2.1v-4.08h-1.53c-.14,0-.26-.05-.35-.14-.09-.09-.14-.21-.14-.35v-1.32c0-.14.05-.26.14-.35.09-.09.21-.14.35-.14h1.53v-3.21c0-.14.05-.26.15-.35.1-.09.21-.14.34-.14h1.92c.14,0,.26.05.35.14.09.09.14.21.14.35v3.21h2.44c.13,0,.24.05.33.14.09.09.14.21.14.35v1.32c0,.14-.05.26-.14.35-.09.09-.2.14-.33.14h-2.44v3.85c0,.49.09.88.26,1.16.18.28.49.42.93.42h1.43c.13,0,.24.05.33.14.09.09.14.2.14.33v1.44c0,.14-.05.26-.14.35-.09.09-.2.14-.33.14h-1.7Z"/>
        <path class="cls-5" d="m323.21,95.72c-.1,0-.2-.04-.28-.12-.08-.08-.13-.17-.13-.29,0-.03,0-.06.02-.11.01-.05.03-.1.06-.17l1.53-3.63-3.75-8.8c-.04-.1-.06-.19-.06-.25.01-.12.06-.22.14-.3.08-.08.18-.13.29-.13h1.9c.17,0,.29.04.37.13.08.08.14.17.18.26l2.42,6.02,2.48-6.02c.05-.1.12-.19.2-.27s.2-.12.37-.12h1.86c.12,0,.22.04.3.13.08.08.13.18.13.28,0,.06-.03.16-.08.27l-5.53,12.73c-.04.1-.1.19-.19.27-.09.08-.21.12-.38.12h-1.84Z"/>
        <path class="cls-1" d="m332.63,92.03c-.14,0-.26-.05-.35-.14-.09-.09-.14-.21-.14-.35v-2.18c0-.14.05-.26.14-.35.09-.09.21-.14.35-.14h2.19c.14,0,.26.05.35.14.09.09.14.21.14.35v2.18c0,.14-.05.26-.14.35-.09.09-.21.14-.35.14h-2.19Z"/>
      </g>
    </g>
    <g>
      <line class="cls-4" x1="0" y1="61.24" x2="420" y2="61.24"/>
      <line class="cls-4" y1="87.88" x2="420" y2="87.88"/>
      <line class="cls-4" x1="0" y1="70.01" x2="420" y2="70.01"/>
      <line class="cls-4" x1="119.65" y1="12.35" x2="119.65" y2="92.16"/>
      <line class="cls-4" y1="12.14" x2="420" y2="12.14"/>
      <line class="cls-4" x1="0" y1="92.16" x2="420" y2="92.16"/>
      <line class="cls-3" x1="331.18" y1="66.9" x2="331.18" y2="92.16"/>
    </g>
  </g>
  <line class="cls-4" x1="119.65" y1="49.13" x2="95.37" y2="49.13"/>
</svg>