<?xml version="1.0" standalone="no"?>
<!DOCTYPE svg PUBLIC "-//W3C//DTD SVG 20010904//EN"
 "http://www.w3.org/TR/2001/REC-SVG-20010904/DTD/svg10.dtd">
<svg version="1.0" xmlns="http://www.w3.org/2000/svg"
 width="1327.000000pt" height="1221.000000pt" viewBox="0 0 1327.000000 1221.000000"
 preserveAspectRatio="xMidYMid meet">

<g transform="translate(0.000000,1221.000000) scale(0.100000,-0.100000)"
fill="#000" stroke="none">
<path d="M4128 11870 c-218 -35 -406 -119 -568 -256 -258 -218 -433 -571 -514
-1035 -13 -73 -26 -181 -41 -339 -26 -271 -8 -702 46 -1130 16 -129 77 -478
110 -634 16 -77 29 -144 29 -151 0 -7 -54 -23 -132 -39 -300 -62 -707 -176
-959 -266 -63 -23 -135 -47 -160 -55 -139 -39 -498 -204 -699 -322 -398 -234
-689 -511 -827 -788 -171 -344 -174 -675 -8 -1020 193 -399 559 -736 1168
-1077 87 -48 160 -88 162 -88 1 0 67 -31 146 -69 278 -132 583 -253 944 -373
82 -27 152 -51 154 -54 2 -2 -15 -63 -39 -136 -55 -172 -85 -270 -104 -338
-38 -142 -77 -295 -101 -400 -14 -63 -32 -133 -40 -155 -29 -80 -86 -471 -106
-735 -23 -297 3 -653 66 -902 105 -416 321 -711 640 -870 354 -177 817 -161
1346 47 110 43 421 195 529 259 41 25 101 59 133 78 31 18 57 36 57 40 0 5 5
8 11 8 6 0 25 10 42 23 18 12 39 27 49 32 49 30 168 114 198 140 19 17 85 69
145 115 169 129 351 279 509 420 l145 129 24 -32 c69 -90 551 -580 696 -707
40 -36 105 -93 144 -128 143 -129 425 -335 622 -454 976 -593 1801 -458 2186
358 281 593 300 1501 57 2687 -16 82 -28 150 -26 152 1 1 62 15 133 30 292 61
709 176 956 265 63 23 135 47 160 55 89 24 321 125 504 217 549 276 929 632
1071 1004 104 272 109 489 18 764 -199 598 -905 1153 -2019 1586 -147 58 -322
120 -473 169 -78 26 -142 50 -142 55 0 5 13 46 29 92 49 140 137 453 187 658
25 107 55 224 65 259 23 80 72 384 95 591 21 188 24 599 5 740 -61 466 -196
780 -432 1004 -371 355 -921 406 -1589 149 -122 -47 -327 -143 -460 -218 -58
-32 -114 -63 -125 -69 -11 -6 -40 -24 -65 -40 -25 -16 -78 -49 -118 -75 -134
-85 -559 -400 -657 -486 -12 -11 -64 -56 -116 -100 -52 -44 -96 -82 -99 -85
-3 -3 -43 -39 -90 -80 -47 -41 -88 -79 -92 -85 -8 -10 -25 7 -137 130 -97 108
-405 418 -517 521 -462 429 -900 725 -1312 889 -109 43 -226 78 -355 106 -105
23 -367 33 -459 19z m362 -496 c492 -87 1177 -559 1834 -1264 89 -96 177 -191
194 -210 l30 -36 -101 -105 c-107 -111 -297 -314 -329 -352 -11 -12 -34 -38
-51 -57 -123 -135 -438 -509 -547 -650 -39 -50 -56 -71 -91 -112 l-24 -28
-210 -10 c-264 -13 -595 -36 -790 -56 -166 -16 -680 -82 -707 -90 -9 -3 -19 0
-23 5 -3 6 -23 97 -45 203 -117 577 -165 1089 -141 1528 28 518 144 870 354
1075 165 162 360 209 647 159z m5259 -290 c46 -16 83 -33 83 -37 0 -7 -319
-493 -742 -1132 -76 -115 -207 -313 -291 -440 -492 -747 -640 -970 -647 -973
-4 -1 -16 12 -26 30 -11 18 -87 137 -171 263 -213 324 -432 628 -679 944 -36
46 -66 87 -66 91 0 4 35 38 78 76 42 38 82 74 88 80 6 5 35 30 64 55 29 24 58
49 64 55 6 5 70 57 141 115 619 502 1180 806 1640 890 74 14 136 18 240 15
124 -3 150 -6 224 -32z m360 -299 c78 -145 128 -314 153 -515 16 -132 16 -508
-1 -660 -45 -411 -152 -905 -281 -1300 -9 -30 -30 -94 -46 -142 -15 -49 -31
-88 -36 -88 -5 0 -80 18 -166 39 -349 88 -788 178 -1102 227 -96 15 -178 30
-182 33 -4 4 16 42 45 86 111 169 856 1298 1102 1670 141 215 305 463 364 551
58 89 109 160 113 158 4 -2 20 -29 37 -59z m-3144 -1426 c194 -254 349 -469
507 -704 97 -145 106 -160 86 -163 -12 -2 -108 3 -212 12 -380 32 -623 45
-1004 55 -160 4 -295 11 -298 14 -5 5 109 154 135 177 4 3 31 34 61 70 48 56
90 105 125 144 6 6 44 49 85 96 128 145 399 430 409 430 3 0 51 -59 106 -131z
m-370 -1289 c302 -13 596 -34 935 -66 146 -13 268 -26 272 -27 5 -1 -54 -95
-130 -209 -118 -178 -144 -212 -188 -240 -28 -18 -66 -47 -85 -65 -134 -123
-428 -366 -479 -395 -68 -39 -133 -101 -186 -176 -26 -37 -49 -69 -51 -71 -1
-2 -20 4 -42 13 -29 14 -44 15 -58 8 -11 -6 -53 -61 -93 -122 -83 -125 -83
-128 -9 -168 24 -14 46 -26 48 -28 6 -6 -32 -74 -41 -74 -5 0 -8 -5 -8 -11 0
-6 -33 -59 -74 -118 -41 -59 -78 -119 -81 -133 -13 -50 62 -89 105 -55 21 16
130 172 130 185 0 6 4 12 8 14 5 2 25 29 45 61 20 31 42 57 49 57 7 0 27 -7
43 -16 17 -8 110 -57 208 -107 97 -50 177 -97 177 -105 0 -7 -45 -81 -100
-165 -55 -83 -100 -161 -100 -172 0 -57 70 -78 116 -34 13 13 66 87 117 166
51 79 96 143 102 143 5 0 33 -12 62 -27 41 -22 57 -26 70 -17 25 14 163 221
163 243 0 12 -14 25 -35 35 -19 9 -35 20 -35 23 0 3 13 27 30 52 55 86 91 181
100 260 8 73 13 94 60 246 11 39 25 84 29 100 23 86 74 236 82 241 5 3 9 12 9
21 0 16 260 423 270 423 5 0 75 -122 156 -271 17 -31 45 -81 62 -111 180 -320
563 -1112 673 -1390 l19 -48 -117 -203 c-105 -183 -187 -321 -248 -417 -12
-19 -57 -91 -100 -160 -223 -353 -470 -714 -720 -1052 l-50 -67 -355 -1 c-488
0 -870 17 -1362 61 -119 10 -227 19 -240 19 -19 1 -16 4 16 20 22 11 46 26 55
33 16 14 65 40 241 127 83 41 170 109 170 132 0 4 49 80 109 169 91 136 114
164 142 173 37 12 65 49 245 324 93 143 105 166 96 186 -7 15 -78 58 -228 136
-121 62 -273 141 -339 175 -286 149 -361 185 -392 185 -27 0 -37 -8 -77 -64
-25 -36 -46 -69 -46 -75 0 -6 -4 -11 -10 -11 -5 0 -10 -4 -10 -9 0 -5 -45 -76
-101 -157 -93 -136 -101 -151 -96 -185 5 -35 -3 -50 -94 -185 -54 -81 -99
-149 -99 -151 0 -2 -13 -21 -29 -41 -41 -51 -49 -111 -39 -281 5 -79 6 -147 2
-150 -7 -7 -7 -7 -112 184 -196 355 -390 736 -555 1095 -55 119 -187 419 -187
424 0 10 226 398 338 581 260 426 538 840 814 1212 l83 113 355 0 c195 0 463
-5 595 -10z m-1575 -20 c0 -5 -42 -70 -93 -142 -210 -298 -511 -763 -686
-1060 -29 -49 -55 -88 -60 -88 -8 0 -24 43 -128 340 -57 164 -92 273 -202 625
-40 126 -56 194 -48 201 20 20 629 91 1017 119 96 7 181 13 188 14 6 0 12 -3
12 -9z m3740 -215 c215 -37 427 -80 595 -119 239 -56 370 -88 377 -92 24 -15
-475 -1121 -502 -1112 -6 2 -34 55 -64 118 -66 144 -79 171 -258 520 -127 250
-205 396 -353 663 -36 66 -37 68 -14 62 13 -3 112 -21 219 -40z m-5446 -2 c3
-10 26 -90 51 -178 125 -435 329 -1027 481 -1389 l28 -68 -43 -82 c-220 -417
-445 -898 -609 -1305 -39 -95 -73 -175 -75 -178 -7 -7 -422 134 -592 201 -329
129 -523 220 -795 374 -477 269 -823 593 -934 874 -55 138 -67 253 -41 380
110 528 961 1031 2235 1322 113 26 221 51 240 56 19 4 38 8 42 9 4 1 9 -7 12
-16z m7105 -412 c365 -122 691 -256 951 -390 371 -191 639 -373 849 -576 282
-272 401 -544 346 -791 -99 -449 -682 -863 -1650 -1170 -219 -70 -612 -170
-827 -212 l-47 -9 -20 66 c-11 36 -32 109 -46 161 -30 107 -58 198 -139 445
-48 148 -80 239 -191 545 -22 62 -63 166 -136 349 l-33 84 43 81 c80 151 269
530 336 676 105 225 125 270 125 274 0 2 12 30 27 62 31 69 96 226 154 372 23
56 43 102 46 102 3 0 98 -31 212 -69z m-6214 -1978 c43 -93 82 -173 87 -179 5
-7 63 -119 129 -250 67 -132 140 -275 164 -319 23 -44 64 -120 90 -170 26 -49
69 -126 95 -170 65 -112 67 -119 33 -110 -16 4 -113 22 -218 40 -233 41 -349
65 -575 116 -318 73 -390 92 -390 105 0 18 163 414 228 554 16 36 53 115 80
175 83 181 181 375 190 375 5 0 44 -75 87 -167z m5035 -264 c106 -293 310
-936 310 -975 0 -15 -11 -18 -115 -34 -274 -40 -648 -78 -1042 -104 -67 -4
-76 3 -48 39 56 71 426 621 536 797 145 231 200 321 215 350 38 73 66 110 76
100 5 -5 36 -83 68 -173z m-5579 -1190 c112 -28 224 -54 249 -59 25 -5 88 -18
140 -30 302 -65 889 -170 957 -170 12 0 25 -4 28 -10 5 -8 -1528 -2582 -1556
-2614 -24 -27 -162 103 -225 210 -125 214 -177 462 -177 849 1 247 25 521 63
705 5 25 19 97 31 160 25 138 89 405 130 550 52 183 142 460 150 460 4 0 98
-23 210 -51z m6013 -277 c7 -11 70 -328 95 -477 53 -312 77 -531 91 -830 24
-531 -38 -956 -184 -1256 -141 -289 -336 -419 -629 -419 -326 0 -719 171
-1174 511 -108 81 -322 254 -343 278 -3 3 -30 28 -60 55 -139 125 -439 427
-583 588 l-86 96 137 144 c209 217 371 396 613 678 63 73 162 196 326 400 6 8
23 29 37 47 29 35 -15 29 426 53 315 18 643 48 985 91 176 22 322 42 324 45 7
7 19 5 25 -4z m-3724 -92 c329 -30 886 -60 1115 -60 149 0 248 -8 243 -20 -2
-4 -22 -29 -45 -56 -22 -27 -67 -80 -99 -119 -75 -90 -253 -293 -324 -369 -92
-100 -211 -226 -281 -299 l-67 -70 -61 79 c-34 44 -81 104 -105 134 -117 148
-439 603 -530 748 l-26 42 37 0 c21 -1 85 -5 143 -10z m-524 -339 c71 -108
166 -246 209 -306 148 -208 273 -379 307 -420 73 -90 198 -256 198 -264 0 -6
-6 -14 -14 -18 -7 -4 -51 -42 -96 -83 -46 -41 -88 -79 -94 -85 -6 -5 -38 -32
-71 -60 -33 -27 -65 -54 -71 -60 -25 -22 -80 -67 -253 -204 -106 -84 -404
-290 -536 -370 -435 -263 -877 -420 -1156 -409 l-75 3 751 1253 c601 1004 752
1250 760 1237 6 -9 69 -105 141 -214z"/>
</g>
</svg>
