<svg width="68" height="96" viewBox="0 0 68 96" fill="none" xmlns="http://www.w3.org/2000/svg">
<g clip-path="url(#clip0_430_186)">
<g clip-path="url(#clip1_430_186)">
<path d="M33.5174 31.8949C33.0374 31.8949 32.6174 31.5549 32.5374 31.0649C32.0474 28.2449 31.2474 25.3549 30.4774 22.5649C29.1774 17.8749 27.8374 13.0149 27.8374 8.21495C27.8374 4.74495 28.1874 2.77495 28.9974 1.65495C29.9174 0.394948 31.1774 0.384948 32.3774 0.394948C34.7974 0.394948 36.2474 1.41495 36.2474 3.05495C36.2474 3.12495 36.2474 3.20495 36.2274 3.27495C36.2074 3.36495 34.2974 11.8649 34.2974 23.1449C34.2974 25.5949 34.3674 28.1049 34.5274 30.8349C34.5574 31.365 34.1674 31.8249 33.6474 31.8849C33.6074 31.8849 33.5674 31.8849 33.5274 31.8849L33.5174 31.8949ZM32.4274 2.39495C31.2974 2.39495 30.9074 2.43495 30.6174 2.83495C30.0974 3.54495 29.8374 5.36495 29.8374 8.21495C29.8374 12.6349 31.0774 17.2249 32.3074 21.6849C32.4474 11.5949 33.9874 4.15495 34.2374 2.98495C34.1374 2.54495 33.1174 2.41495 32.4274 2.39495Z" fill="#273E53"/>
<path d="M33.3474 31.7248C32.8574 31.7248 32.4374 31.3648 32.3574 30.8748C32.1874 29.7848 32.1074 28.6948 32.1074 27.6248C32.1074 13.7648 42.1274 10.2248 49.4374 7.64482C52.7674 6.46482 55.6474 5.45482 56.9974 3.81482C57.2674 3.48482 57.7074 3.36482 58.1074 3.50482C58.5074 3.64482 58.7674 4.02482 58.7674 4.44482C58.7674 5.25482 58.7974 6.06482 58.8174 6.86482C58.8474 7.69482 58.8674 8.51482 58.8674 9.33482C58.8674 11.1248 58.7474 13.4748 57.8474 15.7548C53.8574 25.8748 42.6974 31.0548 33.4074 31.7148C33.3874 31.7148 33.3574 31.7148 33.3374 31.7148L33.3474 31.7248ZM56.8174 6.61482C55.0674 7.78482 52.7174 8.61482 50.1074 9.53482C42.6074 12.1848 34.1074 15.1848 34.1074 27.6248C34.1074 28.2848 34.1474 28.9648 34.2174 29.6448C42.6774 28.7648 52.4574 24.0048 55.9974 15.0348C56.7674 13.0748 56.8774 11.0548 56.8774 9.34482C56.8774 8.54482 56.8474 7.74482 56.8274 6.94482C56.8274 6.83482 56.8274 6.72482 56.8174 6.62482V6.61482Z" fill="#273E53"/>
<path d="M27.0474 95.785C9.77742 95.785 0.357422 68.045 0.357422 53.795C0.357422 37.765 10.7874 28.185 20.8774 28.185C23.2174 28.185 24.9174 28.655 26.5474 29.105C28.2674 29.585 30.0374 30.075 32.7174 30.075C32.8574 30.075 33.0074 30.075 33.1474 30.075C35.6874 30.015 38.1574 29.295 40.7774 28.535C42.7974 27.945 44.8874 27.335 47.0174 27.055C47.7474 26.955 48.4774 26.915 49.1874 26.915C57.7474 26.915 67.7374 34.465 67.7374 55.745C67.7374 87.425 51.7374 94.365 45.5674 94.365C44.0874 94.365 42.6174 94.025 41.1974 93.705C39.8774 93.405 38.6374 93.115 37.4874 93.115C36.3374 93.115 35.4474 93.535 34.3174 94.065C32.6674 94.835 30.6274 95.795 27.0374 95.795L27.0474 95.785ZM20.8774 30.185C11.7774 30.185 2.35742 39.015 2.35742 53.795C2.35742 68.575 11.7374 93.785 27.0474 93.785C30.1874 93.785 31.9374 92.965 33.4774 92.245C34.7274 91.655 35.9074 91.105 37.4974 91.105C38.8674 91.105 40.2774 91.425 41.6474 91.745C42.9574 92.045 44.3174 92.355 45.5774 92.355C50.8074 92.355 65.7474 85.625 65.7474 55.735C65.7474 35.955 57.1974 28.905 49.1974 28.905C48.5774 28.905 47.9374 28.945 47.2874 29.035C45.3074 29.295 43.2874 29.885 41.3474 30.455C38.7174 31.225 36.0074 32.015 33.2074 32.075C33.0474 32.075 32.8874 32.075 32.7274 32.075C29.7774 32.075 27.7774 31.525 26.0274 31.035C24.4474 30.595 22.9574 30.185 20.8874 30.185H20.8774Z" fill="#273E53"/>
<path d="M35.0374 30.2149C35.0374 30.2149 34.9974 30.2149 34.9874 30.2149C34.7174 30.1849 34.5174 29.9349 34.5474 29.6649C35.3874 21.8649 43.0574 17.9449 46.3074 16.6249C46.5574 16.5249 46.8574 16.6449 46.9574 16.9049C47.0574 17.1649 46.9374 17.4549 46.6774 17.5549C43.5874 18.8049 36.3174 22.5149 35.5374 29.7749C35.5074 30.0349 35.2974 30.2249 35.0374 30.2249V30.2149Z" fill="#273E53"/>
<path d="M34.8674 30.7252C34.6974 30.7252 34.5274 30.6352 34.4374 30.4852C34.2974 30.2452 34.3774 29.9452 34.6074 29.7952C35.5474 29.2352 36.5274 28.6652 37.5174 28.0852C45.6074 23.3852 54.6774 18.1152 56.6974 8.98519C55.0474 11.5652 52.4474 13.4852 50.0774 15.2252L49.9874 15.2952C49.7674 15.4552 49.4474 15.4152 49.2874 15.1852C49.1274 14.9652 49.1674 14.6452 49.3974 14.4852L49.4874 14.4152C52.6174 12.1152 56.1574 9.49519 57.1174 5.50519C57.1774 5.25519 57.4174 5.09519 57.6674 5.12519C57.9174 5.15519 58.1074 5.37519 58.0974 5.63519C57.7874 17.4552 47.2874 23.5552 38.0174 28.9452C37.0274 29.5152 36.0574 30.0852 35.1174 30.6452C35.0374 30.6952 34.9474 30.7152 34.8574 30.7152L34.8674 30.7252Z" fill="#273E53"/>
<path d="M35.0376 30.2153C34.9776 30.2153 34.9176 30.2053 34.8476 30.1753C34.5876 30.0753 34.4676 29.7853 34.5676 29.5253C35.7676 26.5253 39.3276 24.4153 43.4476 21.9653C49.1276 18.5953 55.5576 14.7853 56.5976 7.73531C56.6376 7.46531 56.8876 7.26531 57.1676 7.31531C57.4376 7.35531 57.6276 7.60531 57.5876 7.88531C56.4776 15.3953 49.8276 19.3453 43.9576 22.8253C40.1576 25.0753 36.5676 27.2053 35.4976 29.8953C35.4176 30.0953 35.2276 30.2053 35.0376 30.2053V30.2153Z" fill="#273E53"/>
<path d="M29.3074 9.50513C29.3074 9.50513 29.2474 9.50513 29.2174 9.50513C28.9474 9.45513 28.7674 9.19513 28.8174 8.92513C29.2674 6.54513 30.3674 3.29513 33.0574 1.36513C33.2774 1.20513 33.5974 1.25513 33.7574 1.48513C33.9174 1.70513 33.8674 2.02513 33.6374 2.18513C31.2074 3.91513 30.2074 6.90513 29.7974 9.11513C29.7574 9.35513 29.5474 9.52513 29.3074 9.52513V9.50513Z" fill="#273E53"/>
<path d="M29.6474 14.7252C29.6474 14.7252 29.5974 14.7252 29.5674 14.7252C29.2974 14.6852 29.1074 14.4252 29.1474 14.1552C29.8574 9.54522 32.3974 5.50522 34.7974 2.15522C34.9574 1.93522 35.2674 1.87522 35.4974 2.03522C35.7174 2.19522 35.7774 2.50522 35.6174 2.73522C33.2874 5.99522 30.8274 9.91522 30.1474 14.3152C30.1074 14.5652 29.8974 14.7352 29.6574 14.7352L29.6474 14.7252Z" fill="#273E53"/>
<path d="M30.6576 18.095C30.6576 18.095 30.5776 18.095 30.5376 18.075C30.2676 18.005 30.1076 17.735 30.1776 17.465C31.0176 14.095 32.1776 11.625 33.8176 9.68503C33.9976 9.47503 34.3076 9.44503 34.5176 9.62503C34.7276 9.80503 34.7576 10.115 34.5776 10.325C33.0376 12.145 31.9476 14.485 31.1476 17.705C31.0876 17.935 30.8876 18.085 30.6676 18.085L30.6576 18.095Z" fill="#273E53"/>
<path d="M35.2575 34.0052C33.4375 34.0052 30.2775 33.6652 25.5775 32.0752C25.5075 32.0552 25.4575 32.0352 25.4175 32.0252C24.4475 32.0352 23.4775 32.2753 23.3575 32.4753C23.2375 32.7253 22.9375 32.8252 22.6875 32.6952C22.4375 32.5752 22.3375 32.2652 22.4675 32.0252C22.9475 31.0752 25.0675 31.0252 25.4975 31.0252C25.5875 31.0252 25.6175 31.0252 25.9075 31.1352C30.4775 32.6852 33.5175 33.0152 35.2675 33.0152C39.4075 33.0152 43.3075 31.7952 46.5375 29.4852C46.7575 29.3252 47.0775 29.3752 47.2375 29.6052C47.3975 29.8252 47.3475 30.1452 47.1175 30.3052C43.7175 32.7352 39.6175 34.0152 35.2675 34.0152L35.2575 34.0052Z" fill="#273E53"/>
<path d="M25.3875 92.5152C21.8975 92.5152 19.1975 91.4252 17.1575 89.1652C16.9675 88.9652 16.9875 88.6452 17.1875 88.4552C17.3875 88.2652 17.7075 88.2852 17.8975 88.4852C19.7475 90.5152 22.1975 91.5052 25.3875 91.5052C28.2475 91.5052 31.3075 90.7452 34.0075 90.0752C36.0275 89.5752 37.7675 89.1452 39.0175 89.1452C40.0575 89.1452 41.1075 89.2852 42.1275 89.4252C43.1475 89.5652 44.1075 89.6952 45.0575 89.6952C51.9075 89.6952 64.6875 80.2952 64.6875 57.6452C64.6875 47.6252 62.6275 30.8152 48.8175 30.8152C48.6175 30.8152 48.4075 30.8152 48.2075 30.8352C47.9475 30.8552 47.6975 30.6352 47.6875 30.3652C47.6775 30.0852 47.8875 29.8552 48.1575 29.8452C48.3775 29.8352 48.5975 29.8252 48.8175 29.8252C63.4975 29.8252 65.6875 47.2552 65.6875 57.6552C65.6875 81.0152 52.2475 90.7052 45.0575 90.7052C44.0375 90.7052 42.9975 90.5652 41.9975 90.4252C41.0175 90.2952 39.9975 90.1552 39.0275 90.1552C37.9075 90.1552 36.2175 90.5752 34.2575 91.0552C31.5075 91.7352 28.3875 92.5152 25.3975 92.5152H25.3875Z" fill="#273E53"/>
<path d="M46.1474 88.1554C45.8974 88.1554 45.6874 87.9754 45.6474 87.7154C45.6074 87.4454 45.8074 87.1954 46.0774 87.1554C54.4474 86.0654 63.1074 75.1554 63.1074 58.8054C63.1074 51.9054 61.8074 35.5754 49.7374 32.8954C49.4674 32.8354 49.2974 32.5654 49.3574 32.2954C49.4174 32.0254 49.6874 31.8554 49.9574 31.9154C62.7274 34.7554 64.1074 51.6654 64.1074 58.7954C64.1074 75.7054 55.0074 86.9854 46.2074 88.1354C46.1874 88.1354 46.1674 88.1354 46.1474 88.1354V88.1554Z" fill="#273E53"/>
<path d="M59.9674 56.1553C59.9674 56.1553 59.9274 56.1553 59.9074 56.1553C59.6374 56.1253 59.4374 55.8753 59.4674 55.6053C59.5574 54.8553 59.5974 54.0853 59.5974 53.3253C59.5974 44.7653 54.4274 37.1253 47.0174 34.7453C46.7574 34.6653 46.6074 34.3753 46.6974 34.1153C46.7774 33.8553 47.0574 33.7053 47.3274 33.7953C55.1474 36.3053 60.6074 44.3353 60.6074 53.3253C60.6074 54.1253 60.5574 54.9353 60.4774 55.7153C60.4474 55.9753 60.2274 56.1553 59.9774 56.1553H59.9674Z" fill="#273E53"/>
<path d="M49.0175 84.7852C48.8575 84.7852 48.6975 84.7052 48.6075 84.5652C48.4575 84.3352 48.5175 84.0252 48.7375 83.8752C54.4775 79.9952 57.9075 73.3752 57.9075 66.1452C57.9075 65.3652 57.8675 64.5752 57.7875 63.7952C57.7575 63.5252 57.9574 63.2752 58.2275 63.2452C58.5075 63.2152 58.7474 63.4152 58.7774 63.6852C58.8674 64.4952 58.9075 65.3252 58.9075 66.1352C58.9075 73.6952 55.3175 80.6352 49.2975 84.6952C49.2075 84.7552 49.1175 84.7852 49.0175 84.7852Z" fill="#273E53"/>
<path d="M54.7373 48.9151C54.5073 48.9151 54.2973 48.7551 54.2473 48.5151C53.1973 43.4251 50.0073 39.0351 45.9273 37.0751C45.6773 36.9551 45.5773 36.6551 45.6973 36.4051C45.8173 36.1551 46.1173 36.0551 46.3673 36.1751C50.7173 38.2651 54.1173 42.9251 55.2273 48.3151C55.2873 48.5851 55.1073 48.8551 54.8373 48.9051C54.8073 48.9051 54.7673 48.9151 54.7373 48.9151Z" fill="#273E53"/>
<path d="M48.6976 81.4653C48.5476 81.4653 48.4075 81.4353 48.2775 81.3653C48.0275 81.2453 47.9276 80.9453 48.0576 80.6953C48.1776 80.4553 48.4675 80.3553 48.7075 80.4653C49.1475 80.3353 50.6975 78.5053 51.0475 76.9453C51.1075 76.6753 51.3776 76.5153 51.6476 76.5653C51.9176 76.6253 52.0875 76.8953 52.0275 77.1653C51.6575 78.8253 49.7776 81.4753 48.6976 81.4753V81.4653Z" fill="#273E53"/>
<path d="M16.6774 87.4851C16.5974 87.4851 16.5174 87.4651 16.4374 87.4251C13.5274 85.8351 12.0474 82.7651 10.6074 79.7851C10.1274 78.7851 9.66744 77.8451 9.16744 76.9651C9.02744 76.7251 9.11744 76.4151 9.35744 76.2851C9.59744 76.1451 9.90744 76.2351 10.0374 76.4751C10.5574 77.3851 11.0374 78.3951 11.5074 79.3651C12.8774 82.1951 14.2874 85.1351 16.9174 86.5651C17.1574 86.6951 17.2474 87.0051 17.1174 87.2451C17.0274 87.4151 16.8574 87.5051 16.6774 87.5051V87.4851Z" fill="#273E53"/>
<path d="M25.9975 89.4852C22.4175 89.4852 19.7375 88.1552 17.7875 85.4152C17.6275 85.1852 17.6775 84.8752 17.9075 84.7152C18.1375 84.5552 18.4475 84.6052 18.6075 84.8352C20.3775 87.3252 22.7275 88.4852 25.9975 88.4852C28.7475 88.4852 31.7875 87.6352 34.2275 86.9652C35.8075 86.5252 37.0575 86.1752 37.8275 86.1752C38.3975 86.1752 38.9275 86.2652 39.4475 86.3452C40.0575 86.4452 40.6275 86.5452 41.2175 86.4752C41.4875 86.4452 41.7375 86.6452 41.7675 86.9152C41.7975 87.1852 41.5975 87.4352 41.3275 87.4652C40.6075 87.5452 39.9275 87.4352 39.2775 87.3252C38.7875 87.2452 38.3175 87.1652 37.8275 87.1652C37.1875 87.1652 35.9475 87.5152 34.4975 87.9152C31.9975 88.6152 28.8875 89.4752 25.9975 89.4752V89.4852Z" fill="#273E53"/>
<path d="M7.91745 74.005C7.71745 74.005 7.52745 73.885 7.44745 73.685C5.68745 68.995 4.46745 64.895 3.71745 61.145C3.66745 60.875 3.83745 60.615 4.10745 60.555C4.37745 60.495 4.63745 60.675 4.69745 60.945C5.43745 64.645 6.63745 68.695 8.37745 73.335C8.47745 73.595 8.34745 73.885 8.08745 73.975C8.02745 73.995 7.96745 74.005 7.90745 74.005H7.91745Z" fill="#273E53"/>
<path d="M12.1276 36.9554C12.0376 36.9554 11.9576 36.9354 11.8776 36.8854C11.6376 36.7454 11.5576 36.4454 11.6976 36.2054C13.5276 33.0454 16.9475 30.9354 20.8376 30.5654C21.1175 30.5354 21.3576 30.7454 21.3776 31.0154C21.4076 31.2854 21.1976 31.5354 20.9276 31.5554C17.3476 31.8954 14.2176 33.8154 12.5576 36.6954C12.4676 36.8554 12.2976 36.9454 12.1276 36.9454V36.9554Z" fill="#273E53"/>
<path d="M13.3874 60.5852C10.7674 60.5852 9.31738 57.9652 9.31738 53.1952C9.31738 50.2152 9.94738 44.7552 14.1874 41.6052C14.9074 41.0752 15.8274 40.7852 16.7774 40.7852C19.1174 40.7852 20.4574 42.2452 20.4574 44.7852C20.4574 46.3752 15.2074 60.5852 13.3874 60.5852ZM14.7874 42.4152C10.9074 45.2952 10.3274 50.4152 10.3274 53.2052C10.3274 55.5652 10.7174 59.5052 13.3074 59.5952C14.4874 58.6352 19.4574 46.7252 19.4574 44.7952C19.4574 42.8652 18.5574 41.7952 16.7774 41.7952C16.0374 41.7952 15.3274 42.0152 14.7874 42.4252V42.4152Z" fill="#273E53"/>
<path d="M57.2676 58.5652C56.9976 58.5652 56.7776 58.3452 56.7676 58.0752C56.7576 57.4252 56.7476 56.7752 56.7376 56.1152C56.6876 51.3452 56.6376 46.4152 54.0376 42.2752C53.8876 42.0452 53.9576 41.7352 54.1976 41.5852C54.4276 41.4352 54.7375 41.5052 54.8875 41.7452C57.6375 46.1252 57.6875 51.1952 57.7475 56.1052C57.7475 56.7552 57.7575 57.4052 57.7775 58.0552C57.7775 58.3352 57.5676 58.5552 57.2876 58.5652H57.2775H57.2676Z" fill="#273E53"/>
<path d="M57.7174 76.1952C57.6274 76.1952 57.5374 76.1752 57.4574 76.1252C57.2174 75.9852 57.1474 75.6752 57.2874 75.4352C60.9174 69.3752 61.3874 62.0752 61.3874 56.3852C61.3874 54.3552 61.3174 52.3852 61.2574 50.8952C61.2474 50.6152 61.4574 50.3852 61.7374 50.3752C62.0274 50.3452 62.2474 50.5752 62.2574 50.8552C62.3174 52.3552 62.3874 54.3352 62.3874 56.3852C62.3874 62.1952 61.9074 69.6752 58.1474 75.9452C58.0574 76.1052 57.8874 76.1852 57.7174 76.1852V76.1952Z" fill="#273E53"/>
<path d="M44.5074 92.335C44.0274 92.335 43.5374 92.305 43.0574 92.245C42.7874 92.215 42.5874 91.965 42.6274 91.685C42.6674 91.405 42.9174 91.215 43.1874 91.255C47.0974 91.745 51.3674 89.985 54.7874 86.565C54.9874 86.365 55.2974 86.365 55.4974 86.565C55.6974 86.765 55.6974 87.075 55.4974 87.275C52.2774 90.495 48.2774 92.335 44.5174 92.335H44.5074Z" fill="#273E53"/>
<path d="M52.7775 36.0052C52.6575 36.0052 52.5275 35.9652 52.4375 35.8652C50.9075 34.4252 48.7675 33.4252 45.7075 32.7352C45.4375 32.6752 45.2675 32.4052 45.3275 32.1352C45.3875 31.8652 45.6575 31.6952 45.9275 31.7552C49.1675 32.4952 51.4575 33.5652 53.1175 35.1352C53.3175 35.3252 53.3275 35.6452 53.1375 35.8452C53.0375 35.9452 52.9075 36.0052 52.7775 36.0052Z" fill="#273E53"/>
<path d="M37.1375 35.485C36.7675 35.485 36.3875 35.475 36.0175 35.445C35.7475 35.425 35.5375 35.185 35.5575 34.905C35.5775 34.635 35.8175 34.425 36.0975 34.445C38.9875 34.665 41.8075 33.955 44.0875 32.395C44.3175 32.245 44.6275 32.295 44.7775 32.525C44.9375 32.755 44.8775 33.065 44.6475 33.215C42.4775 34.695 39.8775 35.475 37.1475 35.475L37.1375 35.485Z" fill="#273E53"/>
</g>
</g>
<defs>
<clipPath id="clip0_430_186">
<rect width="67.39" height="95.39" fill="white" transform="translate(0.357422 0.39502)"/>
</clipPath>
<clipPath id="clip1_430_186">
<rect width="67.39" height="95.39" fill="white" transform="translate(0.357422 0.39502)"/>
</clipPath>
</defs>
</svg>
