<svg width="109" height="86" viewBox="0 0 109 86" fill="none" xmlns="http://www.w3.org/2000/svg">
<g clip-path="url(#clip0_430_185)">
<g clip-path="url(#clip1_430_185)">
<path d="M52.1377 22.6304C49.6077 22.6304 47.0677 22.4904 44.4777 22.3304C35.3177 21.7704 24.7077 20.9804 14.7377 18.5404C14.4577 18.4704 14.1077 18.4004 13.7077 18.3104C10.9377 17.7204 6.74767 16.8204 5.85767 14.2804C5.26767 12.6104 5.52767 10.9004 6.59767 9.35038C10.4177 3.84038 23.3377 1.06038 33.7177 0.810381C36.5877 0.740381 55.5277 0.590381 56.5977 0.640381C64.0877 1.01038 92.0377 4.47038 92.0377 14.5804C92.0377 15.4304 92.0377 17.6904 78.0177 20.2304C69.7077 21.7304 60.0377 22.6304 52.1377 22.6304ZM33.7677 2.81038C22.0577 3.09038 11.0777 6.39038 8.24767 10.4904C7.53767 11.5204 7.36767 12.5504 7.74767 13.6204C8.26767 15.1004 12.2277 15.9504 14.1277 16.3504C14.5477 16.4404 14.9177 16.5204 15.2177 16.5904C25.0277 18.9904 35.5277 19.7804 44.5977 20.3304C47.1577 20.4904 49.6577 20.6304 52.1377 20.6304C69.2477 20.6304 88.6677 16.7204 90.0377 14.5004C89.8777 7.37038 67.7877 3.19038 56.4977 2.63038C55.5677 2.59038 37.0877 2.72038 33.7677 2.80038V2.81038Z" fill="#273E53"/>
<path d="M48.0376 69.5403C11.2576 69.5403 6.19757 37.3303 5.58757 13.0903C5.57757 12.5403 6.00757 12.0803 6.55757 12.0703C6.55757 12.0703 6.57757 12.0703 6.58757 12.0703C7.12757 12.0703 7.57757 12.5003 7.58757 13.0503C8.52757 50.7403 21.0076 67.5503 48.0376 67.5503C65.8276 67.5503 76.0576 55.3603 81.5076 45.1303C87.7176 33.4503 90.0376 20.2003 90.0376 14.6003C90.0376 14.0503 90.4876 13.6003 91.0376 13.6003C91.5876 13.6003 92.0376 14.0503 92.0376 14.6003C92.0376 20.4003 89.6576 34.0803 83.2676 46.0703C77.5676 56.7803 66.8276 69.5503 48.0376 69.5503V69.5403Z" fill="#273E53"/>
<path d="M46.9176 73.1904C35.8876 73.1904 28.1476 69.7104 23.8976 62.8604C23.6076 62.3904 23.7476 61.7704 24.2176 61.4804C24.6876 61.1904 25.3076 61.3304 25.5976 61.8004C29.4576 68.0304 36.6276 71.1904 46.9176 71.1904C55.2676 71.1904 61.0576 69.6504 67.7176 61.5104C68.0676 61.0804 68.6976 61.0204 69.1276 61.3704C69.5576 61.7204 69.6176 62.3504 69.2676 62.7804C62.1376 71.4904 55.6776 73.2004 46.9176 73.2004V73.1904Z" fill="#273E53"/>
<path d="M58.6876 81.7706C50.5476 81.7706 36.4276 81.7006 24.2776 79.8506C8.34759 77.4306 0.277588 72.5806 0.277588 65.4406C0.277588 59.3506 10.2676 56.0306 16.2376 54.0406L16.5276 53.9406C17.0576 53.7606 17.6176 54.0506 17.7876 54.5706C17.9576 55.0906 17.6776 55.6606 17.1576 55.8406L16.8676 55.9406C11.7676 57.6406 2.27759 60.8006 2.27759 65.4406C2.27759 71.4406 9.77759 75.6206 24.5776 77.8706C37.0876 79.7706 51.7776 79.7806 59.6776 79.7606H60.5776C72.2276 79.7606 95.0676 75.9306 95.0676 67.0906C95.0676 62.3306 88.0176 58.6306 75.7276 56.9406C75.4876 56.9106 75.3076 56.8806 75.2076 56.8706C74.7076 56.7906 74.3476 56.3506 74.3676 55.8506C74.3876 55.3506 74.7676 54.9406 75.2676 54.8906C80.6176 54.3506 106.358 41.0806 106.358 25.1306C106.358 21.8606 105.198 16.3306 100.828 16.3306C97.4076 16.3306 93.4676 18.7106 91.2576 20.9206C90.8676 21.3106 90.2376 21.3106 89.8476 20.9206C89.4576 20.5306 89.4576 19.9006 89.8476 19.5106C92.4276 16.9306 96.8176 14.3306 100.828 14.3306C106.028 14.3306 108.358 19.7606 108.358 25.1306C108.358 39.4906 89.6376 51.6806 79.8776 55.5906C91.1476 57.7006 97.0676 61.6406 97.0676 67.0906C97.0676 79.2706 68.2876 81.7606 60.5776 81.7606H59.6776C59.3576 81.7606 59.0176 81.7606 58.6776 81.7606L58.6876 81.7706Z" fill="#273E53"/>
<path d="M104.247 31.7804C104.147 31.7804 104.037 31.7604 103.927 31.7304C103.407 31.5604 103.117 30.9904 103.297 30.4704C103.557 29.6904 103.687 28.8804 103.687 28.0604C103.687 25.0904 101.827 21.9204 98.3875 21.9204C95.2875 21.9204 93.5275 23.7304 91.3075 26.0204C90.9875 26.3504 90.6575 26.6904 90.3075 27.0304C89.9175 27.4204 89.2875 27.4204 88.8975 27.0304C88.5075 26.6404 88.5075 26.0104 88.8975 25.6204C89.2275 25.2804 89.5575 24.9504 89.8775 24.6204C92.2275 22.2004 94.4475 19.9204 98.3875 19.9204C102.547 19.9204 105.687 23.4204 105.687 28.0604C105.687 29.1004 105.517 30.1204 105.197 31.1104C105.057 31.5304 104.667 31.7904 104.247 31.7904V31.7804Z" fill="#273E53"/>
<path d="M82.1976 47.1705C81.7176 47.1705 81.2876 46.8205 81.2076 46.3205C81.1276 45.7705 81.4977 45.2605 82.0377 45.1805C91.0277 43.7705 100.718 35.9005 100.718 25.6505C100.718 24.1905 100.648 23.3005 100.268 21.9005C100.118 21.3705 100.428 20.8205 100.968 20.6705C101.498 20.5305 102.048 20.8305 102.198 21.3705C102.648 22.9705 102.728 24.0705 102.728 25.6605C102.728 36.9705 92.1477 45.6305 82.3577 47.1705C82.3077 47.1705 82.2476 47.1805 82.1976 47.1805V47.1705Z" fill="#273E53"/>
<path d="M53.5576 85.5505C49.7976 85.5505 45.2476 85.1105 41.1976 84.7205C39.3676 84.5405 37.6076 84.3705 36.0176 84.2505C32.8076 84.0005 26.9476 83.5605 25.8076 79.5705C25.6576 79.0405 25.9676 78.4905 26.4976 78.3305C27.0276 78.1805 27.5776 78.4805 27.7376 79.0205C28.4976 81.6705 33.6476 82.0705 36.1176 82.2505C37.7676 82.3805 39.5476 82.5505 41.3876 82.7305C45.6676 83.1405 50.5276 83.6205 54.2976 83.5505C59.0476 83.4705 62.5376 82.8005 66.3276 79.6505C66.7476 79.3005 67.3776 79.3505 67.7376 79.7805C68.0876 80.2005 68.0376 80.8305 67.6076 81.1905C63.3876 84.7005 59.3976 85.4705 54.3376 85.5605C54.0876 85.5605 53.8276 85.5605 53.5576 85.5605V85.5505Z" fill="#273E53"/>
<path d="M39.6876 19.2604C36.4776 19.2004 8.27759 18.5304 8.27759 12.0704C8.26759 3.04043 36.5376 2.94043 36.8176 2.94043C37.0976 2.94043 37.3176 3.16043 37.3176 3.44043C37.3176 3.72043 37.0976 3.94043 36.8176 3.94043C29.6676 3.94043 9.26759 5.43043 9.26759 12.0704C9.26759 16.2304 27.4576 18.0504 39.6876 18.2604C39.9676 18.2604 40.1876 18.4904 40.1776 18.7704C40.1776 19.0404 39.9476 19.2604 39.6776 19.2604H39.6876Z" fill="#273E53"/>
<path d="M44.7375 20.1107C44.4675 20.1107 44.2375 19.8907 44.2375 19.6207C44.2375 19.3407 44.4576 19.1207 44.7276 19.1107C46.5776 19.0807 48.4276 19.0707 50.2676 19.0507C59.6776 18.9807 68.5676 18.9107 77.6476 17.0907C77.9076 17.0307 78.1775 17.2107 78.2375 17.4807C78.2875 17.7507 78.1175 18.0107 77.8475 18.0707C68.6775 19.9007 59.3275 19.9807 50.2775 20.0407C48.4375 20.0507 46.5976 20.0707 44.7476 20.1007L44.7375 20.1107Z" fill="#273E53"/>
<path d="M83.3776 16.9503C83.1576 16.9503 82.9376 16.9303 82.7276 16.9103C82.4576 16.8703 82.2676 16.6203 82.3076 16.3403C82.3476 16.0703 82.6076 15.8703 82.8776 15.9203C84.6476 16.1803 87.1676 14.9903 87.1676 13.5903C87.1676 10.9503 82.4276 9.46028 78.9676 8.37028C77.6976 7.97028 76.5976 7.63028 75.8576 7.27028C75.6076 7.15028 75.5076 6.85028 75.6176 6.60028C75.7376 6.35028 76.0376 6.25028 76.2876 6.36028C76.9676 6.69028 78.0376 7.02028 79.2676 7.41028C83.0176 8.59028 88.1676 10.2003 88.1676 13.5803C88.1676 15.5103 85.6376 16.9503 83.3876 16.9503H83.3776Z" fill="#273E53"/>
<path d="M59.7276 3.94045C58.3476 3.94045 56.9476 3.81045 55.5976 3.69045C53.4176 3.49045 51.0676 3.33045 49.1876 3.60045C48.9176 3.64045 48.6576 3.45045 48.6176 3.18045C48.5776 2.91045 48.7676 2.65045 49.0376 2.61045C51.0076 2.33045 53.4476 2.49045 55.6876 2.70045C57.0176 2.82045 58.3876 2.95045 59.7276 2.95045C60.0076 2.95045 60.2276 3.17045 60.2276 3.45045C60.2276 3.73045 60.0076 3.95045 59.7276 3.95045V3.94045Z" fill="#273E53"/>
<path d="M23.6776 22.1302C23.5476 22.1302 23.4076 22.0802 23.3176 21.9802C21.0576 22.1002 15.7576 21.7002 12.3676 20.2402C12.1176 20.1302 11.9976 19.8402 12.1076 19.5802C12.2176 19.3202 12.5076 19.2102 12.7676 19.3202C16.5276 20.9302 21.9876 21.0202 23.5276 20.9702C23.6076 20.9402 23.6876 20.9202 23.7876 20.9202C24.0476 20.9202 24.3576 20.9202 24.4876 21.2402C24.5676 21.4302 24.5176 21.6402 24.3776 21.7902C24.3376 21.8302 24.2476 21.8602 24.1076 21.8902C24.0576 21.9702 23.9876 22.0302 23.9076 22.0802C23.8376 22.1202 23.7576 22.1302 23.6876 22.1302H23.6776Z" fill="#273E53"/>
<path d="M25.9176 52.5202C25.0476 52.5202 23.2876 51.1602 17.9976 38.3202C17.8876 38.0602 18.0176 37.7702 18.2676 37.6702C18.5276 37.5702 18.8176 37.6902 18.9176 37.9402C24.0776 50.4802 25.6376 51.4902 25.9976 51.5002C27.2576 50.6902 25.3677 37.6702 24.4677 31.4102C23.8977 27.4602 23.3976 24.0402 23.3476 22.4902C23.3476 22.2102 23.5576 21.9802 23.8276 21.9702C23.8276 21.9702 23.8376 21.9702 23.8476 21.9702C24.1176 21.9702 24.3376 22.1802 24.3476 22.4502C24.3976 23.9502 24.8877 27.3402 25.4577 31.2602C27.5177 45.5102 28.1276 51.9502 26.2476 52.4602C26.1476 52.4902 26.0376 52.5202 25.9076 52.5202H25.9176Z" fill="#273E53"/>
<path d="M15.4375 32.2305C15.2475 32.2305 15.0675 32.1205 14.9875 31.9405C14.2075 30.2905 13.7775 28.5105 13.3575 26.7905C12.9475 25.1205 12.5275 23.3905 11.7875 21.8305C11.6675 21.5805 11.7775 21.2805 12.0275 21.1605C12.2775 21.0405 12.5775 21.1505 12.6975 21.4005C13.4775 23.0505 13.9075 24.8305 14.3275 26.5505C14.7375 28.2205 15.1575 29.9505 15.8975 31.5105C16.0175 31.7605 15.9075 32.0605 15.6575 32.1805C15.5875 32.2105 15.5175 32.2305 15.4475 32.2305H15.4375Z" fill="#273E53"/>
<path d="M46.3275 65.0507C40.6875 65.0507 35.2475 64.0507 30.5775 62.1707C30.3175 62.0707 30.1975 61.7807 30.2975 61.5207C30.3975 61.2607 30.6875 61.1407 30.9475 61.2407C35.4975 63.0807 40.8175 64.0507 46.3275 64.0507C51.8375 64.0507 57.3175 63.0807 62.0775 61.2407C62.3375 61.1407 62.6275 61.2707 62.7275 61.5307C62.8275 61.7907 62.6975 62.0807 62.4375 62.1807C57.5675 64.0607 51.9875 65.0607 46.3275 65.0607V65.0507Z" fill="#273E53"/>
<path d="M69.2675 59.2906C69.1475 59.2906 69.0175 59.2506 68.9275 59.1606C68.7275 58.9706 68.7175 58.6506 68.9075 58.4506C77.9175 48.8206 84.4675 35.2406 87.3675 20.1906C87.4175 19.9206 87.6875 19.7406 87.9575 19.7906C88.2275 19.8406 88.4075 20.1006 88.3575 20.3806C85.4175 35.6106 78.7775 49.3706 69.6475 59.1306C69.5475 59.2306 69.4175 59.2906 69.2775 59.2906H69.2675Z" fill="#273E53"/>
<path d="M73.7074 50.4202C73.6074 50.4202 73.4974 50.3902 73.4074 50.3202C73.1874 50.1502 73.1374 49.8402 73.3074 49.6202C77.7474 43.7002 84.5374 22.9402 84.7074 21.7402C84.7074 21.6402 84.6974 21.5102 84.6674 21.3702C84.6174 21.1002 84.8074 20.8402 85.0774 20.7902C85.3474 20.7402 85.6074 20.9302 85.6574 21.2002C85.6874 21.3902 85.7074 21.5802 85.7074 21.7702C85.7074 22.5602 78.6774 44.1202 74.1174 50.2102C74.0174 50.3402 73.8674 50.4102 73.7174 50.4102L73.7074 50.4202Z" fill="#273E53"/>
<path d="M71.8576 48.7406C71.7776 48.7406 71.6976 48.7206 71.6276 48.6806C71.3776 48.5506 71.2876 48.2506 71.4076 48.0106C74.3576 42.2806 77.2476 36.0606 78.4376 29.4606C78.4876 29.1906 78.7376 29.0106 79.0176 29.0606C79.2876 29.1106 79.4676 29.3706 79.4176 29.6406C78.2076 36.3806 75.2776 42.6706 72.2976 48.4706C72.2076 48.6406 72.0376 48.7406 71.8576 48.7406Z" fill="#273E53"/>
<path d="M55.6875 23.9805C55.4175 23.9805 55.1975 23.7605 55.1875 23.4905C55.1875 23.2105 55.3975 22.9905 55.6775 22.9805C63.5575 22.8205 71.9175 22.4905 79.8175 20.4705C80.0875 20.4005 80.3575 20.5605 80.4275 20.8305C80.4975 21.1005 80.3375 21.3705 80.0675 21.4405C72.0675 23.4805 63.6375 23.8205 55.6975 23.9805H55.6875Z" fill="#273E53"/>
<path d="M45.4475 66.6506C42.4575 66.6506 39.7675 66.3506 37.2075 65.7306C36.9375 65.6706 36.7775 65.3906 36.8375 65.1306C36.9075 64.8606 37.1675 64.7006 37.4375 64.7606C39.9175 65.3606 42.5275 65.6506 45.4375 65.6506C48.0575 65.6506 50.8575 65.4206 54.2575 64.9206C54.5375 64.8806 54.7875 65.0706 54.8275 65.3406C54.8675 65.6106 54.6775 65.8706 54.4075 65.9106C50.9575 66.4206 48.1075 66.6506 45.4375 66.6506H45.4475Z" fill="#273E53"/>
<path d="M47.7376 70.8204C44.1576 70.8204 40.4376 70.3103 36.3576 69.2603C36.0876 69.1903 35.9276 68.9203 35.9976 68.6503C36.0676 68.3803 36.3376 68.2204 36.6076 68.2904C40.6076 69.3204 44.2476 69.8104 47.7376 69.8104C50.8676 69.8104 53.8576 69.3904 56.6376 68.5604C56.8976 68.4804 57.1776 68.6303 57.2576 68.9003C57.3376 69.1603 57.1876 69.4404 56.9276 69.5204C54.0576 70.3804 50.9676 70.8204 47.7476 70.8204H47.7376Z" fill="#273E53"/>
<path d="M97.6174 39.1403C97.4774 39.1403 97.3374 39.0803 97.2374 38.9703C97.0574 38.7603 97.0774 38.4503 97.2874 38.2703C100.567 35.4603 102.447 31.7103 102.447 27.9803C102.447 27.4703 102.407 26.9503 102.337 26.4303C102.297 26.1603 102.487 25.9003 102.757 25.8603C103.027 25.8203 103.287 26.0103 103.327 26.2803C103.407 26.8403 103.447 27.4103 103.447 27.9703C103.447 31.9903 101.437 36.0203 97.9374 39.0203C97.8474 39.1003 97.7274 39.1403 97.6074 39.1403H97.6174Z" fill="#273E53"/>
<path d="M79.9375 53.2807C79.8575 53.2807 79.7875 53.2607 79.7175 53.2307C79.4675 53.1107 79.3675 52.8107 79.4975 52.5607C79.9175 51.7107 80.3875 50.8607 80.8575 50.0107C81.3175 49.1707 81.7775 48.3407 82.1975 47.5007C82.3175 47.2507 82.6275 47.1607 82.8675 47.2807C83.1175 47.4007 83.2175 47.7007 83.0875 47.9507C82.6675 48.8007 82.1975 49.6407 81.7275 50.4907C81.2675 51.3307 80.8075 52.1607 80.3875 53.0007C80.2975 53.1807 80.1275 53.2807 79.9375 53.2807Z" fill="#273E53"/>
<path d="M81.9576 51.6004C81.9576 51.6004 81.8876 51.6004 81.8576 51.6004C81.5876 51.5504 81.4076 51.2804 81.4676 51.0104C81.6576 50.0404 82.2176 49.3904 82.7576 48.7604C83.2376 48.2004 83.6876 47.6804 83.8276 46.9704C83.8776 46.7004 84.1576 46.5204 84.4176 46.5804C84.6876 46.6304 84.8676 46.9004 84.8076 47.1704C84.6176 48.1404 84.0576 48.7904 83.5176 49.4204C83.0376 49.9804 82.5876 50.5004 82.4476 51.2104C82.3976 51.4504 82.1876 51.6104 81.9576 51.6104V51.6004Z" fill="#273E53"/>
<path d="M84.9876 49.7507C84.9376 49.7507 84.8776 49.7507 84.8276 49.7207C84.5676 49.6307 84.4276 49.3507 84.5076 49.0907C84.6476 48.6607 84.8476 48.2307 85.0376 47.8307C85.3176 47.2407 85.5776 46.6807 85.6676 46.1407C85.7176 45.8707 85.9776 45.6807 86.2476 45.7307C86.5176 45.7807 86.7076 46.0307 86.6576 46.3107C86.5476 46.9807 86.2476 47.6307 85.9476 48.2607C85.7576 48.6607 85.5776 49.0407 85.4576 49.4207C85.3876 49.6307 85.1876 49.7607 84.9876 49.7607V49.7507Z" fill="#273E53"/>
<path d="M70.1875 77.9905C69.9475 77.9905 69.7375 77.8205 69.6975 77.5705C69.6575 77.3005 69.8375 77.0405 70.1075 77.0005C84.5075 74.6505 91.8075 70.6005 91.8075 64.9705C91.8075 62.3905 87.4375 61.1405 84.3375 60.8905C84.2474 60.9805 84.1174 61.0405 83.9774 61.0405C83.5974 61.0405 83.3175 60.7505 83.3175 60.3605C83.3175 60.2205 83.3775 60.0905 83.4675 60.0005C83.5675 59.9105 83.7074 59.8505 83.8375 59.8605C86.9375 60.0005 92.7974 61.2505 92.7974 64.9705C92.7974 71.1705 85.2175 75.5505 70.2575 77.9905C70.2275 77.9905 70.2075 77.9905 70.1775 77.9905H70.1875Z" fill="#273E53"/>
<path d="M54.3675 79.7105C53.8675 79.7105 3.96753 78.6205 3.96753 65.1205C3.96753 62.4105 6.72753 61.1105 9.40753 59.8605C10.8175 59.2005 12.2775 58.5105 13.2475 57.6405C13.4475 57.4605 13.7675 57.4705 13.9575 57.6805C14.1375 57.8905 14.1275 58.2005 13.9175 58.3905C12.8375 59.3505 11.3175 60.0705 9.83753 60.7705C7.33753 61.9505 4.97753 63.0605 4.97753 65.1305C4.97753 76.2205 46.6975 78.7205 54.3775 78.7205C58.7275 78.7205 62.7175 78.4005 66.5575 77.7405C66.8175 77.6905 67.0875 77.8805 67.1375 78.1505C67.1875 78.4205 66.9975 78.6805 66.7275 78.7305C62.8275 79.4005 58.7875 79.7305 54.3775 79.7305L54.3675 79.7105Z" fill="#273E53"/>
<path d="M53.3076 83.2506C49.5976 83.2506 45.8076 82.8206 42.1476 82.4106C38.7976 82.0306 35.3276 81.6406 31.9276 81.5806C31.6476 81.5806 31.4276 81.3506 31.4376 81.0706C31.4376 80.8006 31.6676 80.5806 31.9376 80.5806C35.3876 80.6406 38.8776 81.0406 42.2476 81.4206C45.8876 81.8306 49.6476 82.2606 53.2976 82.2606C55.1576 82.2606 56.8476 82.1506 58.4676 81.9406C58.7376 81.9006 58.9976 82.0906 59.0276 82.3706C59.0676 82.6406 58.8776 82.9006 58.5976 82.9306C56.9376 83.1506 55.1976 83.2606 53.2976 83.2606L53.3076 83.2506Z" fill="#273E53"/>
<path d="M47.6676 74.0802C42.4976 74.0802 36.7276 72.9002 31.4176 70.7602C31.1576 70.6602 31.0376 70.3602 31.1376 70.1102C31.2376 69.8502 31.5376 69.7302 31.7876 69.8302C36.9776 71.9202 42.6176 73.0802 47.6576 73.0802C53.7376 73.0802 58.8276 71.5002 62.7776 68.3902C62.9976 68.2202 63.3076 68.2602 63.4776 68.4702C63.6476 68.6902 63.6076 69.0002 63.3976 69.1702C59.2676 72.4302 53.9676 74.0802 47.6576 74.0802H47.6676Z" fill="#273E53"/>
<path d="M79.5974 74.5006C79.3874 74.5006 79.1874 74.3606 79.1174 74.1506C79.0374 73.8906 79.1774 73.6106 79.4374 73.5206C82.2374 72.6306 88.7374 70.0206 88.7374 65.1906C88.7374 64.9506 88.7174 64.7106 88.6874 64.4606C88.6574 64.1906 88.8474 63.9406 89.1174 63.9006C89.3874 63.8706 89.6374 64.0606 89.6774 64.3306C89.7174 64.6206 89.7374 64.9106 89.7374 65.1906C89.7374 70.6806 82.7474 73.5106 79.7374 74.4706C79.6874 74.4906 79.6374 74.4906 79.5874 74.4906L79.5974 74.5006Z" fill="#273E53"/>
</g>
</g>
<defs>
<clipPath id="clip0_430_185">
<rect width="108.08" height="84.92" fill="white" transform="translate(0.277588 0.630371)"/>
</clipPath>
<clipPath id="clip1_430_185">
<rect width="108.08" height="84.92" fill="white" transform="translate(0.277588 0.630371)"/>
</clipPath>
</defs>
</svg>
