<svg width="91" height="98" viewBox="0 0 91 98" fill="none" xmlns="http://www.w3.org/2000/svg">
<g clip-path="url(#clip0_430_189)">
<g clip-path="url(#clip1_430_189)">
<path d="M34.8978 97.2753C34.4178 97.2753 33.7378 97.2353 33.1578 96.6553C32.1578 95.6553 31.5778 93.3353 31.5778 84.4253V81.0453C31.5778 75.1353 31.3578 70.1953 28.5078 64.9453C28.2478 64.4553 28.4278 63.8553 28.9078 63.5853C29.3878 63.3253 29.9978 63.4953 30.2678 63.9853C33.3378 69.6353 33.5878 75.0453 33.5878 81.0353V84.4153C33.5878 92.5353 34.1178 94.7753 34.5678 95.2253C34.5978 95.2553 34.6678 95.2653 34.8778 95.2653C36.6378 94.3153 40.6478 92.4253 45.0178 92.4253C48.3078 92.4253 51.5178 93.1553 54.0878 93.7353C55.8178 94.1253 57.3178 94.4653 58.3078 94.4653H58.4778C58.7578 94.4653 59.1178 94.4653 59.1778 94.4053C59.9178 93.6653 59.9178 87.3153 59.9178 84.2653C59.9178 82.3753 59.8778 80.4953 59.8378 78.6153C59.7978 76.7253 59.7578 74.8453 59.7578 72.9653C59.7578 69.7153 59.8578 65.4253 60.6278 61.0353C60.7178 60.4953 61.2478 60.1253 61.7878 60.2253C62.3278 60.3253 62.6978 60.8353 62.5978 61.3853C62.0178 64.6953 61.7578 68.2653 61.7578 72.9753C61.7578 74.8453 61.7978 76.7153 61.8378 78.5853C61.8778 80.4753 61.9178 82.3753 61.9178 84.2753C61.9178 92.9653 61.5678 94.8553 60.5878 95.8353C59.9378 96.4853 59.1478 96.4753 58.4678 96.4753H58.3078C57.0978 96.4753 55.4978 96.1153 53.6478 95.6953C51.1678 95.1353 48.0878 94.4353 45.0178 94.4353C40.9478 94.4353 37.1578 96.2953 35.7178 97.0953C35.5578 97.1853 35.3978 97.2753 35.1278 97.2753H35.0178C35.0178 97.2753 34.9378 97.2753 34.8978 97.2753Z" fill="#273E53"/>
<path d="M21.6077 66.0453C6.31769 66.0453 0.887695 52.3853 0.887695 40.6953C0.887695 11.3553 24.9277 0.905273 47.4277 0.905273C75.8077 0.905273 90.6477 18.7053 90.6477 36.2853C90.6477 52.6753 78.2977 62.4653 66.3577 62.4653C54.4177 62.4653 47.0277 53.6453 47.0277 45.7353C47.0277 40.4753 50.3077 34.8353 55.1977 34.8353C61.9777 34.8353 63.0077 40.1153 63.9077 44.7753C64.9177 49.9953 65.7977 54.5053 72.9077 54.5053C76.5077 54.5053 79.8477 52.6253 81.4277 49.7053C81.6877 49.2153 82.2977 49.0353 82.7877 49.3053C83.2777 49.5653 83.4577 50.1753 83.1877 50.6653C81.2677 54.2153 77.2277 56.5153 72.9077 56.5153C64.1477 56.5153 62.9277 50.2253 61.9477 45.1653C60.9477 40.0053 60.0877 36.8453 55.1977 36.8453C51.5677 36.8453 49.0277 41.5353 49.0277 45.7453C49.0277 52.7153 56.1477 60.4753 66.3577 60.4753C77.3177 60.4753 88.6477 51.4353 88.6477 36.2953C88.6477 19.7053 74.4877 2.91527 47.4277 2.91527C25.8977 2.90527 2.8877 12.8353 2.8877 40.6953C2.8877 51.4653 7.78769 64.0453 21.6077 64.0453C33.7477 64.0453 41.2877 57.7953 41.2877 47.7353C41.2877 43.0353 38.9577 38.3053 33.7677 38.3053C30.0377 38.3053 23.0777 40.8153 23.0777 46.8453C23.0777 48.5853 23.4877 49.5753 23.9177 50.6153C24.3577 51.6853 24.8177 52.7953 24.8177 54.5653C24.8177 59.4753 21.2877 60.1353 17.8477 60.1353C15.0977 60.1353 13.0477 59.3253 11.7477 57.7353C11.3977 57.3053 11.4577 56.6753 11.8877 56.3253C12.3177 55.9753 12.9477 56.0353 13.2977 56.4653C14.2077 57.5753 15.7377 58.1353 17.8577 58.1353C21.7177 58.1353 22.8277 57.3353 22.8277 54.5653C22.8277 53.1953 22.4777 52.3553 22.0777 51.3853C21.6177 50.2653 21.0877 48.9853 21.0877 46.8453C21.0877 39.6553 28.6577 36.3053 33.7777 36.3053C40.3177 36.3053 43.2977 42.2353 43.2977 47.7353C43.2977 59.0353 34.9877 66.0453 21.6177 66.0453H21.6077Z" fill="#273E53"/>
<path d="M22.6477 45.3357C22.5077 45.3357 22.3577 45.2757 22.2577 45.1557C22.0877 44.9457 22.1177 44.6257 22.3277 44.4557C26.1277 41.3457 30.2777 39.1857 34.2877 37.1057C34.5277 36.9757 34.8377 37.0757 34.9577 37.3157C35.0877 37.5657 34.9877 37.8657 34.7477 37.9857C30.7777 40.0457 26.6777 42.1757 22.9577 45.2257C22.8677 45.3057 22.7477 45.3357 22.6377 45.3357H22.6477Z" fill="#273E53"/>
<path d="M22.9878 47.0155C22.8178 47.0155 22.6478 46.9255 22.5578 46.7655C22.4178 46.5255 22.4978 46.2255 22.7278 46.0855C24.5878 44.9855 26.5778 44.0755 28.5178 43.1955C31.3578 41.9055 34.2978 40.5655 36.8678 38.5955C37.0878 38.4255 37.3978 38.4655 37.5678 38.6855C37.7378 38.9055 37.6978 39.2155 37.4778 39.3855C34.8178 41.4355 31.8278 42.7955 28.9378 44.1055C27.0278 44.9755 25.0578 45.8655 23.2478 46.9455C23.1678 46.9955 23.0778 47.0155 22.9978 47.0155H22.9878Z" fill="#273E53"/>
<path d="M22.3078 50.3853C22.1478 50.3853 21.9978 50.3153 21.8978 50.1753C21.7378 49.9453 21.7878 49.6353 22.0178 49.4753C25.0978 47.2753 27.9178 46.1753 31.1878 44.8953C33.5778 43.9653 36.0478 42.9953 38.9778 41.4753C39.2178 41.3453 39.5278 41.4453 39.6478 41.6853C39.7778 41.9353 39.6778 42.2353 39.4378 42.3553C36.4578 43.9053 33.8478 44.9253 31.5478 45.8253C28.3378 47.0753 25.5678 48.1553 22.5878 50.2853C22.4978 50.3453 22.3978 50.3753 22.2978 50.3753L22.3078 50.3853Z" fill="#273E53"/>
<path d="M23.3177 52.7456C23.1477 52.7456 22.9877 52.6556 22.8877 52.5056C22.7477 52.2656 22.8177 51.9656 23.0577 51.8156C26.4377 49.7656 30.2177 48.4456 33.8777 47.1656C36.2877 46.3256 38.7877 45.4456 41.1277 44.3756C41.3777 44.2656 41.6777 44.3756 41.7877 44.6256C41.8977 44.8756 41.7877 45.1756 41.5377 45.2856C39.1577 46.3756 36.6377 47.2556 34.2077 48.1056C30.5977 49.3656 26.8577 50.6756 23.5677 52.6656C23.4877 52.7156 23.3977 52.7356 23.3077 52.7356L23.3177 52.7456Z" fill="#273E53"/>
<path d="M24.1578 55.1053C23.9678 55.1053 23.7978 55.0053 23.7078 54.8253C23.5878 54.5753 23.6878 54.2753 23.9378 54.1553C27.7678 52.2953 31.8278 50.9053 35.7578 49.5653C37.5778 48.9453 39.4678 48.2953 41.3278 47.6053C41.5878 47.5053 41.8778 47.6453 41.9678 47.8953C42.0678 48.1553 41.9278 48.4453 41.6778 48.5353C39.8078 49.2253 37.9178 49.8753 36.0878 50.5053C32.0078 51.9053 28.1578 53.2253 24.3878 55.0553C24.3178 55.0853 24.2478 55.1053 24.1678 55.1053H24.1578Z" fill="#273E53"/>
<path d="M23.4877 57.1254H23.3177C23.0577 57.1254 22.8377 56.9254 22.8177 56.6654C22.7977 56.4054 22.9777 56.1754 23.2377 56.1354C26.9177 55.5354 30.4377 54.3854 33.8377 53.2654C36.1677 52.4954 38.5777 51.7054 41.0477 51.0954C41.3077 51.0254 41.5877 51.1954 41.6577 51.4554C41.7277 51.7254 41.5577 51.9954 41.2977 52.0654C38.8677 52.6754 36.4777 53.4554 34.1577 54.2154C30.8177 55.3154 27.3677 56.4454 23.7277 57.0654C23.6577 57.1054 23.5777 57.1254 23.4877 57.1254Z" fill="#273E53"/>
<path d="M21.8078 59.6455C21.5678 59.6455 21.3478 59.4655 21.3178 59.2155C21.2778 58.9455 21.4678 58.6855 21.7378 58.6455C24.9278 58.1855 28.1878 57.4155 31.3378 56.6755C33.9778 56.0555 36.7078 55.4055 39.4078 54.9455C39.6878 54.8955 39.9378 55.0855 39.9878 55.3555C40.0378 55.6255 39.8478 55.8855 39.5778 55.9355C36.9178 56.3955 34.1978 57.0355 31.5678 57.6555C28.3978 58.4055 25.1178 59.1855 21.8778 59.6455C21.8578 59.6455 21.8278 59.6455 21.8078 59.6455Z" fill="#273E53"/>
<path d="M21.9679 62.1755C21.7079 62.1755 21.4879 61.9755 21.4679 61.7055C21.4479 61.4255 21.6579 61.1955 21.9379 61.1755C24.3079 61.0155 26.6579 60.4655 28.9379 59.9355C31.4679 59.3455 34.0879 58.7355 36.7779 58.6455H36.7979C37.0679 58.6455 37.2879 58.8555 37.2979 59.1255C37.2979 59.4055 37.0879 59.6355 36.8179 59.6455C34.2279 59.7355 31.6579 60.3355 29.1679 60.9055C26.8579 61.4455 24.4579 62.0055 22.0079 62.1655C21.9979 62.1655 21.9879 62.1655 21.9779 62.1655L21.9679 62.1755Z" fill="#273E53"/>
<path d="M22.4777 64.5357C22.2977 64.5357 22.1177 64.4357 22.0277 64.2557C21.9077 64.0057 22.0077 63.7057 22.2477 63.5857C23.6377 62.8957 25.1577 62.4557 26.6277 62.0357C28.0577 61.6257 29.5277 61.2057 30.8377 60.5557C31.0777 60.4357 31.3877 60.5357 31.5077 60.7757C31.6277 61.0257 31.5277 61.3257 31.2877 61.4457C29.8977 62.1357 28.3777 62.5757 26.9077 62.9957C25.4777 63.4057 24.0077 63.8257 22.6977 64.4757C22.6277 64.5157 22.5477 64.5257 22.4777 64.5257V64.5357Z" fill="#273E53"/>
<path d="M49.9277 40.4453C49.7377 40.4453 49.5577 40.3353 49.4777 40.1553C49.3577 39.9053 49.4777 39.6053 49.7177 39.4953C50.1077 39.3153 50.4977 39.1253 50.8877 38.9453C53.0277 37.9253 55.2477 36.8653 57.5877 36.4253C57.8577 36.3753 58.1177 36.5553 58.1677 36.8253C58.2177 37.0953 58.0377 37.3553 57.7677 37.4053C55.5577 37.8253 53.3977 38.8453 51.3177 39.8453C50.9277 40.0353 50.5277 40.2253 50.1377 40.4053C50.0677 40.4353 49.9977 40.4553 49.9277 40.4553V40.4453Z" fill="#273E53"/>
<path d="M49.2579 43.6457C49.0479 43.6457 48.8479 43.5057 48.7779 43.2857C48.6979 43.0257 48.8479 42.7457 49.1079 42.6657C50.7679 42.1657 52.4179 41.4457 54.0179 40.7457C55.6479 40.0357 57.3279 39.3057 59.0479 38.7857C59.3079 38.7057 59.5879 38.8557 59.6679 39.1157C59.7479 39.3757 59.5979 39.6557 59.3379 39.7357C57.6779 40.2357 56.0279 40.9557 54.4279 41.6557C52.7979 42.3657 51.1179 43.0957 49.3979 43.6157C49.3479 43.6257 49.2979 43.6357 49.2579 43.6357V43.6457Z" fill="#273E53"/>
<path d="M47.5777 46.5153C47.3577 46.5153 47.1577 46.3754 47.0977 46.1454C47.0277 45.8754 47.1777 45.6053 47.4477 45.5253C49.7377 44.8853 52.0377 43.9653 54.2577 43.0853C56.0877 42.3553 57.9877 41.5954 59.8977 40.9854C60.1577 40.9054 60.4377 41.0454 60.5277 41.3054C60.6077 41.5654 60.4677 41.8453 60.2077 41.9353C58.3277 42.5353 56.4577 43.2853 54.6377 44.0053C52.3877 44.9053 50.0677 45.8254 47.7277 46.4854C47.6877 46.4954 47.6377 46.5053 47.5977 46.5053L47.5777 46.5153Z" fill="#273E53"/>
<path d="M48.0778 48.1955C47.8478 48.1955 47.6478 48.0355 47.5878 47.8055C47.5278 47.5355 47.6978 47.2655 47.9578 47.2055C49.9978 46.7355 51.9978 45.9555 53.9478 45.1955C56.1478 44.3355 58.4278 43.4455 60.7778 42.9955C61.0478 42.9455 61.3078 43.1155 61.3678 43.3955C61.4178 43.6655 61.2378 43.9255 60.9678 43.9855C58.7078 44.4155 56.4678 45.2955 54.3178 46.1355C52.3378 46.9055 50.2978 47.7055 48.1878 48.1955C48.1478 48.1955 48.1078 48.2055 48.0778 48.2055V48.1955Z" fill="#273E53"/>
<path d="M50.0979 50.3857C49.9079 50.3857 49.7179 50.2757 49.6379 50.0857C49.5279 49.8357 49.6379 49.5357 49.8979 49.4257C50.6379 49.1057 51.3779 48.7757 52.1279 48.4457C55.2379 47.0657 58.4579 45.6257 61.8979 44.6657C62.1679 44.5857 62.4379 44.7457 62.5179 45.0157C62.5879 45.2857 62.4379 45.5557 62.1679 45.6357C58.7979 46.5757 55.6179 47.9957 52.5379 49.3657C51.7879 49.6957 51.0479 50.0257 50.2979 50.3557C50.2379 50.3857 50.1679 50.3957 50.0979 50.3957V50.3857Z" fill="#273E53"/>
<path d="M50.6078 53.0756C50.4078 53.0756 50.2178 52.9556 50.1378 52.7556C50.0378 52.4956 50.1678 52.2056 50.4178 52.1056C51.7078 51.6056 52.9978 51.0756 54.2878 50.5556C56.8278 49.5256 59.4578 48.4556 62.0578 47.5556C62.3178 47.4656 62.5978 47.6056 62.6978 47.8656C62.7878 48.1256 62.6478 48.4156 62.3878 48.5056C59.8178 49.3956 57.1978 50.4656 54.6678 51.4856C53.3778 52.0156 52.0778 52.5356 50.7878 53.0456C50.7278 53.0656 50.6678 53.0756 50.6078 53.0756Z" fill="#273E53"/>
<path d="M53.1278 54.7655C52.9378 54.7655 52.7578 54.6555 52.6678 54.4655C52.5578 54.2155 52.6678 53.9155 52.9178 53.8055L54.3278 53.1755C56.9478 51.9955 59.6678 50.7755 62.3978 49.9155C62.6578 49.8355 62.9378 49.9755 63.0278 50.2455C63.1078 50.5055 62.9678 50.7855 62.6978 50.8755C60.0178 51.7255 57.3278 52.9255 54.7278 54.0955L53.3178 54.7255C53.2478 54.7555 53.1878 54.7655 53.1178 54.7655H53.1278Z" fill="#273E53"/>
<path d="M55.8279 56.4453C55.6179 56.4453 55.4279 56.3153 55.3579 56.1153C55.2679 55.8553 55.4079 55.5653 55.6679 55.4753C56.9379 55.0253 58.1779 54.4253 59.3679 53.8453C60.8279 53.1353 62.3379 52.4053 63.9479 51.9253C64.2079 51.8453 64.4879 51.9953 64.5679 52.2653C64.6479 52.5253 64.4979 52.8053 64.2279 52.8853C62.7079 53.3353 61.2979 54.0153 59.8079 54.7453C58.5879 55.3353 57.3279 55.9453 55.9979 56.4153C55.9479 56.4353 55.8879 56.4453 55.8279 56.4453Z" fill="#273E53"/>
<path d="M56.3277 58.4656C56.1177 58.4656 55.9277 58.3356 55.8577 58.1356C55.7677 57.8756 55.8977 57.5856 56.1677 57.4956C57.4377 57.0456 58.6777 56.4456 59.8677 55.8656C61.3277 55.1556 62.8377 54.4256 64.4377 53.9556C64.6977 53.8756 64.9777 54.0256 65.0577 54.2956C65.1377 54.5556 64.9877 54.8356 64.7177 54.9156C63.1977 55.3656 61.7877 56.0456 60.2977 56.7656C59.0777 57.3556 57.8177 57.9756 56.4877 58.4356C56.4377 58.4556 56.3777 58.4656 56.3177 58.4656H56.3277Z" fill="#273E53"/>
<path d="M59.1979 59.9856C59.0279 59.9856 58.8579 59.8956 58.7679 59.7356C58.6279 59.4956 58.7079 59.1956 58.9479 59.0556L59.3679 58.8056C61.2479 57.7056 63.3879 56.4556 65.6579 55.9656C65.9279 55.9156 66.1979 56.0756 66.2479 56.3456C66.3079 56.6156 66.1379 56.8856 65.8679 56.9356C63.7479 57.3856 61.7779 58.5456 59.8679 59.6656L59.4479 59.9156C59.3679 59.9656 59.2779 59.9856 59.1979 59.9856Z" fill="#273E53"/>
<path d="M63.2378 59.8153C63.0378 59.8153 62.8478 59.6953 62.7678 59.4953C62.6678 59.2353 62.7978 58.9453 63.0578 58.8453C64.1478 58.4253 65.2378 57.9653 66.3278 57.5053C67.4278 57.0453 68.5279 56.5753 69.6179 56.1553C69.8779 56.0553 70.1678 56.1853 70.2678 56.4453C70.3678 56.7053 70.2378 56.9953 69.9778 57.0953C68.8878 57.5153 67.7978 57.9753 66.7178 58.4353C65.6178 58.9053 64.5178 59.3653 63.4178 59.7953C63.3578 59.8153 63.2978 59.8253 63.2378 59.8253V59.8153Z" fill="#273E53"/>
<path d="M66.2677 60.1555C66.0677 60.1555 65.8677 60.0255 65.7977 59.8255C65.7077 59.5655 65.8377 59.2755 66.0977 59.1855C66.9677 58.8655 67.7277 58.3855 68.5277 57.8855C69.3377 57.3755 70.1777 56.8455 71.1477 56.4855C71.4077 56.3955 71.6977 56.5255 71.7877 56.7855C71.8777 57.0455 71.7477 57.3355 71.4877 57.4255C70.6077 57.7455 69.8577 58.2255 69.0577 58.7255C68.2477 59.2355 67.4177 59.7655 66.4377 60.1155C66.3777 60.1355 66.3277 60.1455 66.2677 60.1455V60.1555Z" fill="#273E53"/>
<path d="M70.3077 59.1454C70.1077 59.1454 69.9277 59.0254 69.8477 58.8354C69.7377 58.5854 69.8678 58.2854 70.1178 58.1854L74.9977 56.1654C75.2577 56.0554 75.5477 56.1854 75.6477 56.4354C75.7577 56.6854 75.6277 56.9854 75.3777 57.0854L70.4977 59.1054C70.4377 59.1354 70.3677 59.1454 70.3077 59.1454Z" fill="#273E53"/>
<path d="M52.4378 91.6354C50.9078 91.6354 49.1278 91.2054 47.2578 90.7454C45.2878 90.2654 43.2378 89.7754 41.4078 89.7754C40.3178 89.7754 40.1078 89.9154 39.8478 90.0954C39.6678 90.2154 39.4478 90.3654 39.0578 90.4954C38.7878 90.5854 38.5178 90.4354 38.4278 90.1754C38.3378 89.9154 38.4778 89.6254 38.7478 89.5454C39.0078 89.4554 39.1378 89.3654 39.2878 89.2654C39.7178 88.9654 40.0978 88.7754 41.4078 88.7754C43.3578 88.7754 45.4578 89.2854 47.4878 89.7754C49.3078 90.2154 51.0278 90.6354 52.4378 90.6354C56.3678 90.6354 57.1978 84.4554 57.1978 79.2754C57.1978 77.6054 57.1178 75.8554 57.0378 74.1654C56.9578 72.4254 56.8778 70.6354 56.8778 68.8754C56.8778 66.9554 56.9778 65.2954 57.1878 63.7954C57.2278 63.5254 57.4778 63.3354 57.7478 63.3654C58.0178 63.4054 58.2178 63.6554 58.1778 63.9254C57.9778 65.3854 57.8778 67.0054 57.8778 68.8754C57.8778 70.6154 57.9578 72.3954 58.0378 74.1154C58.1178 75.8154 58.1978 77.5754 58.1978 79.2654C58.1978 87.4654 56.2578 91.6254 52.4378 91.6254V91.6354Z" fill="#273E53"/>
<path d="M55.9978 92.9955C55.7178 92.9955 55.4978 92.7755 55.4978 92.4955C55.4978 92.2155 55.7178 91.9955 55.9978 91.9955C57.8878 91.9955 59.0178 90.2655 59.0178 88.5955C59.0178 88.1655 58.9478 87.7455 58.8078 87.3555C58.7178 87.0955 58.8478 86.8055 59.1078 86.7155C59.3678 86.6155 59.6578 86.7555 59.7478 87.0155C59.9278 87.5155 60.0178 88.0455 60.0178 88.5955C60.0178 90.7555 58.5178 92.9955 55.9978 92.9955Z" fill="#273E53"/>
<path d="M35.4477 77.3354C35.1777 77.3354 34.9577 77.1254 34.9477 76.8554C34.7377 72.5054 34.0577 69.2554 32.8077 66.6054C32.6877 66.3554 32.7977 66.0554 33.0477 65.9354C33.2977 65.8154 33.5977 65.9254 33.7177 66.1754C35.0277 68.9454 35.7377 72.3254 35.9577 76.8054C35.9677 77.0854 35.7577 77.3154 35.4777 77.3254H35.4577L35.4477 77.3354Z" fill="#273E53"/>
<path d="M55.9978 61.8354C55.9178 61.8354 55.8478 61.8154 55.7778 61.7854C52.4578 60.1254 48.5178 57.6954 47.4378 53.5454C47.3678 53.2754 47.5278 53.0054 47.7978 52.9354C48.0678 52.8554 48.3378 53.0254 48.4078 53.2954C49.3878 57.0454 53.1078 59.3254 56.2278 60.8854C56.4778 61.0054 56.5778 61.3054 56.4478 61.5554C56.3578 61.7254 56.1878 61.8354 55.9978 61.8354Z" fill="#273E53"/>
<path d="M79.0678 18.8955C78.8978 18.8955 78.7278 18.8055 78.6278 18.6355C72.2078 7.13551 53.9078 5.88551 46.3378 5.88551C34.7478 5.88551 25.0078 8.75551 17.3878 14.4155C17.1678 14.5755 16.8578 14.5355 16.6878 14.3155C16.5178 14.0955 16.5678 13.7755 16.7878 13.6155C24.5878 7.82551 34.5278 4.89551 46.3378 4.89551C55.9578 4.89551 73.0678 6.61551 79.4978 18.1555C79.6278 18.3955 79.5478 18.6955 79.3078 18.8355C79.2278 18.8755 79.1478 18.8955 79.0678 18.8955Z" fill="#273E53"/>
<path d="M81.4277 47.0154C81.2677 47.0154 81.0977 46.9354 81.0077 46.7854C80.8577 46.5554 80.9277 46.2453 81.1577 46.0954C84.0077 44.2654 85.6477 40.5254 85.6477 35.8454C85.6477 34.3754 85.4777 32.8654 85.1577 31.4754C85.0977 31.2054 85.2577 30.9354 85.5277 30.8754C85.7977 30.8154 86.0677 30.9854 86.1277 31.2454C86.4677 32.7054 86.6477 34.2954 86.6477 35.8354C86.6477 40.8654 84.8477 44.9153 81.6977 46.9354C81.6177 46.9853 81.5177 47.0154 81.4277 47.0154Z" fill="#273E53"/>
<path d="M72.4977 17.2056C72.3477 17.2056 72.2077 17.1356 72.1077 17.0156C69.0077 13.0956 64.1577 11.1356 59.3777 9.60564C59.1177 9.52564 58.9677 9.23564 59.0577 8.97564C59.1377 8.71564 59.4277 8.56564 59.6877 8.65564C64.6177 10.2356 69.6277 12.2756 72.8977 16.3956C73.0677 16.6156 73.0377 16.9256 72.8177 17.0956C72.7277 17.1656 72.6177 17.2056 72.5077 17.2056H72.4977Z" fill="#273E53"/>
<path d="M8.32777 51.9053C8.21777 51.9053 8.09777 51.8653 8.00777 51.7853C5.72777 49.8653 4.46777 46.8153 4.46777 43.2053C4.46777 42.1353 4.58777 41.0553 4.80777 40.0053C4.86777 39.7353 5.12777 39.5653 5.39777 39.6253C5.66777 39.6853 5.83777 39.9453 5.77777 40.2153C5.56777 41.1953 5.45777 42.1953 5.45777 43.1953C5.45777 45.1053 5.86777 48.6753 8.64777 51.0053C8.85777 51.1853 8.88777 51.4953 8.70777 51.7153C8.60777 51.8353 8.46777 51.8953 8.32777 51.8953V51.9053Z" fill="#273E53"/>
<path d="M74.1779 49.3756C73.9679 49.3756 73.7779 49.2456 73.7079 49.0356C73.6179 48.7756 73.7579 48.4956 74.0279 48.4056C78.7379 46.8356 82.1579 41.7056 82.1579 36.2156C82.1579 35.8456 82.1479 35.4856 82.1079 35.1156C82.0879 34.8356 82.2879 34.5956 82.5579 34.5756C82.8279 34.5556 83.0779 34.7556 83.0979 35.0256C83.1379 35.4156 83.1479 35.8156 83.1479 36.2156C83.1479 42.1256 79.4379 47.6556 74.3379 49.3556C74.2879 49.3756 74.2279 49.3856 74.1779 49.3856V49.3756Z" fill="#273E53"/>
<path d="M51.3679 88.2756C50.5779 88.2756 49.8279 87.8156 49.2279 87.4456L48.9779 87.2956C48.7379 87.1556 48.6679 86.8456 48.8079 86.6056C48.9479 86.3656 49.2579 86.2956 49.4979 86.4356L49.7579 86.5956C50.2779 86.9156 50.8679 87.2756 51.3779 87.2756C51.8879 87.2756 54.7479 86.0656 54.7479 80.7256C54.7479 79.9256 54.7079 79.1056 54.6579 78.2956C54.6179 77.4856 54.5779 76.6856 54.5779 75.9056C54.5779 75.2756 54.6079 74.7356 54.6579 74.2456C54.6879 73.9756 54.9479 73.7856 55.2079 73.8056C55.4779 73.8356 55.6779 74.0856 55.6479 74.3556C55.5979 74.8056 55.5679 75.3156 55.5679 75.8956C55.5679 76.6556 55.6079 77.4356 55.6479 78.2256C55.6879 79.0556 55.7379 79.8856 55.7379 80.7156C55.7379 86.3656 52.7379 88.2656 51.3679 88.2656V88.2756Z" fill="#273E53"/>
<path d="M46.2278 41.6253C46.2278 41.6253 46.1378 41.6253 46.0878 41.6053C45.8178 41.5253 45.6678 41.2453 45.7478 40.9853C46.6278 37.9853 49.5478 36.2153 52.2278 34.7853C52.4678 34.6553 52.7778 34.7453 52.9078 34.9953C53.0378 35.2353 52.9478 35.5453 52.6978 35.6753C50.0878 37.0653 47.4878 38.6453 46.7078 41.2653C46.6478 41.4853 46.4478 41.6253 46.2278 41.6253Z" fill="#273E53"/>
<path d="M72.4977 53.7557C72.4977 53.7557 72.3977 53.7557 72.3477 53.7357C69.9677 52.9857 68.2177 50.7757 67.2977 47.3257C67.2277 47.0557 67.3877 46.7857 67.6477 46.7157C67.9177 46.6457 68.1877 46.8057 68.2577 47.0657C69.0977 50.2157 70.5677 52.1357 72.6377 52.7757C72.8977 52.8557 73.0477 53.1357 72.9677 53.4057C72.8977 53.6157 72.7077 53.7557 72.4877 53.7557H72.4977Z" fill="#273E53"/>
<path d="M82.4378 28.9953C82.1578 28.9953 81.9378 28.7753 81.9378 28.4953C81.9378 26.6053 80.9778 24.8353 79.9878 23.1953C79.8478 22.9553 79.9178 22.6553 80.1578 22.5053C80.3978 22.3653 80.6978 22.4453 80.8478 22.6753C81.9078 24.4353 82.9378 26.3453 82.9378 28.4953C82.9378 28.7753 82.7178 28.9953 82.4378 28.9953Z" fill="#273E53"/>
<path d="M37.2978 10.1356C37.0578 10.1356 36.8378 9.95558 36.8078 9.70558C36.7678 9.43558 36.9578 9.17558 37.2278 9.13558L40.7678 8.63558C41.0378 8.60558 41.2978 8.78558 41.3378 9.05558C41.3778 9.32558 41.1878 9.58558 40.9178 9.62558L37.3778 10.1256C37.3778 10.1256 37.3278 10.1256 37.3078 10.1256L37.2978 10.1356Z" fill="#273E53"/>
<path d="M5.97765 34.0457C5.97765 34.0457 5.95765 34.0457 5.94765 34.0457C5.66765 34.0257 5.46765 33.7857 5.47765 33.5157C5.64765 30.9157 6.67765 28.5057 7.70765 26.2657C7.82765 26.0157 8.11765 25.9057 8.36765 26.0257C8.61765 26.1457 8.72765 26.4357 8.60765 26.6857C7.60765 28.8457 6.62765 31.1557 6.46765 33.5857C6.44765 33.8457 6.22765 34.0557 5.96765 34.0557L5.97765 34.0457Z" fill="#273E53"/>
</g>
</g>
<defs>
<clipPath id="clip0_430_189">
<rect width="89.77" height="96.37" fill="white" transform="translate(0.887695 0.905273)"/>
</clipPath>
<clipPath id="clip1_430_189">
<rect width="89.77" height="96.37" fill="white" transform="translate(0.887695 0.905273)"/>
</clipPath>
</defs>
</svg>
