<svg width="127" height="78" viewBox="0 0 127 78" fill="none" xmlns="http://www.w3.org/2000/svg">
<g clip-path="url(#clip0_430_188)">
<g clip-path="url(#clip1_430_188)">
<path d="M12.1275 77.8204C10.8375 77.8204 10.1275 76.4604 10.1275 74.0004C10.1275 72.3604 10.7975 70.2304 11.5675 67.7604C12.3475 65.2803 13.2175 62.4804 13.5275 59.7504C13.2775 59.5704 12.4675 59.3504 11.5375 59.3504C10.6075 59.3504 9.73749 59.5104 8.76749 59.6904C7.78749 59.8704 6.76749 60.0504 5.74749 60.0504C4.53749 60.0504 3.49749 59.7904 2.56749 59.2404C1.53749 58.6404 0.92749 57.6804 0.92749 56.6604C0.92749 51.9704 6.52749 51.2004 13.0175 50.3104C22.2375 49.0504 34.8775 47.3104 39.5275 34.2904C41.5575 28.6204 54.4375 0.360352 109.497 0.360352C113.797 0.360352 126.887 0.360352 126.887 8.69035C126.887 18.7604 118.627 32.3704 105.847 43.3604C91.4775 55.7104 73.8575 62.8004 57.5275 62.8004C51.0575 62.8004 46.9075 60.3704 43.5775 58.4204C41.1575 57.0004 39.0775 55.7803 36.6875 55.7803C29.5575 55.7803 21.9075 66.1703 17.3375 72.3803C14.2875 76.5203 13.2675 77.8204 12.1275 77.8204ZM11.5375 57.3504C13.3875 57.3504 15.5375 57.9604 15.5375 59.6704C15.5375 59.7104 15.5375 59.7904 15.5375 59.8304C15.2175 62.7904 14.2975 65.7504 13.4775 68.3604C12.7575 70.6703 12.1275 72.6703 12.1275 74.0004C12.1275 74.6104 12.2075 75.1904 12.2975 75.5704C13.0475 74.8304 14.4575 72.9203 15.7275 71.2003C20.8375 64.2703 28.5575 53.7904 36.6875 53.7904C39.6175 53.7904 42.0275 55.2104 44.5875 56.7004C47.8775 58.6304 51.5975 60.8104 57.5275 60.8104C92.2675 60.8104 124.887 28.3004 124.887 8.70035C124.887 4.50035 119.707 2.37035 109.497 2.37035C55.7775 2.37035 43.3575 29.5304 41.4075 34.9704C36.3475 49.1404 23.0175 50.9703 13.2875 52.3004C6.66749 53.2104 2.92749 53.8604 2.92749 56.6704C2.92749 56.9604 3.18749 57.2904 3.57749 57.5204C4.19749 57.8804 4.88749 58.0504 5.74749 58.0504C6.60749 58.0504 7.46749 57.8904 8.40749 57.7204C9.41749 57.5404 10.4575 57.3504 11.5275 57.3504H11.5375Z" fill="#273E53"/>
<path d="M60.3474 13.0604C60.0474 13.0604 59.7474 12.9304 59.5574 12.6704C58.8174 11.7104 57.0874 11.6604 55.5674 11.6304C53.9874 11.5904 51.8174 11.5404 51.8174 9.60045C51.8174 7.66045 60.7174 1.46045 76.1574 1.46045C79.0174 1.46045 82.0974 1.62045 85.8674 1.97045C86.4174 2.02045 86.8174 2.51045 86.7674 3.06045C86.7174 3.61045 86.2274 4.01045 85.6774 3.96045C81.9674 3.62045 78.9474 3.46045 76.1474 3.46045C62.7374 3.46045 55.6974 8.03045 54.0774 9.54045C54.4974 9.60045 55.1374 9.62045 55.6074 9.63045C57.4774 9.68045 59.8074 9.73045 61.1274 11.4504C61.4674 11.8904 61.3774 12.5204 60.9474 12.8504C60.7674 12.9904 60.5474 13.0604 60.3374 13.0604H60.3474Z" fill="#273E53"/>
<path d="M94.5676 61.0603C92.5076 61.0603 91.0176 59.6003 91.0176 57.5803C91.0176 57.3503 91.0776 57.2003 91.2276 56.8403C91.5576 56.0403 92.4476 53.9303 92.4476 51.7503V51.0603C92.4476 50.5103 92.8976 50.0603 93.4476 50.0603C93.9976 50.0603 94.4476 50.5103 94.4476 51.0603V51.7503C94.4476 54.3203 93.4476 56.7103 93.0676 57.6103C93.0476 57.6503 93.0276 57.7003 93.0176 57.7303C93.0876 58.7003 93.8476 59.0503 94.5576 59.0503C96.7776 58.9703 107.628 44.8403 110.588 36.3103C110.768 35.7903 111.338 35.5103 111.858 35.6903C112.378 35.8703 112.658 36.4403 112.478 36.9603C109.858 44.5203 98.6676 61.0403 94.5576 61.0403L94.5676 61.0603Z" fill="#273E53"/>
<path d="M6.78756 56.6802C6.54756 56.6802 6.33756 56.5102 6.29756 56.2602C6.25756 55.9902 6.43756 55.7302 6.70756 55.6902C11.1976 54.9602 16.5276 53.9302 21.8576 52.1602C20.2976 52.4902 18.7376 52.7602 17.2076 53.0402C13.2376 53.7402 9.13756 54.4702 5.11756 55.9802C4.85756 56.0802 4.56756 55.9502 4.47756 55.6902C4.37756 55.4302 4.50756 55.1402 4.76756 55.0502C8.87756 53.5102 13.0276 52.7702 17.0376 52.0602C21.8376 51.2102 26.3776 50.4002 30.8376 48.3302C31.0876 48.2202 31.3776 48.3202 31.4976 48.5602C31.6176 48.8002 31.5276 49.0902 31.2876 49.2202C23.2176 53.6202 13.9976 55.5202 6.87756 56.6802C6.84756 56.6802 6.82756 56.6802 6.79756 56.6802H6.78756Z" fill="#273E53"/>
<path d="M15.3777 64.2604C15.2577 64.2604 15.1477 64.2204 15.0477 64.1404C14.8377 63.9604 14.8177 63.6404 14.9977 63.4304C17.8777 60.1004 23.6477 56.2504 27.0977 53.9504C27.1277 53.9304 27.1577 53.9104 27.1977 53.8904C24.5677 55.0204 20.4877 56.8604 15.7577 59.0004C15.5077 59.1104 15.2077 59.0004 15.0977 58.7504C14.9877 58.5004 15.0977 58.2004 15.3477 58.0904C25.3743 53.5637 30.5143 51.527 30.7677 51.9804C31.0677 52.5204 30.8077 52.6904 27.6677 54.8004C24.2577 57.0704 18.5577 60.8804 15.7677 64.1004C15.6677 64.2104 15.5277 64.2704 15.3877 64.2704L15.3777 64.2604Z" fill="#273E53"/>
<path d="M12.9276 74.1702C12.8576 74.1702 12.7876 74.1602 12.7176 74.1302C12.4676 74.0202 12.3576 73.7202 12.4676 73.4702C14.7676 68.4002 17.8676 62.6802 23.3676 58.6402C24.2576 57.9902 25.2076 57.4102 26.1176 56.8602C28.3976 55.4802 30.5576 54.1802 31.5876 51.7902C31.6976 51.5402 31.9976 51.4202 32.2476 51.5302C32.4976 51.6402 32.6176 51.9302 32.5076 52.1902C31.3576 54.8802 28.9576 56.3202 26.6376 57.7202C25.7376 58.2602 24.8176 58.8202 23.9576 59.4502C18.6376 63.3602 15.6276 68.9402 13.3776 73.8902C13.2976 74.0702 13.1076 74.1802 12.9176 74.1802L12.9276 74.1702Z" fill="#273E53"/>
<path d="M53.2677 10.0304C53.0377 10.0304 52.8277 9.87039 52.7777 9.64039C52.7177 9.37039 52.8877 9.10039 53.1577 9.05039C55.9977 8.43039 58.3677 8.15039 60.6077 8.15039C62.2377 8.15039 63.7577 8.30039 65.2577 8.61039C65.5277 8.67039 65.6977 8.93039 65.6477 9.20039C65.5877 9.47039 65.3277 9.65039 65.0577 9.59039C61.6377 8.88039 58.1277 9.00039 53.3677 10.0304C53.3277 10.0304 53.2977 10.0404 53.2577 10.0404L53.2677 10.0304Z" fill="#273E53"/>
<path d="M69.3574 7.91C69.3574 7.91 69.2775 7.91 69.2275 7.89C66.0375 7.06 62.6374 6.25 59.2174 6.25C58.6374 6.25 58.0675 6.27 57.5175 6.32C57.2275 6.34 56.9975 6.14 56.9775 5.86C56.9575 5.58 57.1575 5.34 57.4375 5.32C58.0175 5.27 58.6175 5.25 59.2275 5.25C62.7675 5.25 66.2375 6.08 69.4875 6.93C69.7575 7 69.9175 7.27 69.8475 7.54C69.7875 7.76 69.5875 7.91 69.3675 7.91H69.3574Z" fill="#273E53"/>
<path d="M74.4977 6.16013C74.4477 6.16013 74.3877 6.16013 74.3377 6.13013C72.6377 5.56013 71.5077 5.16013 70.6877 4.87013C68.7677 4.19013 68.5277 4.10013 66.3377 3.79013C66.0677 3.75013 65.8777 3.50013 65.9177 3.22013C65.9577 2.95013 66.2077 2.77013 66.4877 2.80013C68.7677 3.13013 69.0677 3.23013 71.0277 3.93013C71.8477 4.22013 72.9677 4.62013 74.6577 5.18013C74.9177 5.27013 75.0577 5.55013 74.9777 5.81013C74.9077 6.02013 74.7177 6.15013 74.5077 6.15013L74.4977 6.16013Z" fill="#273E53"/>
<path d="M93.0177 59.88C93.0177 59.88 92.9377 59.88 92.8877 59.86C92.6177 59.79 92.4577 59.52 92.5277 59.25C92.8077 58.19 93.2377 57.12 93.6477 56.08C94.3677 54.27 95.1177 52.41 95.1177 50.5C95.1177 50.16 95.0977 49.83 95.0477 49.5C95.0077 49.23 95.1977 48.97 95.4677 48.93C95.7377 48.9 95.9977 49.08 96.0377 49.35C96.0877 49.72 96.1177 50.1 96.1177 50.49C96.1177 52.59 95.3377 54.54 94.5777 56.44C94.1577 57.49 93.7577 58.49 93.4977 59.49C93.4377 59.71 93.2377 59.86 93.0177 59.86V59.88Z" fill="#273E53"/>
<path d="M95.0675 60.0101C95.0075 60.0101 94.9575 60.0101 94.8975 59.9801C94.6375 59.8901 94.5075 59.6001 94.5975 59.3401C94.9875 58.2601 95.4675 57.1801 95.9275 56.1201C97.0675 53.5401 98.2375 50.8801 98.2375 48.1001C98.2375 47.8201 98.4575 47.6001 98.7375 47.6001C99.0175 47.6001 99.2375 47.8201 99.2375 48.1001C99.2375 51.0901 98.0175 53.8501 96.8375 56.5301C96.3775 57.5701 95.9075 58.6401 95.5275 59.6801C95.4575 59.8801 95.2575 60.0101 95.0575 60.0101H95.0675Z" fill="#273E53"/>
<path d="M99.1176 56.7903C99.0676 56.7903 99.0176 56.7903 98.9676 56.7703C98.7076 56.6903 98.5576 56.4003 98.6476 56.1403C99.0476 54.8903 99.5576 53.6403 100.048 52.4303C101.058 49.9503 102.018 47.6003 102.128 45.2103C102.138 44.9303 102.408 44.7103 102.648 44.7303C102.928 44.7403 103.138 44.9803 103.128 45.2503C103.008 47.8103 101.978 50.3503 100.978 52.8003C100.488 53.9903 99.9876 55.2303 99.6076 56.4403C99.5376 56.6503 99.3476 56.7903 99.1276 56.7903H99.1176Z" fill="#273E53"/>
<path d="M104.638 49.4704C104.578 49.4704 104.517 49.4604 104.457 49.4404C104.197 49.3404 104.068 49.0504 104.168 48.7904C104.388 48.2204 104.658 47.6404 104.918 47.0704C105.548 45.7004 106.207 44.2904 106.207 42.8904C106.207 42.6904 106.198 42.4804 106.168 42.2804C106.128 42.0104 106.318 41.7504 106.588 41.7104C106.858 41.6704 107.118 41.8604 107.158 42.1304C107.198 42.3804 107.207 42.6304 107.207 42.8804C107.207 44.5004 106.508 46.0104 105.828 47.4804C105.568 48.0404 105.318 48.5904 105.098 49.1404C105.018 49.3404 104.828 49.4604 104.628 49.4604L104.638 49.4704Z" fill="#273E53"/>
<path d="M115.738 30.3902C106.618 30.3902 99.2776 19.4502 99.2776 10.4002C99.2776 7.3302 99.9876 4.3302 101.338 1.7302C101.468 1.4802 101.768 1.3902 102.008 1.5202C102.258 1.6502 102.348 1.9502 102.218 2.1902C100.948 4.6502 100.278 7.5002 100.278 10.4102C100.278 19.0102 107.168 29.4002 115.738 29.4002C116.018 29.4002 116.238 29.6202 116.238 29.9002C116.238 30.1802 116.018 30.4002 115.738 30.4002V30.3902Z" fill="#273E53"/>
<path d="M110.998 12.2004C109.888 12.2004 108.558 11.6804 108.558 9.18041C108.558 8.75041 108.608 8.35041 108.708 7.96041C108.598 7.69041 108.538 7.38041 108.538 7.04041C108.538 5.50041 109.788 4.67041 110.968 4.67041C112.658 4.67041 114.148 6.44041 114.148 8.45041C114.148 10.4604 112.458 12.2004 110.998 12.2004ZM109.568 8.90041C109.568 8.99041 109.568 9.09041 109.568 9.18041C109.568 10.9504 110.258 11.2004 111.008 11.2004C111.978 11.2004 113.158 9.93041 113.158 8.45041C113.158 7.61041 112.838 6.88041 112.388 6.38041C112.388 6.42041 112.388 6.45041 112.388 6.49041C112.388 7.28041 111.658 9.09041 110.468 9.09041C110.138 9.09041 109.838 9.02041 109.588 8.90041H109.568ZM109.798 7.84041C109.948 8.00041 110.178 8.09041 110.458 8.09041C110.478 8.09041 110.488 8.09041 110.508 8.09041C110.238 8.07041 109.998 7.98041 109.808 7.83041C109.808 7.83041 109.808 7.83041 109.808 7.84041H109.798ZM110.318 6.94041C110.378 7.03041 110.478 7.09041 110.628 7.09041C110.688 7.05041 110.968 6.72041 110.968 6.23041C110.968 5.95041 110.928 5.87041 110.928 5.87041C110.568 5.92041 110.468 5.97041 110.468 5.98041C110.498 6.09041 110.508 6.17041 110.508 6.24041C110.508 6.34041 110.528 6.43041 110.528 6.51041C110.528 6.63041 110.488 6.74041 110.408 6.84041C110.378 6.88041 110.348 6.91041 110.318 6.95041V6.94041Z" fill="#273E53"/>
<path d="M120.367 14.2304C119.787 14.2304 118.417 14.2304 118.417 12.9404C118.417 11.8104 119.397 10.9904 120.757 10.9904C121.617 10.9904 122.237 11.4204 122.437 11.8304C122.557 12.0804 122.457 12.3804 122.217 12.5004C121.967 12.6204 121.667 12.5204 121.547 12.2804C121.497 12.2004 121.227 11.9904 120.767 11.9904C120.267 11.9904 119.427 12.1904 119.427 12.9404C119.427 13.0904 119.427 13.2304 120.377 13.2304C122.017 13.2304 123.407 11.9404 124.657 10.5404C124.847 10.3304 125.157 10.3204 125.367 10.5004C125.577 10.6904 125.587 11.0004 125.407 11.2104C124.067 12.7004 122.417 14.2304 120.377 14.2304H120.367Z" fill="#273E53"/>
<path d="M96.5676 25.3902C92.1176 25.3902 91.1576 20.6802 91.1576 19.5102C91.1576 17.9902 92.2076 16.5702 93.5676 16.0102C91.8776 14.9202 91.0176 13.3302 91.0176 11.2802C91.0176 9.23022 92.6276 5.89022 95.2476 5.18022C95.5076 5.11022 95.7876 5.26022 95.8576 5.53022C95.9276 5.80022 95.7776 6.07022 95.5076 6.14022C93.3776 6.72022 92.0176 9.57022 92.0176 11.2802C92.0176 14.3102 94.2576 15.3202 94.9876 15.6502C95.2276 15.7602 95.5976 15.9302 95.5076 16.3402C95.4176 16.7602 94.9876 16.7602 94.8076 16.7602C93.4476 16.7602 92.1576 18.1002 92.1576 19.5202C92.1576 19.5702 92.4876 24.4002 96.5676 24.4002C96.8476 24.4002 97.1376 24.4002 97.4176 24.3802C97.6976 24.3802 97.9776 24.3602 98.2476 24.3602C98.5176 24.3602 98.7476 24.5802 98.7476 24.8602C98.7476 25.1402 98.5276 25.3602 98.2476 25.3602C97.9876 25.3602 97.7276 25.3602 97.4476 25.3802C97.1576 25.3802 96.8676 25.4002 96.5676 25.4002V25.3902Z" fill="#273E53"/>
<path d="M101.638 37.5804C98.7576 37.5804 97.0476 35.0404 97.0476 32.5804C97.0476 31.3904 97.4676 30.3104 98.2276 29.5504C98.4276 29.3504 98.7376 29.3504 98.9376 29.5504C99.1376 29.7504 99.1376 30.0604 98.9376 30.2604C98.3676 30.8304 98.0576 31.6504 98.0576 32.5804C98.0576 34.5204 99.3176 36.5804 101.648 36.5804C102.128 36.5804 102.588 36.4704 103.048 36.2404C103.298 36.1204 103.598 36.2204 103.718 36.4604C103.838 36.7104 103.738 37.0104 103.498 37.1304C102.908 37.4204 102.288 37.5704 101.658 37.5704L101.638 37.5804Z" fill="#273E53"/>
<path d="M84.3076 15.2704C82.4276 15.2704 80.3376 13.4804 80.3376 10.9004C80.3376 9.0904 81.3776 7.2704 82.9776 6.2404C83.2076 6.0904 83.5176 6.1604 83.6676 6.3904C83.8176 6.6204 83.7476 6.9304 83.5176 7.0804C82.1976 7.9204 81.3376 9.4204 81.3376 10.8904C81.3376 12.8204 82.9076 14.2604 84.3076 14.2604C84.3876 14.2604 84.4676 14.2604 84.5476 14.2504C84.8276 14.2204 85.0676 14.4204 85.0976 14.7004C85.1276 14.9704 84.9276 15.2204 84.6476 15.2504C84.5376 15.2604 84.4176 15.2704 84.3076 15.2704Z" fill="#273E53"/>
<path d="M87.1075 33.4902C84.4375 33.4902 82.4175 31.4502 82.4175 28.7402C82.4175 26.9402 83.3375 25.1702 84.8075 24.1102C85.0275 23.9502 85.3475 24.0002 85.5075 24.2302C85.6675 24.4502 85.6175 24.7702 85.3875 24.9302C84.1675 25.8002 83.4175 27.2602 83.4175 28.7402C83.4175 30.9102 84.9675 32.4902 87.1075 32.4902C87.5275 32.4902 87.9275 32.4302 88.3175 32.3002C88.5875 32.2102 88.8575 32.3602 88.9475 32.6202C89.0375 32.8802 88.8975 33.1602 88.6275 33.2502C88.1475 33.4102 87.6275 33.4902 87.1075 33.4902Z" fill="#273E53"/>
<path d="M90.4976 42.2002C90.4976 42.2002 90.4276 42.2002 90.3976 42.2002C87.7176 41.6602 86.0576 39.3202 86.0576 37.4502C86.0576 36.6302 86.3776 35.9302 86.9776 35.4302C87.1876 35.2502 87.5076 35.2802 87.6776 35.4902C87.8576 35.7002 87.8276 36.0202 87.6176 36.1902C87.2476 36.5002 87.0576 36.9202 87.0576 37.4402C87.0576 38.6802 88.1776 40.7302 90.5976 41.2102C90.8676 41.2602 91.0476 41.5302 90.9876 41.8002C90.9376 42.0402 90.7276 42.2002 90.4976 42.2002Z" fill="#273E53"/>
<path d="M73.1875 23.0604C70.4675 23.0604 68.9675 19.7604 68.9675 17.4804C68.9675 15.0804 70.6675 13.1204 73.5075 12.2504C73.7775 12.1604 74.0475 12.3204 74.1275 12.5804C74.2075 12.8404 74.0575 13.1204 73.7975 13.2004C71.3975 13.9404 69.9675 15.5404 69.9675 17.4704C69.9675 19.4004 71.1975 22.0504 73.1875 22.0504H73.3475C73.6275 22.0204 73.8575 22.2404 73.8775 22.5104C73.8975 22.7904 73.6875 23.0204 73.4075 23.0404C73.3375 23.0404 73.2575 23.0404 73.1875 23.0404V23.0604Z" fill="#273E53"/>
<path d="M72.9775 36.5901C71.0075 36.5901 68.8875 35.2801 68.8875 32.4101C68.8875 30.8001 69.5575 29.3902 70.6675 28.6502C70.8975 28.5002 71.2075 28.5601 71.3575 28.7901C71.5075 29.0201 71.4475 29.3302 71.2175 29.4802C70.3775 30.0402 69.8775 31.1301 69.8775 32.4101C69.8775 34.7601 71.5375 35.5901 72.9675 35.5901C73.4075 35.5901 74.0475 35.4902 74.5275 35.0102C74.7275 34.8102 75.0375 34.8102 75.2375 35.0102C75.4375 35.2102 75.4375 35.5202 75.2375 35.7201C74.6675 36.2902 73.8775 36.6002 72.9675 36.6002L72.9775 36.5901Z" fill="#273E53"/>
<path d="M60.6476 28.4302C58.6076 28.4302 56.3276 26.4802 56.3276 23.6902C56.3276 21.7602 57.4176 19.5502 59.1676 17.9202C59.3676 17.7302 59.6876 17.7402 59.8776 17.9402C60.0676 18.1402 60.0576 18.4602 59.8576 18.6502C58.3076 20.1002 57.3376 22.0302 57.3376 23.6902C57.3376 26.1702 59.6876 27.8802 61.3876 27.3102C61.6476 27.2202 61.9276 27.3602 62.0176 27.6302C62.1076 27.8902 61.9676 28.1702 61.6976 28.2602C61.3576 28.3702 61.0076 28.4302 60.6476 28.4302Z" fill="#273E53"/>
<path d="M52.8975 34.2303C52.8975 34.2303 52.7975 34.2303 52.7575 34.2103C51.1075 33.7103 50.2275 32.5203 50.2275 30.7603C50.2275 28.7803 51.3375 26.8303 51.6775 26.2803C51.8175 26.0403 52.1275 25.9703 52.3675 26.1203C52.5975 26.2603 52.6775 26.5703 52.5275 26.8103C51.8975 27.8303 51.2275 29.4003 51.2275 30.7603C51.2275 32.1203 51.8175 32.8803 53.0475 33.2503C53.3075 33.3303 53.4575 33.6103 53.3875 33.8703C53.3275 34.0903 53.1275 34.2303 52.9075 34.2303H52.8975Z" fill="#273E53"/>
<path d="M63.0375 44.2204C63.0375 44.2204 62.9675 44.2204 62.9375 44.2204C59.3375 43.5004 58.9175 41.1704 58.9175 39.4904C58.9175 37.3404 59.6675 35.4804 61.0175 34.2704C61.2175 34.0904 61.5375 34.1004 61.7275 34.3104C61.9175 34.5204 61.8975 34.8304 61.6875 35.0204C60.2275 36.3304 59.9175 38.1804 59.9175 39.5004C59.9175 41.1204 60.3075 42.6904 63.1275 43.2504C63.3975 43.3004 63.5775 43.5704 63.5175 43.8404C63.4675 44.0804 63.2575 44.2404 63.0275 44.2404L63.0375 44.2204Z" fill="#273E53"/>
<path d="M52.2077 45.5502C50.2877 45.5502 48.3477 44.0902 48.3477 41.3002C48.3477 40.0702 48.8677 39.0402 49.8077 38.4202C50.0377 38.2702 50.3477 38.3302 50.4977 38.5602C50.6477 38.7902 50.5877 39.1002 50.3577 39.2502C49.5177 39.8102 49.3477 40.6702 49.3477 41.3002C49.3477 43.5302 50.8277 44.5502 52.2077 44.5502C52.3877 44.5502 52.5677 44.5302 52.7277 44.4902C52.9977 44.4302 53.2677 44.5902 53.3377 44.8502C53.4077 45.1202 53.2377 45.3902 52.9777 45.4602C52.7377 45.5202 52.4777 45.5502 52.2177 45.5502H52.2077Z" fill="#273E53"/>
<path d="M45.3576 45.5703C45.3576 45.5703 45.2876 45.5703 45.2576 45.5703L44.9976 45.5203C43.8876 45.3203 42.0376 44.9903 42.0376 41.6303C42.0376 40.1303 42.6176 38.6203 43.6276 37.5003C43.8176 37.2903 44.1276 37.2803 44.3376 37.4603C44.5476 37.6503 44.5576 37.9603 44.3776 38.1703C43.5276 39.1103 43.0476 40.3803 43.0476 41.6403C43.0476 44.1603 44.1276 44.3503 45.1776 44.5403L45.4576 44.5903C45.7276 44.6403 45.9076 44.9103 45.8476 45.1803C45.7976 45.4203 45.5876 45.5803 45.3576 45.5803V45.5703Z" fill="#273E53"/>
<path d="M41.5977 50.3402C40.4277 50.3402 39.2577 50.3202 38.0977 50.2902C37.8177 50.2902 37.6077 50.0502 37.6077 49.7802C37.6077 49.5002 37.8577 49.3202 38.1177 49.2902C39.2677 49.3202 40.4277 49.3402 41.5877 49.3402C46.9477 49.3402 53.0877 48.8602 58.0177 45.3402C58.2377 45.1802 58.5577 45.2302 58.7177 45.4602C58.8777 45.6802 58.8277 46.0002 58.5977 46.1602C53.4377 49.8502 47.0977 50.3502 41.5777 50.3502L41.5977 50.3402Z" fill="#273E53"/>
<path d="M42.1575 53.4902H41.3075C41.0275 53.4902 40.8075 53.2602 40.8175 52.9802C40.8175 52.7102 41.0475 52.4802 41.3175 52.4802H42.1575C54.8775 52.4802 68.4775 48.9502 81.5075 42.2602C81.7575 42.1302 82.0575 42.2302 82.1775 42.4802C82.3075 42.7302 82.2075 43.0302 81.9575 43.1502C68.7875 49.9102 55.0275 53.4802 42.1475 53.4802L42.1575 53.4902Z" fill="#273E53"/>
<path d="M42.6575 56.0104C42.3875 56.0104 42.1675 55.8004 42.1575 55.5204C42.1575 55.2404 42.3675 55.0104 42.6475 55.0104C63.8175 54.3904 85.9575 45.2804 104.987 29.3604C105.197 29.1804 105.517 29.2104 105.687 29.4204C105.867 29.6304 105.837 29.9504 105.627 30.1304C86.4175 46.2004 64.0575 55.3904 42.6675 56.0104H42.6475H42.6575Z" fill="#273E53"/>
<path d="M49.3976 58.2001C49.1476 58.2001 48.9376 58.0201 48.8976 57.7701C48.8576 57.5001 49.0476 57.2401 49.3276 57.2101C71.8476 54.1201 92.0876 44.9301 106.318 31.3201C106.518 31.1301 106.838 31.1401 107.028 31.3401C107.218 31.5401 107.208 31.8601 107.008 32.0501C92.6276 45.8001 72.1876 55.0901 49.4576 58.2001C49.4376 58.2001 49.4076 58.2001 49.3876 58.2001H49.3976Z" fill="#273E53"/>
<path d="M66.2376 60.5604C66.0276 60.5604 65.8276 60.4204 65.7576 60.2104C65.6776 59.9504 65.8176 59.6704 66.0876 59.5804C79.7576 55.2504 91.7876 48.4404 101.468 39.6204C88.4976 49.9304 73.1476 56.8304 57.2276 59.3704C56.9576 59.4104 56.6976 59.2304 56.6576 58.9504C56.6176 58.6804 56.7976 58.4204 57.0776 58.3804C76.7676 55.2404 95.5676 45.3604 110.018 30.5704C110.208 30.3804 110.508 30.3704 110.708 30.5504C110.908 30.7304 110.928 31.0304 110.768 31.2404C99.9476 44.6404 84.6076 54.7704 66.4076 60.5404C66.3576 60.5604 66.3076 60.5604 66.2576 60.5604H66.2376Z" fill="#273E53"/>
<path d="M49.3977 24.8502C49.2777 24.8502 49.1477 24.8002 49.0477 24.7102C48.8477 24.5202 48.8377 24.2002 49.0377 24.0002C56.1677 16.5702 65.6677 12.3702 74.8577 8.31015C76.1877 7.72015 77.5177 7.13015 78.8377 6.54015C79.0877 6.43015 79.3877 6.54015 79.4977 6.79015C79.6077 7.04015 79.4977 7.34015 79.2477 7.45015C77.9277 8.05015 76.5977 8.63015 75.2577 9.22015C66.1577 13.2402 56.7477 17.4002 49.7577 24.6802C49.6577 24.7802 49.5277 24.8302 49.3977 24.8302V24.8502Z" fill="#273E53"/>
</g>
</g>
<defs>
<clipPath id="clip0_430_188">
<rect width="125.95" height="77.46" fill="white" transform="translate(0.9375 0.360352)"/>
</clipPath>
<clipPath id="clip1_430_188">
<rect width="125.95" height="77.46" fill="white" transform="translate(0.9375 0.360352)"/>
</clipPath>
</defs>
</svg>
