<svg width="105" height="138" viewBox="0 0 105 138" fill="none" xmlns="http://www.w3.org/2000/svg">
<g clip-path="url(#clip0_430_184)">
<g clip-path="url(#clip1_430_184)">
<path d="M57.3535 62.7108C51.9347 61.4657 47.7181 55.4795 48.8356 50.6162C49.953 45.7529 55.6628 41.6678 60.6317 41.9681C61.2801 42.0042 61.9345 42.1033 62.5875 42.2533C67.8114 43.4536 72.3615 47.8543 70.9619 53.9456C69.5623 60.0369 63.0159 64.0119 57.3535 62.7108ZM62.1494 44.2048C61.6036 44.0794 61.0586 43.9952 60.5219 43.9642C56.4952 43.7162 51.6746 47.2361 50.7968 51.0566C50.0197 54.4384 53.1645 59.6859 57.8133 60.7541C62.4622 61.8222 67.9207 58.295 69.0247 53.4902C70.1824 48.4515 66.2742 45.1423 62.1516 44.195L62.1494 44.2048Z" fill="#273E53"/>
<path d="M43.1235 56.989C39.342 56.1201 32.1042 51.8509 33.8643 44.1906C35.3378 37.7777 40.7541 34.8358 47.9954 36.4997C53.1219 37.6776 56.0898 40.6579 55.9301 44.4792C55.9066 45.0278 55.4371 45.4638 54.8884 45.4403C54.3397 45.4168 53.9135 44.9495 53.9272 44.3986C54.0883 40.393 49.5163 38.9012 47.5378 38.4466C41.4076 37.0381 37.0175 39.3538 35.8038 44.6362C34.243 51.4292 41.5247 54.5695 43.5616 55.0376C45.1209 55.3959 47.3778 55.4424 49.3107 53.6395C49.7158 53.2606 50.3469 53.2825 50.7258 53.6876C51.1047 54.0927 51.0828 54.7239 50.6777 55.1028C48.64 57.0048 46.0255 57.6661 43.1115 56.9965L43.1235 56.989Z" fill="#273E53"/>
<path d="M71.8669 61.172C69.7033 60.6749 68.1588 59.4478 67.3985 57.6212C67.1874 57.111 67.4237 56.5291 67.9362 56.3083C68.4464 56.0972 69.0283 56.3335 69.2492 56.8459C69.775 58.0852 70.7771 58.8592 72.3267 59.2153C74.3539 59.6811 82.2386 60.1075 83.7233 53.6459C84.5138 50.2056 83.0349 46.1925 78.6882 45.1937C74.5948 44.2532 70.7172 47.1074 70.2246 47.7329C70.0414 48.1731 69.5612 48.4321 69.0739 48.3202C68.5379 48.197 68.2001 47.6577 68.3232 47.1216C68.6636 45.6402 73.9534 42.0434 79.1383 43.2348C84.713 44.5157 86.6646 49.7763 85.6748 54.084C83.9863 61.4326 75.6528 62.0214 71.8811 61.1547L71.8669 61.172Z" fill="#273E53"/>
<path d="M58.7899 77.9393C52.6596 76.5307 47.0577 71.0367 48.7596 63.6297C49.3172 61.203 50.6789 59.474 52.6884 58.6326C53.1986 58.4215 53.7805 58.6578 53.9916 59.168C54.2027 59.6783 53.9664 60.2601 53.4561 60.4712C51.6969 61.2059 50.9954 62.8301 50.711 64.0678C49.3002 70.2079 54.0454 74.7867 59.24 75.9803C65.0292 77.3105 69.0455 73.7187 70.0196 69.4791C70.8571 65.8341 69.5357 61.9393 66.7267 59.7856C66.2909 59.4494 66.2086 58.8251 66.5447 58.3893C66.8809 57.9536 67.5051 57.8713 67.9409 58.2074C71.3606 60.8297 72.9765 65.5413 71.9666 69.9367C70.5939 75.9111 64.9299 79.35 58.7899 77.9393Z" fill="#273E53"/>
<path d="M38.998 71.9963C33.053 70.6303 27.8473 65.6891 29.4081 58.8961C30.1493 55.6702 32.4076 51.736 36.3168 51.2901C36.8639 51.2311 37.3589 51.6219 37.4277 52.1712C37.4867 52.7183 37.0959 53.2134 36.5465 53.2821C33.85 53.586 32 56.5469 31.355 59.3537C29.9375 65.523 35.4185 69.132 39.4437 70.0569C43.0107 70.8765 46.4226 70.0495 48.8174 67.7986C49.2226 67.4197 49.8559 67.4319 50.2348 67.837C50.6137 68.2421 50.5918 68.8733 50.1964 69.2544C47.3133 71.978 43.2353 72.9802 39.0055 72.0083L38.998 71.9963Z" fill="#273E53"/>
<path d="M22.9707 67.8004C16.509 66.3157 14.155 61.0652 15.1672 56.66C16.1794 52.2548 21.5426 47.0434 27.7411 48.4677C30.5382 49.1104 32.5891 50.9463 33.3583 53.4932C33.514 54.0215 33.2215 54.5801 32.6932 54.7358C32.1649 54.8915 31.6062 54.5989 31.4506 54.0706C30.8889 52.2281 29.3789 50.8961 27.3029 50.4191C22.3715 49.286 17.9099 53.699 17.1262 57.1101C16.3424 60.5212 18.0095 64.6083 23.4283 65.8534C26.0597 66.458 28.5387 65.94 30.2319 64.4206C30.6446 64.0537 31.2735 64.0853 31.6404 64.498C32.0073 64.9106 31.9756 65.5395 31.563 65.9064C29.3807 67.8573 26.2476 68.5431 22.9729 67.7906L22.9707 67.8004Z" fill="#273E53"/>
<path d="M79.3698 75.4959C75.9391 74.7076 72.4106 71.8448 70.3759 68.1965C70.1071 67.7141 70.2775 67.1068 70.7599 66.838C71.2423 66.5692 71.8496 66.7395 72.1184 67.222C73.8918 70.3998 76.9035 72.8771 79.8079 73.5444C85.5775 74.8701 89.3128 70.5365 90.119 67.028C91.0013 63.188 88.5592 57.5171 84.095 55.9579C83.5724 55.7762 83.3043 55.2016 83.4837 54.6887C83.6653 54.1661 84.2422 53.8883 84.7528 54.0774C90.2622 56 93.1543 62.749 92.066 67.4856C91.0739 71.8031 86.4724 77.1381 79.3578 75.5034L79.3698 75.4959Z" fill="#273E53"/>
<path d="M77.6472 88.9311C71.3513 87.4845 69.4713 82.5378 70.3849 78.5614C70.9112 76.2711 72.3705 73.9387 74.4868 71.9624C74.892 71.5835 75.5209 71.6151 75.8998 72.0203C76.2787 72.4254 76.2568 73.0565 75.8419 73.4332C74.0161 75.1274 72.761 77.1066 72.3244 79.0071C71.6011 82.155 73.1051 85.8353 78.0854 86.9796C83.0656 88.1239 86.6655 85.719 87.8972 80.3587C88.3271 78.4874 88.4078 75.8587 86.3486 73.9696C85.9412 73.599 85.9122 72.9664 86.2828 72.5591C86.6534 72.1517 87.286 72.1226 87.6933 72.4933C89.8539 74.4775 90.6234 77.4247 89.8464 80.8065C88.3751 87.2097 83.6995 90.3217 77.6375 88.9288L77.6472 88.9311Z" fill="#273E53"/>
<path d="M57.7404 94.4739C52.2826 93.2199 49.2728 88.814 50.4328 83.7655C51.5927 78.7171 56.2917 75.6823 61.4521 76.3549C61.9798 76.4249 62.5128 76.5166 63.0391 76.6375C69.1791 78.0483 72.2688 82.0621 71.1066 87.1203C69.8525 92.5781 63.8631 95.8705 57.7426 94.4642L57.7404 94.4739ZM62.5793 78.5942C62.1212 78.489 61.6489 78.401 61.1797 78.3445C57.0575 77.7975 53.2755 80.3247 52.3797 84.2232C51.484 88.1216 53.8003 91.5267 58.186 92.5344C63.6535 93.7907 68.2728 90.5221 69.1529 86.6919C70.4853 80.893 64.458 79.0362 62.5868 78.6062L62.5793 78.5942Z" fill="#273E53"/>
<path d="M43.9932 87.9912C40.1825 87.1156 36.7036 82.7866 37.8076 77.9818C38.616 74.4635 41.3055 72.2701 45.2005 71.9748C45.8061 71.9293 46.411 71.9759 46.9958 72.1103C50.6311 72.9455 53.8546 77.4929 52.7417 82.3367C51.7899 86.4787 48.0303 88.9086 43.9955 87.9815L43.9932 87.9912ZM45.3478 73.9684C43.6135 74.1035 40.5786 74.8529 39.7568 78.4297C38.935 82.0065 41.5563 85.3792 44.4411 86.042C47.3259 86.7048 50.0826 84.9783 50.7902 81.8986C51.6322 78.234 49.1966 74.6783 46.5457 74.0692C46.1558 73.9797 45.7526 73.9486 45.3456 73.9782L45.3478 73.9684Z" fill="#273E53"/>
<path d="M27.5529 83.8956C23.5375 82.973 18.4984 79.0037 19.8644 73.0587C20.8318 68.8484 23.0937 66.372 26.2317 66.067C26.7766 66.0177 27.2694 66.4183 27.3187 66.9631C27.3679 67.508 26.9674 68.0008 26.4225 68.05C23.5798 68.3203 22.351 71.1675 21.8158 73.4968C20.6581 78.5355 25.4787 81.3566 28.003 81.9366C33.5485 83.2108 36.6682 78.6537 37.6535 74.3654C37.9334 73.1472 37.8395 72.1714 37.3643 71.2926C37.0955 70.8102 37.2778 70.1954 37.7677 69.9386C38.2479 69.6795 38.865 69.8521 39.1218 70.342C39.8358 71.6553 39.9923 73.1175 39.6027 74.8133C38.3151 80.4173 34.0947 85.3884 27.5551 83.8858L27.5529 83.8956Z" fill="#273E53"/>
<path d="M34.5417 99.8762C30.1949 98.8774 26.3783 94.9018 27.5069 89.9898C28.6355 85.0778 33.7894 81.9833 38.6137 83.0918C39.2764 83.2441 39.9092 83.4818 40.5166 83.7855C44.6058 85.9051 44.1171 91.4259 43.8721 93.0728C43.8356 93.3209 43.7894 93.5668 43.7312 93.8202C42.6496 98.5276 39.0466 100.901 34.5536 99.8687L34.5417 99.8762ZM38.1658 85.041C34.4526 84.1878 30.3026 86.7536 29.4561 90.4376C28.6096 94.1216 31.6466 97.1589 34.9895 97.927C39.9113 99.0578 41.3691 95.1244 41.77 93.3799C41.8148 93.1849 41.8595 92.99 41.8848 92.7906C42.083 91.4817 42.4985 87.0831 39.5927 85.5741C39.1442 85.3376 38.6606 85.1649 38.1636 85.0507L38.1658 85.041Z" fill="#273E53"/>
<path d="M24.2542 98.1178C20.8139 97.3273 17.7524 93.7715 18.6817 89.7269C19.5237 86.0623 23.2227 83.7623 26.9165 84.611C28.1152 84.8864 29.787 86.0504 30.4827 86.9079C30.8256 87.3356 30.7625 87.9675 30.3348 88.3104C29.9072 88.6534 29.2753 88.5903 28.9323 88.1626C28.4528 87.5702 27.1411 86.7147 26.4783 86.5624C23.8567 85.96 21.2386 87.5748 20.6407 90.177C19.9801 93.0521 22.2168 95.5976 24.7118 96.1709C25.7352 96.406 27.5339 95.4546 28.574 94.411C28.9619 94.0179 29.5975 94.0203 29.9906 94.4082C30.3837 94.7961 30.3813 95.4317 29.9934 95.8248C28.8178 97.0117 26.3279 98.6046 24.2715 98.1321L24.2542 98.1178Z" fill="#273E53"/>
<path d="M49.1796 107.262C44.7646 106.247 40.8641 102.324 41.9681 97.5195C42.8929 93.4944 48.323 90.0016 54.1998 91.352C54.5214 91.4259 54.8311 91.5073 55.146 91.6104C59.2074 92.913 61.4979 96.7432 60.5842 100.72C59.4623 105.602 54.4619 108.476 49.1893 107.264L49.1796 107.262ZM53.74 93.3087C49.0521 92.2316 44.604 94.9341 43.9053 97.9749C43.0812 101.561 46.1654 104.527 49.6155 105.32C53.7868 106.279 57.7422 104.068 58.6133 100.277C59.2985 97.2947 57.6079 94.5155 54.5129 93.5171C54.2543 93.4371 53.9934 93.3669 53.7302 93.3064L53.74 93.3087Z" fill="#273E53"/>
<path d="M61.1708 109.822C58.3932 109.184 56.591 107.292 56.351 104.764C56.3018 104.219 56.7023 103.727 57.2494 103.668C57.7942 103.618 58.2871 104.019 58.3461 104.566C58.5641 106.832 60.4979 107.615 61.6284 107.875C65.5658 108.78 69.246 106.383 70.1843 102.299C71.1225 98.2158 68.7484 94.705 66.039 94.0824C65.7467 94.0153 65.5396 93.8446 65.2808 93.6312C65.2193 93.5863 65.1698 93.5339 65.1158 93.5009C64.7266 93.3192 64.4879 92.8847 64.5594 92.4394C64.6436 91.8944 65.1604 91.5206 65.7032 91.6145C66.0412 91.6614 66.2633 91.8561 66.5566 92.0979C66.5911 92.1264 66.6256 92.1548 66.6601 92.1833C70.2198 93.1243 73.3091 97.6306 72.1312 102.757C70.9533 107.883 66.2267 110.994 61.1783 109.834L61.1708 109.822Z" fill="#273E53"/>
<path d="M39.1484 117.383C34.8504 116.395 31.0354 112.635 32.0879 108.055C33.212 103.162 37.4345 98.8072 42.5707 99.9873C42.7266 100.023 42.8826 100.059 43.034 100.114C43.5611 100.276 43.8629 100.838 43.7008 101.365C43.5386 101.892 42.9745 102.204 42.4497 102.032C38.497 100.837 34.9538 104.558 34.0469 108.505C33.1959 112.208 36.7894 114.789 39.606 115.436C43.3485 116.296 47.9835 114.611 48.9531 110.391C49.1972 109.328 49.223 108.144 49.0135 106.957C48.9231 106.413 49.2891 105.892 49.8332 105.801C50.3773 105.711 50.8985 106.077 50.989 106.621C51.2325 108.062 51.2046 109.523 50.9023 110.839C49.655 116.267 43.8362 118.46 39.1581 117.385L39.1484 117.383Z" fill="#273E53"/>
<path d="M54.8766 120.514C50.676 119.549 47.7862 115.201 48.7021 111.215C48.8253 110.679 49.3646 110.341 49.9006 110.464C50.4367 110.588 50.7745 111.127 50.6513 111.663C49.9862 114.557 52.2155 117.85 55.3244 118.565C59.3106 119.481 62.4597 116.716 63.1965 113.509C63.4562 112.379 62.9282 111.149 61.5769 109.751C61.1958 109.356 61.2079 108.722 61.6033 108.341C61.9987 107.96 62.6321 107.972 63.0132 108.367C64.8671 110.302 65.5667 112.125 65.1434 113.967C64.1873 118.128 60.0885 121.722 54.8743 120.524L54.8766 120.514Z" fill="#273E53"/>
<path d="M41.4086 129.517C38.1924 128.778 34.1128 125.768 35.1206 121.382C36.4619 115.544 39.2732 115.277 40.8325 115.635C41.3686 115.758 41.7064 116.298 41.5832 116.834C41.46 117.37 40.9207 117.707 40.3847 117.584C38.5427 117.161 37.5669 119.666 37.0698 121.83C36.3733 124.861 39.4492 127.014 41.8565 127.567C45.6379 128.436 48.6891 125.875 49.3475 123.009C50.0058 120.144 47.8287 117.294 45.5436 116.656C45.0142 116.504 44.6982 115.959 44.8506 115.43C45.003 114.9 45.5498 114.575 46.0769 114.737C49.2887 115.629 52.2215 119.432 51.2944 123.467C50.4189 127.277 46.3866 130.671 41.4064 129.526L41.4086 129.517Z" fill="#273E53"/>
<path d="M65.0603 44.7098C64.651 44.6157 64.2706 44.2616 64.3801 43.5172C64.3995 43.3883 64.5902 42.9601 64.5924 42.9503C65.1214 41.9432 65.8168 41.0154 66.4936 40.1243C67.5603 38.6969 68.5656 37.3581 68.9418 35.7207C69.2307 34.4635 69.246 33.995 69.2159 33.8137C68.9933 33.8446 68.5025 34.0602 68.1054 34.2255C66.9674 34.713 65.2396 35.4447 62.9837 35.5727C61.6751 35.6414 60.1713 35.3985 58.57 35.1332C54.6351 34.4856 50.9191 33.8678 49.8411 37.6217C49.8053 37.7776 49.6862 37.8939 49.5393 37.9525C49.3925 38.0111 49.2321 37.9948 49.0971 37.9125C49.0971 37.9125 48.8368 37.7501 48.6643 37.6078C48.551 37.5202 48.4902 37.3831 48.4803 37.2475C48.4589 36.7603 48.4538 36.1127 48.5904 35.5182C49.4704 31.688 53.948 32.2961 58.2771 32.8804C61.8888 33.3716 65.6219 33.8703 67.2855 31.9439C69.7675 29.0461 73.0329 27.9187 75.9199 26.9198C79.1418 25.803 81.6939 24.9221 82.3545 22.047C82.4549 21.2082 80.2135 13.8597 79.9986 13.2767C79.8785 13.085 79.9278 12.8706 80.0798 12.7003C80.2415 12.5322 80.5061 12.5417 80.7071 12.6495C81.1338 12.8911 81.6751 13.036 82.2434 13.1974C84.4918 13.8166 87.3033 14.5755 85.6551 21.7486C84.7975 25.4813 81.2679 26.9995 78.1473 28.3448C75.609 29.4341 73.2054 30.4722 72.7419 32.4896C72.4217 33.8833 75.3197 36.6321 77.8817 39.0574C80.9823 41.9964 83.653 44.5287 83.2186 46.4195C83.1783 46.5949 83.0428 46.7382 82.8764 46.7923C82.5122 46.9036 82.3796 46.945 71.6743 36.9129C71.6288 37.2 71.5639 37.4826 71.4989 37.7653C70.6547 41.4395 66.7111 45.0275 65.1165 44.733C65.1068 44.7307 65.0873 44.7263 65.0776 44.724L65.0603 44.7098ZM65.3712 43.7141C65.3712 43.7141 65.3689 43.7239 65.3667 43.7336C65.5046 43.714 65.8013 43.6283 66.2688 43.3355C67.9108 42.3071 69.966 39.9269 70.5168 37.5294C70.696 36.7497 70.7584 36.2099 70.7663 35.8629C70.5373 35.4306 70.5152 35.0357 70.6612 34.8024C70.7809 34.5939 71.0821 34.4887 71.319 34.5739C71.6197 34.6943 71.746 35.0825 71.7749 35.5816C71.877 35.7179 72.0233 35.8849 72.2304 36.0556C76.0121 39.6026 80.1412 43.4243 81.9918 45.0602C81.2462 43.6166 79.1216 41.6099 77.1921 39.7814C74.1755 36.9233 71.3194 34.2149 71.7673 32.2657C72.3451 29.7512 74.9748 28.6214 77.7537 27.4233C80.7948 26.111 83.9371 24.7603 84.6805 21.5246C86.1137 15.2872 84.1044 14.7434 81.9805 14.163C81.7391 14.0973 81.4976 14.0316 81.2585 13.9561C81.9892 16.2685 83.5404 21.396 83.3388 22.2732C82.5551 25.6843 79.4995 26.747 76.2656 27.8714C73.5014 28.8267 70.3784 29.915 68.0672 32.6058C66.0524 34.944 62.0516 34.4043 58.1701 33.8819C54.1086 33.3386 50.2682 32.8153 49.5942 35.7488C49.5897 35.7683 49.5875 35.7781 49.583 35.7976C51.4084 32.9439 55.2826 33.5878 58.7527 34.1594C60.2955 34.4113 61.7581 34.655 62.9528 34.5909C65.0319 34.4735 66.6007 33.8079 67.7388 33.3204C68.7398 32.8937 69.4111 32.6067 69.8994 33.0267C70.4073 33.4512 70.3152 34.3433 69.9435 35.9611C69.5202 37.8031 68.3966 39.2995 67.3156 40.7441C66.6651 41.6105 65.9981 42.5038 65.5043 43.4472C65.5021 43.4569 65.4303 43.6354 65.3884 43.7284L65.3712 43.7141Z" fill="#273E53"/>
<path d="M58.5851 60.3876C57.1817 60.0651 56.0004 59.3115 55.2496 58.7388C55.0306 58.5756 54.9906 58.2586 55.1538 58.0396C55.317 57.8206 55.634 57.7805 55.853 57.9437C56.5251 58.4573 57.581 59.1308 58.809 59.413C61.7816 60.096 66.7404 56.8233 67.7234 52.5448C67.8421 52.0283 67.9023 51.4983 67.9116 50.9669C67.9136 50.6903 68.1495 50.4675 68.4238 50.4792C68.7004 50.4812 68.9254 50.7073 68.9115 50.9914C68.8963 51.5933 68.8302 52.1937 68.698 52.7688C67.6635 57.2714 62.3763 61.2587 58.5851 60.3876Z" fill="#273E53"/>
<path d="M58.257 58.958C58.0036 58.8997 57.8265 58.6436 57.8749 58.3879C57.9279 58.1128 58.1841 57.9357 58.4494 57.9864C61.6235 58.5515 64.8876 56.0899 66.0897 53.4932C66.2086 53.2435 66.5001 53.136 66.752 53.2452C67.0017 53.3641 67.1092 53.6556 67 53.9075C65.6491 56.8395 61.9251 59.6058 58.2765 58.9624C58.2765 58.9624 58.257 58.958 58.2472 58.9557L58.257 58.958Z" fill="#273E53"/>
<path d="M66.3518 48.5566C66.2349 48.5297 66.1269 48.4639 66.0593 48.356C64.8329 46.6378 63.1401 45.3869 61.5417 45.0197C60.5671 44.7957 59.6423 44.891 58.7747 45.3176C58.532 45.4363 58.2268 45.3354 58.1104 45.0829C57.9917 44.8401 58.0926 44.535 58.3451 44.4186C59.4195 43.8959 60.5669 43.7696 61.7656 44.045C63.5979 44.466 65.5045 45.8584 66.8705 47.7729C67.0349 47.9953 66.9827 48.3117 66.7505 48.4738C66.6284 48.5586 66.4785 48.5857 66.3518 48.5566Z" fill="#273E53"/>
<path d="M70.5627 57.291C70.5627 57.291 70.4847 57.2731 70.448 57.2544C70.1983 57.1354 70.1028 56.8365 70.2217 56.5868L70.5023 56.0356C70.9721 55.1072 71.4607 54.1421 71.6913 53.1383C71.8145 52.6022 71.8582 52.0993 71.8098 51.5956C71.79 51.3243 71.9892 51.0828 72.2627 51.0533C72.5363 51.0238 72.7756 51.2327 72.8051 51.5062C72.8506 52.1118 72.8062 52.707 72.6584 53.3502C72.4031 54.4613 71.8914 55.4826 71.3864 56.4747L71.1178 57.0184C71.0176 57.2314 70.7794 57.3305 70.5552 57.279L70.5627 57.291Z" fill="#273E53"/>
<path d="M72.9616 58.5504C72.5816 58.463 72.1984 58.3442 71.8243 58.1864C71.5701 58.087 71.4431 57.791 71.5546 57.5293C71.6637 57.2774 71.9499 57.1482 72.2116 57.2596C75.5124 58.6132 79.5236 56.785 81.1723 53.3161C81.2912 53.0664 81.5924 52.9612 81.8422 53.0801C82.0919 53.199 82.1971 53.5002 82.0781 53.7499C80.3689 57.3486 76.5287 59.37 72.9714 58.5526L72.9616 58.5504Z" fill="#273E53"/>
<path d="M76.6363 59.0355C76.4316 58.9884 76.2756 58.8192 76.2544 58.5989C76.2249 58.3253 76.4263 58.074 76.7073 58.0565C79.3102 57.8029 81.7485 55.5415 82.3845 52.7737C82.6062 51.8088 82.5881 50.8607 82.3406 49.9727C82.2677 49.7097 82.4248 49.4277 82.6878 49.3548C82.9508 49.2818 83.2328 49.4389 83.3058 49.702C83.6073 50.7563 83.6189 51.8671 83.3591 52.9976C82.6224 56.204 79.862 58.7506 76.8087 59.0443C76.7555 59.0526 76.6948 59.0489 76.646 59.0377L76.6363 59.0355Z" fill="#273E53"/>
<path d="M42.596 53.1227C38.834 52.2583 36.8077 50.3152 36.0398 46.8246C35.9789 46.5541 36.1533 46.2864 36.4238 46.2254C36.6943 46.1644 36.962 46.3388 37.023 46.6093C37.7058 49.711 39.438 51.3711 42.8199 52.1481C44.35 52.4997 45.7523 52.3807 46.8671 51.816C47.112 51.6876 47.4172 51.7885 47.5359 52.0312C47.6643 52.2762 47.5634 52.5813 47.3206 52.7C45.9946 53.3803 44.36 53.528 42.596 53.1227Z" fill="#273E53"/>
<path d="M47.4964 53.8997C47.3404 53.8639 47.2099 53.7621 47.1438 53.6032C46.6652 52.4262 46.574 51.0816 46.8875 49.7172C47.5705 46.7446 49.9392 44.5185 52.6523 44.321C52.9334 44.3035 53.1629 44.5102 53.1924 44.7837C53.2122 45.0551 53.0033 45.2944 52.7297 45.3239C50.4431 45.4962 48.4466 47.3974 47.8599 49.9508C47.5934 51.1106 47.6709 52.2468 48.0706 53.2313C48.1751 53.4913 48.0472 53.78 47.7969 53.8867C47.6958 53.925 47.5916 53.9319 47.4941 53.9095L47.4964 53.8997Z" fill="#273E53"/>
<path d="M57.7878 63.7237C56.1408 63.3452 54.4236 62.6018 52.8149 61.5652C52.5817 61.4193 52.5199 61.1075 52.6658 60.8743C52.8118 60.6411 53.1235 60.5793 53.3568 60.7252C54.8672 61.6982 56.4816 62.3975 58.0118 62.749C59.8245 63.1656 61.5117 63.1018 63.0297 62.5681C63.2875 62.4735 63.5739 62.6111 63.6686 62.8688C63.7633 63.1266 63.6257 63.4131 63.3679 63.5077C61.679 64.115 59.7955 64.185 57.7976 63.7259L57.7878 63.7237Z" fill="#273E53"/>
<path d="M59.8044 74.417C59.4731 74.3408 59.1559 74.2475 58.8455 74.1248C58.5913 74.0254 58.4621 73.7392 58.5518 73.4827C58.6513 73.2286 58.9397 73.0896 59.1939 73.1891C62.6835 74.5244 67.3057 72.8059 68.3716 68.1667C68.88 65.9544 68.2957 63.9424 66.8202 62.7723C66.6035 62.5994 66.5634 62.2824 66.7364 62.0656C66.9093 61.8488 67.2263 61.8088 67.4431 61.9817C69.2336 63.3884 69.9442 65.7885 69.3485 68.3809C68.2423 73.1955 63.5297 75.2627 59.7969 74.405L59.8044 74.417Z" fill="#273E53"/>
<path d="M59.092 75.5976C56.5483 75.0131 54.6431 73.5698 53.7455 71.5372C53.6291 71.2847 53.7473 70.9938 53.9997 70.8773C54.2522 70.7609 54.5431 70.8791 54.6596 71.1316C55.4302 72.8682 57.0841 74.1101 59.316 74.623C62.5809 75.3731 65.4005 74.3998 67.941 71.6489C68.1312 71.4463 68.4415 71.4355 68.6463 71.616C68.8488 71.8062 68.8596 72.1165 68.6792 72.3212C65.8773 75.361 62.7371 76.4351 59.092 75.5976Z" fill="#273E53"/>
<path d="M42.8112 54.239C41.7684 53.9994 40.7494 53.6114 39.8744 53.2667C39.6202 53.1672 39.4932 52.8713 39.5927 52.6171C39.6921 52.3629 39.9881 52.236 40.2423 52.3354C41.0783 52.6712 42.0508 53.0383 43.0351 53.2644C44.2729 53.5488 45.3597 53.5523 46.3563 53.2785C46.6194 53.2056 46.9013 53.3627 46.9743 53.6257C47.0472 53.8887 46.8901 54.1707 46.6271 54.2437C45.4641 54.5716 44.2146 54.5615 42.8112 54.239Z" fill="#273E53"/>
<path d="M54.2011 44.636C54.0159 44.5935 53.8651 44.446 53.8275 44.2526C53.3185 41.8681 51.0807 39.7738 48.381 39.1535C48.1082 39.0908 47.943 38.8271 48.0057 38.5542C48.0684 38.2813 48.3321 38.1162 48.605 38.1789C51.6652 38.882 54.2197 41.2953 54.8084 44.0471C54.8694 44.3176 54.6853 44.5831 54.4267 44.6365C54.3518 44.6501 54.2791 44.6539 54.2109 44.6383L54.2011 44.636Z" fill="#273E53"/>
<path d="M72.9723 68.9983C72.7189 68.9401 72.5493 68.6959 72.588 68.438C72.8614 66.6232 72.9212 64.041 71.6196 62.0694C71.4672 61.8395 71.5291 61.5254 71.7591 61.373C71.9891 61.2206 72.3032 61.2825 72.4555 61.5125C73.9417 63.7522 73.8845 66.5915 73.5806 68.584C73.5373 68.8614 73.2789 69.0483 73.0113 69.0073C73.0016 69.005 72.9821 69.0006 72.9723 68.9983Z" fill="#273E53"/>
<path d="M73.6715 62.6945C73.4279 62.6385 73.194 62.5847 72.9548 62.5093C72.6864 62.4271 72.543 62.1581 72.6154 61.8875C72.6976 61.6191 72.9688 61.4659 73.2372 61.5481C73.4494 61.6071 73.6713 61.6684 73.8857 61.7176C77.7939 62.6156 81.6101 61.3685 83.6131 58.5454C83.7786 58.3166 84.0881 58.2646 84.3071 58.4278C84.5359 58.5932 84.5879 58.9027 84.4247 59.1217C82.1806 62.2794 77.9598 63.6798 73.6618 62.6922L73.6715 62.6945Z" fill="#273E53"/>
<path d="M78.2043 72.5294C77.9411 72.4689 77.7738 72.215 77.8267 71.9399C77.8894 71.667 78.1456 71.4898 78.4185 71.5525C84.1775 72.7014 87.3263 71.1881 88.3363 66.7926C88.7147 65.1455 88.587 63.2898 87.9843 61.5814C87.8896 61.3237 88.0272 61.0372 88.285 60.9425C88.5427 60.8479 88.8292 60.9855 88.9239 61.2432C89.5883 63.1299 89.7319 65.1843 89.3109 67.0165C88.1688 71.987 84.5428 73.7908 78.2238 72.5339L78.2043 72.5294Z" fill="#273E53"/>
<path d="M78.7907 71.228C78.1378 71.0779 77.5102 70.8619 76.9081 70.5799C76.6584 70.461 76.5509 70.1695 76.6601 69.9175C76.779 69.6678 77.0705 69.5604 77.3224 69.6696C79.77 70.8065 82.7808 70.698 84.9584 69.3925C85.1959 69.2521 85.5055 69.3335 85.6481 69.5612C85.7885 69.7987 85.7071 70.1083 85.4794 70.251C83.5534 71.3988 81.1125 71.7512 78.793 71.2182L78.7907 71.228Z" fill="#273E53"/>
<path d="M47.1353 68.2433C46.9599 68.203 46.8068 68.0652 46.7572 67.8794C46.4322 66.6145 46.4242 65.3096 46.7265 63.9939C47.1609 62.1031 48.2198 60.2635 49.7878 58.664C49.8415 58.4301 49.7987 58.3485 49.7987 58.3485C49.6735 58.2684 48.9548 58.3598 48.4347 58.4352C47.3023 58.5854 45.7584 58.7848 44.0334 58.3884C41.3532 57.7726 38.6458 56.1142 36.8044 53.9468C36.6281 53.7319 36.6488 53.4185 36.8637 53.2422C37.0689 53.0636 37.392 53.0865 37.5683 53.3015C39.2807 55.3161 41.7796 56.8548 44.2648 57.4258C45.8242 57.7841 47.2638 57.5916 48.3191 57.4647C49.3668 57.3258 50.1267 57.2336 50.5604 57.7129C50.9543 58.142 50.8065 58.7852 50.7572 58.9997C50.7371 59.0874 50.6481 59.2516 50.5837 59.3086C49.1032 60.7949 48.117 62.4972 47.7161 64.2418C47.4496 65.4015 47.4522 66.5513 47.7404 67.6641C47.8111 67.9369 47.6464 68.2069 47.3759 68.2678C47.2987 68.2911 47.2163 68.2927 47.1383 68.2748L47.1353 68.2433Z" fill="#273E53"/>
<path d="M38.6717 68.3712C33.2334 67.1217 30.734 64.2901 31.6253 60.4111C31.7529 59.8556 31.9488 59.3158 32.2181 58.8133C32.3468 58.5659 32.6533 58.4824 32.891 58.6088C33.1385 58.7375 33.2317 59.0462 33.0955 59.2817C32.8733 59.7129 32.6976 60.165 32.5901 60.6328C31.8198 63.9855 33.9349 66.2568 38.8859 67.3944C39.8995 67.6273 40.9279 67.7507 41.9398 67.7677C42.2164 67.7697 42.4415 67.9959 42.4395 68.2725C42.4375 68.549 42.2114 68.7741 41.9348 68.7721C40.8502 68.7589 39.7513 68.6295 38.6695 68.381L38.6717 68.3712Z" fill="#273E53"/>
<path d="M40.3968 69.6601C39.929 69.5526 39.4559 69.4234 38.9806 69.3039C38.1784 69.0888 37.3762 68.8737 36.6026 68.7575C36.3229 68.724 36.1361 68.4656 36.1793 68.1883C36.2225 67.9109 36.4711 67.7218 36.7485 67.765C37.5634 67.8804 38.3948 68.1022 39.2435 68.3382C41.282 68.8887 43.4585 69.553 45.3805 68.199C45.6008 68.0444 45.9171 68.0966 46.0815 68.319C46.2458 68.5415 46.1839 68.8556 45.9615 69.0199C44.1398 70.2944 42.1293 70.0684 40.3945 69.6698L40.3968 69.6601Z" fill="#273E53"/>
<path d="M23.5386 65.4171C21.6577 64.9849 20.3358 63.727 19.8826 63.2432C19.7807 63.2403 19.6907 63.2299 19.6127 63.212C19.3399 63.1493 19.1747 62.8856 19.2374 62.6127C19.3001 62.3398 19.5638 62.1747 19.8367 62.2374C19.8659 62.2441 19.8952 62.2508 19.9386 62.2403C20.1522 62.2483 20.3884 62.2923 20.5175 62.4451C20.6563 62.6001 21.9303 64.0215 23.7723 64.4448C25.6143 64.868 26.8278 64.9006 27.2884 64.5036C27.7228 64.1315 27.6762 63.2178 27.6151 62.0546C27.5557 60.9738 27.4862 59.624 27.8109 58.2108C28.1826 56.593 28.8566 55.178 29.8239 54.0048C29.9968 53.788 30.3116 53.7577 30.5261 53.9404C30.7429 54.1133 30.7732 54.4281 30.5905 54.6427C29.7228 55.6951 29.1116 56.9706 28.7757 58.4325C28.4824 59.7093 28.5517 60.9257 28.6037 61.9945C28.6762 63.3758 28.7403 64.5705 27.9262 65.2556C27.1743 65.8934 25.8627 65.9306 23.5431 65.3976L23.5386 65.4171Z" fill="#273E53"/>
<path d="M24.6514 69.8183C24.4467 69.7713 24.2907 69.602 24.2695 69.3817C24.24 69.1081 24.4414 68.8568 24.7149 68.8274C25.5258 68.7366 26.371 68.4075 27.1922 68.0935C28.2854 67.6674 29.3231 67.2595 30.2295 67.4677C31.1358 67.676 31.9887 68.385 32.8836 69.1344C34.0546 70.1114 35.3305 71.1228 36.6744 71.1238C36.951 71.1258 37.1761 71.3519 37.1741 71.6285C37.1721 71.9051 36.9459 72.1302 36.6694 72.1282C36.3613 72.1292 36.0525 72.089 35.7406 72.0174C34.3956 71.7084 33.2419 70.7456 32.236 69.8988C31.4371 69.2227 30.6705 68.5848 29.998 68.4303C29.3938 68.2915 28.4931 68.6386 27.5468 69.0061C26.7114 69.3374 25.7554 69.7026 24.8186 69.8054C24.7653 69.8137 24.7046 69.81 24.6559 69.7988L24.6514 69.8183Z" fill="#273E53"/>
<path d="M27.531 81.4897C25.1042 80.9321 23.2056 79.3262 22.5846 77.2955C22.5019 77.0303 22.647 76.7558 22.9123 76.6731C23.1775 76.5904 23.4617 76.7378 23.5347 77.0008C24.0595 78.6913 25.679 80.0381 27.7549 80.5151C31.5461 81.3862 35.1563 78.7579 36.1551 74.4112C36.2066 74.187 36.2559 73.9726 36.2879 73.744C36.3311 73.4666 36.5873 73.2895 36.8549 73.3305C37.118 73.3909 37.3094 73.6298 37.2684 73.8975C37.2319 74.1456 37.1857 74.3915 37.1297 74.6351C36.0033 79.5374 31.8777 82.4885 27.531 81.4897Z" fill="#273E53"/>
<path d="M28.3722 80.0615C27.417 79.8421 26.5674 79.4314 25.8189 78.8489C25.6021 78.676 25.562 78.359 25.735 78.1422C25.9079 77.9254 26.2249 77.8854 26.4417 78.0583C27.0673 78.5509 27.7872 78.901 28.5961 79.0869C30.8279 79.5997 33.7563 78.7335 34.7957 76.1301C34.8951 75.8759 35.1911 75.749 35.4452 75.8484C35.6994 75.9479 35.8264 76.2438 35.7269 76.498C34.6345 79.2431 31.4736 80.7639 28.3744 80.0518L28.3722 80.0615Z" fill="#273E53"/>
<path d="M17.9546 61.3638C17.7889 61.3257 17.6434 61.1999 17.5817 61.0216C17.1434 59.5357 17.0686 58.1641 17.353 56.9264C17.4224 56.6242 17.5136 56.3168 17.6295 56.0357C17.7289 55.7815 18.0249 55.6545 18.279 55.754C18.5332 55.8534 18.6602 56.1494 18.5607 56.4036C18.4658 56.6382 18.3881 56.8872 18.3298 57.1406C18.088 58.1931 18.1604 59.441 18.5416 60.7291C18.6243 60.9944 18.4672 61.2763 18.2042 61.3493C18.1172 61.3704 18.0348 61.3719 17.9568 61.354L17.9546 61.3638Z" fill="#273E53"/>
<path d="M41.6675 76.2318C41.5798 76.2117 41.4891 76.16 41.4223 76.0934C41.2317 75.8957 41.2329 75.5779 41.4306 75.3873C42.7741 74.0953 44.8333 73.5732 46.8117 74.0278C47.3478 74.151 47.8486 74.3379 48.3143 74.5885C48.5618 74.7172 48.6453 75.0237 48.5166 75.2711C48.3879 75.5186 48.0814 75.6021 47.834 75.4734C47.4515 75.2624 47.0361 75.1054 46.5878 75.0024C44.931 74.6217 43.2239 75.0401 42.1284 76.1017C41.9973 76.2255 41.8235 76.2676 41.6675 76.2318Z" fill="#273E53"/>
<path d="M44.7149 85.6534C43.7403 85.4295 42.7332 84.9005 41.6471 84.0456C41.4303 83.8726 41.3903 83.5556 41.5632 83.3388C41.7361 83.1221 42.0509 83.0918 42.2699 83.255C43.2428 84.0223 44.1202 84.4907 44.9486 84.681C46.8588 85.1199 48.8979 83.9262 49.3846 82.6119C49.4743 82.3554 49.7725 82.2187 50.0267 82.3182C50.2831 82.4079 50.4221 82.6963 50.3204 82.9602C49.6221 84.8827 46.9468 86.1662 44.7247 85.6556L44.7149 85.6534Z" fill="#273E53"/>
<path d="M45.0479 84.2934C44.9115 84.262 44.7653 84.2284 44.6258 84.1656C44.3694 84.0759 44.2304 83.7874 44.3321 83.5235C44.4218 83.2671 44.7103 83.1282 44.9742 83.2298C45.0792 83.2642 45.1744 83.2964 45.2816 83.321C46.8215 83.6748 48.68 82.5525 49.0271 81.0419C49.0629 80.8859 49.0815 80.7158 49.0881 80.5531C49.0901 80.2765 49.326 80.0537 49.6003 80.0654C49.8769 80.0674 50.0997 80.3033 50.088 80.5776C50.0852 80.813 50.0532 81.0416 49.9994 81.2755C49.5337 83.3027 47.1313 84.7823 45.0554 84.3053L45.0479 84.2934Z" fill="#273E53"/>
<path d="M56.4979 80.501C56.4004 80.4786 56.3194 80.4292 56.2451 80.3506C56.0546 80.1529 56.0677 79.8276 56.2729 79.649C58.2679 77.7987 60.8986 78.3621 63.2872 78.952C63.56 79.0147 63.8232 79.0752 64.0766 79.1334C64.33 79.1916 64.5146 79.4598 64.4519 79.7327C64.3892 80.0056 64.1255 80.1707 63.8527 80.108C63.5798 80.0453 63.3166 79.9848 63.0437 79.9221C62.7611 79.8572 62.4785 79.7923 62.1958 79.7273C60.0127 79.2257 58.2865 79.1471 56.9445 80.3881C56.8157 80.5022 56.6516 80.5466 56.4956 80.5107L56.4979 80.501Z" fill="#273E53"/>
<path d="M59.0682 92.3577C56.1444 91.6859 53.4248 89.0089 54.1503 85.8512C54.213 85.5783 54.4767 85.4132 54.7496 85.4759C55.0225 85.5386 55.1876 85.8022 55.1249 86.0751C54.5382 88.6286 56.8264 90.8166 59.2921 91.3831C63.0638 92.2497 66.9646 89.3393 68.558 86.0219C68.6769 85.7722 68.9781 85.667 69.2278 85.7859C69.4775 85.9048 69.5828 86.2061 69.4638 86.4558C67.4179 90.7158 62.9471 93.249 59.0779 92.3599L59.0682 92.3577Z" fill="#273E53"/>
<path d="M61.0873 90.6259C60.8924 90.5812 60.7341 90.4217 60.7031 90.1991C60.6639 89.9233 60.8653 89.672 61.1388 89.6425C64.5121 89.2068 66.3516 87.8544 66.9204 85.3789C67.0861 84.6577 67.0293 83.9674 66.7551 83.3299C66.6484 83.0796 66.759 82.7767 67.019 82.6723C67.2693 82.5656 67.5722 82.6762 67.6766 82.9362C68.0394 83.7686 68.11 84.6672 67.895 85.6029C67.2299 88.4974 65.0564 90.1425 61.2597 90.6348C61.1967 90.6408 61.136 90.6371 61.0873 90.6259Z" fill="#273E53"/>
<path d="M74.3361 83.7378C74.2386 83.7154 74.1479 83.6638 74.0758 83.5754C72.8828 82.2034 72.4215 80.2813 72.8492 78.4198C73.1605 77.0651 73.9261 75.8763 74.9904 75.0846C75.2129 74.9202 75.5217 74.9604 75.6861 75.1829C75.8505 75.4053 75.8103 75.7142 75.5878 75.8785C74.71 76.5284 74.0858 77.5034 73.826 78.634C73.47 80.1836 73.8425 81.7775 74.8345 82.9083C75.013 83.1135 74.9924 83.4269 74.7849 83.6152C74.6583 83.7195 74.4942 83.7639 74.3383 83.7281L74.3361 83.7378Z" fill="#273E53"/>
<path d="M79.3587 86.7082C79.1053 86.65 78.9357 86.4058 78.9744 86.1479C79.0176 85.8705 79.276 85.6836 79.5436 85.7246C83.1734 86.2713 85.8948 82.9566 86.7121 79.3993C86.7905 79.0581 86.8472 78.7223 86.8941 78.3842C86.9253 78.1144 87.1762 77.9155 87.4461 77.9467C87.7257 77.9802 87.9148 78.2288 87.8836 78.4987C87.8397 78.8683 87.7741 79.2431 87.689 79.6134C86.7686 83.6191 83.6234 87.3495 79.3902 86.7051C79.3804 86.7029 79.3609 86.6984 79.3512 86.6962L79.3587 86.7082Z" fill="#273E53"/>
<path d="M81.6006 84.4527C81.4836 84.4258 81.3681 84.3479 81.2908 84.2378C81.1385 84.0079 81.2004 83.6938 81.4303 83.5414C83.7255 82.0371 85.0619 80.5076 85.4068 79.0067C85.5456 78.4024 85.5218 77.7916 85.3309 77.1936C85.2482 76.9284 85.3933 76.6539 85.6511 76.5592C85.9163 76.4765 86.1908 76.6217 86.2855 76.8794C86.5283 77.6535 86.5628 78.4412 86.3836 79.2209C85.9783 80.9849 84.5026 82.7185 81.9895 84.3676C81.8697 84.4427 81.7318 84.4623 81.6051 84.4332L81.6006 84.4527Z" fill="#273E53"/>
<path d="M35.9479 97.0598C35.8212 97.0307 35.6848 96.9994 35.5626 96.9508C35.3062 96.8611 35.1672 96.5726 35.2569 96.3162C35.3466 96.0598 35.6351 95.9208 35.8915 96.0105C38.0726 96.7887 40.2122 94.1304 40.6624 92.1714C41.1505 90.0468 40.2677 87.7713 38.5089 86.6284C38.2757 86.4825 38.2139 86.1707 38.3599 85.9375C38.5058 85.7042 38.8176 85.6425 39.0508 85.7884C41.1583 87.1551 42.217 89.8711 41.637 92.3953C41.1062 94.7051 38.6281 97.6756 35.9479 97.0598Z" fill="#273E53"/>
<path d="M33.6204 96.6069C31.564 96.1344 30.0626 93.7373 30.4676 91.573C30.5205 91.2979 30.7767 91.1208 31.0518 91.1737C31.3097 91.2125 31.5041 91.4829 31.4512 91.758C31.1059 93.6179 32.6752 95.7638 34.4763 95.6954C34.7551 95.6877 34.9824 95.9041 34.9924 96.1731C35.0001 96.4519 34.7837 96.6793 34.5147 96.6893C34.2141 96.7023 33.9128 96.6741 33.6204 96.6069Z" fill="#273E53"/>
<path d="M36.7149 94.7938C36.52 94.749 36.3542 94.5775 36.3308 94.3669C36.3013 94.0933 36.4929 93.8398 36.7665 93.8103C38.1702 93.6403 38.6898 92.272 38.8712 91.4825C38.9675 91.0634 39.0098 90.6114 39.0064 90.1797C38.9986 89.9009 39.2248 89.6758 39.4938 89.6658C39.7727 89.6581 39.9977 89.8842 40.0077 90.1533C40.0127 90.6675 39.9622 91.1997 39.848 91.6967C39.4382 93.4802 38.3562 94.6168 36.8896 94.7928C36.8266 94.7989 36.7757 94.7974 36.7172 94.784L36.7149 94.7938Z" fill="#273E53"/>
<path d="M27.3574 94.4806C26.5484 94.2947 25.6592 92.4487 26.1362 90.3728C26.3893 89.2715 26.9677 88.3168 27.7609 87.6782C27.9758 87.5019 28.2944 87.5443 28.461 87.757C28.6374 87.972 28.595 88.2905 28.3823 88.4571C27.7681 88.9419 27.3101 89.7294 27.1108 90.5968C26.766 92.0977 27.3292 93.2634 27.5933 93.4985C27.8167 93.5088 28.0087 93.6555 28.0591 93.8826C28.1201 94.1531 27.9554 94.4231 27.6849 94.484C27.5763 94.5104 27.4646 94.5052 27.3574 94.4806Z" fill="#273E53"/>
<path d="M24.5667 95.8198C23.0658 95.4749 21.7069 93.9314 21.016 92.5619C20.8876 92.317 20.9885 92.0118 21.241 91.8954C21.486 91.767 21.7889 91.8776 21.9076 92.1204C22.4925 93.2808 23.6676 94.5974 24.7884 94.8549C25.2659 94.9646 25.6938 94.8885 26.1058 94.6138C26.3358 94.4614 26.6499 94.5234 26.8022 94.7533C26.9546 94.9833 26.8927 95.2974 26.6627 95.4498C26.0208 95.8769 25.3149 96.002 24.5742 95.8318L24.5667 95.8198Z" fill="#273E53"/>
<path d="M24.4757 94.7417C23.0041 94.4036 22.1258 93.0013 21.9058 91.7707C21.8545 91.5025 22.0289 91.2347 22.307 91.1857C22.5752 91.1345 22.843 91.3089 22.892 91.5869C23.0661 92.5709 23.7739 93.6878 24.9381 93.8013C25.2079 93.8326 25.409 94.0737 25.3875 94.3458C25.3563 94.6157 25.1152 94.8168 24.8431 94.7953C24.7216 94.7879 24.6047 94.7611 24.4877 94.7342L24.4757 94.7417Z" fill="#273E53"/>
<path d="M45.8175 100.682C45.72 100.66 45.6195 100.606 45.5573 100.52C44.6321 99.4554 44.2643 98.1088 44.5576 96.8321C44.8689 95.4774 45.8572 94.3911 47.2734 93.8546C47.5311 93.7599 47.8198 93.8878 47.9145 94.1456C48.0092 94.4033 47.8813 94.692 47.6235 94.7867C46.5228 95.2008 45.7576 96.0305 45.5225 97.0538C45.3008 98.0187 45.5798 99.037 46.3039 99.8601C46.4825 100.065 46.4596 100.388 46.2544 100.567C46.1278 100.671 45.9637 100.716 45.8175 100.682Z" fill="#273E53"/>
<path d="M53.7232 104.232C53.5965 104.203 53.481 104.125 53.4157 104.008C53.2655 103.768 53.335 103.466 53.5747 103.316C55.5642 102.07 56.7668 100.766 57.0444 99.5573C57.4072 97.9784 55.8861 95.3101 52.5822 94.5509C52.3093 94.4882 52.1442 94.2245 52.2069 93.9517C52.2696 93.6788 52.5333 93.5136 52.8061 93.5763C56.5291 94.4318 58.5363 97.5299 58.019 99.7812C57.6764 101.272 56.3609 102.755 54.0979 104.164C53.9781 104.24 53.8402 104.259 53.7232 104.232Z" fill="#273E53"/>
<path d="M48.9849 104.447C48.3222 104.295 47.7462 103.988 47.2429 103.544C47.0381 103.363 47.0198 103.041 47.21 102.839C47.3904 102.634 47.7127 102.616 47.9153 102.806C48.2806 103.136 48.7215 103.36 49.2088 103.472C50.8754 103.855 54.4557 102.831 55.0894 100.073C55.2372 99.4296 55.2366 98.7625 55.0958 98.1248C55.0349 97.8543 55.2093 97.5865 55.4798 97.5255C55.7503 97.4646 56.0181 97.639 56.079 97.9095C56.2492 98.6873 56.2432 99.5171 56.0641 100.297C55.2825 103.698 51.0316 104.917 48.9849 104.447Z" fill="#273E53"/>
<path d="M50.0793 105.222C49.9818 105.199 49.8746 105.175 49.7674 105.15C49.4967 105.078 49.3458 104.797 49.4258 104.538C49.4982 104.267 49.7911 104.109 50.0378 104.196C51.5598 104.628 53.1754 104.25 54.2086 103.862C54.4664 103.767 54.7551 103.895 54.8498 104.153C54.9445 104.411 54.8166 104.699 54.5588 104.794C53.4462 105.216 51.7706 105.631 50.065 105.239L50.0793 105.222Z" fill="#273E53"/>
<path d="M66.3061 107.031C66.1502 106.995 66.0121 106.881 65.9483 106.713C65.8536 106.455 65.9815 106.166 66.2392 106.072C67.9326 105.445 68.6341 103.821 68.9252 102.554C69.7336 99.0356 68.2183 96.1633 64.6707 94.4555C64.421 94.3366 64.3158 94.0354 64.4347 93.7857C64.5536 93.536 64.8548 93.4307 65.1045 93.5497C69.1149 95.4767 70.8247 98.7527 69.8998 102.778C69.4049 104.932 68.2588 106.392 66.5894 107.004C66.498 107.044 66.3961 107.042 66.3083 107.021L66.3061 107.031Z" fill="#273E53"/>
<path d="M60.4513 95.6714C60.2369 95.6222 60.0658 95.4289 60.0686 95.1936C60.0608 94.9148 60.287 94.6897 60.556 94.6797C61.361 94.6594 62.1649 94.3311 62.9494 93.9983L63.3442 93.8428C63.6042 93.7384 63.8929 93.8663 63.9996 94.1165C64.104 94.3765 63.9761 94.6652 63.7259 94.7719L63.3408 94.9296C62.4672 95.2932 61.5718 95.6621 60.5825 95.681C60.5412 95.6818 60.5 95.6826 60.461 95.6737L60.4513 95.6714Z" fill="#273E53"/>
<path d="M58.1399 105.329C58.0424 105.307 57.9517 105.255 57.8774 105.176C57.6891 104.969 57.7097 104.656 57.9172 104.467C59.2 103.305 60.1721 101.62 60.5819 99.8365C60.8707 98.5792 60.8546 97.3545 60.5455 96.2882C60.4628 96.023 60.62 95.741 60.883 95.668C61.1482 95.5853 61.4205 95.7402 61.5032 96.0055C61.8663 97.2381 61.8834 98.6375 61.5565 100.06C61.1019 102.039 60.0146 103.913 58.5767 105.214C58.4479 105.328 58.2861 105.363 58.1301 105.327L58.1399 105.329Z" fill="#273E53"/>
<path d="M61.6269 107.3C60.8082 107.112 60.0959 106.774 59.5018 106.278C59.285 106.106 59.2547 105.791 59.4374 105.576C59.6103 105.359 59.9251 105.329 60.1396 105.512C60.6152 105.898 61.1881 106.173 61.8508 106.326C63.0009 106.59 64.1745 106.439 64.9621 106.271C65.2326 106.21 65.5004 106.384 65.5613 106.655C65.6223 106.926 65.4479 107.193 65.1774 107.254C64.2909 107.451 62.9599 107.617 61.6247 107.31L61.6269 107.3Z" fill="#273E53"/>
<path d="M65.306 106.114C65.1891 106.087 65.0811 106.021 65.0135 105.913C64.8492 105.691 64.9111 105.377 65.1335 105.212C66.1268 104.507 67.2716 103.231 67.5649 101.954C67.7418 101.184 67.5883 100.513 67.1163 99.9322C66.9399 99.7173 66.9704 99.4062 67.1756 99.2276C67.3905 99.0513 67.7016 99.0817 67.8802 99.2869C68.5555 100.099 68.7881 101.096 68.5418 102.168C68.1656 103.806 66.7841 105.263 65.7167 106.023C65.5946 106.108 65.4447 106.135 65.318 106.106L65.306 106.114Z" fill="#273E53"/>
<path d="M48.0806 107.892C45.7123 107.347 43.1173 105.602 42.6658 102.923C42.6168 102.645 42.8084 102.391 43.0745 102.35C43.3427 102.299 43.606 102.493 43.6475 102.759C44.0221 104.969 46.3163 106.46 48.3045 106.917C48.5287 106.969 48.7453 107.008 48.9642 107.038C49.2394 107.091 49.433 107.32 49.3995 107.6C49.3683 107.869 49.1174 108.068 48.8378 108.035C48.5896 107.998 48.3318 107.96 48.0784 107.901L48.0806 107.892Z" fill="#273E53"/>
<path d="M51.8858 108.479C51.6909 108.434 51.5326 108.274 51.4994 108.061C51.4602 107.786 51.6518 107.532 51.9254 107.503C52.2641 107.457 52.6081 107.434 52.9544 107.4C54.0733 107.309 55.1391 107.225 55.981 106.598C56.2034 106.434 56.5198 106.486 56.6841 106.708C56.8485 106.931 56.7963 107.247 56.5739 107.411C55.4976 108.211 54.192 108.311 53.0295 108.413C52.6953 108.439 52.3707 108.467 52.0537 108.507C51.9908 108.513 51.9301 108.509 51.8716 108.496L51.8858 108.479Z" fill="#273E53"/>
<path d="M59.9001 110.351C58.7695 110.091 57.7143 109.459 56.931 108.581C56.7427 108.374 56.7634 108.06 56.9708 107.872C57.1782 107.684 57.4916 107.705 57.6799 107.912C58.7333 109.088 60.3626 109.678 61.8472 109.424C62.1155 109.372 62.381 109.556 62.43 109.835C62.4812 110.103 62.2971 110.368 62.0191 110.417C61.3229 110.545 60.6093 110.524 59.9076 110.363L59.9001 110.351Z" fill="#273E53"/>
<path d="M50.4713 113.161C50.4128 113.147 50.3565 113.124 50.295 113.079C50.064 112.924 50.012 112.614 50.1677 112.383C50.3518 112.118 50.4745 111.807 50.5752 111.369C50.62 111.174 50.6551 110.977 50.6924 110.77C50.7259 110.623 50.7423 110.463 50.7759 110.317C50.7361 110.267 50.7136 110.231 50.6888 110.205C50.5387 109.965 50.6081 109.663 50.8478 109.513C51.0853 109.372 51.3896 109.432 51.53 109.669C51.6666 109.834 51.8527 110.051 51.7833 110.353C51.7385 110.548 51.7034 110.745 51.6662 110.952C51.6266 111.169 51.5871 111.386 51.5379 111.6C51.408 112.165 51.2315 112.576 50.9695 112.957C50.8468 113.134 50.6369 113.199 50.4518 113.156L50.4713 113.161Z" fill="#273E53"/>
<path d="M55.9547 117.653C54.0737 117.221 52.5504 116.214 51.5641 114.746C51.4118 114.516 51.4737 114.202 51.7036 114.049C51.9336 113.897 52.2477 113.959 52.4001 114.189C53.2415 115.439 54.5413 116.302 56.1786 116.678C58.7126 117.26 60.4444 116.109 61.1546 114.938C61.3005 114.705 61.6048 114.631 61.8402 114.768C62.0735 114.913 62.1472 115.218 62.011 115.453C60.8443 117.36 58.4714 118.221 55.9569 117.643L55.9547 117.653Z" fill="#273E53"/>
<path d="M55.4809 118.375C55.4809 118.375 52.3898 117.583 52.5965 116.594C52.5499 116.44 52.5804 116.262 52.692 116.134C52.8649 115.917 53.1797 115.887 53.3942 116.07C53.5495 116.198 53.6306 116.38 53.6293 116.565C54.0785 116.842 55.4004 117.341 55.7026 117.411C56.2873 117.545 56.8188 117.554 57.3478 117.44C57.6183 117.379 57.8838 117.563 57.9373 117.821C57.9983 118.092 57.8239 118.36 57.5556 118.411C56.8962 118.557 56.2021 118.541 55.4809 118.375Z" fill="#273E53"/>
<path d="M40.4685 115.121C38.4023 114.646 34.0884 112.701 34.7109 109.991C34.814 109.543 35.0189 109.098 35.2929 108.709C35.4583 108.48 35.7656 108.438 35.9868 108.592C36.2058 108.755 36.2676 109.066 36.1044 109.286C35.906 109.568 35.7617 109.884 35.6855 110.215C35.2802 111.979 38.675 113.683 40.6924 114.146C42.32 114.52 44.6691 114.568 46.5981 112.692C46.7958 112.501 47.1136 112.503 47.3042 112.7C47.4947 112.898 47.4935 113.216 47.2958 113.406C45.5383 115.116 43.1097 115.728 40.4685 115.121Z" fill="#273E53"/>
<path d="M41.2014 113.627C40.9578 113.571 40.7957 113.339 40.8127 113.086C40.8439 112.816 41.0851 112.615 41.3572 112.637C43.9335 112.9 46.4041 111.437 47.2339 109.165C47.3236 108.908 47.6121 108.769 47.876 108.871C48.1324 108.961 48.2714 109.249 48.1697 109.513C47.1806 112.21 44.2688 113.942 41.2502 113.638C41.2307 113.634 41.2112 113.629 41.1917 113.625L41.2014 113.627Z" fill="#273E53"/>
<path d="M39.6452 118.882C39.4405 118.835 39.277 118.654 39.2558 118.434C39.236 118.162 39.4449 117.923 39.7162 117.903C42.0928 117.741 43.8366 117.342 45.368 116.616C45.6205 116.5 45.9136 116.608 46.0323 116.851C46.1487 117.103 46.0403 117.397 45.7976 117.515C44.1411 118.294 42.2887 118.72 39.7839 118.904C39.7329 118.902 39.6819 118.901 39.6332 118.89L39.6452 118.882Z" fill="#273E53"/>
<path d="M43.306 126.752C42.9941 126.68 42.6717 126.565 42.368 126.413C42.1206 126.284 42.0251 125.985 42.1538 125.738C42.2825 125.49 42.5717 125.393 42.8289 125.524C43.0591 125.638 43.3036 125.735 43.5375 125.789C45.4867 126.237 47.1279 124.408 47.5959 122.371C47.8064 121.455 47.893 120.274 47.137 119.813C46.9038 119.667 46.83 119.363 46.9662 119.128C47.1122 118.894 47.4164 118.821 47.6519 118.957C48.3539 119.385 49.0736 120.361 48.5608 122.593C47.9024 125.458 45.5941 127.288 43.3038 126.761L43.306 126.752Z" fill="#273E53"/>
<path d="M41.6491 127.264C40.1677 126.923 39.0469 125.906 38.7309 124.603C38.6699 124.332 38.8346 124.062 39.0954 123.999C39.3659 123.938 39.6359 124.103 39.6991 124.363C39.9203 125.276 40.774 126.026 41.8655 126.277C42.4211 126.405 42.9884 126.391 43.468 126.225C43.7332 126.142 44.01 126.277 44.1024 126.545C44.1851 126.81 44.0497 127.087 43.7919 127.181C43.1363 127.4 42.3921 127.424 41.6514 127.254L41.6491 127.264Z" fill="#273E53"/>
</g>
</g>
<defs>
<clipPath id="clip0_430_184">
<rect width="103.695" height="137.115" fill="white" transform="translate(0.582275 0.532715)"/>
</clipPath>
<clipPath id="clip1_430_184">
<rect width="78.2" height="122.72" fill="white" transform="translate(28.0635 0.532715) rotate(12.9402)"/>
</clipPath>
</defs>
</svg>
