<svg width="76" height="120" viewBox="0 0 76 120" fill="none" xmlns="http://www.w3.org/2000/svg">
<g clip-path="url(#clip0_433_204)">
<g clip-path="url(#clip1_433_204)">
<path d="M70.11 82.9676C69.96 82.9676 69.81 82.9376 69.66 82.8576C69.17 82.6076 68.97 82.0076 69.21 81.5176C69.94 80.0576 70.33 78.3876 70.33 76.6876C70.33 73.1876 68.77 70.0176 66.16 68.1876C65.93 68.0276 65.78 67.7876 65.74 67.5176C65.7 67.2476 65.77 66.9676 65.9399 66.7476C68.0099 64.1276 69.15 60.6276 69.15 56.9176C69.15 48.3476 61.18 43.4076 61.1 43.3676C60.8 43.1876 60.62 42.8676 60.62 42.5176C60.62 41.9376 60.91 41.3876 61.25 40.7476C61.57 40.1476 61.92 39.4776 61.92 38.9176C61.92 30.7076 44.07 28.0476 35.42 28.0476H34.0899C31.8899 28.0476 30.29 28.0476 29.42 28.0776V28.0976C29.42 30.0976 26.9399 31.1576 23.8099 32.4976C19.52 34.3376 14.18 36.6276 14.18 41.5276C14.18 42.6076 14.46 42.8876 14.47 42.8976C14.92 43.1476 15.05 43.6676 14.84 44.1376C14.63 44.6076 14.09 44.8376 13.61 44.6776C13.61 44.6776 13.47 44.6476 13.14 44.6376C12.29 45.0576 9.44995 48.3276 9.44995 49.9576C9.44995 51.4376 10.82 52.8376 12.11 53.4076C12.53 53.5976 12.77 54.0476 12.69 54.4976C12.61 54.9476 12.23 55.2876 11.77 55.3176C8.13995 55.5476 5.20995 59.2776 5.20995 62.2176C5.20995 64.7976 7.88995 66.3576 10.26 67.7376L10.41 67.8276C10.77 68.0376 10.96 68.4476 10.89 68.8476C10.82 69.2576 10.51 69.5776 10.11 69.6676C7.19995 70.2776 5.56995 73.0676 5.28995 77.9476C5.25995 78.4976 4.76995 78.9076 4.22995 78.8876C3.67995 78.8576 3.25995 78.3876 3.28995 77.8276C3.60995 72.3076 5.54995 69.6876 7.62995 68.4876C5.42995 67.0876 3.19995 65.1876 3.19995 62.2076C3.19995 59.0176 5.70995 55.2376 9.26995 53.8476C8.22995 52.8476 7.44995 51.4876 7.44995 49.9476C7.44995 47.6776 10.46 43.7676 12.32 42.8276C12.24 42.4676 12.19 42.0376 12.19 41.5176C12.19 35.2976 18.46 32.6076 23.04 30.6476C24.79 29.8976 27.44 28.7676 27.44 28.0876C27.44 28.0876 27.41 28.0176 27.3899 27.9776C27.2999 27.7776 27.07 27.2576 27.42 26.7276C27.87 26.0376 27.9799 26.0376 34.1099 26.0376H35.44C43.37 26.0376 63.94 28.3476 63.94 38.9076C63.94 39.9576 63.44 40.9076 63.03 41.6676C62.97 41.7876 62.89 41.9376 62.81 42.0876C64.9 43.5676 71.17 48.6776 71.17 56.9176C71.17 60.7076 70.09 64.3076 68.1199 67.1676C70.77 69.4176 72.33 72.8976 72.33 76.6776C72.33 78.6876 71.87 80.6676 71 82.4076C70.82 82.7576 70.47 82.9576 70.1 82.9576L70.11 82.9676Z" fill="#273E53"/>
<path d="M11.7199 110.828C11.3099 110.828 10.9299 110.578 10.7799 110.168C9.24992 105.938 7.98992 101.548 6.77992 97.2978C4.95992 90.9378 3.07992 84.3678 0.269917 78.3577C0.109917 78.0177 0.159917 77.6177 0.389917 77.3177C0.619917 77.0177 0.999917 76.8778 1.36992 76.9478C1.86992 77.0478 2.32992 76.9578 2.85992 76.8678C3.28992 76.7878 3.77992 76.6978 4.32992 76.6978C4.87992 76.6978 5.32992 77.1478 5.32992 77.6978C5.32992 78.2478 4.87992 78.6978 4.32992 78.6978C3.95992 78.6978 3.59992 78.7678 3.20992 78.8278C3.04992 78.8578 2.88992 78.8878 2.71992 78.9078C5.23992 84.6678 6.99992 90.7977 8.69992 96.7377C9.90992 100.948 11.1599 105.308 12.6599 109.478C12.8499 109.998 12.5799 110.568 12.0599 110.758C11.9499 110.798 11.8299 110.818 11.7199 110.818V110.828Z" fill="#273E53"/>
<path d="M35.9799 119.338C25.8099 119.338 17.1899 116.298 11.0399 110.548C10.6399 110.168 10.6199 109.538 10.9899 109.138C11.3699 108.738 11.9999 108.718 12.3999 109.088C18.1699 114.488 26.3199 117.338 35.9699 117.338C61.6899 117.338 63.8899 110.008 68.7299 93.9376C69.8099 90.3576 70.9999 86.3876 72.6099 82.0076C72.0199 82.3776 71.4099 82.7176 70.8199 83.0576C70.3399 83.3376 69.7299 83.1676 69.4599 82.6876C69.1899 82.2076 69.3499 81.5976 69.8299 81.3276C71.3899 80.4376 72.8599 79.5976 74.1099 78.3476C74.4499 78.0176 74.9699 77.9576 75.3699 78.2176C75.7699 78.4776 75.9199 78.9876 75.7499 79.4276C73.4999 85.0576 71.9799 90.0876 70.6499 94.5176C65.8299 110.518 63.1799 119.338 35.9799 119.338Z" fill="#273E53"/>
<path d="M50.8 29.5277C50.47 29.5277 50.15 29.3677 49.96 29.0677C49.66 28.6077 49.79 27.9877 50.26 27.6877C51.95 26.5977 52.92 24.5077 52.92 21.9677C52.92 15.1177 45.82 10.8777 39.25 10.8777C31.51 10.8777 27.98 15.8977 27.98 20.5577C27.98 24.0077 29.05 24.9477 29.69 25.5077C29.95 25.7377 30.2 25.9577 30.36 26.2777C30.61 26.7677 30.41 27.3677 29.91 27.6177C29.43 27.8577 28.85 27.6777 28.59 27.2177C28.53 27.1577 28.46 27.0977 28.37 27.0177C27.53 26.2777 25.98 24.9177 25.98 20.5677C25.98 14.9377 30.13 8.8877 39.25 8.8877C46.79 8.8877 54.92 13.8877 54.92 21.9777C54.92 25.2077 53.62 27.8977 51.34 29.3777C51.17 29.4877 50.98 29.5377 50.8 29.5377V29.5277Z" fill="#273E53"/>
<path d="M50.3399 14.2277C49.9599 14.2277 49.5999 14.0077 49.4299 13.6377C49.1999 13.1377 49.4299 12.5377 49.9299 12.3177C51.3099 11.6877 52.0499 10.3577 52.3499 8.99774C49.2599 11.4877 47.9499 11.6877 47.0499 11.1377C45.7499 10.3577 46.1299 8.46773 46.6299 6.40773C44.6099 8.08773 43.7499 9.32773 43.3699 9.86773C43.1599 10.1677 42.7299 10.7877 41.9799 10.5277C41.6499 10.4177 41.4699 10.1977 41.3799 9.96773C41.2599 10.1777 41.0599 10.3477 40.7199 10.4077C39.8799 10.5677 39.5799 9.78773 39.4699 9.48773C39.2199 8.82773 38.9199 8.21773 38.5699 7.67773C38.5699 7.75773 38.5699 7.83773 38.5699 7.92773C38.4899 9.40773 36.9999 10.0977 35.1899 10.4177C35.1499 10.9377 34.7199 11.3477 34.1899 11.3477C33.5199 11.3477 32.8199 11.3877 32.1299 11.4377C31.3999 11.4777 30.6399 11.5277 29.8799 11.5277C27.6299 11.5277 24.9399 11.2577 24.9399 9.94773C24.9399 8.87774 26.0799 8.80774 27.0799 8.74774C28.0299 8.69773 29.5199 8.66773 31.5099 8.66773C36.0199 8.66773 36.5699 7.80773 36.5799 7.80773C36.5799 6.92773 32.4699 4.34773 28.6899 3.92773C28.1899 3.86773 27.8099 3.44773 27.7999 2.94773C27.7999 2.44773 28.1599 2.00773 28.6599 1.94773C29.2799 1.86773 29.8999 1.81773 30.5299 1.81773C33.3599 1.81773 36.8599 2.51773 39.3399 5.37773C39.3199 5.11773 39.3099 4.85773 39.3099 4.59773C39.3099 3.67773 39.4499 0.677734 41.1899 0.677734C42.4599 0.677734 42.8199 2.36773 42.9399 2.92773C43.1399 3.88773 43.2699 5.18773 43.3099 6.80773C44.2199 5.84773 45.5599 4.62773 47.5299 3.23773C47.8399 3.01773 48.2299 2.99773 48.5699 3.16773C48.8999 3.33773 49.1099 3.67773 49.1099 4.05773C49.1099 4.70773 48.8999 5.55773 48.6599 6.55773C48.4699 7.35773 48.1299 8.75773 48.1699 9.37773C48.6199 9.24773 49.8599 8.64773 52.8299 6.00773C53.1099 5.75773 53.5099 5.68773 53.8599 5.82773C54.2099 5.96773 54.4499 6.28773 54.4899 6.66773C54.5099 6.93773 54.5299 7.21773 54.5299 7.49773C54.5299 9.89773 53.5399 12.9177 50.7699 14.1777C50.6399 14.2377 50.4999 14.2677 50.3599 14.2677L50.3399 14.2277Z" fill="#273E53"/>
<path d="M35.9299 16.0178C35.7699 16.0178 35.6099 15.9978 35.4399 15.9578C35.1699 15.8878 35.0099 15.6178 35.0799 15.3478C35.1499 15.0778 35.4199 14.9178 35.6899 14.9878C36.2699 15.1278 36.9299 14.7678 36.9299 13.7778C36.9299 13.5078 36.8199 13.5078 36.7499 13.5078C36.6999 13.5078 36.5299 13.5178 36.4399 13.7078C36.3199 13.9578 36.0199 14.0578 35.7699 13.9278C35.5199 13.8078 35.4199 13.5078 35.5499 13.2578C35.8299 12.7078 36.3599 12.5078 36.7599 12.5078C37.4599 12.5078 37.9399 13.0278 37.9399 13.7778C37.9399 15.2478 36.9399 16.0178 35.9399 16.0178H35.9299Z" fill="#273E53"/>
<path d="M40.6198 20.908H40.2798C39.9998 20.908 39.7798 20.678 39.7798 20.408C39.7798 20.138 39.9998 19.908 40.2798 19.908H40.6198C41.2998 19.908 41.4998 19.908 41.4998 18.898C41.4998 17.888 41.2998 17.918 41.1798 17.918C41.1398 17.938 40.9698 18.088 40.9698 18.198C40.9698 18.478 40.7498 18.698 40.4698 18.698C40.1898 18.698 39.9698 18.478 39.9698 18.198C39.9698 17.458 40.6898 16.918 41.1798 16.918C42.4998 16.918 42.4998 18.408 42.4998 18.898C42.4998 20.918 41.3198 20.918 40.6198 20.918V20.908Z" fill="#273E53"/>
<path d="M33.9198 22.8578C33.2498 22.8578 32.5598 22.2878 32.5598 21.3378C32.5598 21.0578 32.7798 20.8378 33.0598 20.8378C33.3398 20.8378 33.5598 21.0578 33.5598 21.3378C33.5598 21.7178 33.7798 21.8578 33.9198 21.8578C34.3498 21.8578 34.6798 21.0178 34.6798 20.3078C34.6798 20.0878 34.6498 19.8778 34.5998 19.6678C34.5298 19.3978 34.6998 19.1278 34.9598 19.0578C35.2298 18.9878 35.4998 19.1578 35.5698 19.4178C35.6398 19.7078 35.6798 20.0078 35.6798 20.2978C35.6798 21.3578 35.1298 22.8478 33.9198 22.8478V22.8578Z" fill="#273E53"/>
<path d="M45.1498 15.448C44.0098 15.448 44.0098 14.388 44.0098 14.038V13.698C44.0098 13.418 44.2398 13.198 44.5098 13.198C44.7798 13.198 45.0098 13.418 45.0098 13.698V14.038C45.0098 14.308 45.0298 14.408 45.0498 14.438C45.0498 14.438 45.0898 14.438 45.1498 14.438C45.4698 14.438 45.7998 13.868 45.7998 13.458C45.7998 13.178 46.0198 12.958 46.2998 12.958C46.5798 12.958 46.7998 13.178 46.7998 13.458C46.7998 14.288 46.1698 15.438 45.1498 15.438V15.448Z" fill="#273E53"/>
<path d="M47.1797 23.0982C46.4997 23.0982 45.9597 22.5482 45.9597 21.8482C45.9597 21.6982 45.9797 21.5482 46.0097 21.3982C46.0297 21.2982 46.0397 21.2082 46.0397 21.1182C46.0397 20.8382 46.2597 20.6182 46.5397 20.6182C46.8197 20.6182 47.0397 20.8382 47.0397 21.1182C47.0397 21.2582 47.0197 21.4082 46.9897 21.5582C46.9697 21.6582 46.9597 21.7582 46.9597 21.8582C46.9597 22.0482 47.0997 22.1082 47.1797 22.1082C47.6097 22.1082 48.1197 20.7982 48.1197 19.9882C48.1197 19.8082 48.0997 19.6182 48.0597 19.4282C48.0097 19.1582 48.1797 18.8982 48.4497 18.8382C48.7197 18.7782 48.9797 18.9582 49.0397 19.2282C49.0897 19.4782 49.1197 19.7282 49.1197 19.9782C49.1197 20.8982 48.5597 23.0982 47.1797 23.0982Z" fill="#273E53"/>
<path d="M41.3699 27.008C41.1399 27.008 40.9299 26.848 40.8799 26.608C40.8299 26.338 40.9999 26.078 41.2699 26.018C41.9799 25.878 42.0799 25.258 42.0799 24.908C42.0799 24.178 41.8299 24.178 41.5499 24.178C41.1499 24.178 40.9099 24.728 40.9099 25.028C40.9099 25.098 40.9199 25.158 40.9499 25.228C41.0399 25.488 40.8999 25.778 40.6299 25.858C40.3699 25.948 40.0899 25.798 39.9999 25.538C39.9399 25.368 39.9099 25.188 39.9099 25.018C39.9099 24.268 40.4999 23.168 41.5499 23.168C42.1199 23.168 43.0799 23.388 43.0799 24.898C43.0799 25.988 42.4599 26.788 41.4699 26.988C41.4399 26.988 41.3999 26.988 41.3699 26.988V27.008Z" fill="#273E53"/>
<path d="M29.5898 19.1881C29.4098 19.1881 29.2998 19.0981 29.1898 19.0181C29.0898 18.9381 28.7698 18.6881 28.5698 18.6881C28.2898 18.6881 28.0698 18.4681 28.0698 18.1881C28.0698 17.9081 28.2898 17.6881 28.5698 17.6881C29.0598 17.6881 29.5098 17.9981 29.7398 18.1781C30.0998 18.1481 30.1498 17.9681 30.2698 17.4281C30.3598 17.0281 30.4598 16.5781 30.8098 16.2281C31.0098 16.0281 31.3198 16.0281 31.5198 16.2281C31.7198 16.4281 31.7198 16.7381 31.5198 16.9381C31.3698 17.0881 31.3098 17.3581 31.2498 17.6481C31.1198 18.2281 30.9098 19.1881 29.5898 19.1881Z" fill="#273E53"/>
<path d="M26.6099 44.5183H17.6799C14.7799 44.5183 13.3132 44.3316 13.2799 43.9583C13.2299 43.4383 13.4299 43.3983 15.3399 43.0483C19.9699 42.1983 34.0499 39.6183 34.0499 32.5383C34.0499 29.7683 31.1899 27.8583 28.5399 27.6783C28.2599 27.6583 28.0599 27.4183 28.0699 27.1483C28.0699 27.0783 28.0899 27.0183 28.1199 26.9583C28.0599 26.8383 28.0499 26.6983 28.0899 26.5683C28.1799 26.3083 28.4599 26.1683 28.7299 26.2583C36.2699 28.8783 39.9299 31.8483 39.9299 35.3283C39.9299 38.8083 37.1199 44.5183 26.5999 44.5183H26.6099ZM18.2099 43.5183H26.6099C36.3399 43.5183 38.9399 38.3683 38.9399 35.3283C38.9399 33.3383 37.3399 31.4583 34.1799 29.6983C34.7199 30.5083 35.0499 31.4683 35.0499 32.5383C35.0499 39.3483 24.5399 42.2283 18.2099 43.5183Z" fill="#273E53"/>
<path d="M19.7497 73.7278C18.0797 73.7278 16.5497 72.6178 14.9397 71.4478C13.4097 70.3378 11.8297 69.1978 10.0997 68.9878C9.82972 68.9578 9.62972 68.7078 9.65972 68.4378C9.68972 68.1678 9.93972 67.9578 10.2197 67.9978C12.2097 68.2278 13.8997 69.4578 15.5297 70.6378C17.0097 71.7078 18.4097 72.7278 19.7597 72.7278C33.2597 72.7278 53.3497 67.1378 53.3497 51.7478C53.3497 45.0678 50.5997 41.0678 46.3497 37.9178C47.5497 39.4278 48.3897 41.2278 48.3897 43.2978C48.3897 47.0378 44.6197 54.7578 32.9497 54.7578C30.3897 54.7578 27.6997 54.4678 25.0897 54.1778C22.5297 53.8978 19.8697 53.6078 17.3997 53.6078C13.1797 53.6078 12.6497 54.0078 12.1297 54.6578C11.9597 54.8678 11.6397 54.9078 11.4297 54.7378C11.2097 54.5678 11.1797 54.2478 11.3497 54.0378C12.1997 52.9678 13.1997 52.6178 17.3997 52.6178C19.9297 52.6178 22.6097 52.9078 25.1997 53.1878C27.7797 53.4678 30.4497 53.7578 32.9497 53.7578C43.8597 53.7578 47.3897 46.7078 47.3897 43.2978C47.3897 38.8878 42.9397 35.7478 40.2097 34.2378C39.7097 33.9778 39.2097 33.7278 38.6897 33.4678C38.4497 33.3478 38.3397 33.0478 38.4597 32.8078C38.5797 32.5578 38.8697 32.4578 39.1197 32.5678C39.4997 32.7378 40.0197 32.9978 40.6297 33.3378C48.4997 37.3978 54.3397 41.6678 54.3397 51.7478C54.3397 67.8778 33.6597 73.7278 19.7497 73.7278Z" fill="#273E53"/>
<path d="M59.4497 43.5081C54.1497 43.5081 48.3897 39.1181 44.1797 35.9181L43.5397 35.4381C41.5597 33.9381 38.8597 33.518 38.8297 33.518C38.5597 33.478 38.3697 33.218 38.4097 32.948C38.4497 32.678 38.6997 32.488 38.9797 32.528C39.0997 32.548 41.9597 32.9881 44.1497 34.6481L44.7897 35.1381C48.8797 38.2581 54.4897 42.518 59.4597 42.518C59.9497 42.518 61.1097 42.458 61.1597 41.878C61.3497 39.858 52.7397 33.1581 35.8997 29.9181C33.7197 29.4981 31.6397 28.698 29.8897 27.608C29.6597 27.458 29.5797 27.1481 29.7297 26.9181C29.8797 26.6881 30.1797 26.6081 30.4197 26.7581C32.0597 27.7881 34.0197 28.5381 36.0897 28.9381C52.4597 32.0881 62.4697 38.758 62.1597 41.9681C62.0997 42.548 61.6797 43.5081 59.4597 43.5081H59.4497Z" fill="#273E53"/>
<path d="M37.2498 75.8778C31.6598 75.8778 25.8198 74.7978 20.6798 73.8378L19.9498 73.7078C19.6798 73.6578 19.4998 73.3978 19.5498 73.1278C19.5998 72.8578 19.8598 72.6778 20.1298 72.7278L20.8598 72.8578C25.9598 73.8078 31.7498 74.8778 37.2498 74.8778C53.1698 74.8778 58.9498 64.3078 58.9498 57.2078C58.9498 45.8578 42.9798 35.2278 41.2298 34.7378C41.0098 34.7378 40.8398 34.6278 40.7598 34.4378C40.6498 34.1878 40.7598 33.8878 41.0198 33.7778C41.2298 33.6778 41.5198 33.5578 43.9298 35.1178C45.5698 36.1878 59.9598 45.8878 59.9598 57.2078C59.9598 64.7078 53.9098 75.8778 37.2598 75.8778H37.2498Z" fill="#273E53"/>
<path d="M48.7799 73.4879C48.5599 73.4879 48.3499 73.3379 48.2999 73.1179C48.2299 72.8479 48.3899 72.5779 48.6599 72.5079C50.1799 72.1179 51.7899 71.7979 53.3499 71.4979C58.0799 70.5779 62.9599 69.6179 66.3999 66.3479C66.5999 66.1579 66.9199 66.1679 67.1099 66.3679C67.2999 66.5679 67.2899 66.8879 67.0899 67.0779C63.4399 70.5579 58.4099 71.5379 53.5399 72.4879C51.9899 72.7879 50.3899 73.0979 48.8999 73.4879C48.8599 73.4979 48.8199 73.5079 48.7699 73.5079L48.7799 73.4879Z" fill="#273E53"/>
<path d="M50.8998 72.7782C50.6798 72.7782 50.4798 72.6282 50.4198 72.4082C50.3498 72.1382 50.5098 71.8682 50.7698 71.7982C60.6498 69.1682 64.4898 64.5582 64.4898 55.3782C64.4898 54.5682 64.5098 53.7682 64.5398 52.9882C64.6598 48.9382 64.7698 45.4282 61.3398 42.9282C61.1198 42.7682 61.0698 42.4482 61.2298 42.2282C61.3898 42.0082 61.7098 41.9582 61.9298 42.1182C65.7798 44.9382 65.6698 48.8582 65.5398 53.0182C65.5198 53.7882 65.4898 54.5782 65.4898 55.3782C65.4898 64.9882 61.2998 70.0282 51.0198 72.7682C50.9798 72.7782 50.9298 72.7882 50.8898 72.7882L50.8998 72.7782Z" fill="#273E53"/>
<path d="M10.1597 68.9982C10.0797 68.9982 9.9897 68.9782 9.9197 68.9382C9.6797 68.8082 9.5897 68.4982 9.7297 68.2582C11.7997 64.5282 18.5497 63.1382 26.3597 61.5282C37.3697 59.2582 49.8497 56.6782 49.8497 46.6282C49.8497 43.8082 47.5997 41.2782 45.4297 38.8282C44.4897 37.7682 43.5197 36.6682 42.7497 35.5682C42.5897 35.3382 42.6497 35.0282 42.8697 34.8682C43.0997 34.7082 43.4097 34.7682 43.5697 34.9882C44.3097 36.0482 45.2197 37.0682 46.1797 38.1582C48.4797 40.7482 50.8497 43.4282 50.8497 46.6182C50.8497 57.4782 37.9497 60.1482 26.5597 62.4982C19.3097 63.9982 12.4497 65.4082 10.6097 68.7382C10.5197 68.8982 10.3497 68.9982 10.1697 68.9982H10.1597Z" fill="#273E53"/>
<path d="M37.1598 88.6581C36.1498 88.6581 35.0198 87.7781 34.3598 86.7781C34.2898 86.9081 34.2198 87.0481 34.1598 87.1781C33.8198 87.8781 33.4898 88.5281 32.8498 88.5281C31.0998 88.4581 29.8898 87.2481 28.7198 86.0781C28.2398 85.5981 27.7498 85.1081 27.2298 84.6981C26.3398 85.8481 24.0798 87.9781 23.4798 87.9781C23.4498 87.9781 23.3398 87.9781 23.3098 87.9581C19.7098 87.2981 17.0598 84.5081 15.0898 81.9281L15.0098 82.0981C14.1998 83.8881 13.7898 84.7881 12.9498 85.0181C12.0298 85.2681 11.0798 84.6081 8.76981 82.9881C7.14981 81.8581 4.93981 80.3081 1.69981 78.3481C1.45981 78.2081 1.38981 77.8981 1.52981 77.6581C1.66981 77.4181 1.97981 77.3481 2.21981 77.4881C5.48981 79.4681 7.71981 81.0281 9.34981 82.1681C11.0798 83.3781 12.2198 84.1881 12.6898 84.0481C13.0798 83.9381 13.4898 83.0381 14.0998 81.6781L14.5298 80.7381C14.5998 80.5781 14.7598 80.4681 14.9298 80.4481C15.1098 80.4281 15.2798 80.5081 15.3798 80.6481C17.2598 83.2281 19.8698 86.2581 23.4098 86.9481C24.0198 86.5881 26.4198 84.3381 26.6198 83.8281C26.6598 83.6681 26.7698 83.5481 26.9198 83.4981C27.0698 83.4381 27.2398 83.4681 27.3698 83.5581C28.1298 84.0581 28.7798 84.7181 29.4098 85.3581C30.4898 86.4381 31.5098 87.4681 32.8298 87.5181C32.8698 87.4581 33.0898 87.0181 33.2398 86.7181C33.4498 86.2981 33.6898 85.8181 34.0098 85.4481C34.1298 85.3081 34.2998 85.2481 34.4798 85.2781C34.6498 85.3081 34.7998 85.4281 34.8598 85.5981C35.2298 86.6081 36.3798 87.6381 37.1398 87.6381C38.1798 87.6381 39.4398 86.6581 40.6598 85.7081C41.3598 85.1581 42.0898 84.5981 42.7898 84.2081C42.9398 84.1181 43.1298 84.1281 43.2898 84.2081C43.4398 84.2981 43.5398 84.4581 43.5398 84.6381C43.5398 85.1581 43.6798 86.5081 44.3098 86.5081C45.1898 86.5081 47.8098 85.8481 52.1198 84.5481C52.8598 84.3281 52.8898 84.3181 53.0998 84.4681C53.2298 84.5581 53.2998 84.7081 53.2998 84.8681C53.2998 85.4581 53.5698 86.0381 53.7298 86.2481C56.3998 85.9781 58.2698 84.7381 59.6498 83.8381C60.8098 83.0681 61.7298 82.4681 62.6698 82.7481C63.2498 82.9181 63.7198 83.3981 64.1598 84.2781C66.2298 83.1581 68.1998 82.2681 70.1698 81.5781C70.4298 81.4881 70.7198 81.6281 70.8098 81.8881C70.8998 82.1481 70.7598 82.4381 70.4998 82.5281C68.4398 83.2481 66.3698 84.1981 64.1798 85.4081C64.0598 85.4781 63.9098 85.4881 63.7798 85.4481C63.6498 85.3981 63.5398 85.2981 63.4798 85.1681C63.1098 84.3081 62.7398 83.8081 62.3898 83.7081C61.9098 83.5581 61.1598 84.0581 60.2098 84.6781C58.7198 85.6581 56.6798 86.9981 53.6498 87.2681C53.0498 87.2681 52.5598 86.3681 52.3798 85.5281C49.5398 86.3881 45.6298 87.5181 44.3198 87.5181C43.2898 87.5181 42.7798 86.5881 42.6098 85.5081C42.1798 85.7981 41.7398 86.1481 41.2798 86.4981C39.9298 87.5481 38.5298 88.6381 37.1498 88.6381L37.1598 88.6581Z" fill="#273E53"/>
<path d="M6.78987 80.2279C6.57987 80.2279 6.38987 80.0979 6.31987 79.8879C6.01987 79.0179 5.86987 78.1079 5.86987 77.1679C5.86987 74.2079 7.39987 71.2879 9.86987 69.5479C10.0999 69.3879 10.4099 69.4479 10.5699 69.6679C10.7299 69.8979 10.6699 70.2079 10.4499 70.3679C8.23987 71.9179 6.86987 74.5279 6.86987 77.1679C6.86987 77.9879 6.99987 78.7979 7.26987 79.5579C7.35987 79.8179 7.21987 80.1079 6.95987 80.1879C6.90987 80.2079 6.84987 80.2179 6.79987 80.2179L6.78987 80.2279Z" fill="#273E53"/>
<path d="M19.8099 75.3981C19.8099 75.3981 19.7699 75.3981 19.7399 75.3981C17.3899 75.0881 15.5799 73.7081 13.8299 72.3681C12.9699 71.7081 12.0699 71.0281 11.1499 70.5081C10.9099 70.3781 10.8199 70.0681 10.9599 69.8281C11.0899 69.5881 11.3999 69.4981 11.6399 69.6381C12.6299 70.1881 13.5499 70.8981 14.4399 71.5781C16.1599 72.8881 17.7899 74.1281 19.8799 74.4082C20.1499 74.4482 20.3499 74.6981 20.3099 74.9681C20.2799 75.2181 20.0599 75.3981 19.8099 75.3981Z" fill="#273E53"/>
<path d="M38.2499 77.4281C38.0899 77.4281 37.9199 77.4281 37.7599 77.4181C37.4799 77.4081 37.2699 77.1681 37.2899 76.8981C37.2999 76.6181 37.5299 76.3781 37.8099 76.4281C37.9599 76.4281 38.1099 76.4381 38.2499 76.4381C39.1899 76.3581 61.5399 71.3281 65.0899 68.4581C65.3099 68.2881 65.6199 68.3181 65.7899 68.5281C65.9599 68.7381 65.9299 69.0581 65.7199 69.2281C62.0499 72.2081 39.2799 77.4381 38.2499 77.4381V77.4281Z" fill="#273E53"/>
<path d="M66.5898 81.5078C66.5198 81.5078 66.4498 81.4978 66.3798 81.4578C66.1298 81.3378 66.0198 81.0478 66.1398 80.7878C66.6198 79.7678 66.8598 78.6778 66.8598 77.5678C66.8598 75.4978 66.0098 73.3878 64.4598 71.6178C64.2798 71.4078 64.2998 71.0978 64.5098 70.9178C64.7198 70.7378 65.0298 70.7578 65.2198 70.9678C66.9298 72.9178 67.8698 75.2678 67.8698 77.5778C67.8698 78.8378 67.5998 80.0578 67.0598 81.2178C66.9798 81.3978 66.7898 81.5078 66.6098 81.5078H66.5898Z" fill="#273E53"/>
<path d="M63.5999 81.7982C63.5399 81.7982 63.4699 81.7882 63.4099 81.7582C63.1499 81.6582 63.0299 81.3582 63.1399 81.1082C63.6999 79.7382 64.3399 77.9582 64.3399 76.2582C64.3399 75.1582 64.0799 74.2582 63.5299 73.4982C63.3699 73.2682 63.4199 72.9582 63.6499 72.7982C63.8799 72.6382 64.1899 72.6882 64.3499 72.9182C65.0099 73.8382 65.3399 74.9682 65.3399 76.2582C65.3399 78.1282 64.6599 80.0282 64.0699 81.4782C63.9899 81.6682 63.7999 81.7882 63.6099 81.7882L63.5999 81.7982Z" fill="#273E53"/>
<path d="M10.9898 83.368C10.0698 83.368 9.40981 82.528 8.83981 81.788C8.69981 81.618 8.56981 81.438 8.43981 81.288C8.25981 81.078 8.27981 80.758 8.48981 80.578C8.69981 80.398 9.01981 80.418 9.18981 80.628C9.32981 80.798 9.47981 80.978 9.61981 81.168C10.0598 81.728 10.5498 82.368 10.9798 82.368C11.2198 82.348 11.4398 81.798 11.5898 81.428C11.6698 81.228 11.7498 81.028 11.8398 80.848C11.9598 80.598 12.2598 80.498 12.5098 80.628C12.7598 80.748 12.8598 81.048 12.7298 81.298C12.6498 81.448 12.5898 81.628 12.5098 81.798C12.2398 82.468 11.9098 83.308 11.0798 83.368C11.0698 83.368 10.9898 83.368 10.9798 83.368H10.9898Z" fill="#273E53"/>
<path d="M23.7299 86.6379C22.4399 86.6379 20.8999 85.5379 20.8999 84.8479C20.8999 84.6879 20.9999 84.4879 21.1199 84.3979C21.2099 84.3279 21.3899 84.2779 21.4999 84.2779C21.7799 84.2779 21.9999 84.4979 21.9999 84.7779C21.9999 84.8079 21.9999 84.8379 21.9999 84.8579C22.2899 85.1379 23.0199 85.6379 23.7399 85.6379C24.4599 85.6379 25.1199 85.2379 25.5699 84.5079C25.7199 84.2679 26.0199 84.1979 26.2599 84.3479C26.4899 84.4979 26.5699 84.7979 26.4199 85.0379C25.7899 86.0579 24.8099 86.6379 23.7399 86.6379H23.7299Z" fill="#273E53"/>
<path d="M32.4997 86.9579C32.4997 86.9579 32.4497 86.9579 32.4197 86.9579C31.9897 86.8879 31.6797 86.6379 31.4097 86.4279C31.1297 86.2079 30.9497 86.0679 30.6997 86.0679C30.4197 86.0679 30.1997 85.8479 30.1997 85.5679C30.1997 85.2879 30.4197 85.0679 30.6997 85.0679C31.3097 85.0679 31.7097 85.3879 32.0297 85.6479C32.2297 85.8079 32.3997 85.9479 32.5797 85.9779C32.8497 86.0179 33.0397 86.2779 32.9897 86.5579C32.9497 86.8079 32.7397 86.9779 32.4997 86.9779V86.9579Z" fill="#273E53"/>
<path d="M38.7899 87.188C38.6899 87.188 38.5899 87.158 38.4999 87.088C38.2799 86.928 38.2299 86.618 38.3899 86.388C39.1799 85.308 40.3399 84.838 41.3699 84.428C41.6499 84.318 41.9199 84.208 42.1799 84.088C42.4299 83.978 42.7299 84.088 42.8399 84.338C42.9499 84.588 42.8399 84.888 42.5899 84.998C42.3099 85.128 42.0199 85.238 41.7299 85.358C40.7399 85.748 39.8099 86.128 39.1899 86.978C39.0899 87.108 38.9399 87.188 38.7899 87.188Z" fill="#273E53"/>
<path d="M45.2997 86.3979C45.0897 86.3979 44.8997 86.2679 44.8297 86.0679C44.7397 85.8079 44.8697 85.5179 45.1297 85.4279C46.0897 85.0879 47.0897 84.8679 48.0497 84.6479C48.6997 84.5079 49.3497 84.3579 49.9897 84.1779C50.2597 84.0979 50.5297 84.2579 50.6097 84.5179C50.6897 84.7879 50.5297 85.0579 50.2697 85.1379C49.6197 85.3279 48.9497 85.4779 48.2797 85.6179C47.3497 85.8279 46.3797 86.0379 45.4797 86.3579C45.4197 86.3779 45.3697 86.3879 45.3097 86.3879L45.2997 86.3979Z" fill="#273E53"/>
<path d="M54.8399 85.7279C54.6299 85.7279 54.4399 85.5979 54.3699 85.3979C54.2799 85.1379 54.4099 84.8479 54.6799 84.7579C55.7399 84.3779 56.7199 83.9079 57.7599 83.3979C58.5299 83.0279 59.3199 82.6379 60.1499 82.2979C60.4099 82.1979 60.6999 82.3179 60.7999 82.5679C60.8999 82.8279 60.7799 83.1179 60.5299 83.2179C59.7299 83.5479 58.9499 83.9279 58.1899 84.2979C57.1699 84.7979 56.1199 85.3079 54.9999 85.6979C54.9399 85.7179 54.8899 85.7279 54.8299 85.7279H54.8399Z" fill="#273E53"/>
<path d="M65.2898 83.928C65.1598 83.928 65.0298 83.878 64.9398 83.778C64.7398 83.578 64.7398 83.268 64.9398 83.068C65.5898 82.418 66.3498 82.028 67.0898 81.638C67.7098 81.318 68.2998 81.008 68.7798 80.578C68.9798 80.398 69.2998 80.408 69.4898 80.618C69.6698 80.828 69.6598 81.138 69.4498 81.328C68.8698 81.848 68.1998 82.198 67.5498 82.528C66.8498 82.888 66.1898 83.238 65.6498 83.778C65.5498 83.878 65.4198 83.928 65.2998 83.928H65.2898Z" fill="#273E53"/>
<path d="M32.9498 77.1881C32.8898 77.1881 32.8398 77.1881 32.7798 77.1581C31.6698 76.7681 30.4798 76.6981 29.2098 76.6181C28.4198 76.5681 27.5998 76.5281 26.7998 76.3881C26.5298 76.3481 26.3398 76.0881 26.3898 75.8081C26.4298 75.5381 26.6898 75.3481 26.9698 75.3981C27.7198 75.5181 28.5098 75.5681 29.2798 75.6181C30.5598 75.6881 31.8798 75.7681 33.1198 76.2081C33.3798 76.2981 33.5198 76.5881 33.4298 76.8481C33.3598 77.0581 33.1598 77.1781 32.9598 77.1781L32.9498 77.1881Z" fill="#273E53"/>
<path d="M53.1599 83.5981C52.9199 83.5981 52.6999 83.4181 52.6699 83.1681C52.6299 82.8981 52.8199 82.6381 53.0899 82.5981C57.2999 81.9781 61.6499 78.9381 61.6499 74.9181C61.6499 74.4681 61.5899 73.9981 61.4899 73.5281C61.4299 73.2581 61.5899 72.9881 61.8599 72.9281C62.1299 72.8681 62.3999 73.0281 62.4599 73.2981C62.5899 73.8381 62.6499 74.3881 62.6499 74.9181C62.6499 79.4781 57.8599 82.9081 53.2299 83.5881C53.2099 83.5881 53.1799 83.5881 53.1599 83.5881V83.5981Z" fill="#273E53"/>
<path d="M10.0397 80.4381C10.0397 80.4381 9.95971 80.4381 9.91971 80.4281C8.96971 80.1881 8.44971 79.4381 8.44971 78.2981C8.44971 77.7781 8.52971 76.0781 9.58971 76.0781C9.86971 76.0781 10.0897 76.2981 10.0897 76.5781C10.0897 76.8281 9.90971 77.0381 9.65971 77.0681C9.54971 77.2181 9.43971 77.7481 9.43971 78.2981C9.43971 79.1681 9.81971 79.3681 10.1497 79.4581C10.4197 79.5281 10.5797 79.7981 10.5097 80.0681C10.4497 80.2981 10.2497 80.4481 10.0297 80.4481L10.0397 80.4381Z" fill="#273E53"/>
<path d="M28.0099 81.2382C27.8299 81.2382 27.6499 81.1382 27.5599 80.9582C27.4699 80.7682 27.3799 80.5682 27.3799 80.3182C27.3799 79.6182 27.9099 78.9082 28.7899 78.9082C30.1999 78.9082 30.1999 79.8782 30.1999 80.2382C30.1999 80.5182 29.9799 80.7382 29.6999 80.7382C29.4199 80.7382 29.1999 80.5182 29.1999 80.2382C29.1999 80.0382 29.1799 79.9782 29.1699 79.9582C29.1699 79.9582 29.1499 79.9082 28.7899 79.9082C28.4699 79.9082 28.3799 80.1782 28.3799 80.3182C28.3799 80.3482 28.3999 80.4082 28.4599 80.5182C28.5799 80.7682 28.4799 81.0682 28.2399 81.1882C28.1699 81.2282 28.0899 81.2382 28.0199 81.2382H28.0099Z" fill="#273E53"/>
<path d="M47.3898 82.2282C47.0898 82.2282 46.8298 82.1382 46.6298 81.9582C46.4698 81.8182 46.2898 81.5682 46.2898 81.1382C46.2898 80.9782 46.3198 80.8182 46.3398 80.6582C46.3598 80.5682 46.3698 80.4782 46.3698 80.3982C46.3698 80.1182 46.5898 79.8982 46.8698 79.8982C47.1498 79.8982 47.3698 80.1182 47.3698 80.3982C47.3698 80.5282 47.3498 80.6782 47.3198 80.8282C47.2998 80.9282 47.2798 81.0282 47.2798 81.1382C47.3198 81.2382 47.5098 81.2482 47.7498 81.1182C47.8598 81.0582 48.2198 80.8382 48.2198 80.4382C48.2198 80.4182 48.2198 80.3982 48.1398 80.3582C47.8898 80.2382 47.7898 79.9382 47.9198 79.6882C48.0398 79.4382 48.3398 79.3382 48.5898 79.4682C48.9998 79.6782 49.2298 80.0182 49.2298 80.4382C49.2298 81.4582 48.2598 82.2182 47.3998 82.2182L47.3898 82.2282Z" fill="#273E53"/>
<path d="M55.8498 77.638C55.6298 77.638 55.4198 77.488 55.3698 77.258C55.2998 76.988 55.4698 76.718 55.7298 76.648C55.8498 76.618 55.9698 76.568 56.0298 76.258C56.0198 76.298 55.9398 76.258 55.7698 76.258C55.7398 76.258 55.1498 76.258 55.0998 76.538C55.0598 76.808 54.7998 76.9981 54.5198 76.9481C54.2498 76.8981 54.0598 76.648 54.1098 76.368C54.2198 75.678 54.8598 75.248 55.7598 75.248C56.6598 75.248 57.0098 75.7781 57.0098 76.2681C57.0098 76.2981 57.0098 76.398 56.9898 76.428C56.8298 77.218 56.3398 77.498 55.9498 77.598C55.9098 77.598 55.8698 77.608 55.8298 77.608L55.8498 77.638Z" fill="#273E53"/>
<path d="M15.7899 78.4683C15.7099 78.4683 15.6399 78.4483 15.5699 78.4183C15.3899 78.3283 15.2799 78.1383 15.2899 77.9383C15.2099 77.8183 15.1299 77.6783 15.1299 77.4983C15.1299 77.0783 15.5599 76.7183 16.0599 76.7183C16.5099 76.7183 16.8699 76.9983 16.9399 77.4183C16.9399 77.4483 16.9499 77.5283 16.9499 77.5583C16.9499 77.8183 16.8399 78.2283 16.1599 78.3083C16.0599 78.4083 15.9299 78.4683 15.7899 78.4683Z" fill="#273E53"/>
<path d="M18.1197 112.218C17.8997 112.218 17.6997 112.078 17.6397 111.858C17.0797 109.878 16.3897 106.358 15.5997 102.288C14.6397 97.378 13.4497 91.258 12.0297 85.578C11.9597 85.308 12.1297 85.038 12.3897 84.968C12.6597 84.898 12.9297 85.068 12.9997 85.328C14.4297 91.028 15.6197 97.158 16.5797 102.088C17.3697 106.138 18.0497 109.648 18.5997 111.578C18.6797 111.848 18.5197 112.118 18.2597 112.198C18.2097 112.208 18.1697 112.218 18.1197 112.218Z" fill="#273E53"/>
<path d="M25.3098 100.018C25.2298 100.018 25.1598 99.9979 25.0898 99.9679C24.2198 99.5479 22.6398 90.4079 22.5698 87.8179C22.5698 87.5379 22.7798 87.3079 23.0598 87.3079C23.3498 87.2979 23.5698 87.5179 23.5698 87.7979C23.5698 87.9279 23.5698 88.0679 23.5898 88.2079C23.6098 88.2079 23.6298 88.1979 23.6598 88.1879C23.9298 88.1379 24.1898 88.3179 24.2398 88.5879C26.2198 99.4679 25.9498 99.6779 25.6398 99.9179C25.5498 99.9879 25.4298 100.018 25.3198 100.018H25.3098Z" fill="#273E53"/>
<path d="M27.3398 116.828C27.1298 116.828 26.9398 116.698 26.8698 116.488C25.9398 113.818 25.5398 111.008 25.1598 108.298C24.8898 106.388 24.6198 104.418 24.1598 102.528C24.0898 102.258 24.2598 101.988 24.5298 101.928C24.7998 101.858 25.0698 102.028 25.1298 102.298C25.5998 104.238 25.8798 106.238 26.1498 108.168C26.5198 110.838 26.9098 113.598 27.8098 116.168C27.8998 116.428 27.7598 116.718 27.4998 116.808C27.4498 116.828 27.3898 116.838 27.3298 116.838L27.3398 116.828Z" fill="#273E53"/>
<path d="M32.9599 117.488C32.9599 117.488 32.9099 117.488 32.8799 117.488C32.6699 117.488 32.5499 117.478 32.4799 116.898H32.4099C32.4099 116.828 32.4299 116.668 32.4499 116.428C32.3999 115.168 32.4899 112.408 32.6799 106.318C32.6799 106.108 32.8199 105.938 33.0099 105.868C33.0099 105.798 33.0199 105.748 33.0199 105.718C33.0499 105.448 33.2999 105.238 33.5799 105.278C33.8499 105.308 34.0499 105.558 34.0199 105.838C33.9699 106.218 33.8399 108.958 33.7199 111.388C33.5699 114.378 33.4999 115.898 33.3999 116.678C33.3999 116.798 33.3999 116.878 33.3999 116.918H33.3599C33.2699 117.428 33.1599 117.488 32.9699 117.488H32.9599Z" fill="#273E53"/>
<path d="M32.4997 95.9478C32.4997 95.9478 32.4497 95.9478 32.4197 95.9478C32.1497 95.9078 31.9597 95.6478 32.0097 95.3678C32.2197 94.1178 32.2497 92.9078 32.2497 91.8878C32.2497 91.4978 32.2497 91.1078 32.2497 90.7178C32.2497 90.3178 32.2497 89.9078 32.2497 89.5078C32.2497 89.2278 32.4697 89.0078 32.7497 89.0078C33.0297 89.0078 33.2497 89.2278 33.2497 89.5078C33.2497 89.9178 33.2497 90.3178 33.2497 90.7078C33.2497 91.1078 33.2497 91.4978 33.2497 91.8878C33.2497 92.9578 33.2197 94.2178 32.9997 95.5378C32.9597 95.7878 32.7497 95.9578 32.5097 95.9578L32.4997 95.9478Z" fill="#273E53"/>
<path d="M37.2197 107.058C36.9397 107.058 36.7197 106.838 36.7197 106.558C36.7197 103.828 37.1597 101.008 37.5897 98.2879C37.9697 95.8379 38.3397 93.5279 38.3397 91.5179C38.3397 91.0679 38.3297 90.6279 38.3197 90.1779C38.3097 89.7279 38.2997 89.2679 38.2997 88.8179C38.2997 88.5379 38.5197 88.3179 38.7997 88.3179C39.0797 88.3179 39.2997 88.5379 39.2997 88.8179C39.2997 89.2679 39.3097 89.7079 39.3197 90.1479C39.3297 90.5979 39.3397 91.0579 39.3397 91.5079C39.3397 93.5979 38.9697 95.9479 38.5797 98.4379C38.1597 101.118 37.7197 103.898 37.7197 106.558C37.7197 106.838 37.4997 107.058 37.2197 107.058Z" fill="#273E53"/>
<path d="M41.5999 100.318C41.5999 100.318 41.5599 100.318 41.5499 100.318C41.2799 100.288 41.0799 100.038 41.1099 99.7679C41.2599 98.3979 41.4399 97.0279 41.6299 95.6579C41.9999 92.9079 42.3799 90.0679 42.4599 87.2379C42.4599 86.9579 42.6999 86.7379 42.9699 86.7479C43.2499 86.7479 43.4599 86.9879 43.4599 87.2579C43.3799 90.1479 42.9999 93.0179 42.6199 95.7879C42.4399 97.1479 42.2499 98.5079 42.1099 99.8679C42.0799 100.128 41.8699 100.318 41.6099 100.318H41.5999Z" fill="#273E53"/>
<path d="M17.6798 100.438C17.3998 100.438 17.1798 100.218 17.1798 99.9378C17.1798 96.4378 16.4698 92.9378 15.7798 89.5578C15.3298 87.3578 14.8698 85.0878 14.5998 82.8178C14.5698 82.5478 14.7598 82.2978 15.0398 82.2678C15.3098 82.2278 15.5598 82.4278 15.5998 82.7078C15.8598 84.9278 16.3198 87.1778 16.7598 89.3578C17.4598 92.7878 18.1798 96.3378 18.1798 99.9378C18.1798 100.218 17.9598 100.438 17.6798 100.438Z" fill="#273E53"/>
<path d="M7.12973 90.5581C6.86973 90.5581 6.64973 90.3581 6.62973 90.0981C6.40973 87.6281 5.66973 85.2381 4.85973 82.8081C4.76973 82.5481 4.90973 82.2581 5.17973 82.1781C5.44973 82.0881 5.72973 82.2381 5.80973 82.4981C6.63973 84.9881 7.40973 87.4381 7.62973 90.0281C7.64973 90.2981 7.44973 90.5481 7.17973 90.5681C7.16973 90.5681 7.14973 90.5681 7.13973 90.5681L7.12973 90.5581Z" fill="#273E53"/>
<path d="M45.7498 116.938C45.7498 116.938 45.7098 116.938 45.6898 116.938C45.4198 116.908 45.2198 116.658 45.2498 116.378C46.0998 109.358 47.7598 102.398 49.3698 95.668C50.1098 92.588 50.8698 89.398 51.5398 86.248C51.5998 85.978 51.8598 85.808 52.1298 85.868C52.3998 85.928 52.5698 86.188 52.5098 86.458C51.8398 89.618 51.0698 92.808 50.3298 95.898C48.7298 102.598 47.0698 109.528 46.2298 116.498C46.1998 116.748 45.9798 116.938 45.7298 116.938H45.7498Z" fill="#273E53"/>
<path d="M38.7898 117.838C38.7898 117.838 38.7498 117.838 38.7298 117.838C38.4598 117.808 38.2598 117.558 38.2898 117.288C38.4598 115.808 38.7398 114.338 39.0098 112.908C39.4298 110.698 39.8598 108.418 39.8598 106.168C39.8598 106.008 39.8598 105.838 39.8598 105.678C39.8598 105.398 40.0698 105.168 40.3498 105.168C40.6198 105.158 40.8598 105.378 40.8598 105.658C40.8598 105.828 40.8598 106.008 40.8598 106.178C40.8598 108.518 40.4198 110.848 39.9898 113.098C39.7198 114.508 39.4398 115.958 39.2798 117.398C39.2498 117.648 39.0298 117.838 38.7798 117.838H38.7898Z" fill="#273E53"/>
<path d="M12.7399 111.328C12.4999 111.328 12.2899 111.158 12.2499 110.918C11.8799 108.908 11.3399 106.918 10.8099 104.988C10.0399 102.188 9.2499 99.2982 8.9899 96.2782C8.9699 96.0082 9.1699 95.7582 9.4399 95.7382C9.7299 95.7182 9.9599 95.9182 9.9799 96.1882C10.2399 99.1182 11.0199 101.968 11.7699 104.728C12.2999 106.678 12.8499 108.688 13.2299 110.738C13.2799 111.008 13.0999 111.268 12.8299 111.318C12.7999 111.318 12.7699 111.318 12.7399 111.318V111.328Z" fill="#273E53"/>
<path d="M32.9497 105.148C32.6897 105.148 32.4697 104.938 32.4497 104.678C32.4297 104.238 32.4097 103.798 32.3897 103.348C32.3197 101.648 32.2497 99.8979 31.8997 98.2379C31.8397 97.9679 32.0197 97.6979 32.2897 97.6479C32.5597 97.5979 32.8297 97.7679 32.8797 98.0379C33.2497 99.7779 33.3197 101.568 33.3897 103.308C33.4097 103.748 33.4297 104.188 33.4497 104.628C33.4597 104.908 33.2497 105.138 32.9797 105.158C32.9797 105.158 32.9597 105.158 32.9497 105.158V105.148Z" fill="#273E53"/>
<path d="M51.2897 116.048C51.2397 116.048 51.1897 116.048 51.1397 116.028C50.8797 115.938 50.7297 115.658 50.8197 115.398C51.8597 112.158 52.9997 108.888 54.0997 105.728C56.5397 98.688 59.0697 91.408 60.7697 83.998C60.8297 83.728 61.0997 83.558 61.3697 83.618C61.6397 83.678 61.8097 83.948 61.7497 84.218C60.0397 91.688 57.4997 98.988 55.0497 106.058C53.9497 109.218 52.8197 112.478 51.7797 115.708C51.7097 115.918 51.5197 116.058 51.2997 116.058L51.2897 116.048Z" fill="#273E53"/>
<path d="M60.3498 101.448C60.3498 101.448 60.2998 101.448 60.2698 101.448C59.9998 101.408 59.8098 101.148 59.8498 100.878C60.2498 98.2681 60.9398 95.7181 61.5998 93.248C62.2598 90.808 62.9398 88.2781 63.3298 85.7281C63.3698 85.4581 63.6298 85.2681 63.8998 85.3081C64.1698 85.3481 64.3598 85.6081 64.3198 85.8781C63.9198 88.4881 63.2298 91.0381 62.5698 93.5081C61.9098 95.9481 61.2298 98.478 60.8398 101.028C60.7998 101.278 60.5898 101.448 60.3498 101.448Z" fill="#273E53"/>
<path d="M55.6297 115.028C55.5697 115.028 55.4998 115.018 55.4398 114.988C55.1898 114.878 55.0698 114.588 55.1698 114.328C56.6698 110.778 57.5998 107.998 58.1698 105.328C58.2298 105.058 58.4898 104.888 58.7598 104.948C59.0298 105.008 59.1998 105.268 59.1398 105.538C58.5498 108.278 57.6098 111.108 56.0798 114.718C55.9998 114.908 55.8098 115.028 55.6198 115.028H55.6297Z" fill="#273E53"/>
<path d="M63.9397 101.898C63.8897 101.898 63.8297 101.898 63.7797 101.868C63.5197 101.778 63.3797 101.488 63.4697 101.228C64.0597 99.5182 64.6697 97.8182 65.2797 96.1182C66.7297 92.0882 68.2197 87.9282 69.4097 83.7382C69.4797 83.4682 69.7597 83.3182 70.0297 83.3882C70.2997 83.4682 70.4497 83.7382 70.3697 84.0082C69.1697 88.2382 67.6697 92.4182 66.2197 96.4582C65.6097 98.1482 64.9997 99.8482 64.4097 101.548C64.3397 101.758 64.1397 101.888 63.9397 101.888V101.898Z" fill="#273E53"/>
<path d="M60.4599 112.558C60.3999 112.558 60.3399 112.558 60.2899 112.528C60.0299 112.438 59.8999 112.148 59.9899 111.888C60.1799 111.378 60.3799 110.868 60.5799 110.358C61.1999 108.778 61.8499 107.138 62.0999 105.478C62.1399 105.208 62.3899 105.018 62.6699 105.058C62.9399 105.098 63.1299 105.348 63.0899 105.628C62.8199 107.398 62.1599 109.088 61.5099 110.728C61.3099 111.238 61.1099 111.738 60.9299 112.238C60.8599 112.438 60.6599 112.568 60.4599 112.568V112.558Z" fill="#273E53"/>
<path d="M49.3298 28.0779C49.1898 28.0779 49.0398 28.0579 48.8898 28.0279C48.6198 27.9679 48.4498 27.6979 48.5098 27.4279C48.5698 27.1579 48.8398 26.9879 49.1098 27.0479C49.1798 27.0679 49.2598 27.0779 49.3298 27.0779C50.6198 27.0779 51.2598 23.8879 51.2598 22.0979C51.2598 20.6379 50.8998 19.3379 50.1698 18.1079C50.0298 17.8679 50.0998 17.5679 50.3398 17.4179C50.5798 17.2779 50.8798 17.3579 51.0298 17.5879C51.8598 18.9679 52.2598 20.4379 52.2598 22.0879C52.2598 23.6379 51.7198 28.0679 49.3298 28.0679V28.0779Z" fill="#273E53"/>
<path d="M32.2499 13.6481C32.1299 13.6481 32.0099 13.6081 31.9099 13.5181C31.7099 13.3281 31.6899 13.0181 31.8799 12.8081C32.8199 11.7981 34.1099 11.5981 35.2599 11.4281C35.5199 11.3881 35.7799 11.3481 36.0299 11.3081C36.3099 11.2581 36.5599 11.4381 36.6099 11.7081C36.6599 11.9781 36.4799 12.2381 36.2099 12.2881C35.9399 12.3381 35.6699 12.3781 35.3999 12.4181C34.3199 12.5781 33.3099 12.7281 32.6099 13.4781C32.5099 13.5881 32.3799 13.6381 32.2399 13.6381L32.2499 13.6481Z" fill="#273E53"/>
<path d="M30.9897 26.0183C30.9897 26.0183 30.8997 26.0183 30.8597 25.9983C29.3897 25.5883 28.5097 24.2283 28.3897 22.1783C28.3697 21.8983 28.5797 21.6683 28.8597 21.6483C29.1297 21.6183 29.3697 21.8382 29.3897 22.1182C29.4597 23.2482 29.8097 24.6682 31.1297 25.0382C31.3997 25.1082 31.5497 25.3883 31.4797 25.6583C31.4197 25.8783 31.2197 26.0282 30.9997 26.0282L30.9897 26.0183Z" fill="#273E53"/>
<path d="M46.5498 27.5782C45.7998 27.5782 45.1498 27.2782 44.5098 26.9782C44.1798 26.8282 43.8698 26.6782 43.5498 26.5782C43.2898 26.4982 43.1398 26.2182 43.2198 25.9582C43.2998 25.6982 43.5798 25.5382 43.8398 25.6282C44.2198 25.7482 44.5798 25.9082 44.9198 26.0682C45.4798 26.3282 46.0098 26.5682 46.5398 26.5682C47.4098 26.5682 49.5898 25.6982 49.5898 23.6582C49.5898 23.3782 49.8098 23.1582 50.0898 23.1582C50.3698 23.1582 50.5898 23.3782 50.5898 23.6582C50.5898 26.2582 47.9898 27.5682 46.5398 27.5682L46.5498 27.5782Z" fill="#273E53"/>
<path d="M42.9397 12.1282C42.9397 12.1282 42.9197 12.1282 42.9097 12.1282C42.3297 12.0982 41.7697 11.9482 41.2297 11.8082C40.3697 11.5782 39.5297 11.3982 38.7797 11.6082C38.5197 11.6882 38.2397 11.5282 38.1597 11.2582C38.0897 10.9882 38.2397 10.7182 38.5097 10.6482C39.4797 10.3782 40.5397 10.5982 41.4797 10.8482C41.9897 10.9782 42.4797 11.1082 42.9697 11.1382C43.2497 11.1582 43.4597 11.3882 43.4397 11.6682C43.4197 11.9382 43.1997 12.1382 42.9397 12.1382V12.1282Z" fill="#273E53"/>
<path d="M38.8998 26.1079C38.8998 26.1079 38.8098 26.1079 38.7698 26.0879C38.0898 25.9079 37.3598 25.8179 36.4798 25.8179C35.8098 25.8179 35.1098 25.8679 34.4398 25.9179C33.7498 25.9679 33.0398 26.0179 32.3298 26.0179C32.0498 26.0179 31.8298 25.7979 31.8298 25.5179C31.8298 25.2379 32.0498 25.0179 32.3298 25.0179C32.9998 25.0179 33.6998 24.9679 34.3698 24.9179C35.0598 24.8679 35.7698 24.8179 36.4798 24.8179C37.4498 24.8179 38.2598 24.9179 39.0298 25.1179C39.2998 25.1879 39.4498 25.4679 39.3798 25.7279C39.3198 25.9479 39.1198 26.0979 38.8998 26.0979V26.1079Z" fill="#273E53"/>
<path d="M44.5397 10.278C44.4397 10.278 44.3397 10.248 44.2497 10.188C44.0297 10.028 43.9697 9.71803 44.1297 9.48803C44.5197 8.93803 44.9297 8.36803 45.1597 7.74803C45.2597 7.48803 45.5497 7.35803 45.7997 7.45803C46.0597 7.55803 46.1897 7.83803 46.0897 8.09803C45.8097 8.83803 45.3697 9.45803 44.9297 10.068C44.8297 10.208 44.6797 10.278 44.5197 10.278H44.5397Z" fill="#273E53"/>
<path d="M48.6699 12.4681C48.5499 12.4681 48.4299 12.4281 48.3399 12.3481C48.2299 12.2581 48.1699 12.1181 48.1699 11.9681C48.1699 11.5981 48.5199 11.3181 48.8699 11.3981C49.0199 11.3381 49.1699 11.2381 49.3399 11.1281C49.6099 10.9481 49.9299 10.7481 50.3199 10.6481C50.5899 10.5781 50.8599 10.7481 50.9299 11.0081C50.9999 11.2781 50.8299 11.5481 50.5699 11.6181C50.3399 11.6781 50.1199 11.8181 49.8899 11.9681C49.5699 12.1781 49.2099 12.4081 48.7399 12.4681C48.7199 12.4681 48.6999 12.4681 48.6799 12.4681H48.6699Z" fill="#273E53"/>
<path d="M36.5398 43.8782C36.3198 43.8782 36.1098 43.7282 36.0598 43.4982C35.9898 43.2282 36.1598 42.9582 36.4198 42.8882C38.7298 42.3082 40.1098 39.6582 40.1098 37.4282C40.1098 36.4982 39.6698 35.0082 39.3698 34.6882C39.1698 34.7082 38.9698 34.6082 38.8698 34.4082C38.7498 34.1582 38.8498 33.8582 39.0998 33.7382C39.1698 33.7082 39.3398 33.6582 39.4098 33.6582C40.7498 33.6582 41.1098 36.9682 41.1098 37.4182C41.1098 39.9982 39.5498 43.1282 36.6598 43.8482C36.6198 43.8482 36.5798 43.8582 36.5398 43.8582V43.8782Z" fill="#273E53"/>
<path d="M13.7199 53.4778C13.5299 53.4778 13.3499 53.3778 13.2699 53.1978C13.1499 52.9478 13.2599 52.6478 13.5099 52.5278C15.9799 51.3478 18.7799 50.7678 22.0499 50.7678C25.3199 50.7678 28.1699 51.2678 30.7599 51.7078C32.8099 52.0578 34.5699 52.3478 36.0799 52.3478C42.5899 52.3478 44.9099 48.0378 44.9099 44.0078C44.9099 40.6278 43.2299 37.6178 40.5299 36.1578C40.2899 36.0278 40.1999 35.7278 40.3299 35.4778C40.4599 35.2378 40.7599 35.1478 41.0099 35.2778C44.0399 36.9178 45.9199 40.2578 45.9199 44.0078C45.9199 49.6878 42.0599 53.3478 36.0899 53.3478C34.4999 53.3478 32.6999 53.0378 30.6099 52.6878C28.0599 52.2578 25.1599 51.7678 22.0699 51.7678C18.9799 51.7678 16.2999 52.3078 13.9699 53.4278C13.8999 53.4578 13.8299 53.4778 13.7499 53.4778H13.7199Z" fill="#273E53"/>
<path d="M56.8397 39.9982C56.7497 39.9982 56.6597 39.9782 56.5797 39.9182C55.7697 39.4182 54.9597 38.8982 54.1397 38.3782C51.4797 36.6782 48.7197 34.9182 45.7797 33.6382C45.5297 33.5282 45.4097 33.2282 45.5197 32.9782C45.6297 32.7282 45.9197 32.6082 46.1797 32.7182C49.1997 34.0282 51.9897 35.8082 54.6797 37.5382C55.4897 38.0582 56.2897 38.5682 57.0997 39.0682C57.3297 39.2082 57.4097 39.5182 57.2597 39.7582C57.1697 39.9082 56.9997 39.9982 56.8297 39.9982H56.8397Z" fill="#273E53"/>
<path d="M61.3797 40.3379C61.1297 40.3379 60.9197 40.1579 60.8797 39.8979C60.2497 34.8679 53.9597 32.2079 51.2797 31.2979C51.0197 31.2079 50.8797 30.9279 50.9697 30.6679C51.0597 30.4079 51.3397 30.2679 51.5997 30.3579C55.1497 31.5679 61.1997 34.3879 61.8697 39.7779C61.8997 40.0479 61.7097 40.2979 61.4397 40.3379C61.4197 40.3379 61.3997 40.3379 61.3797 40.3379Z" fill="#273E53"/>
<path d="M14.1399 43.7881C13.9799 43.7881 13.8199 43.7081 13.7199 43.5581C13.5699 43.3281 13.6399 43.0181 13.8699 42.8681C16.8799 40.9181 20.4099 40.2681 23.8299 39.6381L24.4899 39.5181C24.7599 39.4681 25.0199 39.6481 25.0699 39.9181C25.1199 40.1881 24.9399 40.4481 24.6699 40.4981L23.9999 40.6181C20.6799 41.2281 17.2499 41.8681 14.3999 43.7081C14.3199 43.7581 14.2199 43.7881 14.1299 43.7881H14.1399Z" fill="#273E53"/>
<path d="M36.2897 38.9082C36.1897 38.9082 36.0797 38.8782 35.9897 38.8082C35.7697 38.6482 35.7197 38.3282 35.8797 38.1082C36.4197 37.3782 36.6997 36.4682 36.6997 35.4882C36.6997 33.1382 35.5397 31.9382 34.6097 30.9682C34.1597 30.4982 33.7697 30.0982 33.6197 29.6382C33.5297 29.3782 33.6697 29.0982 33.9397 29.0082C34.1997 28.9182 34.4797 29.0582 34.5697 29.3282C34.6497 29.5782 34.9697 29.9082 35.3397 30.2882C36.2797 31.2682 37.7097 32.7482 37.7097 35.4982C37.7097 36.6982 37.3597 37.8082 36.6897 38.7082C36.5897 38.8382 36.4397 38.9082 36.2897 38.9082Z" fill="#273E53"/>
<path d="M47.5698 59.7079C47.4298 59.7079 47.2898 59.6479 47.1898 59.5379C47.0098 59.3279 47.0298 59.0179 47.2398 58.8279C50.2398 56.2279 51.8898 53.0279 51.8898 49.7979C51.8898 45.8479 50.0598 42.0579 47.1098 39.8979C46.8898 39.7379 46.8398 39.4179 46.9998 39.1979C47.1598 38.9779 47.4798 38.9279 47.6998 39.0879C50.8998 41.4279 52.8898 45.5379 52.8898 49.7979C52.8898 53.3179 51.1198 56.7879 47.8998 59.5779C47.8098 59.6579 47.6898 59.6979 47.5698 59.6979V59.7079Z" fill="#273E53"/>
<path d="M36.2097 58.3578C35.9397 58.3578 35.7197 58.1378 35.7097 57.8678C35.7097 57.5878 35.9197 57.3678 36.1997 57.3578C42.6397 57.2178 48.4997 51.6278 48.4997 45.6378C48.4997 44.5578 48.3197 43.4878 47.9497 42.4378C47.8597 42.1778 47.9997 41.8878 48.2597 41.7978C48.5197 41.7078 48.8097 41.8478 48.8997 42.1078C49.2997 43.2578 49.4997 44.4378 49.4997 45.6278C49.4997 52.1278 43.1697 58.1978 36.2297 58.3478H36.2197L36.2097 58.3578Z" fill="#273E53"/>
<path d="M56.6697 60.7983C56.5797 60.7983 56.4897 60.7783 56.4097 60.7283C56.1797 60.5783 56.0997 60.2783 56.2497 60.0383C57.1297 58.6183 57.5697 57.0583 57.5697 55.4083C57.5697 51.2283 54.8097 47.0783 52.3997 43.9283C52.2297 43.7083 52.2697 43.3983 52.4897 43.2283C52.7097 43.0583 53.0197 43.1083 53.1897 43.3183C55.6897 46.5983 58.5597 50.9283 58.5597 55.4083C58.5597 57.2483 58.0597 58.9783 57.0897 60.5583C56.9997 60.7083 56.8297 60.7983 56.6597 60.7983H56.6697Z" fill="#273E53"/>
<path d="M59.6999 57.938C59.6399 57.938 59.5899 57.938 59.5299 57.908C59.2699 57.818 59.1399 57.528 59.2299 57.268C59.6199 56.188 59.8099 55.078 59.8099 53.948C59.8099 48.848 55.8299 44.418 51.8799 42.298C51.6399 42.168 51.5499 41.868 51.6799 41.618C51.8099 41.378 52.1099 41.288 52.3599 41.418C57.4999 44.188 60.8199 49.098 60.8199 53.948C60.8199 55.188 60.5999 56.418 60.1799 57.608C60.1099 57.808 59.9099 57.938 59.7099 57.938H59.6999Z" fill="#273E53"/>
<path d="M53.8999 70.9381C53.7199 70.9381 53.5399 70.8381 53.4499 70.6681C53.3199 70.4181 53.4199 70.1181 53.6699 69.9981C59.4399 67.0381 63.1699 60.6781 63.1699 53.8181C63.1699 50.4081 62.2099 47.1781 60.3799 44.4981C60.2199 44.2681 60.2799 43.9581 60.5099 43.8081C60.7399 43.6481 61.0499 43.7081 61.1999 43.9381C63.1399 46.7881 64.1599 50.1981 64.1599 53.8181C64.1599 61.0581 60.2199 67.7581 54.1199 70.8881C54.0499 70.9281 53.9699 70.9481 53.8899 70.9481L53.8999 70.9381Z" fill="#273E53"/>
<path d="M55.7398 71.1581C55.4998 71.1581 55.2998 70.9881 55.2498 70.7481C55.1998 70.4781 55.3798 70.2181 55.6498 70.1681C61.8098 68.9981 68.3898 65.0981 68.3898 57.6581C68.3898 55.8881 67.9198 54.2081 67.0298 52.8181C66.8798 52.5881 66.9498 52.2781 67.1798 52.1281C67.4098 51.9781 67.7198 52.0481 67.8698 52.2781C68.8598 53.8281 69.3898 55.6881 69.3898 57.6581C69.3898 65.6981 62.3898 69.8981 55.8398 71.1481C55.8098 71.1481 55.7798 71.1481 55.7498 71.1481L55.7398 71.1581Z" fill="#273E53"/>
<path d="M35.4698 74.9282C32.7098 74.9282 29.9098 74.6582 27.2098 74.3982C26.4498 74.3282 25.6998 74.2482 24.9598 74.1882C24.6798 74.1682 24.4798 73.9182 24.5098 73.6482C24.5298 73.3782 24.7798 73.1782 25.0498 73.1982C25.7998 73.2682 26.5498 73.3382 27.3098 73.4082C29.9898 73.6682 32.7498 73.9282 35.4698 73.9282C39.2698 73.9282 42.2998 73.4082 45.0298 72.2982C45.2898 72.1882 45.5798 72.3182 45.6798 72.5682C45.7798 72.8182 45.6598 73.1182 45.4098 73.2182C42.5598 74.3782 39.4098 74.9182 35.4798 74.9182L35.4698 74.9282Z" fill="#273E53"/>
<path d="M19.2998 72.598C19.0898 72.598 18.8898 72.598 18.6798 72.598C18.3998 72.598 18.1798 72.368 18.1898 72.088C18.1898 71.808 18.3898 71.618 18.6998 71.598C24.2898 71.708 29.8898 70.528 34.2998 68.368C34.5498 68.248 34.8498 68.348 34.9698 68.598C35.0898 68.848 34.9898 69.148 34.7398 69.268C30.3598 71.418 24.8698 72.608 19.2998 72.608V72.598Z" fill="#273E53"/>
<path d="M19.9297 70.928C19.0597 70.928 18.2097 70.828 17.3997 70.638C17.1297 70.578 16.9597 70.308 17.0297 70.038C17.0897 69.768 17.3597 69.598 17.6297 69.668C18.3797 69.838 19.1297 69.928 19.9297 69.928C22.4697 69.928 25.0197 69.048 27.4897 68.188C28.2697 67.918 29.0497 67.648 29.8297 67.408C30.0897 67.318 30.3697 67.468 30.4597 67.738C30.5397 67.998 30.3997 68.278 30.1297 68.368C29.3597 68.608 28.5897 68.878 27.8197 69.138C25.2797 70.018 22.6397 70.928 19.9297 70.928Z" fill="#273E53"/>
<path d="M34.1398 70.5679C33.9098 70.5679 33.7098 70.4179 33.6498 70.1879C33.5798 69.9179 33.7498 69.6479 34.0198 69.5879C37.5498 68.7279 41.1498 66.9279 45.0498 64.1079C45.2698 63.9479 45.5898 63.9979 45.7498 64.2179C45.9098 64.4379 45.8598 64.7579 45.6398 64.9179C41.6398 67.8179 37.9198 69.6579 34.2698 70.5579C34.2298 70.5579 34.1898 70.5679 34.1498 70.5679H34.1398Z" fill="#273E53"/>
<path d="M8.91991 67.368C8.79991 67.368 8.68991 67.328 8.58991 67.248C8.37991 67.068 8.35991 66.748 8.53991 66.538C12.1099 62.388 17.9099 61.648 23.0299 60.998C26.0899 60.608 28.9799 60.238 30.9099 59.188C31.1499 59.058 31.4599 59.148 31.5899 59.388C31.7199 59.628 31.6299 59.938 31.3899 60.068C29.2899 61.218 26.3099 61.598 23.1499 61.998C18.2099 62.628 12.6099 63.338 9.29991 67.198C9.19991 67.318 9.05991 67.368 8.91991 67.368Z" fill="#273E53"/>
<path d="M35.0398 51.748C33.8498 51.748 32.6598 51.578 31.5998 51.258C31.3398 51.178 31.1898 50.898 31.2698 50.638C31.3498 50.378 31.6298 50.218 31.8898 50.308C32.8598 50.598 33.9498 50.758 35.0398 50.758C38.2698 50.758 42.4198 49.388 43.4698 45.518C43.5398 45.248 43.8198 45.098 44.0798 45.168C44.3498 45.238 44.4998 45.518 44.4298 45.778C43.2298 50.188 38.6198 51.748 35.0398 51.748Z" fill="#273E53"/>
<path d="M50.6097 70.4879C50.4897 70.4879 50.3697 70.4479 50.2697 70.3579C50.0697 70.1679 50.0597 69.8579 50.2497 69.6479L50.5797 69.2979C52.7797 66.9479 55.0497 64.5179 56.2997 61.5479C56.4097 61.2979 56.6997 61.1779 56.9497 61.2779C57.1997 61.3879 57.3197 61.6779 57.2197 61.9379C55.8997 65.0679 53.5597 67.5679 51.2997 69.9879L50.9697 70.3379C50.8697 70.4479 50.7397 70.4979 50.5997 70.4979L50.6097 70.4879Z" fill="#273E53"/>
<path d="M29.7297 43.1581C29.3597 43.1581 29.0797 42.9281 28.9897 42.5681C28.9197 42.2981 29.0897 42.0281 29.3497 41.9581C29.5597 41.9081 29.7597 41.9881 29.8797 42.1581C31.1997 42.0881 33.4997 41.0881 35.5997 38.9781C35.7997 38.7781 36.1097 38.7781 36.3097 38.9781C36.5097 39.1781 36.5097 39.4881 36.3097 39.6881C33.9097 42.0881 31.2697 43.1681 29.7297 43.1681V43.1581Z" fill="#273E53"/>
<path d="M42.7698 44.128C42.7698 44.128 42.6798 44.128 42.6298 44.108C42.3698 44.028 42.2098 43.748 42.2898 43.488C42.4698 42.888 42.5598 42.248 42.5598 41.648C42.5598 40.628 42.2898 38.768 40.5198 37.848C40.2698 37.718 40.1798 37.418 40.3098 37.178C40.4398 36.928 40.7398 36.838 40.9798 36.968C42.6198 37.818 43.5598 39.528 43.5598 41.658C43.5598 42.368 43.4598 43.088 43.2498 43.788C43.1898 44.008 42.9898 44.148 42.7698 44.148V44.128Z" fill="#273E53"/>
<path d="M59.9097 42.6181C57.1797 42.6181 54.5497 40.8281 52.4397 39.3881L52.0897 39.1481C51.8597 38.9881 51.7997 38.6781 51.9597 38.4581C52.1197 38.2281 52.4297 38.1681 52.6497 38.3281L52.9997 38.5681C55.2697 40.1181 57.8697 41.8881 60.4997 41.5881C60.7797 41.5581 61.0197 41.7581 61.0497 42.0281C61.0797 42.2981 60.8797 42.5481 60.6097 42.5781C60.3797 42.6081 60.1397 42.6181 59.9097 42.6181Z" fill="#273E53"/>
<path d="M51.7797 40.5882C51.6797 40.5882 51.5797 40.5582 51.4897 40.4982C51.1097 40.2282 50.7197 39.9682 50.3397 39.7082C48.8197 38.6782 47.2497 37.6082 45.8697 36.2282C45.6697 36.0282 45.6697 35.7182 45.8697 35.5182C46.0697 35.3182 46.3797 35.3182 46.5797 35.5182C47.8897 36.8382 49.3597 37.8282 50.9097 38.8782C51.2997 39.1382 51.6797 39.3982 52.0697 39.6682C52.2997 39.8282 52.3497 40.1382 52.1897 40.3682C52.0897 40.5082 51.9397 40.5782 51.7797 40.5782V40.5882Z" fill="#273E53"/>
<path d="M46.7298 64.4179C46.5798 64.4179 46.4198 64.3479 46.3198 64.2079C46.1598 63.9879 46.2098 63.6679 46.4298 63.5079C48.1398 62.2679 49.1098 60.4279 50.1298 58.4779C50.4898 57.7979 50.8598 57.0879 51.2598 56.4179C51.3998 56.1779 51.7098 56.0979 51.9498 56.2479C52.1898 56.3879 52.2598 56.6979 52.1198 56.9379C51.7298 57.5879 51.3698 58.2679 51.0098 58.9579C49.9798 60.9279 48.9098 62.9579 47.0098 64.3379C46.9198 64.3979 46.8198 64.4279 46.7198 64.4279L46.7298 64.4179Z" fill="#273E53"/>
<path d="M28.2899 98.6983C28.0199 98.6983 27.7999 98.4883 27.7899 98.2183C27.6199 93.9383 27.2799 89.5683 26.9499 85.3583C26.9299 85.0783 27.1299 84.8383 27.4099 84.8183C27.6799 84.7983 27.9299 84.9983 27.9499 85.2783C28.2799 89.5083 28.6199 93.8783 28.7899 98.1783C28.7999 98.4583 28.5899 98.6883 28.3099 98.6983H28.2899Z" fill="#273E53"/>
<path d="M29.8898 109.388C29.6198 109.388 29.3998 109.178 29.3898 108.908C29.0598 98.7282 28.0798 93.0182 28.0698 92.9582C28.0698 92.4982 28.1198 92.1282 28.2298 91.7482C28.3098 91.4782 28.5898 91.3282 28.8498 91.4082C29.1198 91.4882 29.2698 91.7582 29.1898 92.0282C29.1098 92.3282 29.0698 92.5982 29.0698 92.8782C29.0698 92.8782 30.0598 98.6482 30.3898 108.878C30.3898 109.158 30.1798 109.388 29.9098 109.398H29.8898V109.388Z" fill="#273E53"/>
<path d="M30.0599 118.138C29.8099 118.138 29.5899 117.948 29.5599 117.688C29.3899 116.008 29.3799 114.288 29.3699 112.638C29.3499 110.068 29.3299 107.408 28.7299 104.878C28.6699 104.608 28.8299 104.338 29.0999 104.278C29.3699 104.208 29.6399 104.378 29.6999 104.648C30.3299 107.288 30.3499 109.998 30.3699 112.628C30.3799 114.258 30.3899 115.948 30.5499 117.588C30.5799 117.858 30.3799 118.108 30.0999 118.138C30.0799 118.138 30.0699 118.138 30.0499 118.138H30.0599Z" fill="#273E53"/>
<path d="M46.8199 103.498C46.8199 103.498 46.7399 103.498 46.6899 103.478C46.4199 103.408 46.2599 103.138 46.3299 102.868C46.7199 101.338 47.1499 99.8578 47.6099 98.2978C48.6099 94.8678 49.6399 91.3178 50.4499 86.7378C50.4999 86.4678 50.7599 86.2778 51.0299 86.3278C51.2999 86.3778 51.4799 86.6378 51.4399 86.9078C50.6199 91.5378 49.5799 95.1078 48.5799 98.5678C48.1299 100.128 47.6999 101.598 47.3099 103.108C47.2499 103.338 47.0499 103.488 46.8299 103.488L46.8199 103.498Z" fill="#273E53"/>
<path d="M44.4298 117.758C44.4298 117.758 44.3598 117.758 44.3198 117.748C44.0498 117.688 43.8798 117.418 43.9398 117.148C44.2998 115.558 44.5498 113.878 44.7798 112.258C45.1398 109.768 45.5098 107.198 46.3398 104.768C46.4298 104.508 46.7098 104.368 46.9698 104.458C47.2298 104.548 47.3698 104.828 47.2798 105.088C46.4898 107.428 46.1198 109.948 45.7698 112.398C45.5298 114.038 45.2898 115.738 44.9098 117.368C44.8598 117.598 44.6498 117.758 44.4198 117.758H44.4298Z" fill="#273E53"/>
<path d="M40.9199 97.598C40.9199 97.598 40.8899 97.598 40.8699 97.598C40.5999 97.568 40.3899 97.328 40.4199 97.048C40.5699 95.508 40.7899 93.938 40.9999 92.428C41.2599 90.548 41.5398 88.608 41.6798 86.708C41.6998 86.428 41.9298 86.228 42.2198 86.248C42.4998 86.268 42.6998 86.508 42.6798 86.788C42.5398 88.728 42.2599 90.678 41.9999 92.578C41.7899 94.078 41.5699 95.638 41.4199 97.158C41.3999 97.418 41.1799 97.608 40.9199 97.608V97.598Z" fill="#273E53"/>
<path d="M37.6399 117.558C37.6399 117.558 37.5898 117.558 37.5598 117.558C37.2898 117.518 37.0998 117.258 37.1498 116.988C37.3798 115.568 37.6799 114.128 37.9799 112.738C38.1299 112.038 38.2798 111.348 38.4198 110.648C38.4698 110.378 38.7398 110.198 39.0098 110.258C39.2798 110.308 39.4598 110.578 39.3998 110.848C39.2598 111.548 39.1099 112.248 38.9599 112.948C38.6699 114.328 38.3599 115.748 38.1399 117.148C38.0999 117.398 37.8898 117.568 37.6498 117.568L37.6399 117.558Z" fill="#273E53"/>
<path d="M33.0898 103.748H33.0698C32.7898 103.738 32.5798 103.498 32.5898 103.228C32.5998 102.988 32.6098 102.738 32.6098 102.498C32.6098 101.568 32.5498 100.808 32.4698 99.928C32.3798 98.868 32.2798 97.668 32.2798 95.888C32.2798 94.008 32.3898 92.108 32.4998 90.268L32.5898 88.728C32.6098 88.448 32.8398 88.218 33.1198 88.258C33.3998 88.268 33.6098 88.508 33.5898 88.788L33.4998 90.328C33.3898 92.238 33.2798 94.038 33.2798 95.888C33.2798 97.618 33.3798 98.798 33.4598 99.838C33.5298 100.698 33.5998 101.518 33.5998 102.488C33.5998 102.748 33.5998 103.008 33.5798 103.268C33.5698 103.538 33.3498 103.748 33.0798 103.748H33.0898Z" fill="#273E53"/>
<path d="M54.3098 102.318C54.3098 102.318 54.2198 102.318 54.1698 102.298C53.8998 102.218 53.7498 101.948 53.8298 101.678C54.4098 99.678 55.1498 97.708 55.8598 95.798C57.0998 92.468 58.3898 89.018 58.8598 85.418C58.8998 85.148 59.1498 84.948 59.4198 84.988C59.6898 85.028 59.8898 85.278 59.8498 85.548C59.3598 89.258 58.0498 92.758 56.7898 96.148C56.0798 98.038 55.3498 99.998 54.7798 101.958C54.7198 102.178 54.5198 102.318 54.2998 102.318H54.3098Z" fill="#273E53"/>
<path d="M50.0999 116.548C50.0199 116.548 49.9299 116.528 49.8599 116.488C49.6599 116.378 49.5699 116.158 49.6099 115.938C50.2299 113.248 51.0799 110.588 51.9099 108.018L52.4899 106.218C52.5699 105.958 52.8499 105.808 53.1199 105.888C53.3799 105.968 53.5299 106.248 53.4499 106.518L52.8699 108.328C52.0899 110.778 51.2799 113.298 50.6699 115.838C50.7199 116.008 50.6699 116.198 50.5399 116.328L50.4599 116.408C50.3599 116.508 50.2399 116.558 50.1099 116.558L50.0999 116.548Z" fill="#273E53"/>
<path d="M59.6998 98.1079C59.6998 98.1079 59.5998 98.1079 59.5498 98.0879C59.2898 98.0079 59.1398 97.7279 59.2198 97.4579C59.9498 95.1179 60.5898 92.6879 61.2198 90.3479C61.6098 88.8779 61.9998 87.4079 62.4198 85.9379C62.4898 85.6679 62.7698 85.5179 63.0398 85.5879C63.3098 85.6679 63.4598 85.9379 63.3898 86.2079C62.9798 87.6779 62.5798 89.1479 62.1998 90.6079C61.5698 92.9579 60.9298 95.3979 60.1898 97.7579C60.1198 97.9679 59.9298 98.1079 59.7098 98.1079H59.6998Z" fill="#273E53"/>
<path d="M53.8898 115.618C53.7998 115.618 53.7198 115.598 53.6398 115.548C53.3998 115.408 53.3198 115.098 53.4598 114.868C55.5598 111.258 56.6998 107.118 57.8098 103.128C58.1098 102.048 58.3998 100.978 58.7198 99.908C58.7998 99.648 59.0798 99.498 59.3398 99.568C59.5998 99.648 59.7598 99.928 59.6798 100.188C59.3698 101.248 59.0698 102.318 58.7798 103.388C57.6598 107.448 56.4998 111.638 54.3298 115.368C54.2398 115.528 54.0698 115.618 53.8998 115.618H53.8898Z" fill="#273E53"/>
<path d="M60.2099 108.968C60.1499 108.968 60.0999 108.968 60.0399 108.938C59.7799 108.848 59.6499 108.558 59.7399 108.298C60.7199 105.578 61.6899 102.858 62.6699 100.128C64.5799 94.7681 66.5599 89.2381 68.5799 83.7881C68.6799 83.5281 68.9599 83.3981 69.2199 83.4981C69.4799 83.5981 69.6099 83.8781 69.5099 84.1381C67.4899 89.5781 65.5099 95.1181 63.5999 100.468C62.6299 103.188 61.6499 105.918 60.6699 108.638C60.5999 108.838 60.3999 108.968 60.1999 108.968H60.2099Z" fill="#273E53"/>
<path d="M46.8998 96.1681C46.8998 96.1681 46.7998 96.1682 46.7598 96.1482C46.4998 96.0682 46.3498 95.7881 46.4298 95.5281C46.8398 94.1681 47.0998 92.7482 47.3398 91.3782C47.5898 89.9782 47.8498 88.5282 48.2798 87.1182C48.3598 86.8582 48.6398 86.7081 48.8998 86.7881C49.1598 86.8681 49.3098 87.1482 49.2298 87.4082C48.8198 88.7682 48.5598 90.1882 48.3198 91.5582C48.0698 92.9582 47.8098 94.4082 47.3798 95.8282C47.3098 96.0482 47.1198 96.1781 46.8998 96.1781V96.1681Z" fill="#273E53"/>
<path d="M44.0399 108.968C44.0399 108.968 44.0099 108.968 43.9999 108.968C43.7299 108.948 43.5199 108.708 43.5399 108.428C43.6699 106.788 44.0799 105.178 44.4799 103.628C44.8699 102.118 45.2699 100.558 45.3899 98.998C45.4099 98.718 45.6499 98.518 45.9299 98.538C46.1999 98.558 46.4099 98.798 46.3899 99.078C46.2599 100.718 45.8499 102.328 45.4499 103.878C45.0599 105.388 44.6599 106.948 44.5399 108.508C44.5199 108.768 44.2999 108.968 44.0399 108.968Z" fill="#273E53"/>
<path d="M20.1199 113.848C19.8999 113.848 19.6999 113.698 19.6399 113.478C18.8899 110.628 17.9499 107.808 17.0399 105.088C16.9499 104.828 17.0899 104.548 17.3599 104.458C17.6199 104.368 17.8999 104.518 17.9899 104.778C18.8999 107.518 19.8499 110.348 20.6099 113.228C20.6799 113.498 20.5199 113.768 20.2499 113.838C20.2099 113.848 20.1599 113.858 20.1199 113.858V113.848Z" fill="#273E53"/>
<path d="M26.0197 116.128C25.8297 116.128 25.6397 116.018 25.5597 115.818C25.2697 115.118 24.9097 114.428 24.5597 113.748C23.8097 112.288 23.0397 110.778 22.7497 109.058C22.6997 108.788 22.8897 108.528 23.1597 108.478C23.4297 108.438 23.6897 108.618 23.7397 108.888C24.0097 110.458 24.7497 111.898 25.4597 113.298C25.8097 113.988 26.1797 114.708 26.4897 115.438C26.5997 115.688 26.4797 115.988 26.2197 116.098C26.1597 116.128 26.0897 116.138 26.0297 116.138L26.0197 116.128Z" fill="#273E53"/>
<path d="M23.9998 116.298C23.7998 116.298 23.6198 116.178 23.5398 115.988C23.2898 115.398 23.0498 114.798 22.8098 114.198C22.2398 112.768 21.6498 111.288 20.9398 109.868C20.8198 109.618 20.9198 109.318 21.1598 109.198C21.4098 109.078 21.7098 109.178 21.8298 109.418C22.5598 110.868 23.1598 112.368 23.7298 113.818C23.9698 114.418 24.2098 115.008 24.4498 115.598C24.5598 115.848 24.4398 116.148 24.1798 116.248C24.1198 116.278 24.0498 116.288 23.9898 116.288L23.9998 116.298Z" fill="#273E53"/>
<path d="M15.0699 112.338C14.9299 112.338 14.7999 112.288 14.6999 112.178C13.0799 110.408 12.2399 107.858 12.1299 104.358C12.1299 104.078 12.3399 103.848 12.6099 103.838C12.8599 103.848 13.1199 104.048 13.1299 104.318C13.2299 107.558 13.9899 109.908 15.4399 111.488C15.6299 111.688 15.6099 112.008 15.4099 112.198C15.3099 112.288 15.1899 112.328 15.0699 112.328V112.338Z" fill="#273E53"/>
<path d="M34.0999 117.898C33.8199 117.898 33.5999 117.678 33.5999 117.398C33.5999 116.828 33.6299 116.258 33.6599 115.688C33.6899 115.138 33.7199 114.578 33.7199 114.028C33.7199 113.428 33.6899 112.898 33.6099 112.418C33.5699 112.148 33.7599 111.888 34.0299 111.848C34.2999 111.808 34.5599 111.998 34.5999 112.268C34.6799 112.798 34.7199 113.368 34.7199 114.028C34.7199 114.598 34.6899 115.168 34.6599 115.738C34.6299 116.288 34.5999 116.848 34.5999 117.398C34.5999 117.678 34.3799 117.898 34.0999 117.898Z" fill="#273E53"/>
<path d="M40.4199 117.638C40.1399 117.638 39.9199 117.418 39.9199 117.138C39.9199 116.258 40.1099 115.468 40.2999 114.708C40.4199 114.218 40.5299 113.758 40.5999 113.288C40.6399 113.018 40.8799 112.818 41.1599 112.858C41.4299 112.898 41.6299 113.148 41.5899 113.418C41.5199 113.948 41.3999 114.448 41.2699 114.948C41.0899 115.688 40.9199 116.388 40.9199 117.148C40.9199 117.428 40.6999 117.648 40.4199 117.648V117.638Z" fill="#273E53"/>
<path d="M48.0797 117.138C47.9597 117.138 47.8397 117.088 47.7397 117.008C47.5397 116.818 47.5297 116.508 47.7197 116.298C48.8597 115.068 49.3197 113.388 49.6197 111.908C49.6697 111.638 49.9397 111.458 50.2097 111.518C50.4797 111.568 50.6597 111.838 50.5997 112.108C50.2797 113.728 49.7697 115.578 48.4497 116.988C48.3497 117.098 48.2197 117.148 48.0797 117.148V117.138Z" fill="#273E53"/>
<path d="M62.8198 109.638C62.7598 109.638 62.6998 109.628 62.6398 109.598C62.3798 109.498 62.2598 109.208 62.3598 108.948C63.5698 105.878 64.7698 102.558 65.3598 99.1079C65.4098 98.8379 65.6698 98.6579 65.9398 98.6979C66.2098 98.7479 66.3998 98.9979 66.3498 99.2779C65.7498 102.818 64.5198 106.198 63.2898 109.318C63.2098 109.518 63.0198 109.638 62.8298 109.638H62.8198Z" fill="#273E53"/>
</g>
</g>
<defs>
<clipPath id="clip0_433_204">
<rect width="75.66" height="118.69" fill="white" transform="translate(0.169922 0.647949)"/>
</clipPath>
<clipPath id="clip1_433_204">
<rect width="75.66" height="118.69" fill="white" transform="translate(0.169922 0.647949)"/>
</clipPath>
</defs>
</svg>
