<svg width="102" height="104" viewBox="0 0 102 104" fill="none" xmlns="http://www.w3.org/2000/svg">
<g clip-path="url(#clip0_417_136)">
<g clip-path="url(#clip1_417_136)">
<path d="M60.9955 96.4765C50.704 98.0427 48.5733 98.2658 47.3425 97.2899C46.5945 96.6956 46.5131 95.828 46.4346 94.9802C46.4123 94.7003 46.3869 94.4007 46.3342 94.0547C45.937 91.4448 45.7324 88.7044 45.5314 86.0544C45.3335 83.4243 45.1303 80.6938 44.7377 78.1135C43.8109 72.0236 41.9799 67.9022 38.7888 64.7464C38.5277 64.4928 38.431 64.1231 38.5296 63.7743C41.0595 54.6093 53.6149 52.6986 60.3672 51.671L62.7695 51.3054C66.0023 50.8134 69.8306 51.5761 70.6076 54.4216C71.5002 57.6945 72.7721 61.0008 74.0092 64.2112C75.8172 68.9127 77.5153 73.3579 78.1878 77.777C80.2911 91.5978 71.1699 94.9382 61.0069 96.4848L60.9955 96.4765ZM40.6227 63.7693C43.8727 67.1792 45.761 71.5447 46.7164 77.8225C47.1211 80.4818 47.3288 83.242 47.5327 85.9117C47.7277 88.5221 47.9362 91.2215 48.3229 93.7622C48.3815 94.1478 48.4144 94.4968 48.4413 94.8063C48.4727 95.1454 48.5152 95.6245 48.5797 95.7158C49.1673 96.2535 54.5058 95.4411 60.6946 94.4992C73.5268 92.5463 77.7248 88.0941 76.1992 78.0695C75.5597 73.8679 73.8964 69.5186 72.1248 64.9228C70.8817 61.6729 69.5909 58.3088 68.665 54.9499C68.185 53.1921 64.9701 53.0036 63.0621 53.294L60.6597 53.6596C54.5105 54.5954 43.181 56.3196 40.6227 63.7693Z" fill="#1D1D1B"/>
<path d="M38.5048 69.7256C21.5401 72.3074 8.63986 64.1757 6.40412 49.4849C3.14681 28.0813 26.1752 9.31298 48.8738 5.85858C62.1905 3.83197 88.2056 5.48675 91.3681 26.2675C93.6114 41.0078 86.4662 54.1423 72.2484 61.4142C71.7515 61.6719 71.1543 61.4694 70.8981 60.9824C70.6518 60.4939 70.8428 59.8883 71.3314 59.642C84.7425 52.7862 91.4987 40.4189 89.3909 26.5684C86.4676 7.35955 61.8093 5.91302 49.1747 7.83581C27.4054 11.1488 5.30158 28.947 8.38136 49.184C10.4365 62.6885 22.4256 70.1496 38.2039 67.7484C39.6275 67.5317 40.5538 67.3705 42.0058 67.008C42.5519 66.8743 43.0881 67.2074 43.2104 67.7451C43.3426 68.2813 43.011 68.8274 42.4732 68.9497C40.9422 69.3243 39.9763 69.4916 38.4934 69.7172L38.5048 69.7256Z" fill="#1D1D1B"/>
<path d="M77.5842 51.9435C77.4162 51.969 77.246 51.914 77.1344 51.7793C76.9515 51.5745 76.9741 51.2575 77.1888 51.0731C83.2423 45.8529 86.2068 37.3501 84.9189 28.8875C82.4093 12.3974 66.0339 8.88108 51.5408 11.0867C51.2639 11.1289 51.0133 10.9445 50.9712 10.6676C50.9291 10.3908 51.1135 10.1402 51.3903 10.0981C66.358 7.82025 83.2881 11.5252 85.9075 28.7371C87.2465 37.5357 84.1523 46.382 77.849 51.8223C77.7774 51.8837 77.693 51.9269 77.5941 51.942L77.5842 51.9435Z" fill="#1D1D1B"/>
<path d="M38.3785 64.7072C38.3785 64.7072 38.3587 64.7102 38.3488 64.7117C37.3922 64.8067 36.3892 64.929 35.358 65.0657C28.946 65.8696 20.9773 66.88 16.7735 60.9247C16.6172 60.6956 16.6709 60.384 16.8902 60.2292C17.1193 60.073 17.4309 60.1267 17.5856 60.3459C21.4428 65.8179 28.7659 64.8855 35.2274 64.0741C36.2699 63.9458 37.2813 63.8121 38.2478 63.7156C38.5261 63.6834 38.7698 63.889 38.7922 64.1689C38.8229 64.4373 38.6355 64.6681 38.3686 64.7087L38.3785 64.7072Z" fill="#1D1D1B"/>
<path d="M37.5623 63.0009C37.503 63.01 37.4323 63.0106 37.3685 62.99C32.6581 61.8153 30.1012 60.4343 30.1597 59.0902C30.1825 58.6416 30.4947 58.3008 30.9495 58.2316C32.6796 57.9683 32.7756 57.3366 32.9561 56.1965C33.139 55.0054 33.3956 53.3682 35.9529 52.1597C36.2641 52.0112 36.4958 51.6725 36.7343 51.3125C37.0818 50.8044 37.4698 50.2295 38.1816 50.1212C38.4584 50.079 38.7487 50.1259 39.0064 50.1575C39.1508 50.176 39.2968 50.2043 39.4184 50.206C40.2108 49.6303 43.8872 47.068 47.3967 46.5339L47.9306 46.4526C49.1071 46.2736 50.2764 45.7821 51.5219 45.2587C52.8997 44.6748 54.3155 44.0749 55.8973 43.8342C56.6091 43.7259 57.0037 43.7265 57.3489 43.7347C57.6218 43.7336 57.8651 43.737 58.2507 43.6784C58.656 43.6167 59.0751 43.5124 59.4942 43.4082C59.9627 43.2964 60.4396 43.1733 60.9339 43.0981C61.972 42.9401 62.6926 43.0226 62.8607 43.9276C62.8652 43.9573 62.8727 44.0067 62.8757 44.0265C62.8841 44.0151 63.1067 44.0823 63.868 43.9665C64.3919 43.8868 64.9168 43.7462 65.4218 43.6086C65.8691 43.49 66.2783 43.3873 66.6144 43.3361C66.8813 43.2955 67.5832 43.1887 67.9443 43.7002C68.7711 44.8792 70.098 44.7582 71.3755 44.6447C72.7122 44.5222 74.3699 44.3812 74.6693 46.3485C74.7247 46.3805 75.0622 46.4708 75.2833 46.5282C76.0744 46.7416 77.4112 47.0844 77.6565 48.6958C77.9544 50.6533 76.26 55.1393 70.9941 56.6285C70.7233 56.7101 70.456 56.5485 70.3758 56.2876C70.3055 56.0252 70.4557 55.7495 70.7167 55.6693C75.8076 54.2269 76.8235 49.9352 76.658 48.8478C76.521 47.9481 75.9208 47.7259 75.0248 47.488C74.4351 47.335 73.7716 47.1629 73.6693 46.4906C73.5234 45.5316 73.011 45.4882 71.4537 45.6241C70.0462 45.7472 68.2897 45.9033 67.1306 44.2691C67.1336 44.2888 67.0288 44.2643 66.7618 44.305C66.4554 44.3516 66.0857 44.4483 65.678 44.5609C65.173 44.6985 64.5888 44.8481 64.0154 44.9353C62.8192 45.1174 62.0392 45.0439 61.8637 44.0895C61.8591 44.0598 61.8546 44.0301 61.8501 44.0005C61.8333 44.0233 61.635 43.9826 61.0715 44.0684C60.6068 44.1391 60.1581 44.2479 59.7207 44.365C59.2621 44.4753 58.8232 44.5825 58.3783 44.6502C57.9137 44.7209 57.6096 44.7166 57.3169 44.7207C56.993 44.7194 56.6592 44.7197 56.0265 44.8159C54.5732 45.0371 53.2053 45.6196 51.8937 46.1732C50.5919 46.7253 49.3564 47.2472 48.0613 47.4443L47.5274 47.5255C43.9783 48.0656 40.049 50.9597 39.8861 51.0857C39.5953 51.3019 39.1842 51.1925 38.8429 51.1433C38.646 51.1126 38.4492 51.0818 38.3107 51.1029C38.0438 51.1435 37.8427 51.4169 37.5469 51.8665C37.2482 52.2963 36.919 52.7915 36.3628 53.0582C34.2871 54.0417 34.1012 55.213 33.9306 56.3517C33.7531 57.5116 33.5472 58.8174 31.1691 59.2097C31.326 59.5095 32.2661 60.7016 37.5958 62.0248C37.8595 62.0959 38.0317 62.3631 37.9606 62.6268C37.9101 62.8266 37.7403 62.9739 37.5524 63.0024L37.5623 63.0009Z" fill="#1D1D1B"/>
<path d="M67.3096 91.904C67.1316 91.9311 66.9485 91.8578 66.8339 91.7033C66.6678 91.4757 66.7215 91.164 66.9407 91.0093C73.2739 86.3636 73.637 79.0456 72.8276 73.7269C71.4479 64.6612 66.7817 54.5381 58.1709 55.8485C53.6924 56.5301 48.4874 58.9507 45.0399 60.5577C44.785 60.6774 44.494 60.5599 44.3758 60.3149C44.2561 60.06 44.3638 59.7705 44.6187 59.6508C48.1141 58.0264 53.3937 55.564 58.0204 54.8599C67.353 53.4396 72.3673 64.056 73.8162 73.5764C74.6677 79.172 74.2728 86.8791 67.5294 91.8199C67.4662 91.87 67.3901 91.9018 67.3111 91.9139L67.3096 91.904Z" fill="#1D1D1B"/>
<path d="M47.9884 79.6012C47.7215 79.6418 47.4724 79.4673 47.4219 79.2019C46.4319 74.0926 45.1413 70.1317 43.351 66.7425C43.2229 66.499 43.3177 66.1912 43.5612 66.0632C43.8047 65.9351 44.1125 66.0298 44.2406 66.2733C46.0756 69.7569 47.4094 73.8023 48.4144 79.0104C48.4664 79.2857 48.2934 79.5446 48.0181 79.5966L47.9983 79.5997L47.9884 79.6012Z" fill="#1D1D1B"/>
<path d="M54.9685 94.3591C53.3966 94.5983 51.9036 94.4917 50.5092 94.0363C50.244 93.9553 50.1 93.6738 50.1909 93.4071C50.2719 93.1419 50.5534 92.9979 50.8201 93.0888C53.6614 94.0118 57.0405 93.2851 60.5445 91.0525C60.7751 90.9062 61.0882 90.9698 61.2346 91.2004C61.3809 91.431 61.3173 91.7441 61.0867 91.8905C58.9945 93.2305 56.9358 94.0597 54.9685 94.3591Z" fill="#1D1D1B"/>
<path d="M64.7721 89.7213C64.5546 89.7544 64.3244 89.6377 64.2404 89.4179C64.1306 89.1615 64.2481 88.8705 64.5045 88.7607C68.8153 86.911 70.667 81.0659 69.9688 76.4787C69.9267 76.2019 70.1111 75.9513 70.3879 75.9092C70.6647 75.8671 70.9153 76.0515 70.9575 76.3283C71.7022 81.2219 69.8353 87.565 64.8976 89.682C64.8596 89.6979 64.8215 89.7138 64.7721 89.7213Z" fill="#1D1D1B"/>
<path d="M70.8185 53.3474C70.6801 53.3685 70.5326 53.3302 70.4172 53.2365C70.2077 53.056 70.1793 52.7366 70.3598 52.5271C70.6775 52.1551 71.0278 51.7983 71.3865 51.4301C72.2006 50.5982 73.0398 49.7321 73.4886 48.6927C73.6022 48.4428 73.8868 48.3185 74.1466 48.4307C74.3966 48.5444 74.5223 48.8389 74.4086 49.0888C73.8935 50.29 72.9842 51.2275 72.1099 52.1293C71.768 52.4746 71.4359 52.8185 71.1267 53.1791C71.0497 53.2718 70.9371 53.3294 70.8185 53.3474Z" fill="#1D1D1B"/>
<path d="M65.8381 50.7978C65.6601 50.8249 65.4671 50.7532 65.3511 50.5887C65.1948 50.3596 65.2485 50.048 65.4678 49.8933C66.7381 49.002 67.3805 47.6398 67.8531 46.4249C67.9554 46.1666 68.2399 46.0424 68.4968 46.1348C68.7551 46.2371 68.8793 46.5216 68.7869 46.7784C68.2937 48.0572 67.5445 49.648 66.0465 50.7054C65.9833 50.7555 65.9058 50.7774 65.8366 50.788L65.8381 50.7978Z" fill="#1D1D1B"/>
<path d="M40.3431 60.7365C40.264 60.7486 40.1918 60.7393 40.1181 60.7202C39.7039 60.5911 39.2814 60.4733 38.8589 60.3555C37.665 60.0213 36.44 59.6818 35.3447 58.9988C35.11 58.8524 35.0421 58.5391 35.1885 58.3044C35.3348 58.0697 35.6482 58.0018 35.8829 58.1481C36.8558 58.7587 38.017 59.0776 39.1372 59.3927C39.5711 59.5188 40.0134 59.6336 40.429 59.7726C40.6942 59.8537 40.8382 60.1352 40.7473 60.4019C40.6839 60.5835 40.5324 60.7178 40.3446 60.7464L40.3431 60.7365Z" fill="#1D1D1B"/>
<path d="M41.449 58.363C41.3699 58.3751 41.2779 58.3688 41.2027 58.3398C39.4984 57.7091 37.906 56.4847 36.6079 54.8008C36.4433 54.5831 36.4757 54.2646 36.6934 54.1C36.9111 53.9354 37.2297 53.9678 37.3943 54.1855C38.5778 55.7148 40.0122 56.8318 41.5448 57.3976C41.8016 57.49 41.9372 57.783 41.8349 58.0413C41.77 58.213 41.617 58.3374 41.4391 58.3645L41.449 58.363Z" fill="#1D1D1B"/>
<path d="M45.7187 56.2465C45.5506 56.2721 45.3804 56.217 45.2673 56.0724C44.7027 55.4199 44.1306 54.718 43.5684 54.0146C43.0077 53.3211 42.4484 52.6374 41.8952 51.9933C41.7123 51.7885 41.7349 51.4715 41.9496 51.2871C42.1544 51.1042 42.4714 51.1268 42.6558 51.3415C43.2204 51.9939 43.7812 52.6875 44.3533 53.3894C44.914 54.0829 45.4846 54.775 46.0378 55.4191C46.2207 55.6239 46.1981 55.9409 45.9834 56.1253C45.9119 56.1867 45.8274 56.2299 45.7384 56.2435L45.7187 56.2465Z" fill="#1D1D1B"/>
<path d="M60.6012 51.4128C60.5518 51.4203 60.4924 51.4294 60.4385 51.4072C60.1679 51.3574 59.9859 51.0917 60.0357 50.8212L60.8403 46.4706C60.8902 46.2 61.1558 46.018 61.4264 46.0678C61.697 46.1177 61.879 46.3833 61.8292 46.6539L61.0246 51.0045C60.987 51.2226 60.8088 51.3812 60.6111 51.4113L60.6012 51.4128Z" fill="#1D1D1B"/>
<path d="M56.2079 51.525C56.1486 51.534 56.0878 51.5331 56.014 51.514C55.7419 51.4543 55.5797 51.1856 55.6394 50.9135L55.68 50.7152C56.049 49.1519 56.3905 47.6736 56.1558 46.1314C56.1257 45.9337 56.0971 45.7458 56.0359 45.5428C55.974 45.2689 56.1356 45.0016 56.3995 44.9412C56.6733 44.8793 56.9407 45.0409 57.0011 45.3048C57.0555 45.5292 57.0999 45.7551 57.1345 45.9825C57.3978 47.7125 57.0304 49.2857 56.6452 50.9425L56.6031 51.131C56.5541 51.3408 56.3828 51.4781 56.195 51.5067L56.2079 51.525Z" fill="#1D1D1B"/>
<path d="M51.7058 53.3125C51.5773 53.332 51.4413 53.3021 51.3372 53.2168C51.0525 53.0073 50.7494 52.8106 50.4662 52.611C49.2951 51.8283 48.0883 51.0105 47.675 49.4247C47.6047 49.1622 47.7648 48.885 48.0371 48.8132C48.3094 48.7414 48.5768 48.903 48.6486 49.1753C48.9667 50.4014 49.9228 51.0348 51.0271 51.7771C51.3301 51.9737 51.6347 52.1803 51.9323 52.4081C52.1601 52.5757 52.2068 52.8822 52.0392 53.11C51.9553 53.2239 51.8343 53.2929 51.7157 53.311L51.7058 53.3125Z" fill="#1D1D1B"/>
<path d="M31.0694 63.8068L30.8915 63.8339C30.6344 63.873 30.3967 63.7069 30.3295 63.4643C30.0279 63.2775 29.6952 63.0854 29.3511 62.8849C28.0006 62.1193 26.4723 61.2494 26.2496 59.7862C26.0044 58.1748 28.3429 52.6703 34.0063 49.3403C34.2384 49.2038 34.5531 49.2773 34.691 49.5193C34.829 49.7613 34.754 50.0661 34.512 50.2041C29.0061 53.4393 27.0713 58.5384 27.2383 59.6358C27.3872 60.6145 28.6383 61.3244 29.8452 62.0106C30.3656 62.3057 30.8646 62.5939 31.2959 62.9025C31.4554 63.0198 31.5379 63.2298 31.4859 63.4198C31.4354 63.6196 31.2755 63.7654 31.0778 63.7954L31.0694 63.8068Z" fill="#1D1D1B"/>
<path d="M79.8778 47.7405C79.6504 47.7751 79.4187 47.6485 79.3347 47.4286C77.2443 42.0013 71.9042 40.0121 63.0265 41.3632C59.8036 41.8537 56.5839 42.6977 53.9879 43.3861L53.7354 43.4549C53.4829 43.5237 53.1957 43.365 53.1255 43.1026C53.0552 42.8402 53.2153 42.563 53.4777 42.4927L53.7302 42.4239C56.346 41.7325 59.5953 40.884 62.8676 40.386C72.2793 38.9537 77.9634 41.1434 80.2521 47.0766C80.3521 47.3345 80.2246 47.627 79.9667 47.7269C79.9272 47.7329 79.899 47.7473 79.8595 47.7534L79.8778 47.7405Z" fill="#1D1D1B"/>
<path d="M81.3237 40.3588C81.2447 40.3708 81.1724 40.3616 81.0987 40.3424C80.8335 40.2614 80.6895 39.9799 80.7804 39.7132C81.6882 36.9046 81.9592 33.8996 81.5545 31.2403C81.1497 28.5809 80.064 26.2983 78.3446 24.638C78.1434 24.4461 78.1462 24.1321 78.3381 23.931C78.5301 23.7298 78.8441 23.7326 79.0452 23.9245C80.9202 25.7431 82.0962 28.1536 82.5446 31.0997C82.9929 34.0458 82.6854 37.0765 81.7295 40.034C81.6661 40.2156 81.5146 40.35 81.3268 40.3785L81.3237 40.3588Z" fill="#1D1D1B"/>
<path d="M74.3608 17.5366C74.2224 17.5576 74.0749 17.5194 73.9595 17.4257C70.0882 14.1205 64.6561 13.0557 57.37 14.1645C56.5 14.2969 55.6148 14.462 54.6634 14.6573C54.3911 14.7291 54.1291 14.5364 54.0687 14.2724C54.0167 13.9971 54.1897 13.7382 54.4536 13.6778C55.4248 13.4794 56.3298 13.3113 57.2196 13.1759C64.8121 12.0204 70.498 13.1579 74.6116 16.6589C74.8211 16.8394 74.848 17.1489 74.669 17.3683C74.592 17.4609 74.4794 17.5185 74.3608 17.5366Z" fill="#1D1D1B"/>
<path d="M79.1763 32.2298C78.9192 32.2689 78.6717 32.1043 78.6113 31.8403C77.6353 27.4876 74.4592 23.9654 69.146 21.3551C68.8945 21.2315 68.7984 20.9325 68.922 20.6811C69.0456 20.4296 69.3445 20.3336 69.596 20.4571C75.1834 23.2078 78.5469 26.9645 79.5893 31.6207C79.6512 31.8945 79.4782 32.1535 79.2143 32.2139C79.2044 32.2154 79.1946 32.2169 79.1847 32.2184L79.1763 32.2298Z" fill="#1D1D1B"/>
<path d="M78.2788 40.8221C78.0613 40.8552 77.8411 40.737 77.7486 40.5286C77.5782 40.1398 77.4557 39.7336 77.388 39.2887C77.2074 38.1024 77.4269 36.8855 77.6409 35.6998C77.7353 35.1898 77.8197 34.6813 77.8844 34.1758C77.913 33.8984 78.1672 33.7079 78.4348 33.738C78.7122 33.7666 78.9027 34.0209 78.8726 34.2884C78.8109 34.8137 78.7196 35.3435 78.6184 35.8747C78.4097 37.0293 78.2201 38.1101 78.3766 39.1383C78.4308 39.4942 78.52 39.8144 78.6571 40.1172C78.7669 40.3736 78.6592 40.6631 78.4028 40.7729C78.3648 40.7888 78.3169 40.8062 78.2773 40.8122L78.2788 40.8221Z" fill="#1D1D1B"/>
<path d="M72.2512 39.8986C72.1722 39.9106 72.0901 39.9029 72.005 39.8754C71.7481 39.783 71.614 39.4999 71.7049 39.2332C72.6413 36.6125 72.952 34.4006 72.6571 32.4629C72.6255 32.2553 72.5955 32.0576 72.5441 31.853C72.4822 31.5792 72.6552 31.3202 72.9176 31.2499C73.1815 31.1895 73.4603 31.3595 73.5108 31.6249C73.5652 31.8493 73.5998 32.0767 73.6344 32.3041C73.9548 34.4098 73.6286 36.786 72.6357 39.567C72.5723 39.7486 72.4178 39.8631 72.2399 39.8902L72.2512 39.8986Z" fill="#1D1D1B"/>
<path d="M11.844 50.9327C11.7056 50.9537 11.5482 50.917 11.4412 50.8119C10.7625 50.2071 10.3146 49.3245 10.1506 48.2469C10.0649 47.6834 10.0552 47.088 10.1375 46.499C10.1759 46.22 10.4203 46.0311 10.6993 46.0695C10.9782 46.108 11.1671 46.3524 11.1287 46.6313C11.061 47.1171 11.0685 47.6318 11.1392 48.0964C11.228 48.6797 11.4646 49.5035 12.1062 50.0633C12.3157 50.2439 12.3342 50.5647 12.1522 50.7644C12.0752 50.857 11.9626 50.9146 11.8539 50.9312L11.844 50.9327Z" fill="#1D1D1B"/>
<path d="M33.9077 19.647C33.7298 19.6741 33.5368 19.6023 33.4207 19.4379C33.2645 19.2088 33.3182 18.8972 33.5374 18.7424C35.1632 17.5947 36.9939 17.1948 38.5757 16.954C39.0601 16.8803 39.5559 16.815 40.0517 16.7496C40.5377 16.6858 41.0236 16.622 41.5179 16.5467C41.7947 16.5046 42.0453 16.689 42.0874 16.9658C42.1296 17.2426 41.9452 17.4932 41.6683 17.5354C41.174 17.6106 40.6782 17.6759 40.1824 17.7413C38.1383 18.0018 36.016 18.2135 34.1162 19.5546C34.053 19.6047 33.9754 19.6266 33.9062 19.6371L33.9077 19.647Z" fill="#1D1D1B"/>
<path d="M68.4717 39.1895C68.4717 39.1895 68.3828 39.2031 68.3303 39.1908C68.0514 39.1524 67.8625 38.908 67.9009 38.629C67.9763 38.0612 67.9718 37.5663 67.9026 37.1115C67.8123 36.5183 67.5981 35.9744 67.2462 35.3907C67.0999 35.1601 67.1635 34.8469 67.404 34.6991C67.6346 34.5527 67.9477 34.6163 68.0956 34.8568C68.5248 35.5501 68.7898 36.228 68.8996 36.9497C68.9824 37.4934 68.9807 38.0803 68.899 38.7401C68.8728 38.9667 68.6961 39.1352 68.4786 39.1683L68.4717 39.1895Z" fill="#1D1D1B"/>
<path d="M10.7755 37.8649C10.6964 37.8769 10.6143 37.8692 10.5391 37.8402C10.2823 37.7478 10.1383 37.4662 10.2307 37.2094C14.3877 25.177 25.686 18.3292 35.0587 13.7165C35.3136 13.5968 35.6016 13.6946 35.7312 13.948C35.8494 14.193 35.7531 14.4909 35.4997 14.6205C26.2974 19.1566 15.2183 25.8497 11.1812 37.5401C11.1178 37.7217 10.9648 37.8462 10.7869 37.8733L10.7755 37.8649Z" fill="#1D1D1B"/>
</g>
</g>
<defs>
<clipPath id="clip0_417_136">
<rect width="100.247" height="103.533" fill="white" transform="translate(0.876465)"/>
</clipPath>
<clipPath id="clip1_417_136">
<rect width="87.49" height="91.41" fill="white" transform="translate(0.876465 13.1631) rotate(-8.6532)"/>
</clipPath>
</defs>
</svg>
