<svg width="183" height="68" viewBox="0 0 183 68" fill="none" xmlns="http://www.w3.org/2000/svg">
<g clip-path="url(#clip0_430_187)">
<g clip-path="url(#clip1_430_187)">
<path d="M102.848 59.7652C81.2876 59.7652 59.3276 56.8552 37.5476 51.1352C34.7076 50.3852 31.6076 49.8152 28.6176 49.2552C18.3876 47.3652 7.80756 45.4052 2.25756 36.2052C1.25756 34.5552 0.747559 32.7152 0.747559 30.7352C0.747559 6.16516 61.7976 0.785156 85.3276 0.785156C119.088 0.785156 182.938 8.10516 182.938 35.8152C182.938 53.5152 119.148 59.7652 102.848 59.7652ZM85.3276 2.78516C73.0476 2.78516 52.4876 4.28516 34.9776 8.50516C20.2676 12.0452 2.74756 18.7752 2.74756 30.7352C2.74756 32.3352 3.15756 33.8352 3.96756 35.1652C9.05756 43.5852 19.1876 45.4652 28.9776 47.2752C32.0076 47.8352 35.1476 48.4152 38.0576 49.1852C59.6676 54.8752 81.4576 57.7552 102.848 57.7552C125.508 57.7552 180.938 50.0652 180.938 35.8052C180.938 21.5452 160.828 13.3052 143.958 9.22516C124.318 4.47516 100.798 2.77516 85.3276 2.77516V2.78516Z" fill="#273E53"/>
<path d="M94.3676 67.395C72.1776 67.395 33.1876 64.875 21.3176 47.965C20.9976 47.515 21.1076 46.885 21.5576 46.575C22.0076 46.255 22.6376 46.365 22.9476 46.815C34.2976 62.985 72.5576 65.395 94.3576 65.395C116.158 65.395 156.748 61.295 170.468 45.925C170.838 45.515 171.468 45.475 171.878 45.845C172.288 46.215 172.328 46.845 171.958 47.255C154.488 66.825 100.458 67.385 94.3576 67.385L94.3676 67.395Z" fill="#273E53"/>
<path d="M20.0477 43.725C12.6277 43.725 6.35767 34.765 6.35767 29.145C6.35767 15.795 28.5577 10.405 39.2277 7.80504C40.4177 7.51504 41.4377 7.26504 42.2377 7.05504C42.4977 6.98504 42.7777 7.14504 42.8477 7.40504C42.9177 7.67504 42.7577 7.94504 42.4977 8.01504C41.6977 8.23504 40.6677 8.48504 39.4677 8.77504C29.8577 11.115 7.35767 16.585 7.35767 29.145C7.35767 34.385 13.1677 42.725 20.0477 42.725H20.3377C20.6277 42.695 20.8477 42.925 20.8577 43.205C20.8577 43.485 20.6477 43.715 20.3777 43.725C20.2677 43.725 20.1577 43.725 20.0477 43.725Z" fill="#273E53"/>
<path d="M89.9576 56.9449C70.7376 56.9449 57.1276 53.1149 46.1876 50.0349C39.4176 48.1249 33.5776 46.4849 27.8576 46.1049C27.5776 46.0849 27.3776 45.8449 27.3876 45.5749C27.4076 45.2949 27.6476 45.1049 27.9176 45.1049C33.7476 45.4949 39.6376 47.1549 46.4576 49.0749C57.3376 52.1349 70.8676 55.9549 89.9576 55.9549C98.8376 55.9549 177.088 51.4249 177.088 35.1449C177.088 28.7849 168.278 18.7249 160.058 17.7549C159.788 17.7249 159.588 17.4749 159.618 17.1949C159.648 16.9249 159.888 16.7249 160.168 16.7549C169.058 17.8049 178.078 28.3349 178.078 35.1349C178.078 53.9449 90.8276 56.9449 89.9476 56.9449H89.9576Z" fill="#273E53"/>
<path d="M86.7675 62.1551C86.7675 62.1551 86.7475 62.1551 86.7275 62.1551L84.7775 62.0251C65.1275 60.6751 44.8075 59.2751 27.2575 50.2151C27.0075 50.0851 26.9175 49.7851 27.0475 49.5451C27.1775 49.2951 27.4775 49.2051 27.7175 49.3351C45.0775 58.3051 65.2975 59.6951 84.8475 61.0451L86.7975 61.1751C87.0775 61.1951 87.2775 61.4351 87.2575 61.7051C87.2375 61.9651 87.0175 62.1751 86.7575 62.1751L86.7675 62.1551Z" fill="#273E53"/>
<path d="M65.1578 62.1552C54.8278 62.1552 45.0078 59.2852 33.4578 54.9852C33.1978 54.8852 33.0677 54.6052 33.1677 54.3452C33.2677 54.0852 33.5478 53.9552 33.8078 54.0552C45.2578 58.3252 54.9678 61.1652 65.1578 61.1652C65.4378 61.1652 65.6578 61.3852 65.6578 61.6652C65.6578 61.9452 65.4378 62.1652 65.1578 62.1652V62.1552Z" fill="#273E53"/>
<path d="M119.288 62.9551C119.038 62.9551 118.818 62.7651 118.788 62.5051C118.758 62.2351 118.958 61.9851 119.238 61.9551C129.438 60.9251 138.598 59.3151 146.928 57.0851C128.568 60.7051 109.808 61.2151 91.9277 61.3751C91.6577 61.3751 91.4277 61.1551 91.4277 60.8751C91.4277 60.5951 91.6477 60.3751 91.9277 60.3751C113.898 60.1851 137.198 59.4551 159.398 53.0551C159.658 52.9851 159.928 53.1251 160.008 53.3751C160.098 53.6251 159.968 53.9051 159.718 54.0051C148.178 58.4451 134.968 61.3751 119.348 62.9551C119.328 62.9551 119.318 62.9551 119.298 62.9551H119.288Z" fill="#273E53"/>
<path d="M146.748 11.475C146.698 11.475 146.638 11.475 146.588 11.445C141.458 9.73504 99.5476 4.66504 90.5376 4.66504C90.2576 4.66504 90.0376 4.44504 90.0376 4.16504C90.0376 3.88504 90.2576 3.66504 90.5376 3.66504C98.5976 3.66504 141.198 8.59504 146.908 10.505C147.168 10.595 147.308 10.875 147.228 11.135C147.158 11.345 146.958 11.475 146.758 11.475H146.748Z" fill="#273E53"/>
<path d="M76.7078 13.325C73.3278 13.325 69.6978 11.715 69.6978 8.165C69.6978 5.845 71.4278 2.875 74.3178 1.905C75.3478 1.565 76.4778 1.375 77.5778 1.375C81.5378 1.375 84.1978 3.645 84.1978 7.015C84.1978 10.955 81.3978 13.315 76.6978 13.315L76.7078 13.325ZM77.5778 2.385C76.5878 2.385 75.5678 2.545 74.6278 2.865C72.1978 3.675 70.6878 6.245 70.6878 8.175C70.6878 11.035 73.8078 12.335 76.6978 12.335C80.8278 12.335 83.1978 10.405 83.1978 7.035C83.1978 3.665 80.1678 2.395 77.5778 2.395V2.385Z" fill="#273E53"/>
<path d="M54.5377 34.6948C48.7477 34.6948 44.8677 30.9748 44.8677 25.4448C44.8677 22.5648 45.9677 19.8848 47.9577 17.8848C48.0777 17.7648 48.2577 17.7148 48.4177 17.7548C48.5877 17.7948 48.7177 17.9148 48.7777 18.0748C49.9677 21.3248 53.7077 22.8948 57.0077 24.2848C60.0577 25.5648 62.6977 26.6748 62.6977 28.9048C62.6977 30.9848 59.9677 34.6948 54.5277 34.6948H54.5377ZM48.1577 19.1448C46.6777 20.8748 45.8677 23.0848 45.8677 25.4448C45.8677 30.4548 49.2677 33.6948 54.5377 33.6948C59.8077 33.6948 61.7077 30.3148 61.7077 28.9048C61.7077 27.3348 59.3577 26.3448 56.6277 25.2048C53.3777 23.8348 49.7277 22.3048 48.1577 19.1448Z" fill="#273E53"/>
<path d="M56.3277 32.065C52.1277 32.065 47.6077 29.935 47.6077 25.265C47.6077 23.615 48.1277 21.875 49.0777 20.355C49.2277 20.125 49.5377 20.055 49.7677 20.195C49.9977 20.345 50.0777 20.645 49.9277 20.885C49.0777 22.245 48.6077 23.805 48.6077 25.265C48.6077 29.855 53.6577 31.065 56.3277 31.065C57.9877 31.065 60.2777 30.585 61.7777 28.275C61.9277 28.045 62.2377 27.975 62.4677 28.125C62.6977 28.275 62.7677 28.585 62.6177 28.815C61.2377 30.935 59.0677 32.055 56.3377 32.055L56.3277 32.065Z" fill="#273E53"/>
<path d="M54.6076 30.0448C53.9576 30.0448 53.1776 28.8448 53.1776 27.3648V27.2148C52.8076 27.7948 52.2876 28.2448 51.5576 28.2448C50.8976 28.2448 50.3876 27.5548 50.3876 26.9548C50.3876 25.8548 51.3076 25.1448 52.1276 24.6548C51.9276 24.6548 51.7076 24.6548 51.4476 24.6548C50.9076 24.6548 50.5076 24.6248 50.2276 24.5648C49.6376 24.4448 49.5076 24.1348 49.5076 23.8948C49.5076 22.9848 51.4076 22.9448 51.4276 22.9448C51.8276 22.9448 52.2276 22.9948 52.6176 23.0348C53.1176 23.0948 53.6176 23.1548 54.0476 23.0948C54.1976 23.0748 54.3476 23.1148 54.4576 23.2248C55.3276 24.0348 56.2676 24.6548 57.4176 25.3448C58.1976 25.8148 59.2276 26.5648 59.2276 27.7148C59.2276 28.3248 58.9576 28.9848 58.3576 28.9848C56.9676 28.8948 56.1076 27.9048 55.5576 26.9948C55.5576 27.2648 55.5576 27.5448 55.5576 27.8348C55.5576 28.3548 55.4876 30.0548 54.6076 30.0548V30.0448ZM54.0876 24.5148C54.1776 24.7648 54.1776 25.3048 54.1776 26.5948V27.3748C54.1776 27.9548 54.3276 28.4048 54.4776 28.6948C54.5276 28.4148 54.5576 28.0748 54.5576 27.8348C54.5576 25.5448 54.5576 25.0148 54.8276 24.8348C54.5776 24.6448 54.3276 24.4448 54.0876 24.2348C54.1076 24.3348 54.1076 24.4248 54.0876 24.5048V24.5148ZM55.9776 25.6248C56.3576 26.4348 57.0276 27.7648 58.2076 27.9648C58.2276 27.8948 58.2376 27.8048 58.2376 27.7148C58.2376 27.0748 57.4776 26.5448 56.9076 26.2048C56.5776 26.0048 56.2676 25.8148 55.9776 25.6248ZM52.9076 25.3748C52.2276 25.7448 51.3876 26.2848 51.3876 26.9648C51.3876 27.0748 51.5076 27.2348 51.5676 27.2548C52.2276 27.2548 52.6776 26.1048 52.9076 25.3748Z" fill="#273E53"/>
<path d="M126.938 43.115C125.018 43.115 123.128 42.785 121.488 42.175C119.158 41.305 117.438 39.165 116.618 36.155C116.558 35.935 116.648 35.705 116.848 35.595C126.748 29.705 135.218 24.055 135.298 23.995C135.378 23.935 135.478 23.915 135.578 23.915C136.728 23.915 138.928 26.755 138.928 31.215C138.928 39.005 134.788 43.125 126.948 43.125L126.938 43.115ZM117.688 36.255C118.178 37.845 119.318 40.295 121.838 41.235C123.378 41.815 125.138 42.115 126.938 42.115C134.228 42.115 137.918 38.445 137.918 31.205C137.918 27.395 136.268 25.265 135.668 24.945C134.388 25.795 126.658 30.905 117.688 36.255Z" fill="#273E53"/>
<path d="M126.828 41.3252C123.198 41.3252 118.858 39.7952 117.548 35.5052C117.468 35.2452 117.618 34.9652 117.878 34.8852C118.148 34.8052 118.418 34.9552 118.498 35.2152C119.648 38.9852 123.548 40.3252 126.818 40.3252C132.838 40.3252 136.888 36.3452 136.888 30.4252C136.888 28.4352 136.128 25.3052 135.578 25.0252C135.328 24.9052 135.228 24.6052 135.358 24.3552C135.478 24.1052 135.778 24.0152 136.028 24.1352C137.318 24.7852 137.898 28.9452 137.898 30.4252C137.898 36.9452 133.448 41.3252 126.828 41.3252Z" fill="#273E53"/>
<path d="M127.288 39.4351C125.978 39.4351 124.488 37.5251 124.148 34.9051C123.478 36.6851 122.788 38.0651 121.748 38.0651C121.078 38.0651 120.378 37.5351 120.378 36.6551C120.378 35.6451 121.288 34.3351 122.098 33.1751C122.348 32.8251 122.578 32.4851 122.768 32.1951C122.828 32.0951 122.928 32.0251 123.028 31.9851C123.118 31.9551 123.228 31.9351 123.328 31.9151C123.398 31.9051 123.508 31.8851 123.538 31.8651L124.248 31.3051C126.608 29.4451 129.048 27.5151 132.138 27.5151C134.198 27.5151 134.928 28.4551 134.928 29.2551C134.928 30.8151 133.008 31.1951 131.468 31.5051C131.258 31.5451 131.038 31.5951 130.828 31.6351C131.938 31.8551 133.328 32.3651 133.328 33.9351C133.328 35.0751 132.658 35.7951 131.578 35.7951C130.138 35.7951 129.148 35.4551 128.488 35.0751C128.548 35.8151 128.578 36.6651 128.578 37.6151C128.578 38.1551 128.478 38.5851 128.278 38.8951C128.048 39.2451 127.698 39.4451 127.288 39.4451V39.4351ZM124.478 32.3951C124.478 32.3951 124.528 32.3951 124.548 32.3951C125.078 32.4851 125.078 33.1051 125.078 33.7551C125.078 36.6151 126.638 38.4251 127.288 38.4251C127.338 38.4251 127.378 38.4251 127.438 38.3351C127.488 38.2551 127.578 38.0451 127.578 37.5951C127.578 35.8551 127.478 34.7451 127.368 34.0651C127.038 33.6151 126.888 33.1551 126.888 32.8251C126.888 32.4151 127.168 32.1951 127.438 32.1951C127.878 32.1951 128.118 32.6051 128.308 33.6451C128.308 33.6451 128.378 33.7251 128.418 33.7551C128.888 34.2251 129.808 34.7851 131.578 34.7851C131.928 34.7851 132.328 34.6851 132.328 33.9251C132.328 32.9951 131.438 32.6951 129.898 32.4851C129.258 32.4051 128.798 32.3451 128.718 31.8751C128.638 31.4251 129.078 31.1851 129.298 31.0651C129.788 30.7951 130.508 30.6551 131.278 30.5051C132.528 30.2551 133.938 29.9751 133.938 29.2351C133.938 28.9351 133.458 28.4951 132.148 28.4951C129.408 28.4951 127.108 30.3151 124.878 32.0651L124.488 32.3751L124.478 32.3951ZM123.498 32.8951C123.328 33.1551 123.128 33.4451 122.918 33.7451C122.228 34.7251 121.378 35.9551 121.378 36.6551C121.378 36.9851 121.648 37.0651 121.748 37.0651C122.308 37.0651 123.168 34.7051 123.448 33.9251C123.628 33.4151 123.768 33.0451 123.898 32.7951C123.758 32.8551 123.608 32.8751 123.498 32.8951Z" fill="#273E53"/>
<path d="M80.7977 8.79519C80.1477 8.79519 79.6177 7.90519 78.7677 6.42519C78.4877 5.92519 78.0577 5.16519 77.8877 5.03519C77.7277 4.91519 77.6477 4.70519 77.6977 4.50519C77.7477 4.30519 77.8877 4.15519 78.0877 4.12519C79.6777 3.85519 81.7277 4.95519 81.7277 6.61519C81.7277 7.78519 81.5977 8.60519 80.9877 8.76519C80.9177 8.78519 80.8577 8.79519 80.7977 8.79519ZM79.2077 5.17519C79.3377 5.39519 79.4777 5.64519 79.6477 5.93519C79.9177 6.41519 80.3677 7.20519 80.6877 7.59519C80.7177 7.40519 80.7477 7.10519 80.7477 6.61519C80.7477 5.99519 80.0577 5.37519 79.2177 5.16519L79.2077 5.17519Z" fill="#273E53"/>
<path d="M99.8477 29.6251C98.9277 29.6251 98.0077 29.5351 97.1177 29.4451C95.9077 29.3251 94.6577 29.1951 93.4277 29.3151C91.4177 29.4951 89.1777 28.1251 89.1777 25.8051C89.1777 21.4251 93.3777 19.4751 97.5377 19.4751C102.888 19.4751 105.318 22.6751 105.318 25.6451C105.318 28.2151 103.378 29.6251 99.8477 29.6251ZM94.4477 28.2651C95.3877 28.2651 96.3177 28.3551 97.2077 28.4451C98.1177 28.5351 98.9677 28.6251 99.8377 28.6251C101.878 28.6251 104.308 28.1051 104.308 25.6451C104.308 23.7251 102.878 20.4751 97.5277 20.4751C93.8677 20.4751 90.1677 22.1251 90.1677 25.8051C90.1677 27.4051 91.8377 28.4551 93.3277 28.3151C93.6977 28.2851 94.0777 28.2651 94.4377 28.2651H94.4477Z" fill="#273E53"/>
<path d="M100.478 26.2752C99.7577 26.2752 99.2477 25.3852 98.6677 24.3652C98.4077 23.9052 97.9777 23.1452 97.7677 23.0452C97.7877 23.0552 97.7477 23.0652 97.6977 23.0752C97.5877 23.0952 97.4677 23.1152 97.3377 23.1152C97.0977 23.1152 96.8977 22.9552 96.8477 22.7252C96.7977 22.4952 96.9177 22.2652 97.1277 22.1652C97.5677 21.9652 98.0477 21.8652 98.5477 21.8652C100.378 21.8652 102.098 23.2652 102.098 24.3552C102.098 25.2252 101.348 26.2952 100.468 26.2952L100.478 26.2752ZM98.9377 22.8752C99.1277 23.1652 99.3277 23.5052 99.5377 23.8752C99.8177 24.3652 100.288 25.1952 100.518 25.2852C100.678 25.2852 101.108 24.8052 101.108 24.3452C101.108 24.0152 100.228 23.0452 98.9377 22.8752Z" fill="#273E53"/>
<path d="M105.808 19.0052C105.808 19.0052 105.708 19.0052 105.658 18.9852C103.948 18.4552 103.348 16.6052 103.348 15.1752C103.348 11.7952 107.568 9.0752 111.068 9.0752C114.988 9.0752 116.818 12.0452 116.818 14.0552C116.818 15.4052 116.148 18.5552 109.918 18.5552H109.358C108.128 18.5552 107.028 18.5852 105.988 18.9652C105.938 18.9852 105.878 18.9952 105.818 18.9952L105.808 19.0052ZM111.058 10.0752C108.038 10.0752 104.338 12.4252 104.338 15.1752C104.338 16.2152 104.728 17.5452 105.798 17.9752C106.948 17.5952 108.128 17.5652 109.338 17.5652H109.898C113.648 17.5652 115.798 16.2852 115.798 14.0652C115.798 12.4552 114.288 10.0852 111.048 10.0852L111.058 10.0752Z" fill="#273E53"/>
<path d="M112.348 16.215C111.238 16.215 111.058 15.225 110.958 14.625C110.838 13.935 110.748 13.655 110.338 13.565C110.188 13.535 110.058 13.435 109.988 13.295C109.918 13.155 109.918 12.995 109.988 12.855L110.048 12.735C110.188 12.425 110.428 11.915 110.968 11.915C113.828 11.915 114.588 13.405 114.588 14.285C114.588 15.475 113.288 16.205 112.358 16.205L112.348 16.215ZM111.258 12.935C111.738 13.345 111.858 13.985 111.938 14.465C112.068 15.195 112.138 15.225 112.348 15.225C112.828 15.225 113.578 14.825 113.578 14.305C113.578 13.825 113.078 13.015 111.258 12.945V12.935Z" fill="#273E53"/>
<path d="M72.1378 39.1052C69.6278 39.1052 67.9578 37.7152 67.9578 36.7952C67.9578 35.9652 69.2178 35.6952 69.6578 35.6952C70.3278 35.6952 70.8178 35.7852 71.1978 35.8952C71.1478 35.4852 71.1078 34.9352 71.1078 34.1952C71.1078 32.6952 71.8978 32.4752 72.3678 32.4752C73.4378 32.4752 73.6178 33.2952 73.6778 34.1252C74.1978 33.1052 74.8178 32.0352 75.9478 32.0352C76.7678 32.0352 77.0578 32.4352 77.0578 32.8152C77.0578 33.0652 76.9578 33.3552 76.8378 33.6852C76.7478 33.9552 76.6278 34.2952 76.6278 34.4752C76.7078 34.4652 76.9578 34.3552 77.1678 34.2652C77.5278 34.1052 77.9378 33.9352 78.3778 33.9352C79.1778 33.9352 79.8278 34.5852 79.8278 35.3852C79.8278 35.5952 79.7778 35.8252 79.6378 36.0552C80.2478 36.1752 81.0878 36.4552 81.0878 37.1152C81.0878 37.5152 80.7578 38.1652 80.2578 38.2752C79.0078 38.5352 77.7878 38.6052 76.6178 38.6752C75.6278 38.7252 74.6978 38.7852 73.7678 38.9452C73.1978 39.0452 72.6478 39.0952 72.1278 39.0952L72.1378 39.1052ZM68.9878 36.8752C69.1978 37.2052 70.1978 38.1052 72.1278 38.1052C72.5878 38.1052 73.0778 38.0552 73.5978 37.9752C74.5878 37.8052 75.5878 37.7452 76.5678 37.6952C77.7078 37.6352 78.8878 37.5652 80.0578 37.3152C80.0478 37.3152 80.0578 37.2852 80.0578 37.2452C79.8278 37.1252 79.3078 36.9952 79.0278 36.9952C78.6778 36.9952 78.3178 37.0552 77.9278 37.1252C77.5078 37.1952 77.0678 37.2652 76.6178 37.2652C76.5378 37.2652 76.4778 37.2652 76.4378 37.2652C76.3678 37.2652 76.3278 37.2652 76.3278 37.2652C76.0478 37.2652 75.8178 37.0452 75.8178 36.7652C75.8178 36.7152 75.8378 36.2752 76.3778 36.2652H76.4578C77.2578 36.2352 78.8178 35.9352 78.8178 35.4052C78.8178 35.1852 78.6478 34.9552 78.3678 34.9552C78.1378 34.9552 77.8378 35.0852 77.5478 35.2052C77.2178 35.3452 76.8978 35.4852 76.5778 35.4852C76.0178 35.4852 75.6178 35.0752 75.6178 34.4952C75.6178 34.1452 75.7478 33.7552 75.8878 33.3752C75.9178 33.2752 75.9678 33.1552 75.9978 33.0552C75.9778 33.0552 75.9578 33.0552 75.9478 33.0552C75.3478 33.0552 74.8978 33.9452 74.4578 34.8052C74.2178 35.2752 73.9678 35.7652 73.6778 36.1352C73.5578 36.2952 73.3478 36.3652 73.1478 36.3052C72.9578 36.2552 72.8078 36.0852 72.7878 35.8852C72.7278 35.3852 72.7078 34.9452 72.6878 34.5652C72.6378 33.4852 72.5878 33.4852 72.3578 33.4852C72.2678 33.4852 72.0978 33.4852 72.0978 34.2052C72.0978 35.6052 72.2378 36.2552 72.2978 36.5052C72.3278 36.6552 72.3978 36.9752 72.1078 37.1752C71.9378 37.2852 71.6278 37.2452 71.4578 37.1252C71.2978 37.0152 70.8278 36.6952 69.6478 36.6952C69.4478 36.6952 69.1478 36.7952 68.9878 36.8752Z" fill="#273E53"/>
<path d="M90.6877 21.7052C89.8477 21.7052 89.0277 21.3252 88.2177 20.9652C87.7477 20.7552 87.3077 20.5552 86.9077 20.4452C86.7077 20.3952 86.4077 20.3752 86.1277 20.3552C85.9677 20.3552 85.8077 20.3352 85.6577 20.3252C84.8077 20.2352 83.9677 20.3252 83.0577 20.4352C82.3977 20.5052 81.7277 20.5852 81.0477 20.5852C80.3677 20.5852 79.9077 20.5252 79.5577 20.3852C78.9377 20.1552 78.8477 19.7352 78.8477 19.5152C78.8477 18.5352 80.6377 17.6952 82.1077 17.6952C83.0977 17.6952 83.8177 17.7252 84.3477 17.7652C83.9377 17.1752 83.4977 16.2652 83.3677 14.8552C83.3477 14.6652 83.4377 14.4852 83.5977 14.3852C83.7577 14.2852 83.9577 14.2752 84.1177 14.3752C84.7477 14.7352 85.2477 15.0652 85.6377 15.3552C85.4677 14.4552 85.3877 13.4252 85.3877 12.2752C85.3877 10.0552 85.5377 9.47517 86.1277 9.41517C86.7577 9.35517 87.1077 9.61517 88.4477 16.4652C89.9277 13.5852 90.0977 13.6552 90.5277 13.8252C91.0677 14.0352 90.9277 14.5452 90.4377 16.2252C90.3477 16.5252 90.2377 16.9252 90.1577 17.2252C90.6477 17.2252 91.0177 17.2052 91.2877 17.1952C91.1477 17.0452 91.0677 16.8552 91.1277 16.6052C91.2677 16.1052 91.5477 15.8552 96.1077 15.8552C97.6277 15.8552 97.9377 16.4252 97.9377 16.9052C97.9377 17.3452 97.8377 17.3852 95.3077 18.3052C94.4377 18.6252 93.0677 19.1252 92.1377 19.5252C92.5177 19.6952 92.6077 20.0152 92.6077 20.2952C92.6077 21.1852 91.6377 21.7252 90.6977 21.7252L90.6877 21.7052ZM84.9677 19.2952C85.2377 19.2952 85.5077 19.3052 85.7677 19.3352C85.8977 19.3452 86.0377 19.3552 86.1877 19.3652C86.5177 19.3852 86.8577 19.4052 87.1677 19.4852C87.6477 19.6152 88.1477 19.8452 88.6377 20.0552C89.3477 20.3752 90.0677 20.7052 90.6877 20.7052C91.0277 20.7052 91.4377 20.5652 91.5577 20.3952C91.5277 20.3952 91.4777 20.3952 91.4377 20.3952H91.1977C90.9577 20.3952 90.3177 20.3952 90.2277 19.8752C90.1177 19.2352 90.6877 18.9252 94.9577 17.3652C95.4177 17.1952 95.9177 17.0152 96.3177 16.8652C96.2477 16.8652 96.1777 16.8652 96.0977 16.8652C94.2777 16.8652 93.2377 16.9152 92.6577 16.9652C92.8277 17.1252 92.9577 17.3252 92.8777 17.6052C92.7377 18.1052 92.2977 18.2452 89.5877 18.2452C89.4277 18.2452 89.2677 18.1652 89.1677 18.0352C89.0577 17.8952 89.0277 17.7352 89.0777 17.4252C88.9577 17.6652 88.8177 17.9352 88.6777 18.2252C88.5877 18.4152 88.3877 18.5252 88.1777 18.4952C87.9677 18.4752 87.7977 18.3252 87.7477 18.1152C87.7177 17.9952 87.6477 17.6152 87.5377 17.0852C87.0677 14.6652 86.6777 12.8852 86.3877 11.7452C86.3877 11.9052 86.3877 12.0952 86.3877 12.2952C86.3877 14.0552 86.5877 15.4852 86.9877 16.5452C87.1077 16.8752 87.0577 17.1152 86.8177 17.2652C86.5777 17.4152 86.3377 17.3552 86.0977 17.1052C85.9277 16.9252 85.4877 16.4652 84.5477 15.8352C84.8677 17.0352 85.4577 17.5852 85.7177 17.8252C85.8577 17.9552 86.1277 18.2052 85.9677 18.5552C85.8077 18.9152 85.4877 18.8852 85.0377 18.8452C84.5577 18.8052 83.6677 18.7252 82.1077 18.7252C81.1277 18.7252 80.1977 19.1952 79.9177 19.4752C80.0677 19.5352 80.3877 19.6052 81.0577 19.6052C81.6777 19.6052 82.2977 19.5352 82.9577 19.4652C83.6177 19.3952 84.2877 19.3152 84.9677 19.3152V19.2952Z" fill="#273E53"/>
<path d="M134.258 20.1448C133.458 20.1448 132.588 20.1148 131.718 20.0648C131.428 20.0448 131.208 20.0348 131.098 20.0348C130.918 20.0348 130.738 20.0348 130.558 20.0548C130.438 20.0648 130.308 20.0348 130.218 19.9548C129.208 19.1948 127.998 18.0348 127.998 16.8248C127.998 16.0048 128.508 15.4648 129.278 15.4648C129.978 15.4648 130.708 15.9448 131.008 16.7048C131.118 16.6448 131.218 16.5948 131.298 16.5548C131.758 16.1948 132.278 15.9648 132.358 15.9448C132.608 15.8848 132.878 16.0248 132.958 16.2648C133.098 16.6448 133.028 16.7848 131.848 17.4048C131.768 17.4748 131.698 17.5348 131.658 17.5848C131.828 17.6548 132.268 17.7648 133.308 17.7648C133.498 17.7248 134.028 17.2948 134.858 16.4948C135.188 16.1848 135.498 15.8848 135.848 16.2148C136.158 16.4948 136.208 16.5448 135.238 17.7648C135.368 17.7448 135.508 17.7248 135.658 17.7048C135.998 17.6548 136.358 17.6048 136.708 17.6048C136.998 17.6048 138.468 17.7848 138.468 18.6348C138.468 18.9248 138.348 19.1848 138.128 19.3948C137.518 19.9748 136.028 20.1448 134.248 20.1448H134.258ZM131.108 19.0348C131.228 19.0348 131.468 19.0448 131.778 19.0648C135.958 19.2848 137.078 18.9548 137.378 18.7448C137.188 18.6748 136.898 18.6048 136.708 18.6048C136.428 18.6048 136.118 18.6448 135.788 18.6948C135.218 18.7748 134.578 18.8348 134.098 18.7348C134.008 18.7148 133.918 18.6648 133.858 18.6048C133.658 18.7148 133.468 18.7648 133.298 18.7648C132.128 18.7648 130.928 18.6648 130.648 17.9548C130.548 17.9548 130.458 17.9348 130.378 17.8848C130.228 17.7948 130.138 17.6348 130.138 17.4548C130.138 16.8248 129.618 16.4748 129.268 16.4748C129.158 16.4748 128.988 16.4748 128.988 16.8348C128.988 17.4248 129.598 18.2248 130.658 19.0548C130.808 19.0548 130.948 19.0448 131.098 19.0448L131.108 19.0348Z" fill="#273E53"/>
<path d="M39.3777 28.445C38.7177 28.445 38.2777 28.055 38.2777 27.485C38.2777 27.205 38.3777 26.925 38.4577 26.675C38.4777 26.605 38.5177 26.515 38.5377 26.435C38.4877 26.435 38.4177 26.415 38.3277 26.415C37.8077 26.415 37.2177 26.785 36.6477 27.145C36.0177 27.545 35.3577 27.965 34.6577 27.965C34.1177 27.965 33.5277 27.715 33.5277 27.175C33.5277 27.135 33.5277 27.085 33.5277 27.045C33.2877 27.065 33.0177 27.065 32.7377 27.065C32.4577 27.065 31.6777 27.065 31.4977 26.515C31.3877 26.175 31.5477 25.845 31.9777 25.515C33.2777 24.535 37.6677 23.135 39.7377 24.565C39.8577 24.645 39.9877 24.705 40.1277 24.765C40.5077 24.935 41.0777 25.195 41.1477 25.855C41.1477 25.915 41.1477 25.985 41.1477 26.055C41.1477 27.035 40.5177 28.445 39.3777 28.445ZM39.3077 27.445C39.3077 27.445 39.3477 27.445 39.3777 27.445C39.7677 27.445 40.1477 26.645 40.1477 26.055C40.1377 25.875 39.9477 25.795 39.7077 25.685C39.5177 25.605 39.3277 25.515 39.1677 25.395C38.5077 24.935 37.3177 24.845 35.8277 25.125C35.4677 25.195 35.1277 25.275 34.8177 25.365C35.2777 25.335 35.6377 25.635 35.6377 26.035C35.6377 26.295 35.4877 26.655 34.7777 26.865C34.7077 26.885 34.6377 26.905 34.5577 26.925C34.5577 26.935 34.5577 26.955 34.5577 26.965C35.0377 27.045 35.5477 26.685 36.1277 26.315C36.7877 25.895 37.5277 25.425 38.3477 25.425C39.2577 25.425 39.5877 25.875 39.5877 26.295C39.5877 26.525 39.5077 26.775 39.4277 27.005C39.3777 27.155 39.3177 27.335 39.2977 27.455C39.2977 27.455 39.3077 27.455 39.3177 27.455L39.3077 27.445ZM34.2677 25.525C33.7377 25.705 33.2977 25.895 32.9877 26.065C33.3177 26.065 33.5777 26.045 33.7977 26.015C33.8377 25.945 33.8877 25.875 33.9377 25.815C34.0377 25.695 34.1477 25.595 34.2677 25.515V25.525Z" fill="#273E53"/>
<path d="M94.9176 49.605C89.7476 49.605 86.6076 48.335 83.5676 47.105C80.7876 45.975 78.1576 44.915 74.1176 44.915C69.7576 44.915 65.9376 46.025 62.5776 47.005C59.7776 47.815 57.1276 48.585 54.6176 48.585C50.0476 48.585 47.9176 45.705 47.9176 43.755C47.9176 43.645 47.9176 43.525 47.9276 43.415C47.6276 43.485 47.3076 43.525 46.9876 43.525C45.1576 43.525 44.5176 42.325 43.8976 41.175C43.0776 39.645 42.2276 38.065 38.5576 38.065C36.5976 38.065 34.7376 38.545 32.9476 38.995C31.3376 39.405 29.8276 39.795 28.3776 39.795C22.4176 39.795 17.5776 35.025 17.5776 29.155C17.5776 21.645 26.8376 17.875 27.9976 17.875C29.1576 17.875 30.0476 18.515 30.0476 19.435C30.0476 20.005 29.8776 20.665 29.6976 21.355C29.5276 22.005 29.3476 22.685 29.3476 23.225C29.3476 23.765 29.5276 24.065 29.9776 24.195C31.1576 23.125 32.2776 22.905 33.0276 22.905C33.3476 22.905 33.6776 22.925 33.9976 22.965C33.0676 22.505 32.5276 21.335 32.5276 20.225C32.5276 16.865 38.3376 10.585 49.4576 10.585C54.8476 10.585 59.3376 11.885 62.6276 12.835C64.5376 13.385 66.0476 13.825 67.0676 13.825C67.9276 13.825 68.8576 13.725 69.7776 13.595C68.1776 13.175 66.1276 12.855 64.2976 12.575C59.1376 11.765 54.2776 11.005 54.2776 8.36498C54.2776 5.94498 56.6976 4.60498 61.1076 4.60498C63.6076 4.60498 66.6376 5.63498 69.8676 7.58498L69.9176 7.61498C69.9176 7.61498 69.9876 7.61498 70.0176 7.59498C70.2876 7.53498 70.5476 7.71498 70.6076 7.98498C70.6576 8.25498 70.4876 8.51498 70.2176 8.57498C70.0776 8.60498 69.9376 8.61498 69.7976 8.61498C69.6476 8.61498 69.5876 8.57498 69.3476 8.43498C65.4676 6.09498 62.7276 5.60498 61.1076 5.60498C59.3576 5.60498 55.2776 5.87498 55.2776 8.36498C55.2776 10.155 60.3676 10.955 64.4576 11.595C67.4876 12.065 70.2576 12.505 71.9276 13.305C72.7776 13.195 73.6276 13.105 74.4176 13.105C78.1576 13.105 78.9776 15.455 78.9776 16.365C78.9776 18.555 75.6376 20.035 72.5176 20.035C70.7376 20.035 68.4176 19.165 65.9576 18.245C63.1776 17.205 60.0276 16.035 57.3576 16.035C54.8276 16.035 52.1476 17.475 52.1476 18.825C52.1476 21.615 56.5276 22.355 58.8476 22.355C60.3776 22.355 61.9176 22.155 63.5476 21.935C65.1776 21.725 66.8676 21.495 68.5476 21.495C69.2976 21.495 69.9976 21.555 70.4576 21.595C70.6576 21.615 70.8076 21.625 70.8876 21.625H71.6276C72.1176 21.625 73.4176 21.625 73.4176 22.765C73.4176 25.055 71.2676 25.595 69.1876 26.115C66.3976 26.815 63.5076 27.535 63.5076 31.855C63.5076 33.045 63.9476 34.685 64.7676 34.685C65.7076 34.685 67.2076 33.235 68.1376 31.865L68.9076 30.735C72.5976 25.275 74.6276 22.275 83.9476 22.275C86.6276 22.275 89.8676 23.385 89.8676 24.775C89.8676 26.015 87.8876 26.575 86.0476 26.575C85.1276 26.575 84.1776 26.455 83.2476 26.325C82.3476 26.205 81.4976 26.095 80.7176 26.095C78.2776 26.095 77.4076 27.575 77.4076 28.965C77.4076 31.685 83.1476 31.825 84.2976 31.825C85.8276 31.825 87.4176 31.695 88.9576 31.575C90.5076 31.455 92.1176 31.325 93.6776 31.325C93.7676 31.325 102.438 31.475 102.438 34.735C102.438 37.015 99.9476 38.105 97.4676 38.545C103.348 38.845 105.998 41.915 105.998 44.125C105.998 48.645 98.0276 49.635 94.9576 49.635L94.9176 49.605ZM74.1176 43.915C78.3576 43.915 81.0676 45.015 83.9476 46.175C86.8976 47.365 89.9476 48.605 94.9276 48.605C98.2076 48.605 104.968 47.505 104.968 44.095C104.968 42.655 102.828 39.495 96.4776 39.495C94.7976 39.495 93.0176 39.685 91.1376 39.875C89.2376 40.075 87.2776 40.275 85.4176 40.275C83.1076 40.275 79.8976 39.535 79.8976 38.135C79.8976 36.735 82.0076 36.765 83.7076 36.765C85.5776 36.765 87.4576 37.025 89.2876 37.275C91.0476 37.515 92.8676 37.765 94.6076 37.765C97.3476 37.765 101.408 36.955 101.408 34.705C101.408 33.235 96.8176 32.295 93.6476 32.295C92.1276 32.295 90.5376 32.425 89.0076 32.545C87.4476 32.665 85.8376 32.795 84.2676 32.795C82.4176 32.795 76.3776 32.515 76.3776 28.935C76.3776 27.155 77.5076 25.065 80.6876 25.065C81.5376 25.065 82.4576 25.185 83.3476 25.305C84.2476 25.425 85.1676 25.545 86.0176 25.545C87.7776 25.545 88.8376 24.995 88.8376 24.745C88.7076 24.335 86.6076 23.245 83.9176 23.245C75.1176 23.245 73.3076 25.925 69.7076 31.265L68.9376 32.405C68.1076 33.615 66.2976 35.655 64.7376 35.655C63.0776 35.655 62.4776 33.365 62.4776 31.825C62.4776 26.725 66.1976 25.795 68.9176 25.115C71.1376 24.565 72.3876 24.175 72.3876 22.735C72.3576 22.675 72.2276 22.585 71.5976 22.585H70.8576C70.7676 22.585 70.5876 22.585 70.3476 22.565C69.8976 22.525 69.2176 22.475 68.5176 22.475C66.8976 22.475 65.2476 22.695 63.6476 22.905C62.0576 23.115 60.4176 23.325 58.8176 23.325C54.9876 23.325 51.1176 21.925 51.1176 18.795C51.1176 16.655 54.4576 15.005 57.3276 15.005C60.1976 15.005 63.4276 16.215 66.2776 17.285C68.6476 18.175 70.8876 19.005 72.4876 19.005C75.0176 19.005 77.9476 17.845 77.9476 16.335C77.9476 15.705 77.3076 14.075 74.3876 14.075C73.9776 14.075 73.5476 14.105 73.1076 14.145C73.3676 14.465 73.5176 14.815 73.5176 15.235C73.5176 16.505 71.2376 16.695 69.8876 16.695C69.3176 16.695 67.7076 16.435 65.2776 16.045C60.1676 15.215 52.4576 13.965 47.2076 13.965C40.0476 13.965 37.6576 17.675 37.6576 18.675C37.6576 19.375 38.2876 20.345 39.3176 20.345C39.8076 20.345 40.3376 20.115 40.9076 19.865C41.5176 19.595 42.1576 19.325 42.8176 19.325C44.2576 19.325 44.9876 20.105 44.9876 21.635C44.9876 27.145 42.7476 29.725 42.0476 30.405C42.1676 31.095 42.9276 31.265 44.4776 31.475C46.1576 31.705 48.4676 32.015 48.4676 34.555C48.4676 34.825 48.3776 35.065 48.1976 35.245C47.8176 35.625 47.1876 35.605 46.6276 35.605H46.4076C42.3676 35.605 36.9776 33.075 30.3876 28.085C30.2176 27.955 30.0776 27.855 29.9876 27.785C28.9676 27.885 27.9376 29.095 27.9376 30.855C27.9376 33.845 30.1976 35.365 34.6576 35.365C35.7076 35.365 36.8076 35.315 37.8576 35.255C38.9176 35.205 40.0176 35.145 41.0876 35.145C44.0776 35.145 50.0976 36.235 50.7076 39.545C53.4376 37.825 57.8276 36.935 62.1776 36.935C64.3476 36.935 66.1276 37.065 68.1876 37.215L69.0276 37.275C69.3076 37.295 69.5076 37.535 69.4876 37.805C69.4676 38.085 69.2076 38.285 68.9576 38.265L68.1176 38.205C66.0776 38.055 64.3076 37.925 62.1776 37.925C57.1376 37.925 52.9276 39.035 50.6776 40.765C50.4776 41.685 49.8676 42.475 49.0276 42.975C48.9576 43.225 48.9176 43.485 48.9176 43.755C48.9176 45.295 50.7276 47.585 54.6176 47.585C56.9876 47.585 59.5676 46.835 62.2976 46.045C65.7276 45.045 69.6176 43.925 74.1176 43.925V43.915ZM38.5576 37.065C42.8276 37.065 43.9576 39.165 44.7776 40.695C45.4176 41.895 45.8076 42.525 46.9876 42.525C47.3976 42.525 47.8176 42.435 48.1976 42.275C48.4976 41.515 49.0276 40.835 49.7376 40.235C49.7376 40.185 49.7376 40.145 49.7376 40.095C49.7376 37.515 44.6976 36.145 41.0676 36.145C40.0276 36.145 38.9376 36.195 37.8876 36.255C36.8176 36.305 35.7176 36.365 34.6376 36.365C29.6576 36.365 26.9176 34.405 26.9176 30.855C26.9176 28.335 28.5676 26.785 30.1076 26.785C30.2976 26.785 30.3276 26.805 30.9676 27.295C37.3776 32.145 42.5576 34.605 46.3776 34.605H46.6076C46.8676 34.605 47.3576 34.615 47.4676 34.535C47.4376 33.005 46.2576 32.735 44.3176 32.475C42.8376 32.275 40.9976 32.025 40.9976 30.205C40.9976 30.055 41.0676 29.905 41.1876 29.815C41.2076 29.795 43.5476 27.865 43.9076 22.955C43.8076 23.905 42.2676 25.225 40.1776 25.225C39.0376 25.225 37.7976 24.895 36.6076 24.585C35.3976 24.265 34.1576 23.935 32.9976 23.935C32.3976 23.935 31.4776 24.135 30.5176 25.065C30.3876 25.185 30.1376 25.285 29.9576 25.245C29.2176 25.105 28.3276 24.655 28.3276 23.255C28.3276 22.595 28.5176 21.855 28.7076 21.135C28.8676 20.505 29.0276 19.915 29.0276 19.465C29.0276 19.095 28.4876 18.905 27.9776 18.905C27.3476 18.955 18.5576 22.325 18.5576 29.185C18.5576 34.505 22.9576 38.825 28.3576 38.825C29.6776 38.825 31.1376 38.455 32.6876 38.055C34.5376 37.575 36.4576 37.085 38.5476 37.085L38.5576 37.065ZM83.6976 37.765C81.4976 37.765 80.9576 37.955 80.8876 38.125C81.0076 38.475 82.8476 39.275 85.4076 39.275C87.2176 39.275 89.1576 39.075 91.0276 38.875C91.6376 38.815 92.2476 38.745 92.8576 38.695C91.6076 38.605 90.3576 38.435 89.1376 38.265C87.3476 38.015 85.4976 37.765 83.6976 37.765ZM35.0376 23.135C35.6576 23.265 36.2776 23.425 36.8876 23.585C38.0676 23.895 39.1876 24.195 40.1976 24.195C41.9376 24.195 42.9076 23.085 42.9276 22.825C42.9276 22.415 42.2076 21.615 40.8976 21.615C39.8276 21.615 37.7576 22.285 36.3776 22.725C35.6476 22.965 35.2676 23.085 35.0276 23.125L35.0376 23.135ZM41.5376 20.675C42.9776 20.915 43.9276 21.925 43.9276 22.845C43.9276 22.855 43.9276 22.865 43.9276 22.875C43.9576 22.475 43.9676 22.065 43.9676 21.635C43.9676 20.765 43.7876 20.325 42.7976 20.325C42.4176 20.325 41.9876 20.485 41.5276 20.685L41.5376 20.675ZM49.4476 11.585C39.1376 11.585 33.5176 17.295 33.5176 20.225C33.5176 21.145 34.0576 22.165 34.8376 22.165C34.9576 22.145 35.5476 21.955 36.0776 21.785C36.7376 21.575 37.5076 21.325 38.2676 21.115C37.2876 20.665 36.6676 19.625 36.6676 18.675C36.6676 17.215 39.2676 12.965 47.2176 12.965C52.5476 12.965 60.3076 14.225 65.4476 15.055C67.6576 15.415 69.4076 15.695 69.8976 15.695C71.4076 15.695 72.4176 15.405 72.5376 15.205C72.5376 14.875 72.2576 14.575 71.7776 14.315C71.4976 14.355 71.2076 14.395 70.9176 14.445C69.6376 14.635 68.3076 14.825 67.0676 14.825C65.8976 14.825 64.3376 14.375 62.3476 13.795C59.1176 12.865 54.7076 11.585 49.4576 11.585H49.4476Z" fill="#273E53"/>
<path d="M53.8678 47.1352C52.6478 47.1352 51.7278 46.1652 51.7278 44.8852C51.7278 38.4552 63.8578 37.9652 68.4278 37.7752C69.0578 37.7452 69.5378 37.7352 69.7978 37.7052C70.0878 37.6852 70.2978 37.8552 70.3478 38.1052C70.3978 38.3552 70.2478 38.6152 69.9978 38.6852C65.8778 39.8652 63.6078 42.8852 63.5578 43.4552C63.5578 43.4952 63.5578 43.5652 63.5678 43.6352C64.8678 43.3752 66.2478 43.1152 67.6678 42.8952C67.7078 42.8352 67.7578 42.7852 67.8178 42.7452C69.1078 41.9352 71.1878 41.6252 73.3978 41.2852C76.6178 40.7952 79.9578 40.2952 80.1978 38.2652C80.2178 38.0752 80.3478 37.9152 80.5278 37.8552C80.7078 37.7952 80.9078 37.8352 81.0478 37.9652C82.4678 39.3352 84.2978 39.9452 86.9878 39.9452C88.0578 39.9452 89.1978 39.8552 90.2978 39.7652C91.4378 39.6752 92.6178 39.5752 93.7678 39.5752C96.4878 39.5752 102.438 40.6752 102.438 43.9452C102.438 45.2052 101.478 46.7052 96.8978 46.7052C93.7478 46.7052 91.2378 45.9252 88.5678 45.1052C85.3578 44.1152 82.0478 43.0852 76.9978 43.0852C66.3378 43.0852 54.1478 47.0452 54.0278 47.0852C53.9778 47.1052 53.9278 47.1052 53.8678 47.1052V47.1352ZM66.9878 38.8352C61.9978 39.0852 52.7278 39.9452 52.7278 44.8752C52.7278 45.4552 53.0578 46.0852 53.7878 46.1252C54.3678 45.9352 57.8778 44.8352 62.5778 43.8352C62.5578 43.6952 62.5578 43.5552 62.5578 43.4452C62.5578 42.5752 64.1878 40.3752 66.9878 38.8352ZM76.9878 42.1052C82.1878 42.1052 85.7278 43.1952 88.8478 44.1652C91.4378 44.9652 93.8878 45.7252 96.8778 45.7252C98.5778 45.7252 101.418 45.4952 101.418 43.9652C101.418 41.9052 96.8778 40.5952 93.7478 40.5952C92.6378 40.5952 91.4778 40.6852 90.3578 40.7752C89.2378 40.8652 88.0778 40.9552 86.9678 40.9552C85.1678 40.9552 82.9078 40.7452 80.9578 39.2252C80.0978 41.1652 77.1478 41.7252 74.1378 42.1852C75.0878 42.1252 76.0478 42.0952 76.9878 42.0952V42.1052Z" fill="#273E53"/>
<path d="M61.1276 44.7749C61.1276 44.7749 61.0776 44.7749 61.0576 44.7749C60.7876 44.7349 60.5976 44.4849 60.6276 44.2149C61.2376 39.8349 66.7876 38.4949 69.4676 37.8549C69.7376 37.7949 70.0076 37.9549 70.0676 38.2249C70.1276 38.4949 69.9676 38.7649 69.6976 38.8249C65.7676 39.7649 62.0676 41.0949 61.6176 44.3449C61.5876 44.5949 61.3676 44.7749 61.1276 44.7749Z" fill="#273E53"/>
<path d="M66.3976 43.965C66.3276 43.965 66.2476 43.945 66.1776 43.915C65.9576 43.805 65.8276 43.585 65.8276 43.325C65.8276 41.535 68.2376 41.205 71.2976 40.785C74.2576 40.385 77.9376 39.8749 79.6476 37.855C79.8276 37.645 80.1376 37.6149 80.3476 37.7949C80.5576 37.9749 80.5876 38.2849 80.4076 38.4949C78.4576 40.8049 74.5576 41.3449 71.4276 41.7649C69.2476 42.0649 66.9976 42.375 66.8276 43.215C66.9076 43.355 66.9076 43.5249 66.8376 43.6749C66.7476 43.8549 66.5776 43.9549 66.3876 43.9549L66.3976 43.965Z" fill="#273E53"/>
<path d="M95.9876 45.5748C95.8676 45.5748 82.5076 43.3548 82.0776 42.8548C82.0376 42.8048 82.0076 42.7448 81.9876 42.6948C81.8576 42.6848 81.7276 42.6648 81.5976 42.6548C79.5976 42.4348 78.0676 42.4548 76.8076 42.9948C76.5576 43.1048 76.2576 42.9948 76.1476 42.7348C76.0376 42.4848 76.1476 42.1848 76.4076 42.0748C77.8476 41.4548 79.6476 41.4348 81.6976 41.6548C82.5976 41.7548 83.6276 41.8648 84.8276 41.8648C86.8876 41.8648 89.1376 41.1748 91.5176 39.8248C91.7776 39.6748 91.8476 39.6348 91.9976 39.6348C92.5876 39.6348 99.5976 41.5548 99.5976 43.4348C99.5976 44.9048 97.7176 45.5748 95.9776 45.5748H95.9876ZM86.0076 42.7948C89.8076 43.5248 95.5476 44.5448 96.0076 44.5748C97.0476 44.5748 98.6076 44.2148 98.6076 43.4348C98.4276 42.6348 93.2876 40.7648 92.1076 40.6348C92.0776 40.6548 92.0476 40.6648 92.0176 40.6848C89.9176 41.8748 87.9076 42.5848 86.0076 42.7948Z" fill="#273E53"/>
<path d="M88.8477 51.8551C79.4177 51.8551 67.9577 46.7651 66.7177 46.2051C66.4777 46.2151 66.2277 46.2651 65.9677 46.3151C65.8277 46.3451 65.6777 46.3751 65.5377 46.3951C65.2577 46.4351 65.0077 46.2551 64.9677 45.9751C64.9277 45.7051 65.1177 45.4451 65.3877 45.4051C65.5177 45.3851 65.6477 45.3651 65.7777 45.3351C66.1077 45.2751 66.4577 45.2051 66.8277 45.2051C66.8977 45.2051 66.9777 45.2251 67.0377 45.2551C67.1577 45.3151 79.1477 50.8551 88.8477 50.8551C94.2277 50.8551 98.1477 49.8251 101.198 47.6251C101.418 47.4651 101.738 47.5151 101.898 47.7351C102.058 47.9551 102.008 48.2751 101.788 48.4351C98.5577 50.7651 94.4477 51.8551 88.8477 51.8551Z" fill="#273E53"/>
<path d="M89.6778 51.1748C83.5678 51.1748 78.5178 49.3948 74.4678 47.9648C71.3778 46.8748 68.7678 45.9648 66.4678 46.0448C66.1478 46.0348 65.9578 45.8348 65.9478 45.5648C65.9478 45.2848 66.1578 45.0548 66.4278 45.0448C68.9078 44.9648 71.6078 45.8948 74.7878 47.0148C78.9778 48.4948 83.7378 50.1648 89.6678 50.1648C92.9978 50.1648 95.9478 49.5548 98.6978 48.3048C98.9478 48.1948 99.2478 48.3048 99.3578 48.5548C99.4678 48.8048 99.3578 49.1048 99.1078 49.2148C96.2278 50.5248 93.1378 51.1648 89.6678 51.1648L89.6778 51.1748Z" fill="#273E53"/>
<path d="M93.1377 50.1348C85.3977 50.1348 81.0577 48.3948 77.5677 46.9948C75.3577 46.1048 73.6077 45.4048 71.6077 45.4048C70.8477 45.4048 70.1077 45.4948 69.4077 45.6848C69.1377 45.7548 68.8677 45.5948 68.7977 45.3248C68.7277 45.0548 68.8877 44.7848 69.1577 44.7148C69.9477 44.5048 70.7677 44.4048 71.6177 44.4048C73.8177 44.4048 75.7277 45.1748 77.9477 46.0648C81.3577 47.4348 85.6077 49.1348 93.1477 49.1348C94.6777 49.1348 96.2177 49.0448 97.7277 48.8648C97.9977 48.8348 98.2477 49.0248 98.2777 49.3048C98.3077 49.5748 98.1177 49.8248 97.8377 49.8648C96.2877 50.0448 94.7177 50.1348 93.1377 50.1348Z" fill="#273E53"/>
<path d="M92.7577 43.975C90.4877 43.895 86.4977 43.315 86.0477 43.245C85.9577 43.245 85.8077 43.255 85.6577 43.265C85.4977 43.265 85.3377 43.285 85.1777 43.285C84.8977 43.285 84.6777 43.065 84.6777 42.785C84.6777 42.505 84.8977 42.285 85.1777 42.285C85.3177 42.285 85.4577 42.285 85.6077 42.275C85.7777 42.275 85.9377 42.255 86.1077 42.255C86.6377 42.325 90.5777 42.905 92.7277 42.985C93.1477 42.985 93.5477 42.645 93.5477 42.305C93.5477 41.845 92.8777 41.385 91.7277 41.045C91.4577 40.965 91.3077 40.685 91.3877 40.425C91.4677 40.155 91.7477 40.005 92.0077 40.085C93.6977 40.585 94.5477 41.325 94.5477 42.305C94.5477 43.205 93.7077 43.985 92.7477 43.985L92.7577 43.975Z" fill="#273E53"/>
<path d="M121.298 51.0652C115.788 51.0652 112.778 48.0752 109.858 45.1852C106.868 42.2252 103.778 39.1552 97.8475 39.1552C97.4075 39.1552 96.9675 39.1752 96.5275 39.2152C96.3175 39.2352 96.1175 39.1152 96.0275 38.9352C95.9375 38.7452 95.9776 38.5252 96.1176 38.3752C96.1776 38.2452 96.2876 38.1352 96.4376 38.0952C97.7176 37.7252 99.0476 37.5352 100.398 37.5352C106.178 37.5352 109.278 40.5452 111.998 43.1952C114.368 45.5052 116.618 47.6852 120.338 47.6852C124.058 47.6852 126.578 45.1352 128.098 43.6052C129.048 42.6552 129.618 42.0752 130.238 42.3352C130.778 42.5552 130.888 43.2852 130.888 44.3852C130.888 47.4152 126.608 51.0752 121.288 51.0752L121.298 51.0652ZM101.568 38.5752C105.588 39.5452 108.108 42.0452 110.558 44.4752C113.458 47.3552 116.198 50.0652 121.298 50.0652C125.928 50.0652 129.898 46.9352 129.898 44.3752C129.898 43.8152 129.858 43.5152 129.828 43.3552C129.578 43.5352 129.158 43.9552 128.808 44.3052C127.178 45.9452 124.448 48.6852 120.338 48.6852C116.228 48.6852 113.818 46.3652 111.298 43.9052C108.788 41.4552 106.188 38.9352 101.558 38.5752H101.568Z" fill="#273E53"/>
<path d="M125.858 44.125C120.358 44.125 110.508 37.585 110.508 31.145C110.508 28.695 112.018 27.205 113.358 25.895C114.398 24.865 115.308 23.985 115.308 22.835C115.308 20.835 112.998 19.595 110.858 19.595C108.718 19.595 106.248 20.655 104.128 21.595L103.358 21.935C103.108 22.045 102.808 21.935 102.698 21.675C102.588 21.425 102.698 21.125 102.958 21.015L103.718 20.675C105.928 19.695 108.428 18.585 110.848 18.585C113.528 18.585 116.298 20.175 116.298 22.825C116.298 24.385 115.208 25.465 114.048 26.595C112.798 27.825 111.498 29.105 111.498 31.135C111.498 36.575 120.318 43.115 125.848 43.115C126.938 43.115 128.278 42.785 129.848 42.135C130.088 42.035 130.168 42.015 130.308 42.055C130.418 42.085 132.968 42.725 135.288 42.725C141.938 42.725 152.208 38.265 152.208 32.325C152.208 30.565 151.508 29.105 150.128 27.985C146.408 24.985 138.858 25.155 136.908 25.325C136.878 25.355 136.838 25.385 136.788 25.405C136.648 25.475 136.478 25.475 136.348 25.405C136.338 25.405 136.318 25.405 136.318 25.405C136.058 25.385 135.848 25.155 135.848 24.905C135.848 24.455 135.848 24.255 139.088 24.255C141.458 24.255 144.898 24.485 147.818 25.595C151.388 26.945 153.208 29.215 153.208 32.325C153.208 39.395 141.608 43.725 135.288 43.725C133.128 43.725 130.858 43.215 130.218 43.055C128.528 43.755 127.058 44.105 125.848 44.105L125.858 44.125Z" fill="#273E53"/>
<path d="M130.828 42.9248C130.638 42.9248 130.458 42.8148 130.378 42.6348C130.258 42.3848 130.378 42.0848 130.618 41.9748C131.048 41.7748 131.908 41.6748 133.518 41.5148C138.728 40.9748 149.568 39.8448 149.568 31.7748C149.568 28.8348 147.118 28.3648 143.138 27.8348C140.578 27.4948 137.938 27.1448 136.078 25.6748C135.858 25.5048 135.828 25.1848 135.998 24.9748C136.168 24.7548 136.488 24.7248 136.698 24.8948C138.338 26.1948 140.848 26.5248 143.268 26.8448C146.858 27.3148 150.568 27.8048 150.568 31.7748C150.568 40.7548 139.118 41.9448 133.618 42.5148C132.448 42.6348 131.338 42.7548 131.038 42.8948C130.968 42.9248 130.898 42.9448 130.828 42.9448V42.9248Z" fill="#273E53"/>
<path d="M132.408 42.4052C132.298 42.4052 132.188 42.3652 132.098 42.2952C131.878 42.1252 131.848 41.7952 132.018 41.5752C132.318 41.1752 133.068 41.0052 135.198 40.5652C139.358 39.7052 147.108 38.1052 147.108 33.3352C147.108 30.5152 144.048 29.4952 141.098 28.5152C139.948 28.1252 138.858 27.7652 137.978 27.3052C137.738 27.1752 137.638 26.8752 137.768 26.6252C137.898 26.3852 138.198 26.2952 138.448 26.4152C139.248 26.8452 140.298 27.1952 141.408 27.5652C144.548 28.6152 148.098 29.8052 148.098 33.3352C148.098 38.9152 139.828 40.6252 135.388 41.5452C134.268 41.7752 132.998 42.0352 132.778 42.2052C132.688 42.3352 132.548 42.3952 132.408 42.3952V42.4052Z" fill="#273E53"/>
<path d="M134.498 41.3448C134.358 41.3448 134.218 41.2848 134.118 41.1748C133.938 40.9648 133.958 40.6548 134.168 40.4748C134.988 39.7748 136.058 39.2048 137.198 38.6148C139.618 37.3448 142.118 36.0448 142.118 33.3348C142.118 31.1148 139.958 29.1348 138.148 27.8648C137.918 27.7048 137.868 27.3948 138.028 27.1648C138.188 26.9348 138.498 26.8848 138.728 27.0448C141.608 29.0548 143.128 31.2348 143.128 33.3348C143.128 36.6448 140.228 38.1648 137.678 39.4948C136.588 40.0648 135.568 40.6048 134.828 41.2248C134.738 41.3048 134.618 41.3448 134.498 41.3448Z" fill="#273E53"/>
<path d="M149.568 48.1348C149.338 48.1348 149.138 47.9748 149.078 47.7448C149.018 47.4748 149.188 47.2048 149.458 47.1448C150.758 46.8448 152.088 46.5748 153.438 46.3048C161.278 44.7148 169.388 43.0648 174.028 35.7148C174.308 35.2648 174.448 34.7948 174.448 34.2648C174.448 33.3448 174.028 32.4048 173.608 31.6048C173.478 31.3548 173.578 31.0548 173.818 30.9348C174.058 30.8048 174.368 30.9048 174.488 31.1448C174.958 32.0548 175.438 33.1348 175.438 34.2648C175.438 34.9748 175.248 35.6448 174.858 36.2548C169.988 43.9648 161.668 45.6548 153.618 47.2848C152.288 47.5548 150.958 47.8248 149.668 48.1148C149.628 48.1148 149.588 48.1248 149.558 48.1248L149.568 48.1348Z" fill="#273E53"/>
<path d="M171.618 28.405C171.438 28.405 171.268 28.305 171.178 28.135C169.998 25.915 167.888 24.025 165.538 23.055C165.278 22.955 165.158 22.655 165.268 22.405C165.368 22.145 165.668 22.025 165.918 22.135C168.488 23.185 170.788 25.255 172.068 27.665C172.198 27.905 172.108 28.215 171.858 28.345C171.788 28.385 171.708 28.405 171.628 28.405H171.618Z" fill="#273E53"/>
<path d="M167.358 40.895C167.188 40.895 167.018 40.805 166.928 40.645C166.788 40.405 166.878 40.095 167.118 39.965C169.328 38.705 171.078 36.605 171.688 34.465C171.768 34.195 172.038 34.045 172.308 34.125C172.578 34.205 172.728 34.475 172.648 34.745C171.958 37.165 170.068 39.435 167.608 40.845C167.528 40.885 167.448 40.915 167.358 40.915V40.895Z" fill="#273E53"/>
<path d="M144.658 25.7451C144.488 25.7451 144.328 25.6651 144.238 25.5151C143.048 23.6451 141.288 23.1551 137.028 21.9851C135.268 21.5051 133.088 20.8951 130.368 20.0351C130.108 19.9551 129.958 19.6751 130.038 19.4051C130.118 19.1351 130.408 18.9951 130.668 19.0751C133.378 19.9251 135.548 20.5251 137.298 21.0151C141.688 22.2251 143.688 22.7751 145.078 24.9751C145.228 25.2051 145.158 25.5151 144.928 25.6651C144.848 25.7151 144.748 25.7451 144.658 25.7451Z" fill="#273E53"/>
<path d="M152.328 35.1951C152.188 35.1951 152.048 35.1351 151.958 35.0251C151.798 34.8451 151.788 34.5851 151.938 34.3951C153.178 32.7651 153.918 30.7151 153.918 28.9051C153.918 22.8951 146.918 22.3551 140.158 21.8351C139.368 21.7751 138.578 21.7151 137.818 21.6451C137.688 21.6351 137.578 21.5751 137.498 21.4951C137.338 21.4951 137.188 21.4951 137.028 21.4951C134.888 21.4951 133.078 20.9951 131.508 19.9751C131.278 19.8251 131.208 19.5151 131.358 19.2851C131.508 19.0551 131.818 18.9851 132.048 19.1351C133.448 20.0451 135.078 20.4951 137.028 20.4951C139.068 20.4951 140.978 20.0651 142.828 19.6451C144.398 19.2851 145.878 18.9551 147.238 18.9551C152.618 18.9551 158.418 22.6651 158.418 28.6751C158.418 32.0851 156.308 33.1751 154.068 34.3351C153.578 34.5851 153.078 34.8451 152.588 35.1351C152.508 35.1851 152.418 35.2051 152.338 35.2051L152.328 35.1951ZM141.578 20.9451C148.088 21.4751 154.908 22.4251 154.908 28.9051C154.908 30.3651 154.498 31.9251 153.758 33.3551C155.808 32.2951 157.408 31.3951 157.408 28.6651C157.408 23.4551 152.148 19.9451 147.228 19.9451C145.978 19.9451 144.548 20.2751 143.038 20.6151C142.558 20.7251 142.068 20.8351 141.568 20.9451H141.578Z" fill="#273E53"/>
<path d="M145.848 41.145C145.628 41.145 145.438 41.005 145.368 40.785C145.288 40.525 145.438 40.245 145.708 40.165C146.098 40.045 146.698 39.905 147.428 39.735C151.838 38.705 161.018 36.565 161.018 31.215C161.018 29.285 158.558 28.025 157.808 27.685C157.558 27.575 157.448 27.275 157.558 27.025C157.668 26.775 157.968 26.665 158.218 26.775C159.358 27.295 162.018 28.755 162.018 31.215C162.018 37.355 152.318 39.625 147.658 40.715C146.948 40.885 146.378 41.015 145.998 41.125C145.948 41.135 145.898 41.145 145.858 41.145H145.848Z" fill="#273E53"/>
<path d="M145.518 41.2152C145.288 41.2152 145.078 41.0552 145.028 40.8252C144.968 40.5552 145.138 40.2852 145.408 40.2252C146.888 39.8952 148.808 39.7452 150.848 39.5852C157.348 39.0852 165.438 38.4652 165.438 31.3352C165.438 28.1052 163.518 26.3252 160.028 26.3252C159.358 26.3252 158.648 26.3952 157.988 26.5352C157.718 26.5952 157.448 26.4152 157.398 26.1452C157.338 25.8752 157.518 25.6052 157.788 25.5552C158.518 25.4052 159.298 25.3252 160.038 25.3252C164.058 25.3252 166.448 27.5752 166.448 31.3352C166.448 39.3952 157.478 40.0852 150.938 40.5852C148.938 40.7352 147.048 40.8852 145.648 41.2052C145.608 41.2052 145.578 41.2152 145.538 41.2152H145.518Z" fill="#273E53"/>
<path d="M113.918 37.9752C113.818 37.9752 113.718 37.9452 113.628 37.8852C110.468 35.6252 108.578 32.4152 108.578 29.2852C108.578 27.3552 109.728 26.1252 110.658 25.1352C111.318 24.4252 111.898 23.8052 111.898 23.1452C111.898 21.5952 109.938 21.3652 108.778 21.3652C107.348 21.3652 105.888 21.7452 104.478 22.1052C104.128 22.1952 103.778 22.2852 103.428 22.3752C103.158 22.4452 102.888 22.2752 102.828 22.0052C102.758 21.7352 102.928 21.4652 103.198 21.4052C103.538 21.3252 103.888 21.2352 104.238 21.1452C105.708 20.7652 107.238 20.3652 108.788 20.3652C112.508 20.3652 112.908 22.3152 112.908 23.1452C112.908 24.2052 112.178 24.9852 111.408 25.8152C110.518 26.7652 109.598 27.7552 109.598 29.2852C109.598 32.0952 111.328 35.0052 114.228 37.0752C114.448 37.2352 114.508 37.5452 114.348 37.7752C114.248 37.9152 114.098 37.9852 113.938 37.9852L113.918 37.9752Z" fill="#273E53"/>
<path d="M117.008 36.4651C116.808 36.4651 116.618 36.3451 116.538 36.1451C116.198 35.2751 116.018 34.2851 116.018 33.3051C116.018 30.8551 117.158 29.0851 118.158 27.5251C119.028 26.1651 119.788 24.9951 119.788 23.5651C119.788 21.2751 116.088 18.2251 113.298 18.2251C112.948 18.2251 112.598 18.2651 112.248 18.3351C111.978 18.3951 111.708 18.2151 111.658 17.9451C111.598 17.6751 111.778 17.4051 112.048 17.3551C112.468 17.2651 112.888 17.2251 113.308 17.2251C116.668 17.2251 120.798 20.7151 120.798 23.5651C120.798 25.2851 119.928 26.6351 119.008 28.0651C118.028 29.5851 117.028 31.1551 117.028 33.3051C117.028 34.1651 117.188 35.0251 117.488 35.7851C117.588 36.0451 117.458 36.3351 117.208 36.4351C117.148 36.4551 117.088 36.4651 117.028 36.4651H117.008Z" fill="#273E53"/>
<path d="M117.368 35.9852C117.368 35.9852 117.288 35.9852 117.248 35.9652C116.978 35.8952 116.818 35.6252 116.888 35.3552C117.108 34.4952 118.148 33.5652 119.468 32.3852C121.598 30.4852 124.508 27.8952 124.508 24.7952C124.508 22.3552 121.988 17.8052 115.928 17.8052C115.328 17.8052 114.708 17.8452 114.068 17.9252C113.798 17.9652 113.548 17.7652 113.508 17.4952C113.468 17.2252 113.668 16.9752 113.938 16.9352C114.608 16.8452 115.278 16.8052 115.918 16.8052C122.168 16.8052 125.498 21.4452 125.498 24.7952C125.498 28.3352 122.388 31.1052 120.128 33.1252C119.028 34.1052 117.998 35.0252 117.858 35.5852C117.798 35.8152 117.598 35.9652 117.368 35.9652V35.9852Z" fill="#273E53"/>
<path d="M130.998 24.7248C128.658 24.7248 126.998 23.0148 125.238 21.2048C123.248 19.1648 121.198 17.0548 117.938 17.0548C117.398 17.0548 116.848 17.1248 116.298 17.2648C116.168 17.3048 116.038 17.2748 115.928 17.2148C115.618 17.3048 115.298 17.4248 114.988 17.5648C114.738 17.6748 114.438 17.5648 114.328 17.3148C114.218 17.0648 114.328 16.7648 114.578 16.6548C115.688 16.1648 116.778 15.9248 117.918 15.9248C120.828 15.9248 123.868 17.7448 126.318 19.2048C127.868 20.1348 129.328 21.0048 130.138 21.0048C130.618 21.0048 131.118 20.8148 131.638 20.6248C132.018 20.4848 132.398 20.3348 132.788 20.2648C132.818 20.2648 132.918 20.2548 132.948 20.2548C133.678 20.2548 134.398 21.2348 134.398 22.2348C134.398 23.7248 132.638 24.7348 130.988 24.7348L130.998 24.7248ZM125.108 19.6448C125.398 19.9348 125.678 20.2248 125.958 20.5048C127.638 22.2248 129.088 23.7148 130.998 23.7148C132.108 23.7148 133.408 23.0648 133.408 22.2148C133.408 21.7148 133.068 21.2748 132.938 21.2348C132.678 21.2948 132.348 21.4148 131.998 21.5548C131.418 21.7748 130.808 22.0048 130.138 22.0048C129.058 22.0048 127.618 21.1448 125.808 20.0648C125.578 19.9248 125.348 19.7848 125.098 19.6448H125.108Z" fill="#273E53"/>
<path d="M115.718 17.025C115.668 17.025 115.608 17.025 115.548 16.995C115.288 16.905 115.148 16.615 115.238 16.355C116.598 12.495 120.548 9.89502 125.078 9.89502C129.338 9.89502 133.368 12.395 133.368 15.035C133.368 15.595 133.188 16.125 132.828 16.615C132.668 16.835 132.348 16.885 132.128 16.725C131.908 16.565 131.858 16.245 132.018 16.025C132.248 15.705 132.368 15.385 132.368 15.035C132.368 13.175 128.998 10.895 125.078 10.895C121.158 10.895 117.398 13.225 116.178 16.685C116.108 16.895 115.908 17.015 115.708 17.015L115.718 17.025Z" fill="#273E53"/>
<path d="M131.148 17.8752C131.148 17.8752 131.108 17.8752 131.078 17.8752C130.808 17.8352 130.608 17.5852 130.648 17.3152C130.678 17.0952 130.688 16.8752 130.688 16.6452C130.688 12.8852 126.518 12.5952 125.238 12.5952C122.238 12.5952 118.858 14.2352 116.408 16.8652C116.218 17.0652 115.908 17.0752 115.698 16.8952C115.498 16.7052 115.488 16.3952 115.668 16.1852C118.298 13.3552 121.958 11.5952 125.228 11.5952C128.498 11.5952 131.678 12.9252 131.678 16.6452C131.678 16.9152 131.658 17.1852 131.628 17.4452C131.598 17.6952 131.378 17.8852 131.128 17.8852L131.148 17.8752Z" fill="#273E53"/>
<path d="M128.958 16.9652C128.848 16.9652 128.748 16.9352 128.658 16.8652C127.178 15.7252 125.238 15.1252 123.048 15.1252C120.858 15.1252 118.558 15.7652 116.788 16.8752C116.558 17.0252 116.248 16.9552 116.098 16.7152C115.948 16.4852 116.018 16.1752 116.258 16.0252C118.188 14.8152 120.658 14.1152 123.048 14.1152C125.438 14.1152 127.618 14.7852 129.268 16.0652C129.488 16.2352 129.528 16.5452 129.358 16.7652C129.258 16.8952 129.108 16.9652 128.958 16.9652Z" fill="#273E53"/>
<path d="M100.778 38.0349C100.618 38.0349 100.468 37.9649 100.378 37.8249C100.228 37.6249 100.258 37.3349 100.438 37.1649C102.298 35.4349 104.288 33.3849 104.288 30.7649C104.288 29.7649 103.968 29.1549 103.338 28.9549C103.078 28.8749 102.928 28.5949 103.008 28.3249C103.088 28.0549 103.378 27.9149 103.638 27.9949C104.698 28.3349 105.288 29.3149 105.288 30.7649C105.288 32.4949 104.578 33.9749 103.588 35.2749C105.438 34.0049 107.048 32.3849 107.048 30.1449C107.048 28.6749 106.118 27.1549 104.668 26.2649C104.478 26.1449 104.388 25.9149 104.448 25.7049C104.548 25.3649 105.018 25.2449 105.278 25.4749C106.958 26.5449 108.038 28.3749 108.038 30.1549C108.038 34.0549 104.038 36.2849 101.388 37.7649L100.998 37.9849C100.918 38.0249 100.838 38.0449 100.748 38.0449L100.778 38.0349Z" fill="#273E53"/>
<path d="M101.438 36.585C101.358 36.585 101.278 36.565 101.198 36.525C100.958 36.395 100.868 36.095 100.998 35.845C101.268 35.345 101.598 34.725 101.598 34.205C101.598 31.425 94.6977 30.095 89.7977 30.045C89.2077 30.045 88.5477 30.175 87.8377 30.305C87.0577 30.455 86.2577 30.605 85.5077 30.605C84.2477 30.605 83.4177 30.155 82.9477 29.235C82.9177 29.165 82.8877 29.055 82.8877 28.985C82.8877 28.465 83.3977 28.145 86.0077 26.705C87.1777 26.055 88.5077 25.325 89.0877 24.865C89.3077 24.695 89.6177 24.725 89.7877 24.945C89.9577 25.165 89.9277 25.475 89.7077 25.645C89.0577 26.165 87.7477 26.885 86.4877 27.585C85.6077 28.075 84.4477 28.715 83.9877 29.045C84.2977 29.435 84.7677 29.615 85.4877 29.615C86.1377 29.615 86.8977 29.475 87.6277 29.335C88.3877 29.195 89.0977 29.055 89.7477 29.055C94.2177 29.105 102.588 30.245 102.588 34.215C102.588 34.995 102.188 35.735 101.868 36.325C101.778 36.495 101.608 36.585 101.428 36.585H101.438Z" fill="#273E53"/>
<path d="M94.4377 38.635C94.1877 38.625 94.1077 38.565 93.9977 38.475C92.6077 37.445 88.9877 35.065 85.2777 35.065C83.3677 35.065 81.2577 35.475 79.0177 36.295C78.7577 36.385 78.4677 36.255 78.3777 35.995C78.2877 35.735 78.4177 35.445 78.6777 35.355C81.0277 34.505 83.2577 34.065 85.2777 34.065C89.2177 34.065 92.9977 36.505 94.5177 37.615C94.7777 37.525 94.8477 37.095 94.8477 36.865C94.8477 34.395 90.4777 34.205 85.8477 34.005C80.1277 33.755 73.6477 33.475 73.6477 28.485C73.6477 25.275 79.1477 24.085 82.6177 24.085C84.0477 24.085 85.4977 24.205 86.8977 24.325C87.6177 24.385 88.3377 24.445 89.0577 24.485C89.3377 24.505 89.5477 24.735 89.5277 25.015C89.5077 25.285 89.2677 25.495 88.9977 25.485C88.2777 25.445 87.5477 25.375 86.8177 25.315C85.4377 25.195 84.0077 25.075 82.6177 25.075C79.2777 25.075 74.6477 26.255 74.6477 28.475C74.6477 32.505 80.3577 32.755 85.8877 32.995C91.0077 33.215 95.8477 33.435 95.8477 36.855C95.8477 37.895 95.2677 38.625 94.4377 38.625V38.635Z" fill="#273E53"/>
<path d="M66.6977 32.3548C65.3477 32.3548 65.3477 31.3448 65.3477 30.8548C65.3477 28.2048 67.5677 26.9048 69.5177 25.7548C70.4577 25.2048 71.3477 24.6748 72.0077 24.0348C72.2077 23.8448 72.5177 23.8448 72.7177 24.0448C72.9077 24.2448 72.9077 24.5548 72.7177 24.7548C71.9677 25.4748 70.9877 26.0548 70.0377 26.6148C68.1477 27.7248 66.3577 28.7848 66.3577 30.8548C66.3577 31.1948 66.3877 31.2848 66.4077 31.3148C66.4077 31.3148 66.4677 31.3548 66.7077 31.3548C67.0877 31.3548 67.7077 30.6948 68.3077 30.0548C68.9977 29.3148 69.7777 28.4848 70.7677 27.8948C70.9977 27.7548 71.3077 27.8348 71.4477 28.0748C71.5877 28.3148 71.5077 28.6148 71.2677 28.7648C70.3977 29.2748 69.6777 30.0548 69.0277 30.7448C68.2177 31.6148 67.5177 32.3648 66.6977 32.3648V32.3548Z" fill="#273E53"/>
<path d="M50.8878 39.9552C50.7978 39.9552 50.7078 39.9352 50.6278 39.8852C50.3878 39.7452 50.3178 39.4352 50.4578 39.1952C51.8278 36.9252 54.3378 35.8352 56.5578 34.8752C59.3178 33.6752 61.6978 32.6452 61.6978 29.8052C61.6978 29.7052 61.6978 29.6152 61.6978 29.5152C61.6778 29.2352 61.8878 29.0052 62.1678 28.9852C62.4378 28.9752 62.6778 29.1752 62.6978 29.4552C62.6978 29.5752 62.7078 29.6952 62.7078 29.8052C62.7078 33.3052 59.7878 34.5752 56.9678 35.7952C54.7878 36.7452 52.5278 37.7252 51.3178 39.7152C51.2278 39.8752 51.0578 39.9552 50.8878 39.9552Z" fill="#273E53"/>
<path d="M72.7076 22.7648C72.6476 22.7648 72.5876 22.7648 72.5376 22.7348C71.0076 22.1748 65.3676 21.5648 61.2476 21.1148C57.641 20.7215 55.8376 20.3348 55.8376 19.9548C55.8376 17.4748 62.3376 17.4448 62.4076 17.4448C64.9876 17.4448 66.3976 17.8648 67.8976 18.3048C69.0876 18.6548 70.3276 19.0148 72.2876 19.2048C72.5576 19.2348 72.7676 19.4748 72.7376 19.7448C72.7076 20.0248 72.4576 20.2348 72.1876 20.1948C70.1376 19.9948 68.8576 19.6248 67.6176 19.2548C66.1876 18.8348 64.8376 18.4348 62.4076 18.4348C60.2676 18.4348 57.7276 18.9448 57.0276 19.5948C57.8676 19.7248 59.6376 19.9148 61.3576 20.1048C65.7576 20.5848 71.2376 21.1848 72.8776 21.7848C73.1376 21.8748 73.2676 22.1648 73.1776 22.4248C73.1076 22.6248 72.9076 22.7548 72.7076 22.7548V22.7648Z" fill="#273E53"/>
<path d="M74.2177 25.4148C73.9677 25.4148 73.7577 25.2348 73.7277 24.9848C73.6977 24.7748 73.6877 24.5748 73.6877 24.3748C73.6877 22.3648 75.0277 21.0048 76.2077 19.8148C77.0777 18.9348 77.8277 18.1848 77.8277 17.3948C77.7977 17.1248 77.9977 16.8248 78.2777 16.7948C78.5577 16.7648 78.7977 16.9148 78.8177 17.1948C78.8177 17.2648 78.8177 17.3248 78.8177 17.3948C78.8177 18.5848 77.8877 19.5248 76.9077 20.5148C75.8077 21.6248 74.6677 22.7748 74.6677 24.3748C74.6677 24.5248 74.6777 24.6848 74.6977 24.8448C74.7377 25.1148 74.5477 25.3748 74.2677 25.4048C74.2477 25.4048 74.2177 25.4048 74.1977 25.4048L74.2177 25.4148Z" fill="#273E53"/>
<path d="M74.0776 25.2148C73.9576 25.2148 73.8376 25.1748 73.7476 25.0948C73.5376 24.9148 73.5176 24.5948 73.6976 24.3848C76.1076 21.6448 78.9276 21.2348 81.4176 20.8648C83.1276 20.6148 84.7476 20.3748 86.1376 19.4548C86.3676 19.3048 86.6776 19.3648 86.8276 19.5948C86.9776 19.8248 86.9176 20.1348 86.6876 20.2848C85.1176 21.3348 83.3076 21.5948 81.5676 21.8548C79.1376 22.2148 76.6176 22.5848 74.4576 25.0448C74.3576 25.1548 74.2176 25.2148 74.0776 25.2148Z" fill="#273E53"/>
<path d="M44.3478 23.9649C44.3478 23.9649 44.3078 23.9649 44.2978 23.9649C44.0278 23.9349 43.8278 23.6949 43.8578 23.4149C43.9078 22.9649 44.0078 22.5149 44.1078 22.0849C44.2378 21.5249 44.3578 20.9949 44.3578 20.4849C44.3578 19.7449 43.7978 19.0149 43.4278 18.5249C43.1478 18.1549 42.9778 17.9349 42.9778 17.6649C42.9778 16.5949 45.7378 13.4849 50.9978 13.4849C53.7278 13.4849 56.5978 14.2049 58.7878 14.8249C59.0578 14.9049 59.2078 15.1749 59.1278 15.4449C59.0478 15.7149 58.7778 15.8649 58.5078 15.7849C56.3778 15.1749 53.5878 14.4849 50.9878 14.4849C46.4378 14.4849 44.1978 17.0049 43.9778 17.6149C44.0278 17.6949 44.1278 17.8149 44.2078 17.9249C44.6378 18.4849 45.3478 19.4149 45.3478 20.4949C45.3478 21.1249 45.2078 21.7349 45.0678 22.3249C44.9678 22.7449 44.8778 23.1349 44.8378 23.5249C44.8078 23.7849 44.5978 23.9749 44.3378 23.9749L44.3478 23.9649Z" fill="#273E53"/>
<path d="M72.4278 14.2351C72.2278 14.2351 72.0378 14.1151 71.9578 13.9151C70.6878 10.5551 66.9178 10.4151 63.8878 10.2951C61.7778 10.2151 59.9478 10.1451 59.9478 8.67506C59.9478 7.28506 62.4578 6.68506 63.7378 6.68506C65.0178 6.68506 66.2378 7.03506 67.4378 7.37506C68.3178 7.62506 69.1378 7.85506 69.9778 7.96506C70.2478 8.00506 70.4478 8.25506 70.4078 8.52506C70.3678 8.79506 70.1078 8.98506 69.8478 8.95506C68.9378 8.83506 68.0378 8.58506 67.1678 8.33506C65.9778 8.00506 64.8578 7.68506 63.7378 7.68506C62.4678 7.68506 60.9478 8.29506 60.9478 8.67506C60.9478 9.17506 62.4578 9.23506 63.9178 9.29506C67.0678 9.41506 71.3778 9.58506 72.8878 13.5551C72.9878 13.8151 72.8578 14.1051 72.5978 14.2051C72.5378 14.2251 72.4778 14.2351 72.4178 14.2351H72.4278Z" fill="#273E53"/>
<path d="M78.4778 17.4652C78.3078 17.4652 78.1478 17.3752 78.0678 17.2152C77.9878 17.0552 77.9478 16.8752 77.9478 16.7052C77.9478 16.4252 78.0578 16.3452 78.6578 15.9152C80.1478 14.8552 84.6878 11.6452 84.6878 8.69524C84.6878 8.14524 84.4178 7.45524 83.9578 7.45524C83.6878 7.49524 83.3878 7.30524 83.3478 7.03524C83.3078 6.76524 83.4578 6.51524 83.7278 6.47524C85.0778 6.28524 85.6678 7.66524 85.6878 8.60524C85.6878 11.8052 82.0078 14.7752 79.2378 16.7352C79.1478 16.7952 79.0678 16.8552 78.9978 16.9052C79.0078 17.1052 78.9178 17.3252 78.7278 17.4152C78.6478 17.4552 78.5578 17.4752 78.4778 17.4752V17.4652Z" fill="#273E53"/>
<path d="M93.5976 16.8252C93.4876 16.8252 93.3776 16.7852 93.2876 16.7152C93.0676 16.5452 93.0376 16.2252 93.2076 16.0152C93.6876 15.4052 93.9476 14.6352 93.9476 13.8052C93.9476 11.2052 91.0776 7.54516 84.7076 7.54516C84.3676 7.54516 84.0376 7.55516 83.7076 7.57516C83.4376 7.58516 83.1976 7.38516 83.1776 7.10516C83.1576 6.82516 83.3676 6.59516 83.6476 6.57516C83.9976 6.55516 84.3576 6.53516 84.7176 6.53516C91.1276 6.53516 94.9576 10.2252 94.9576 13.7952C94.9576 14.8552 94.6276 15.8352 93.9976 16.6252C93.8976 16.7452 93.7476 16.8152 93.6076 16.8152L93.5976 16.8252Z" fill="#273E53"/>
<path d="M91.4376 17.4652C91.3576 17.4652 91.2776 17.4452 91.2076 17.4052C90.9576 17.2752 90.8676 16.9752 90.9876 16.7352C91.3076 16.1152 91.4676 15.4452 91.4676 14.7452C91.4676 11.4752 87.9376 7.89522 84.7476 8.10522C84.4476 8.11522 84.2376 7.91521 84.2176 7.63521C84.1976 7.35521 84.4076 7.12522 84.6876 7.10522C84.7976 7.10522 84.9176 7.09521 85.0276 7.09521C88.6476 7.09521 92.4776 11.0252 92.4776 14.7452C92.4776 15.6152 92.2776 16.4352 91.8876 17.1952C91.7976 17.3652 91.6276 17.4652 91.4476 17.4652H91.4376Z" fill="#273E53"/>
<path d="M92.2577 20.7948C92.1077 20.7948 91.9577 20.7248 91.8577 20.5948C91.6877 20.3748 91.7377 20.0648 91.9577 19.8948C93.7177 18.5648 95.8677 18.2248 97.7677 17.9248C100.488 17.4948 101.908 17.1848 101.908 15.2448C101.908 13.1948 99.7077 12.7448 96.6077 12.3248C95.7077 12.2048 94.8577 12.0848 94.1477 11.8948C93.8777 11.8248 93.7277 11.5448 93.7977 11.2748C93.8677 11.0048 94.1477 10.8548 94.4177 10.9248C95.0577 11.1048 95.8777 11.2148 96.7377 11.3248C99.4877 11.6948 102.908 12.1548 102.908 15.2348C102.908 18.1248 100.378 18.5148 97.9177 18.9048C96.1377 19.1848 94.1077 19.5048 92.5577 20.6848C92.4677 20.7548 92.3577 20.7848 92.2577 20.7848V20.7948Z" fill="#273E53"/>
<path d="M104.088 13.7852C103.928 13.7852 103.768 13.7052 103.668 13.5652C102.798 12.2452 101.348 11.9852 99.1477 11.9852H97.6577C96.1777 11.9952 93.6277 11.8352 93.1777 10.7752C93.0677 10.5252 93.1777 10.2252 93.4377 10.1152C93.6877 10.0052 93.9877 10.1152 94.0977 10.3752C94.2577 10.6652 95.7577 10.9852 97.6577 10.9852H99.1477C101.088 10.9752 103.268 11.1352 104.498 13.0052C104.648 13.2352 104.588 13.5452 104.358 13.6952C104.278 13.7552 104.178 13.7752 104.078 13.7752L104.088 13.7852Z" fill="#273E53"/>
<path d="M92.3877 21.1849C92.2177 21.1849 92.0477 21.0949 91.9577 20.9349C91.8177 20.6949 91.9077 20.3949 92.1477 20.2549C93.6677 19.3849 95.3677 18.9949 97.6477 18.9949C98.6477 18.9949 99.6477 19.0649 100.628 19.1349C101.378 19.1849 102.118 19.2449 102.858 19.2649C103.728 19.2649 104.818 18.9649 105.318 18.1249C105.458 17.8849 105.768 17.8149 106.008 17.9549C106.248 18.0949 106.318 18.4049 106.178 18.6449C105.458 19.8449 104.038 20.2749 102.948 20.2749H102.828C102.078 20.2549 101.318 20.1949 100.558 20.1449C99.5977 20.0749 98.6077 20.0049 97.6477 20.0049C95.5477 20.0049 94.0077 20.3549 92.6477 21.1349C92.5677 21.1749 92.4877 21.2049 92.3977 21.2049L92.3877 21.1849Z" fill="#273E53"/>
<path d="M35.7576 38.1651C35.7576 38.1651 35.6676 38.1651 35.6276 38.1451C34.9776 37.9651 34.2776 37.8851 33.4276 37.8851C32.8276 37.8851 32.2276 37.9251 31.6376 37.9651C31.0176 38.0051 30.3976 38.0451 29.7776 38.0451C24.1376 38.0451 20.7676 33.0151 20.7676 28.1451C20.7676 23.5451 24.2976 19.2451 28.7976 18.3451C29.0676 18.2951 29.3276 18.4651 29.3876 18.7351C29.4376 19.0051 29.2676 19.2651 28.9976 19.3251C24.9476 20.1351 21.7776 24.0151 21.7776 28.1451C21.7776 32.5151 24.7776 37.0451 29.7876 37.0451C30.3876 37.0451 30.9876 37.0051 31.5776 36.9651C32.1976 36.9251 32.8176 36.8851 33.4376 36.8851C34.3876 36.8851 35.1676 36.9751 35.9076 37.1751C36.1776 37.2451 36.3276 37.5251 36.2576 37.7851C36.1976 38.0051 35.9976 38.1551 35.7776 38.1551L35.7576 38.1651Z" fill="#273E53"/>
<path d="M35.6177 37.9049C35.4977 37.9049 35.3777 37.8649 35.2877 37.7749C34.7377 37.2849 34.0877 36.9749 33.6177 36.9749H33.3277C28.8177 36.9749 23.9377 34.0449 23.9377 29.3049C23.9377 26.7549 25.4577 25.2949 28.0977 25.2949C29.5177 25.2949 31.6277 25.8649 31.6277 27.4149C31.6277 27.5649 31.6077 27.7149 31.5677 27.8749C31.4977 28.1449 31.2277 28.3149 30.9677 28.2449C30.6977 28.1749 30.5377 27.9049 30.5977 27.6449C30.6177 27.5649 30.6277 27.4849 30.6277 27.4249C30.6277 26.6349 28.9777 26.3049 28.0977 26.3049C25.9977 26.3049 24.9377 27.3149 24.9377 29.3149C24.9377 33.4349 29.2877 35.9949 33.3277 35.9949H33.5677C34.3377 35.9949 35.2077 36.3849 35.9477 37.0449C36.1577 37.2249 36.1777 37.5449 35.9877 37.7549C35.8877 37.8649 35.7477 37.9249 35.6177 37.9249V37.9049Z" fill="#273E53"/>
<path d="M47.7776 41.2452C47.5476 41.2452 47.3376 41.1252 46.3476 40.5752C44.5476 39.5552 40.8076 37.4452 38.2776 37.4452C37.3976 37.4452 36.5776 37.6252 35.8476 37.9952C35.6076 38.1152 35.2976 38.0152 35.1776 37.7752C35.0576 37.5252 35.1576 37.2252 35.3976 37.1052C36.2676 36.6752 37.2376 36.4452 38.2676 36.4452C41.0576 36.4452 44.8176 38.5652 46.8376 39.7052C47.2876 39.9552 47.7576 40.2252 47.8676 40.2652C48.1376 40.2552 48.3276 40.1652 48.3276 39.9852C48.3276 39.4952 47.1376 38.1852 44.5176 36.4852C44.2876 36.3352 44.2176 36.0252 44.3676 35.7952C44.5176 35.5652 44.8276 35.5052 45.0576 35.6452C46.9976 36.9152 49.3176 38.6952 49.3176 39.9852C49.3176 40.7552 48.7076 41.2552 47.7676 41.2552L47.7776 41.2452Z" fill="#273E53"/>
<path d="M39.2877 32.4351C39.0977 32.4351 39.0277 32.3951 37.9777 31.7451C36.2677 30.6851 32.7177 28.4751 31.1277 28.2551C30.8577 28.2151 30.6577 27.9651 30.6977 27.6951C30.7377 27.4251 30.9877 27.2251 31.2577 27.2651C33.0577 27.5151 36.5977 29.7151 38.4977 30.8951C38.7777 31.0651 39.0677 31.2451 39.2577 31.3651C39.2577 31.3651 39.2577 31.3551 39.2577 31.3451C39.2577 31.2051 39.1677 30.9951 39.0877 30.8051C38.9877 30.5651 38.8877 30.3251 38.8877 30.0751C38.8877 29.9551 38.9277 29.8351 39.0077 29.7451C39.0377 29.7151 41.5677 26.7851 42.7377 23.1851C42.8177 22.9251 43.1077 22.7751 43.3677 22.8651C43.6277 22.9551 43.7777 23.2351 43.6877 23.4951C42.6177 26.7951 40.5277 29.4751 39.9177 30.2051C39.9477 30.2751 39.9777 30.3551 39.9977 30.4151C40.1077 30.6751 40.2477 31.0051 40.2477 31.3451C40.2477 31.8751 39.8777 32.4351 39.2677 32.4351H39.2877Z" fill="#273E53"/>
</g>
</g>
<defs>
<clipPath id="clip0_430_187">
<rect width="182.19" height="66.61" fill="white" transform="translate(0.747559 0.785156)"/>
</clipPath>
<clipPath id="clip1_430_187">
<rect width="182.19" height="66.61" fill="white" transform="translate(0.747559 0.785156)"/>
</clipPath>
</defs>
</svg>
