<svg width="175" height="116" viewBox="0 0 175 116" fill="none" xmlns="http://www.w3.org/2000/svg">
<g clip-path="url(#clip0_433_205)">
<path d="M24.1669 35.5139C28.7141 37.281 30.9877 40.8152 30.9877 46.1164C30.9877 49.8076 29.9489 52.6938 27.8713 54.775C25.7937 56.817 22.9321 57.838 19.2865 57.838H3.88086V16.6063H17.6401C21.0113 16.6063 23.5201 17.4505 25.1665 19.1391C26.8521 20.8276 27.6949 23.3015 27.6949 26.5608C27.6949 30.7625 26.5189 33.7469 24.1669 35.5139ZM11.0545 32.9222H16.3465C17.7969 32.9222 18.8749 32.5295 19.5805 31.7442C20.2861 30.9588 20.6389 29.7415 20.6389 28.0922C20.6389 26.3644 20.2861 25.1275 19.5805 24.3814C18.8749 23.596 17.7969 23.2033 16.3465 23.2033H11.0545V32.9222ZM17.9929 51.2409C19.7961 51.2409 21.1681 50.8089 22.1089 49.945C23.0889 49.0419 23.5789 47.53 23.5789 45.4095C23.5789 43.2105 23.0693 41.6594 22.0501 40.7563C21.0701 39.8531 19.7177 39.4015 17.9929 39.4015H11.0545V51.2409H17.9929ZM41.6585 58.427C39.4633 58.427 37.6013 57.7202 36.0725 56.3065C34.5829 54.8536 33.8381 52.8313 33.8381 50.2396C33.8381 47.53 34.6417 45.3703 36.2489 43.7603C37.8953 42.111 39.7769 40.933 41.8937 40.2261C44.0497 39.5193 46.0097 39.1266 47.7737 39.0481C47.7737 37.3203 47.4601 36.0833 46.8329 35.3372C46.2057 34.5911 45.1277 34.2181 43.5989 34.2181C42.4229 34.2181 41.2861 34.4144 40.1885 34.8071C39.0909 35.1605 37.8561 35.7103 36.4841 36.4564L36.0137 30.5072C39.1497 28.7794 42.3053 27.9155 45.4805 27.9155C48.4205 27.9155 50.7137 28.7991 52.3601 30.5661C54.0457 32.2939 54.8885 35.0427 54.8885 38.8125V47.7067C54.8885 49.1597 54.9473 50.2199 55.0649 50.8875C55.1825 51.555 55.3589 51.987 55.5941 52.1833C55.8685 52.3404 56.2801 52.4189 56.8289 52.4189H57.7697L57.2993 58.427H54.1829C53.0853 58.427 52.0269 58.1128 51.0077 57.4846C50.0277 56.8563 49.3025 56.0316 48.8321 55.0107C47.7737 56.1494 46.6957 57.0133 45.5981 57.6024C44.5005 58.1521 43.1873 58.427 41.6585 58.427ZM44.0693 52.8313C45.4021 52.8313 46.6565 52.1244 47.8325 50.7108V43.9959C45.9509 44.2315 44.3829 44.8009 43.1285 45.7041C41.8741 46.568 41.2469 47.8442 41.2469 49.5327C41.2469 50.6715 41.5017 51.5158 42.0113 52.0655C42.5209 52.576 43.2069 52.8313 44.0693 52.8313ZM60.6422 28.3867H66.8162L67.2866 31.5086C68.3842 30.2913 69.4034 29.3881 70.3442 28.7991C71.3242 28.21 72.461 27.9155 73.7546 27.9155C74.3034 27.9155 74.813 27.9744 75.2834 28.0922L74.7542 35.2194C74.1662 35.0231 73.539 34.9249 72.8726 34.9249C71.9318 34.9249 71.089 35.1409 70.3442 35.5728C69.5994 36.0048 68.7174 36.7313 67.6982 37.7522V57.838H60.6422V28.3867ZM91.6362 27.9155C94.0274 27.9155 96.0658 28.6027 97.7514 29.9771C99.4762 31.3515 100.77 33.1971 101.632 35.5139C102.534 37.8308 102.985 40.3832 102.985 43.1713C102.985 45.9593 102.534 48.5117 101.632 50.8286C100.77 53.1454 99.4762 54.991 97.7514 56.3654C96.0658 57.7398 94.0274 58.427 91.6362 58.427C88.9314 58.427 86.5794 57.5434 84.5802 55.7764L84.4038 57.838H77.8182V13.6611H84.8742V30.4483C86.8342 28.7598 89.0882 27.9155 91.6362 27.9155ZM90.2838 52.6546C92.0086 52.6546 93.361 51.7906 94.341 50.0628C95.321 48.335 95.811 46.0378 95.811 43.1713C95.811 40.3047 95.321 38.0075 94.341 36.2797C93.361 34.5519 92.0086 33.688 90.2838 33.688C88.363 33.688 86.9126 34.5519 85.9326 36.2797C84.9918 37.9682 84.5214 40.2654 84.5214 43.1713C84.5214 46.0771 84.9918 48.3939 85.9326 50.1217C86.9126 51.8103 88.363 52.6546 90.2838 52.6546ZM112.402 58.427C110.207 58.427 108.345 57.7202 106.816 56.3065C105.327 54.8536 104.582 52.8313 104.582 50.2396C104.582 47.53 105.385 45.3703 106.993 43.7603C108.639 42.111 110.521 40.933 112.637 40.2261C114.793 39.5193 116.753 39.1266 118.517 39.0481C118.517 37.3203 118.204 36.0833 117.577 35.3372C116.949 34.5911 115.871 34.2181 114.343 34.2181C113.167 34.2181 112.03 34.4144 110.932 34.8071C109.835 35.1605 108.6 35.7103 107.228 36.4564L106.757 30.5072C109.893 28.7794 113.049 27.9155 116.224 27.9155C119.164 27.9155 121.457 28.7991 123.104 30.5661C124.789 32.2939 125.632 35.0427 125.632 38.8125V47.7067C125.632 49.1597 125.691 50.2199 125.809 50.8875C125.926 51.555 126.103 51.987 126.338 52.1833C126.612 52.3404 127.024 52.4189 127.573 52.4189H128.513L128.043 58.427H124.927C123.829 58.427 122.771 58.1128 121.751 57.4846C120.771 56.8563 120.046 56.0316 119.576 55.0107C118.517 56.1494 117.439 57.0133 116.342 57.6024C115.244 58.1521 113.931 58.427 112.402 58.427ZM114.813 52.8313C116.146 52.8313 117.4 52.1244 118.576 50.7108V43.9959C116.695 44.2315 115.127 44.8009 113.872 45.7041C112.618 46.568 111.991 47.8442 111.991 49.5327C111.991 50.6715 112.245 51.5158 112.755 52.0655C113.265 52.576 113.951 52.8313 114.813 52.8313ZM131.386 28.3867H137.56L138.03 31.5086C139.128 30.2913 140.147 29.3881 141.088 28.7991C142.068 28.21 143.205 27.9155 144.498 27.9155C145.047 27.9155 145.557 27.9744 146.027 28.0922L145.498 35.2194C144.91 35.0231 144.283 34.9249 143.616 34.9249C142.675 34.9249 141.833 35.1409 141.088 35.5728C140.343 36.0048 139.461 36.7313 138.442 37.7522V57.838H131.386V28.3867ZM153.861 58.427C151.666 58.427 149.804 57.7202 148.275 56.3065C146.786 54.8536 146.041 52.8313 146.041 50.2396C146.041 47.53 146.845 45.3703 148.452 43.7603C150.098 42.111 151.98 40.933 154.097 40.2261C156.253 39.5193 158.213 39.1266 159.977 39.0481C159.977 37.3203 159.663 36.0833 159.036 35.3372C158.409 34.5911 157.331 34.2181 155.802 34.2181C154.626 34.2181 153.489 34.4144 152.391 34.8071C151.294 35.1605 150.059 35.7103 148.687 36.4564L148.217 30.5072C151.353 28.7794 154.508 27.9155 157.683 27.9155C160.623 27.9155 162.917 28.7991 164.563 30.5661C166.249 32.2939 167.091 35.0427 167.091 38.8125V47.7067C167.091 49.1597 167.15 50.2199 167.268 50.8875C167.385 51.555 167.562 51.987 167.797 52.1833C168.071 52.3404 168.483 52.4189 169.032 52.4189H169.973L169.502 58.427H166.386C165.288 58.427 164.23 58.1128 163.211 57.4846C162.231 56.8563 161.505 56.0316 161.035 55.0107C159.977 56.1494 158.899 57.0133 157.801 57.6024C156.703 58.1521 155.39 58.427 153.861 58.427ZM156.272 52.8313C157.605 52.8313 158.859 52.1244 160.035 50.7108V43.9959C158.154 44.2315 156.586 44.8009 155.331 45.7041C154.077 46.568 153.45 47.8442 153.45 49.5327C153.45 50.6715 153.705 51.5158 154.214 52.0655C154.724 52.576 155.41 52.8313 156.272 52.8313Z" fill="white"/>
<path d="M39.2224 101.314L44.7496 60.082H49.5124L60.3316 80.5212L71.0332 60.082H75.8548L81.3232 101.314H75.4432L71.2684 67.6804L72.7384 67.9161L60.3904 91.5359L47.8072 67.9161L49.2772 67.6804L45.1024 101.314H39.2224ZM94.0631 101.903C92.2795 101.903 90.7213 101.54 89.3885 100.813C88.0557 100.087 87.0169 99.0951 86.2721 97.8385C85.5469 96.5819 85.1843 95.1486 85.1843 93.5386C85.1843 91.909 85.5371 90.515 86.2427 89.3565C86.9679 88.1785 87.9283 87.2066 89.1239 86.4409C90.3391 85.6555 91.6915 85.037 93.1811 84.5854C94.6707 84.1142 96.2093 83.7805 97.7969 83.5841C99.4041 83.3681 100.943 83.2503 102.413 83.2307C102.413 80.4819 101.874 78.6854 100.796 77.8411C99.7177 76.9969 98.1595 76.5747 96.1211 76.5747C95.0431 76.5747 93.8867 76.7416 92.6519 77.0754C91.4367 77.4092 90.0647 78.1062 88.5359 79.1664L87.7715 74.8665C88.9279 73.983 90.3685 73.2664 92.0933 72.7166C93.8181 72.1472 95.6311 71.8625 97.5323 71.8625C99.9627 71.8625 101.923 72.2945 103.412 73.1584C104.902 74.0026 105.99 75.4359 106.676 77.4583C107.362 79.4806 107.705 82.2293 107.705 85.7046V91.5948C107.705 92.9692 107.763 94.108 107.881 95.0112C108.018 95.8947 108.312 96.5623 108.763 97.0139C109.233 97.4458 109.978 97.6618 110.997 97.6618H111.527L110.703 101.903H110.292C108.587 101.903 107.264 101.736 106.323 101.402C105.402 101.068 104.696 100.587 104.206 99.959C103.716 99.3307 103.275 98.565 102.883 97.6618C101.805 98.9184 100.531 99.9394 99.0611 100.725C97.5911 101.51 95.9251 101.903 94.0631 101.903ZM95.0627 97.6618C96.4739 97.6618 97.8361 97.3084 99.1493 96.6015C100.482 95.8947 101.57 94.9523 102.413 93.7742V86.8826C99.6099 86.9808 97.3363 87.2557 95.5919 87.7073C93.8671 88.1589 92.6029 88.8362 91.7993 89.7394C90.9957 90.6426 90.5939 91.8108 90.5939 93.2441C90.5939 94.7952 91.0055 95.9242 91.8287 96.631C92.6715 97.3182 93.7495 97.6618 95.0627 97.6618ZM125.96 101.903C123.706 101.903 121.785 101.451 120.198 100.548C118.61 99.6252 117.395 98.2312 116.552 96.3659C115.729 94.5007 115.317 92.125 115.317 89.2387V72.4515H120.609V87.7662C120.609 90.8291 121.129 93.1656 122.168 94.7756C123.226 96.3856 124.941 97.1906 127.313 97.1906C128.939 97.1906 130.449 96.7979 131.84 96.0125C133.232 95.2272 134.192 93.9706 134.721 92.2428L133.957 95.129V72.4515H139.249V101.314H134.545L133.487 95.6591L134.898 96.6015C133.937 98.3883 132.761 99.7234 131.37 100.607C129.998 101.471 128.195 101.903 125.96 101.903ZM144.154 101.314L161.97 74.4542L162.617 77.1048H145.095V72.4515H169.085L151.269 99.3111L150.622 96.6604H168.791V101.314H144.154Z" fill="white"/>
<path d="M85.3999 64.8496H172.2" stroke="white" stroke-width="4" stroke-linecap="round"/>
<path d="M2.80005 64.8496H35" stroke="white" stroke-width="4" stroke-linecap="round"/>
</g>
<defs>
<clipPath id="clip0_433_205">
<rect width="175" height="115" fill="white" transform="translate(0 0.337891)"/>
</clipPath>
</defs>
</svg>
