<svg width="53" height="116" viewBox="0 0 53 116" fill="none" xmlns="http://www.w3.org/2000/svg">
<g clip-path="url(#clip0_430_190)">
<g clip-path="url(#clip1_430_190)">
<path d="M23.9277 21.7402C10.7277 21.7402 0.857666 16.3602 0.857666 11.5402C0.857666 8.35023 4.13767 4.42023 7.59767 3.47023C14.0877 1.68023 20.6877 0.740234 26.6977 0.740234C39.4277 0.740234 51.9277 5.92023 51.9277 11.2002C51.9277 21.7402 31.5877 21.7402 23.9377 21.7402H23.9277ZM8.12767 5.40023C5.51767 6.12023 2.85767 9.22023 2.85767 11.5502C2.85767 14.8502 11.7077 19.7502 23.9277 19.7502C30.3577 19.7502 49.9177 19.7502 49.9177 11.2102C49.9177 7.87023 39.5077 2.75023 26.6877 2.75023C20.8577 2.75023 14.4377 3.67023 8.11767 5.41023L8.12767 5.40023Z" fill="#273E53"/>
<path d="M27.3676 55.4203C10.2776 55.4203 1.53764 41.0603 0.657638 11.5203C0.637638 10.9703 1.07764 10.5103 1.62764 10.4903C2.15764 10.4703 2.63764 10.9103 2.65764 11.4603C3.49764 39.6903 11.5876 53.4103 27.3676 53.4103C32.9176 53.4103 37.9076 51.3403 41.7976 47.4203C47.4076 41.7803 50.4776 32.6503 50.4176 21.7203C50.4176 20.1403 50.4076 18.5703 50.4076 17.0303C50.4076 16.2103 50.2876 15.1403 50.1676 14.1003C50.0176 12.8003 49.8676 11.4503 49.9276 10.4003C49.9576 9.85028 50.4276 9.41028 50.9776 9.45028C51.5276 9.48028 51.9576 9.95028 51.9276 10.5003C51.8776 11.3903 52.0276 12.6503 52.1576 13.8803C52.2776 14.9703 52.4076 16.1103 52.4076 17.0403C52.4076 18.5803 52.4076 20.1503 52.4176 21.7203C52.4776 33.1803 49.2076 42.8103 43.2176 48.8403C38.9376 53.1403 33.4576 55.4103 27.3676 55.4103V55.4203Z" fill="#273E53"/>
<path d="M19.5478 105.19C19.4478 105.19 19.3378 105.17 19.2378 105.14C18.7178 104.97 18.4278 104.4 18.5978 103.88C21.3778 95.4402 22.7378 86.2302 22.7378 75.7502C22.7378 60.6002 21.0478 55.9202 19.6378 54.6602C19.2278 54.2902 19.1878 53.6602 19.5578 53.2502C19.9278 52.8402 20.5578 52.8002 20.9678 53.1702C23.5478 55.4602 24.7478 62.6402 24.7478 75.7502C24.7478 86.4502 23.3578 95.8503 20.5078 104.5C20.3678 104.92 19.9778 105.19 19.5578 105.19H19.5478Z" fill="#273E53"/>
<path d="M31.7176 104.23C31.2476 104.23 30.8276 103.89 30.7376 103.41C29.2576 95.4204 28.5076 87.6204 28.5076 80.2204C28.5076 70.7604 29.7176 62.3604 32.3076 53.7804C32.4676 53.2504 33.0276 52.9504 33.5576 53.1104C34.0876 53.2704 34.3876 53.8304 34.2276 54.3604C31.6976 62.7504 30.5176 70.9604 30.5176 80.2204C30.5176 87.4904 31.2576 95.1704 32.7176 103.04C32.8176 103.58 32.4576 104.11 31.9176 104.21C31.8576 104.22 31.7976 104.23 31.7376 104.23H31.7176Z" fill="#273E53"/>
<path d="M26.3776 112.33C22.1876 112.33 5.27759 110.84 5.27759 103.97C5.27759 98.9903 13.6276 97.2603 18.6076 96.2303C19.5576 96.0303 20.3876 95.8603 20.8476 95.7203C21.3776 95.5603 21.9376 95.8603 22.0976 96.3903C22.2576 96.9203 21.9576 97.4803 21.4276 97.6403C20.8776 97.8003 20.0576 97.9703 19.0176 98.1903C15.2076 98.9803 7.27759 100.61 7.27759 103.97C7.27759 107.79 18.7776 110.33 26.3776 110.33C31.8076 110.33 43.1176 110.33 43.1176 104.2C43.1176 102.16 40.9076 99.3703 30.4076 97.6803C29.8576 97.5903 29.4876 97.0803 29.5776 96.5303C29.6676 95.9803 30.1776 95.6103 30.7276 95.7003C40.4176 97.2603 45.1176 100.04 45.1176 104.2C45.1176 112.33 32.4576 112.33 26.3776 112.33Z" fill="#273E53"/>
<path d="M28.7876 115.44C28.5376 115.44 4.27759 115.18 4.27759 106.03C4.27759 105 4.55759 104.01 5.11759 103.08C5.39759 102.61 6.01759 102.45 6.48759 102.74C6.95759 103.02 7.11759 103.64 6.82759 104.11C6.45759 104.72 6.27759 105.37 6.27759 106.03C6.27759 111.68 22.7776 113.44 28.7876 113.44C38.6976 113.44 45.9476 108.64 45.9476 106.15C45.9476 104.39 43.8076 102.28 41.7076 101.11C41.2276 100.84 41.0476 100.23 41.3176 99.7503C41.5876 99.2703 42.1976 99.0903 42.6776 99.3603C45.2976 100.82 47.9476 103.48 47.9476 106.15C47.9476 110.84 38.4576 115.44 28.7876 115.44Z" fill="#273E53"/>
<path d="M24.8379 19.3802C24.8379 19.3802 24.8179 19.3802 24.8079 19.3802C16.5279 18.9702 3.33789 14.8402 3.33789 10.7402C3.33789 10.2002 3.51789 9.67019 3.87789 9.17019C4.03789 8.94019 4.34789 8.89019 4.57789 9.05019C4.80789 9.21019 4.85789 9.52019 4.69789 9.75019C4.45789 10.0902 4.33789 10.4202 4.33789 10.7502C4.33789 13.6602 15.8479 17.9402 24.8579 18.4002C25.1379 18.4102 25.3479 18.6502 25.3279 18.9202C25.3179 19.1902 25.0979 19.3902 24.8279 19.3902L24.8379 19.3802Z" fill="#273E53"/>
<path d="M31.7378 18.8802C31.4578 18.8802 31.2378 18.6602 31.2378 18.3802C31.2378 18.1002 31.4578 17.8802 31.7378 17.8802C34.2478 17.8802 46.7578 17.5602 46.7578 11.1602C46.7578 5.82016 36.4178 5.41016 33.2578 5.41016C32.9778 5.41016 32.7578 5.19016 32.7578 4.91016C32.7578 4.63016 32.9778 4.41016 33.2578 4.41016C37.6178 4.41016 47.7578 5.07016 47.7578 11.1602C47.7578 18.3302 35.4978 18.8802 31.7378 18.8802Z" fill="#273E53"/>
<path d="M9.33779 6.75039C9.13779 6.75039 8.93779 6.62039 8.86779 6.42039C8.77779 6.16039 8.90779 5.87039 9.16779 5.78039C12.7378 4.48039 16.5278 4.09039 21.1078 3.90039C21.3978 3.90039 21.6178 4.10039 21.6278 4.38039C21.6378 4.66039 21.4278 4.89039 21.1478 4.90039C16.6578 5.09039 12.9578 5.47039 9.50779 6.72039C9.44779 6.74039 9.39779 6.75039 9.33779 6.75039Z" fill="#273E53"/>
<path d="M16.2879 45.7302C16.1179 45.7302 15.9479 45.6702 15.7979 45.5702C7.92786 40.1302 6.94786 30.1902 6.08786 21.4102C6.00786 20.6402 5.93786 19.8802 5.85786 19.1202C5.63786 18.9602 5.57786 18.6502 5.73786 18.4202C5.85786 18.2602 6.04786 18.1802 6.22786 18.2202C6.23786 18.2202 6.24786 18.2202 6.25786 18.2202C6.47786 18.1902 6.66786 18.3102 6.75786 18.5002C7.15786 18.6902 7.65786 18.8102 8.13786 18.9202C9.10786 19.1502 10.1079 19.3902 10.3279 20.2802C14.4879 37.2702 17.2679 43.4502 17.2979 43.5102C17.3279 43.5802 17.3479 43.6502 17.3479 43.7202C17.3479 44.9802 16.9479 45.7402 16.2879 45.7402V45.7302ZM6.90786 19.6202C6.96786 20.1802 7.01786 20.7402 7.07786 21.3102C7.91786 29.8102 8.86786 39.4402 16.2179 44.6402C16.2779 44.4902 16.3379 44.2102 16.3479 43.8202C15.9579 42.9302 13.3079 36.6202 9.36786 20.5202C9.29786 20.2302 8.56786 20.0502 7.91786 19.9002C7.59786 19.8202 7.24786 19.7402 6.91786 19.6302L6.90786 19.6202Z" fill="#273E53"/>
<path d="M3.2778 27.8005C3.0578 27.8005 2.8578 27.6605 2.7978 27.4405C2.7178 27.1705 2.8778 26.9005 3.1378 26.8205C3.5278 26.7105 3.9178 26.4705 4.3278 26.2105C5.0478 25.7605 5.8778 25.2505 6.8778 25.3805C7.1478 25.4205 7.3478 25.6705 7.3078 25.9405C7.2778 26.2105 7.0278 26.4205 6.7478 26.3705C6.0878 26.2905 5.4978 26.6605 4.8578 27.0605C4.4078 27.3405 3.9378 27.6305 3.4078 27.7805C3.3578 27.7905 3.3178 27.8005 3.2678 27.8005H3.2778Z" fill="#273E53"/>
<path d="M33.1778 30.4205C25.0378 30.4205 15.6978 26.7805 13.0278 25.6605L12.9778 25.6405C12.5978 25.6505 12.0978 25.7305 11.6378 26.0405C11.4078 26.1905 11.0978 26.1305 10.9478 25.9005C10.7978 25.6705 10.8578 25.3605 11.0878 25.2105C11.6378 24.8405 12.3278 24.6405 13.0778 24.6405C13.1778 24.6405 13.2178 24.6605 13.4178 24.7405C16.0478 25.8405 25.2278 29.4205 33.1778 29.4205C40.1678 29.4205 46.0878 27.2805 50.7778 23.0605C50.9878 22.8705 51.2978 22.8905 51.4878 23.1005C51.6678 23.3105 51.6578 23.6205 51.4478 23.8105C46.5678 28.2005 40.4178 30.4305 33.1778 30.4305V30.4205Z" fill="#273E53"/>
<path d="M34.2677 33.3206C30.4877 33.3206 22.2977 30.7106 19.5977 29.8506C19.2277 29.7306 18.9777 29.6506 18.8677 29.6206C18.5877 29.6206 18.2277 29.7006 17.9177 29.8006C17.6577 29.8906 17.3677 29.7506 17.2877 29.4806C17.1977 29.2206 17.3377 28.9406 17.6077 28.8506C18.0377 28.7106 18.5377 28.6206 18.9277 28.6206C18.9944 28.6206 19.321 28.7139 19.9077 28.9006C22.5677 29.7506 30.6477 32.3206 34.2677 32.3206C35.5277 32.3206 36.6977 32.1706 37.8477 31.8706C38.1177 31.8006 38.3877 31.9606 38.4577 32.2306C38.5277 32.5006 38.3677 32.7706 38.0977 32.8406C36.8677 33.1706 35.6077 33.3206 34.2677 33.3206Z" fill="#273E53"/>
<path d="M45.8879 29.4903C45.6579 29.4903 45.4479 29.3303 45.3979 29.0903C45.3479 28.8203 45.5179 28.5603 45.7879 28.5003C47.4279 28.1703 48.8479 27.4403 50.2679 26.6503C50.5079 26.5203 50.8179 26.6003 50.9479 26.8403C51.0779 27.0803 50.9979 27.3903 50.7579 27.5203C49.2679 28.3503 47.7779 29.1203 45.9879 29.4803C45.9579 29.4803 45.9179 29.4803 45.8879 29.4803V29.4903Z" fill="#273E53"/>
<path d="M37.9779 48.1806C37.8179 48.1806 37.6579 48.1006 37.5679 47.9606C37.4179 47.7306 37.4779 47.4206 37.6979 47.2706C43.6279 43.2606 46.4479 35.6006 47.7679 29.8906C47.8279 29.6206 48.0979 29.4506 48.3679 29.5106C48.6379 29.5706 48.8079 29.8406 48.7479 30.1106C47.3879 36.0006 44.4679 43.9006 38.2679 48.1006C38.1779 48.1606 38.0879 48.1906 37.9879 48.1906L37.9779 48.1806Z" fill="#273E53"/>
<path d="M38.9878 43.3004C38.8578 43.3004 38.7278 43.2504 38.6378 43.1504C38.4378 42.9504 38.4378 42.6404 38.6378 42.4404C41.3678 39.7104 43.0178 36.0204 44.5878 32.1604C44.6878 31.9004 44.9878 31.7804 45.2378 31.8904C45.4978 31.9904 45.6178 32.2904 45.5078 32.5404C43.8878 36.4904 42.1978 40.2804 39.3378 43.1504C39.2378 43.2504 39.1078 43.3004 38.9878 43.3004Z" fill="#273E53"/>
<path d="M46.8979 25.1105C46.8979 25.1105 46.8579 25.1105 46.8379 25.1105C46.5679 25.0805 46.3679 24.8305 46.4079 24.5505C46.5079 23.7505 46.5979 22.9605 46.5979 22.1705C46.5979 21.5405 46.5379 21.0005 46.4179 20.5205C46.3479 20.2505 46.5179 19.9805 46.7779 19.9105C47.0479 19.8505 47.3179 20.0105 47.3879 20.2705C47.5279 20.8405 47.5979 21.4505 47.5979 22.1605C47.5979 23.0005 47.4979 23.8605 47.3979 24.6605C47.3679 24.9105 47.1479 25.1005 46.8979 25.1005V25.1105Z" fill="#273E53"/>
<path d="M45.5577 26.1205C45.5577 26.1205 45.4677 26.1205 45.4277 26.1005C45.1577 26.0305 45.0077 25.7505 45.0777 25.4905C45.1877 25.0705 45.2477 24.6305 45.2477 24.1405C45.2477 23.5305 45.1677 22.9305 45.0777 22.2905C44.9877 21.6305 44.8877 20.9505 44.8877 20.2305C44.8877 19.9505 45.1077 19.7305 45.3877 19.7305C45.6677 19.7305 45.8877 19.9505 45.8877 20.2305C45.8877 20.8805 45.9777 21.5205 46.0677 22.1505C46.1577 22.7905 46.2477 23.4605 46.2477 24.1305C46.2477 24.7105 46.1777 25.2405 46.0377 25.7505C45.9777 25.9705 45.7777 26.1205 45.5577 26.1205Z" fill="#273E53"/>
<path d="M28.0379 51.5002C24.5279 51.5002 20.7879 50.4102 17.5079 48.4502C17.2679 48.3102 17.1979 48.0002 17.3379 47.7602C17.4779 47.5202 17.7879 47.4402 18.0279 47.5902C21.1579 49.4702 24.7179 50.5002 28.0479 50.5002C30.5179 50.5002 32.7479 49.9302 34.6679 48.8202C34.9079 48.6802 35.2179 48.7602 35.3479 49.0002C35.4879 49.2402 35.4079 49.5502 35.1679 49.6802C33.0879 50.8802 30.6979 51.5002 28.0379 51.5002Z" fill="#273E53"/>
<path d="M15.5779 46.8302C15.5779 46.8302 15.5579 46.8302 15.5479 46.8302C12.5279 46.6502 9.96787 44.8502 8.87787 42.1402C8.77787 41.8802 8.89787 41.5902 9.15787 41.4902C9.40787 41.3902 9.70787 41.5102 9.80787 41.7702C10.7479 44.1202 12.9679 45.6802 15.6079 45.8402C15.8879 45.8602 16.0979 46.0902 16.0779 46.3702C16.0579 46.6402 15.8379 46.8402 15.5779 46.8402V46.8302Z" fill="#273E53"/>
<path d="M28.6878 48.9403C26.6278 48.9403 24.4278 48.5503 22.3078 47.8203C22.0478 47.7303 21.9078 47.4403 21.9978 47.1803C22.0878 46.9203 22.3778 46.7803 22.6378 46.8703C24.6478 47.5703 26.7378 47.9403 28.6878 47.9403C30.8978 47.9403 32.8678 47.4803 34.5278 46.5703C34.7678 46.4403 35.0778 46.5303 35.2078 46.7703C35.3378 47.0103 35.2478 47.3203 35.0078 47.4503C33.1878 48.4403 31.0678 48.9403 28.6878 48.9403Z" fill="#273E53"/>
<path d="M34.0978 43.3003C33.9278 43.3003 33.7578 43.2103 33.6678 43.0503C33.5278 42.8103 33.6078 42.5103 33.8478 42.3703C37.7878 40.0403 40.3978 36.3403 40.8478 32.4703C40.8778 32.2003 41.1378 32.0003 41.3978 32.0303C41.6678 32.0603 41.8678 32.3103 41.8378 32.5803C41.3578 36.7603 38.5578 40.7403 34.3578 43.2303C34.2778 43.2803 34.1878 43.3003 34.1078 43.3003H34.0978Z" fill="#273E53"/>
<path d="M27.8578 57.8106C25.9778 57.8106 24.0778 57.1506 22.6278 56.5706C22.3678 56.4706 22.2478 56.1806 22.3478 55.9206C22.4478 55.6606 22.7478 55.5406 22.9978 55.6406C24.3578 56.1806 26.1478 56.8106 27.8578 56.8106C28.7878 56.8106 29.6278 56.6306 30.4078 56.2706C30.6578 56.1506 30.9578 56.2706 31.0678 56.5106C31.1878 56.7606 31.0678 57.0606 30.8278 57.1706C29.9178 57.5906 28.9178 57.8106 27.8478 57.8106H27.8578Z" fill="#273E53"/>
<path d="M29.5479 103.43C29.3079 103.43 29.0979 103.26 29.0579 103.02C27.5579 94.4402 26.8379 86.7602 26.8379 79.5502C26.8379 72.3402 27.5879 65.5102 29.0779 59.2002C29.1379 58.9302 29.4079 58.7602 29.6779 58.8302C29.9479 58.8902 30.1179 59.1602 30.0479 59.4302C28.5779 65.6702 27.8379 72.4402 27.8379 79.5502C27.8379 86.6602 28.5579 94.3302 30.0479 102.85C30.0979 103.12 29.9179 103.38 29.6379 103.43C29.6079 103.43 29.5779 103.43 29.5479 103.43Z" fill="#273E53"/>
<path d="M25.7378 105.16C24.1678 105.16 22.7278 104.22 22.0078 103.66C21.7878 103.49 21.7478 103.18 21.9178 102.96C22.0878 102.74 22.3978 102.7 22.6178 102.87C23.6778 103.69 24.8078 104.16 25.7378 104.16C26.4378 104.16 27.0178 103.92 27.5178 103.42C27.7178 103.22 28.0278 103.22 28.2278 103.42C28.4278 103.62 28.4278 103.93 28.2278 104.13C27.5378 104.82 26.7078 105.17 25.7478 105.17L25.7378 105.16Z" fill="#273E53"/>
<path d="M24.5778 107.281C21.9178 107.281 18.2178 106.901 16.8078 103.601C16.7778 103.541 16.7578 103.411 16.7578 103.341C16.7578 102.801 17.3678 102.201 18.0978 102.441C18.3578 102.531 18.4978 102.811 18.4178 103.071C18.3378 103.321 18.0778 103.461 17.8178 103.401C18.7678 105.361 20.9278 106.281 24.5778 106.281C31.1278 106.281 34.2378 105.851 34.2378 103.401C34.2378 102.951 34.1178 102.401 33.5378 102.321C33.2678 102.281 33.0778 102.031 33.1178 101.751C33.1578 101.481 33.4078 101.291 33.6878 101.331C34.6478 101.471 35.2378 102.261 35.2378 103.401C35.2378 107.001 30.8178 107.281 24.5778 107.281Z" fill="#273E53"/>
<path d="M19.3979 107.06C15.7379 107.06 14.3679 105.11 14.3679 103.87C14.3679 102.75 15.2379 101.75 16.3379 101.59C16.6079 101.55 16.8679 101.74 16.9079 102.01C16.9479 102.28 16.7579 102.54 16.4879 102.58C15.7979 102.68 15.3779 103.33 15.3779 103.87C15.3779 104.58 16.3579 106.06 19.4079 106.06C20.0579 106.06 20.7279 106.01 21.2679 105.97C21.5479 105.93 21.7879 106.15 21.8079 106.43C21.8279 106.71 21.6279 106.95 21.3479 106.97C20.7879 107.01 20.0979 107.07 19.4079 107.07L19.3979 107.06Z" fill="#273E53"/>
<path d="M25.3377 109.65C25.0777 109.65 24.8577 109.45 24.8377 109.18C24.8177 108.9 25.0277 108.67 25.3077 108.65C25.9177 108.61 26.5777 108.59 27.4377 108.59C27.8777 108.59 28.3177 108.59 28.7577 108.59C29.1977 108.59 29.6477 108.59 30.0877 108.59C38.1677 108.59 39.8677 104.89 39.8677 104.17C39.8677 103.67 39.5277 103.1 39.0577 102.82C38.8177 102.68 38.7477 102.37 38.8877 102.13C39.0277 101.89 39.3377 101.81 39.5777 101.96C40.3477 102.42 40.8677 103.31 40.8677 104.17C40.8677 105.32 39.0377 109.59 30.0877 109.59C29.6377 109.59 29.1977 109.59 28.7477 109.59C28.3077 109.59 27.8677 109.59 27.4377 109.59C26.5977 109.59 25.9577 109.61 25.3777 109.64C25.3677 109.64 25.3577 109.64 25.3477 109.64L25.3377 109.65Z" fill="#273E53"/>
<path d="M13.3879 106.12C11.7179 106.12 9.8479 105.06 9.8479 103.54C9.8479 102.77 10.3179 102.06 11.0079 101.79C11.2579 101.69 11.5579 101.81 11.6579 102.07C11.7579 102.33 11.6379 102.62 11.3779 102.72C11.0579 102.85 10.8479 103.18 10.8479 103.54C10.8479 104.39 12.2379 105.12 13.3879 105.12C13.6679 105.12 13.8879 105.34 13.8879 105.62C13.8879 105.9 13.6679 106.12 13.3879 106.12Z" fill="#273E53"/>
</g>
</g>
<defs>
<clipPath id="clip0_430_190">
<rect width="51.76" height="114.7" fill="white" transform="translate(0.657715 0.740234)"/>
</clipPath>
<clipPath id="clip1_430_190">
<rect width="51.76" height="114.7" fill="white" transform="translate(0.657715 0.740234)"/>
</clipPath>
</defs>
</svg>
